<!-- by TradingView --><svg width="18" height="18" xmlns="http://www.w3.org/2000/svg"><path fill="#203765" d="M0 0h18v18H0z"/><path d="M14 12.94V8.97C14 6.225 11.761 4 9 4S4 6.225 4 8.97C4 11.714 6.239 14 9 14h2v-.707C11 12.756 10.409 12 9 12a3 3 0 113-3.03v2.605c0 .99.858 1.632 2 1.364z" fill="url(#paint0_linear)"/><path fill-rule="evenodd" d="M8.993 10.875a1.875 1.875 0 100-3.75 1.875 1.875 0 000 3.75zm0 .313a2.188 2.188 0 100-4.376 2.188 2.188 0 000 4.375z" fill="#fff"/><path fill-rule="evenodd" d="M9.37 10.424c.149-.349.249-.852.249-1.424s-.1-1.075-.25-1.424a1.173 1.173 0 00-.23-.37c-.073-.071-.122-.081-.145-.081-.024 0-.073.01-.146.082a1.173 1.173 0 00-.23.37c-.15.348-.25.85-.25 1.423 0 .572.1 1.075.25 1.424.075.175.156.296.23.37.073.071.122.081.146.081.023 0 .072-.01.145-.082.074-.073.155-.194.23-.37zm-.376.764c.517 0 .937-.98.937-2.188 0-1.208-.42-2.188-.937-2.188-.518 0-.938.98-.938 2.188 0 1.208.42 2.188.938 2.188z" fill="#fff"/><path d="M10.935 8.375H7.108v-.313h3.827v.313zm0 1.563H7.073v-.313h3.862v.313z" fill="#fff"/><defs><linearGradient id="paint0_linear" x1="4.315" y1="7.144" x2="13.982" y2="11.31" gradientUnits="userSpaceOnUse"><stop stop-color="#F15D2C"/><stop offset="1" stop-color="#F29328"/></linearGradient></defs></svg>