<!-- by TradingView --><svg xmlns="http://www.w3.org/2000/svg" width="18" height="18" viewBox="0 0 18 18"><path fill="url(#a003wcykq)" d="M0 0h18v18H0z"/><path fill="#fff" d="M3 9l6-6 6 6-6 6z"/><path d="M7.3 12.8L3.54 9l.47-.44 2.2 2.18c.4.32 1.18.26 1.48-.04L9 9.41l.6.6-1 1.02c-.1.08-.15.27-.04.4.09.08.3.08.38 0l1.06-1 .31.32c.3.33.15.61 0 .76L8.8 12.96c-.58.47-1.25.07-1.5-.17zm3.39-7.58L14.44 9l-.46.44-2.2-2.18c-.42-.32-1.18-.26-1.48.04L8.97 8.6l-.6-.6 1-1.02c.1-.09.16-.27.04-.4-.09-.08-.3-.08-.38 0l-1.05 1-.32-.32c-.29-.33-.15-.62 0-.76l1.53-1.45c.57-.47 1.24-.07 1.5.17z" fill="#FD0810"/><path d="M5.22 7.28L9 3.52l.44.47-2.17 2.2c-.33.41-.26 1.18.03 1.48l1.3 1.32-.59.6-1.03-1c-.08-.09-.27-.15-.39-.04-.09.1-.09.3 0 .39l1 1.05-.32.32c-.34.28-.62.14-.77 0L5.05 8.78c-.47-.58-.07-1.25.17-1.5zm7.55 3.47L9 14.51l-.44-.47 2.18-2.2c.32-.4.26-1.18-.04-1.48L9.4 9.04l.6-.6 1.02 1c.09.1.27.15.4.04.08-.09.08-.3 0-.38l-1-1.06.32-.31c.33-.3.62-.15.76 0l1.45 1.52c.47.58.07 1.25-.17 1.5z" fill="#000EFF"/><defs><linearGradient id="a003wcykq" x1="0" y1="9" x2="18" y2="9" gradientUnits="userSpaceOnUse"><stop offset=".5" stop-color="#000EFF"/><stop offset=".5" stop-color="#FD0810"/></linearGradient></defs></svg>