<!-- by TradingView --><svg width="18" height="18" viewBox="0 0 18 18" xmlns="http://www.w3.org/2000/svg"><path fill="url(#paint0_linear)" d="M0 0h18v18H0z"/><path d="M6.29 4.505c-.484.22-.631.586-.631.899 0 .566.483 1.15 1.274.893C7.438 6.114 8.109 6 8.843 6 10.246 6 11 6.298 11 7.543v.602c-.828-.2-1.473-.4-2.32-.4-2.428 0-3.605 1.403-3.68 2.926v.342C5.078 12.717 6.3 14 8.68 14c1.873 0 3.44-.642 3.944-.99.27-.183.376-.382.376-.711V7.543C13 5.07 11.303 4 9 4c-1.095 0-2.187.25-2.71.505zM7 10.763c-.047-.703.585-1.181 1.68-1.181.81 0 1.53.147 2.32.348v1.537c-.179.146-.915.533-2.157.533-1.277 0-1.796-.533-1.843-1.237z" fill="#fff"/><defs><linearGradient id="paint0_linear" x1="0" y1="9" x2="18" y2="9" gradientUnits="userSpaceOnUse"><stop stop-color="#1192C5"/><stop offset=".474" stop-color="#512EFE"/><stop offset="1" stop-color="#B81676"/></linearGradient></defs></svg>