<!-- by TradingView --><svg xmlns="http://www.w3.org/2000/svg" width="18" height="18"><path fill="#F0F3FA" d="M0 0h18v18H0z"/><path d="M8.35 4.3l-2.69 7.6 1.36-.82 1.5-4.66 1.15 3.16 1.18-.57-1.88-4.7c-.27-.56-.52-.23-.62 0zm2.43 8.1l-.6-1.46 1.1-.68L12.53 13s-1.42.01-1.66 0c-.3-.01-.23-.27-.08-.33.12-.04.05-.2 0-.26z" fill="#EA2328"/><path d="M11.74 9.28A16.53 16.53 0 004 14h1.77c3.46-3.39 4.32-3.45 6.16-4.45l-.19-.27z" fill="#479644"/><path d="M13.01 8.55c-.77.04-1.4.81-1.66 1.1.1.06.84.42 1.7.3C14.29 9.78 14.8 8.82 15 8.6c-.12.08-.47.2-.9.08a4.77 4.77 0 00-1.1-.13z" fill="#7CB649"/></svg>