<!-- by TradingView --><svg width="18" height="18" viewBox="0 0 18 18" xmlns="http://www.w3.org/2000/svg"><path fill="#F0F3FA" d="M0 0h18v18H0z"/><path d="M9 12H6.023a1.604 1.604 0 01.252-1.21L9 12zm.001 0h2.992a1.615 1.615 0 00-.253-1.213L9.001 12z" fill="#A8191D"/><path d="M7.437 9.527L9 12.001l-2.709-1.2c.128-.64.821-1.117 1.146-1.274z" fill="#E32D22"/><path d="M10.569 9.525L8.998 12l2.713-1.2c-.128-.64-.819-1.12-1.143-1.276z" fill="#E32D22"/><path d="M9 9.109V12L7.442 9.536c.47-.493 1.233-.49 1.558-.427z" fill="#EF6B2B"/><path d="M9 9.109V12l1.564-2.465c-.469-.494-1.24-.49-1.564-.426zM5.18 6H4v3.79l1.384.6 1.484-1.783L5.18 6zm7.64 0H14v3.79l-1.37.605-1.501-1.793L12.819 6z" fill="#A8191D"/><path d="M9 6H5.173l1.695 2.612L9 6z" fill="#EF6B2B"/><path d="M9 6h3.827l-1.698 2.604L8.999 6z" fill="#EF6B2B"/><path d="M9 9.113V6L6.87 8.605l.578.945c.43-.331 1.229-.437 1.553-.437z" fill="#E32D22"/><path d="M9 9.114V6l2.13 2.606-.577.945c-.511-.34-1.23-.437-1.553-.437z" fill="#F2DA52"/><path d="M5.385 10.389l1.484-1.791.577.944a3.459 3.459 0 00-1.156 1.262l-.905-.415zm7.241-.003L11.13 8.599l-.58.953c.615.383 1.037 1 1.159 1.255l.915-.421zM4 12V9.79l1.385.599L4 12z" fill="#EF6B2B"/><path d="M14 12V9.79l-1.385.6L14 12z" fill="#EF6B2B"/><path d="M6.02 12H4l1.383-1.613.908.418c-.228.417-.275.963-.27 1.196zm5.96 0H14l-1.378-1.612-.913.418c.228.417.275.962.27 1.194z" fill="#F2DA52"/></svg>