<!-- by TradingView --><svg xmlns="http://www.w3.org/2000/svg" width="18" height="18" viewBox="0 0 18 18"><path d="M0 9a9 9 0 1118 0A9 9 0 010 9z" fill="#F0F3FA"/><path d="M9 12H6.02a1.6 1.6 0 01.26-1.2L9 12zm0 0h3a1.61 1.61 0 00-.26-1.21L9 12z" fill="#A8191D"/><path d="M7.44 9.53L9 12l-2.7-1.2c.12-.64.81-1.12 1.14-1.27zm3.13-.01L9 12l2.71-1.2c-.13-.64-.82-1.12-1.14-1.28z" fill="#E32D22"/><path d="M9 9.1V12L7.44 9.54c.47-.5 1.24-.5 1.56-.43z" fill="#EF6B2B"/><path d="M9 9.1V12l1.56-2.47c-.46-.49-1.24-.48-1.56-.42zM5.18 6H4v3.79l1.38.6 1.49-1.78L5.18 6zm7.64 0H14v3.79l-1.37.6-1.5-1.79L12.82 6z" fill="#A8191D"/><path d="M9 6H5.17l1.7 2.61L9 6zm0 0h3.83l-1.7 2.6L9 6z" fill="#EF6B2B"/><path d="M9 9.11V6L6.87 8.6l.58.95A3.03 3.03 0 019 9.11z" fill="#E32D22"/><path d="M9 9.11V6l2.13 2.6-.58.95A3.15 3.15 0 009 9.11z" fill="#F2DA52"/><path d="M5.38 10.39l1.49-1.8.58.95c-.62.39-1.04 1-1.16 1.26l-.9-.41zm7.25 0l-1.5-1.8-.58.96c.62.39 1.04 1 1.16 1.26l.92-.42zM4 12V9.8l1.38.6L4 12z" fill="#EF6B2B"/><path d="M14 12V9.8l-1.38.59L14 12z" fill="#EF6B2B"/><path d="M6.02 12H4l1.38-1.61.91.41c-.23.42-.27.97-.27 1.2zm5.96 0H14l-1.38-1.61-.91.42c.23.41.27.96.27 1.2z" fill="#F2DA52"/></svg>