<!-- by TradingView --><svg width="18" height="18" xmlns="http://www.w3.org/2000/svg"><path fill="#0D61AC" d="M0 0h18v18H0z"/><path d="M5 6a3 3 0 000 6h3.854v.125a.875.875 0 101.75 0V12H13a3 3 0 100-6H5z" fill="#fff"/><path d="M8.702 10.22V8.874c0-.995-.814-1.802-1.833-1.802-1.018 0-1.844.807-1.844 1.802 0 .996.826 1.803 1.844 1.803.17 0 .335-.023.49-.065.193-.082.22-.317.216-.41 0-.355-.31-.421-.53-.409a1 1 0 01-.184.017c-.532 0-.964-.417-.964-.93 0-.515.432-.932.964-.932.527 0 .955.407.965.913l.001-.002a78.376 78.376 0 01-.001 1.394h.001c0 .24.174.424.467.424.294 0 .408-.265.408-.459zm.584 1.85V8.876c0-.995.826-1.802 1.845-1.802 1.018 0 1.844.807 1.844 1.802 0 .996-.826 1.803-1.845 1.803-.17 0-.334-.023-.49-.065-.192-.082-.218-.317-.215-.41 0-.351.302-.42.521-.409.06.011.123.017.188.017.535 0 .97-.417.97-.93 0-.515-.435-.932-.97-.932-.53 0-.96.408-.97.914l-.003-.003c-.002.345-.007 2.375-.001 2.639.001.068.023.041.058-.036-.043.32-.054.608-.054.608 0 .24-.165.458-.458.458-.294 0-.42-.265-.42-.458z" fill="#0D61AC"/></svg>