<!-- by TradingView --><svg xmlns="http://www.w3.org/2000/svg" width="18" height="18" viewBox="0 0 18 18"><path fill="url(#atawn5kif)" d="M0 0h18v18H0z"/><path d="M6.04 12A3.02 3.02 0 009 8.35c-.29.98-.6 1.48-.8 1.74A2.44 2.44 0 013.6 9c0-1.33 1.09-2.4 2.44-2.4.7 0 1.35.3 1.8.78l-.4.4h1.2V6.55l-.38.4A3.04 3.04 0 003 9c0 1.66 1.36 3 3.04 3z" fill="#fff"/><path d="M11.96 12A3.02 3.02 0 0015 9c0-1.66-1.36-3-3.04-3A3.02 3.02 0 009 9.65a23.76 23.76 0 01.73-1.63 2.45 2.45 0 012.23-1.44A2.43 2.43 0 0114.41 9a2.45 2.45 0 11-4.25 1.64l.39-.39H9.36v1.2l.4-.4c.55.59 1.33.95 2.2.95z" fill="#FC1E34"/><defs><linearGradient id="atawn5kif" x1="3.35" y1="3.12" x2="21.9" y2="24.43" gradientUnits="userSpaceOnUse"><stop stop-color="#1A1E21"/><stop offset="1" stop-color="#06060A"/></linearGradient></defs></svg>