<!-- by TradingView --><svg width="18" height="18" viewBox="0 0 18 18" xmlns="http://www.w3.org/2000/svg"><path fill="#3051A0" d="M0 0h18v18H0z"/><path d="M6.613 7.914a3.84 3.84 0 00-.584-1.12c.127 0 .831-.057 1.168-.086l-.584 1.206zM7.028 15v-2.217l1.229-.234L7.028 15z" fill="#EC3236"/><path fill-rule="evenodd" d="M9.032 3L4 12.795l1.273-.347-.174.985c1.465-.644 5.052-1.546 7.674 0 .02-.077.027-.421-.096-1.179l1.31.329L9.033 3zm-.019 1.043l-3.2 7.96c1.118-.567 4.021-1.36 6.69 0l-3.49-7.96z" fill="#fff"/><path d="M15 4c-3.337 2.097-5.6 2.432-7.037 2.589L6.85 9.396c.058.405.17 1.595.218 2.148.481-.145 1.435-.278 1.984-.29C10.93 7.971 13.13 5.803 15 4z" fill="#EC3236"/></svg>