<!-- by TradingView --><svg width="18" height="18" viewBox="0 0 18 18" xmlns="http://www.w3.org/2000/svg"><path fill="#F4AE00" d="M0 0h18v18H0z"/><path d="M9.19 6.892c.003-.07 0-.128-.002-.196v-.018l-.001-.021c-.001-.03-.003-.08-.002-.088.006-.048.005-.07.005-.078v-.007h.003c.005-.001.014-.002.035-.017.03-.418-.019-.554-.107-.797a4.452 4.452 0 01-.074-.212c-.033-.1-.074-.423-.03-.532.03-.076.1-.122.168-.166a.392.392 0 00.139-.123.53.53 0 00-.228.15.435.435 0 01-.118.094c.004-.17.018-.261.027-.32a.335.335 0 00.008-.088c-.005-.042-.03-.08-.098-.188a13.995 13.995 0 01-.077-.123l-.087-.144c-.096-.162-.218-.367-.287-.438l-.076 4.598.407.183.004-.818.143.07-.01-.96.258.24zm2.814-.316c.444-.082.855-.093 1.18.17.022.03.047.057.073.085.07.078.146.161.194.3.226.657-.218 1.272-.554 1.156.005-.083.07-.148.142-.22.114-.115.246-.247.186-.496-.15-.048-.228.063-.297.164a1.534 1.534 0 01-.04.054c-.255.333-.716.683-1.168.509-.309-.12-.251-.527-.057-.847.024-.04.074-.096.132-.16.16-.177.379-.42.281-.589-.222-.113-.657.081-1.031.25-.28.124-.526.235-.623.19.012-.079.048-.118.075-.148.032-.035.052-.058.009-.113-.07-.09-.17-.048-.262-.01a.545.545 0 01-.097.035c-.375.085.252-.546.591-.335 0 .094-.028.118-.055.14-.029.025-.058.05-.051.165.159.092.41-.01.602-.087l.072-.03c.22-.085.411-.124.646-.172l.052-.011zm1.056 3.49c-.043.103-.088.207-.114.292-.052.075-.092.144-.132.211a2.866 2.866 0 01-.153.24 9.644 9.644 0 00-.3.434c-.114.177-.219.35-.324.521-.078.129-.156.257-.237.387-.043.068-.08.134-.116.196-.169.296-.285.5-.672.407a1.147 1.147 0 00-.473-.007 3.99 3.99 0 01-.162.019c-.36.034-.949-.034-1.321-.08-.54-.065-.549-.02-.56.03-.009.041-.019.085-.289.082-.616-.007-1.237-.003-1.858 0-.669.004-1.338.008-2.003 0 .023-.1.18-.392.344-.697.163-.301.332-.616.388-.774a.298.298 0 01.071.062c.043.047.074.082.375.116l.052.005c.204.022.23.025.377.178.075.077.11.078.144.08.044 0 .085.002.21.185.078.116.157.13.26.149.053.01.112.02.181.046.128.048.239.112.348.176.148.086.295.171.484.219.228.056.505.052.773.049.139-.002.275-.004.4.002.189.01.377.032.566.054.173.02.347.04.524.05.144.01.334-.007.523-.024.244-.022.487-.044.625-.009.36.09.5-.15.637-.385a2 2 0 01.066-.11c.018-.03.045-.07.076-.117.14-.21.37-.553.374-.71-.084-.005-.109.033-.131.067-.022.033-.042.063-.115.045-.039-.105.044-.164.165-.25.067-.049.147-.105.224-.183.048-.049.094-.092.139-.135.101-.096.195-.185.294-.313.094-.12.233-.414.305-.593.025-.06.045-.114.065-.166l.062-.158c.022-.054.042-.1.066-.147a.498.498 0 01.04-.065.293.293 0 00.042-.039l.001.004c.001.007.003.023.02.048-.025.072-.06.146-.095.222a2.654 2.654 0 00-.09.205l-.075.18zm-.608 1.574c.054-.123.252-.555.319-.631l.922 1.781-1.296.011c-.114-.01-.114-.063-.11-.374a2.05 2.05 0 01.165-.787zM9.841 4.99l-.091.014-.06.017a.114.114 0 01-.029.008l.003-.004c.007-.006.023-.02.005-.034a.198.198 0 01.088-.052c.016-.005.033-.01.062-.028-.115-.008-.147.029-.17.055-.022.027-.036.042-.119-.012-.01-.201.209-.176.387-.146.078.04.1.137.12.229.02.09.039.175.108.194a.378.378 0 00-.015-.145c-.031-.144-.067-.307.246-.295-.03-.244-.039-.262-.074-.33a1.448 1.448 0 01-.056-.118v-.002l-.005-.012a.906.906 0 00-.103.03.445.445 0 01-.174.027c.03-.05.046-.058.06-.063.013-.005.022-.01.036-.056a.674.674 0 00-.109.045.172.172 0 01-.026.012c-.023.007-.049.004-.15-.01l-.01-.001c-.135-.02-.22.03-.275.125a.275.275 0 00-.034.18.384.384 0 01-.025.188c-.095.235-.093.24-.067.345.015.062.04.16.058.357.037.387.231.376.473.36H9.9c.044-.003.148-.01.18-.024l.021-.008c.007-.003.01-.004.011-.006a.186.186 0 01.012-.029c.01-.046.014-.062.018-.062.002 0 .004.005.007.012.008.022.025.065.075.079l.008-.01c.055-.07.08-.101-.008-.355-.06-.02-.196.019-.287.044-.074.02-.118.033-.067 0l.252-.11c-.021-.05-.022-.048-.029-.04-.005.006-.015.016-.046.002l-.125-.043a.578.578 0 00.018-.04c.004 0 .015.003.068-.042l-.11-.046.048-.178-.105-.021z" fill="#fff"/><path d="M6.146 10.12l-.02-.02c.123-.096.162-.057.237.02l.041.04.569.41.045.024c.095.05.13.068.212.161l.1.114c.013.071.023.08.045.1a.322.322 0 01.052.056c.015.02.025.04.037.06a.593.593 0 00.05.078c.015.038.03.088.047.14.032.104.068.217.109.272.33.07 1.05-.281 1.355-.43l.034-.017c.223-.108.434-.172.69-.222.161-.032.76-.116.642.184-.016.01-.115.017-.238.027-.176.013-.401.03-.503.062a3.31 3.31 0 00-.53.228c-.039.02-.065.034-.073.036-.058.013-.138.012-.217.012-.06 0-.118-.001-.167.004-.187.02-.37.07-.533.115-.296.082-.523.144-.573-.036a.307.307 0 01-.015-.092c0-.039-.001-.066-.105-.269-.223-.433-.267-.415-.342-.384-.044.019-.098.042-.206-.019-.11-.063-.145-.092-.166-.253l-.031-.026c-.012-.01-.017-.014-.022-.014-.005-.001-.01.001-.02.005a.468.468 0 01-.066.02l.012-.126c-.043.027-.047.035-.05.04-.002.005-.003.006-.052.025-.018.007-.34.088-.107-.179l-.077-.028a.453.453 0 00-.033-.024s.007.003-.021-.029c-.033-.036-.03-.04-.03-.041a.254.254 0 01-.032-.016l-.028-.01c-.033-.014-.021.002-.02.003z" fill="#fff"/><path d="M10.156 9.955l.002.152-.002.23.024.445.078-.019c-.1-.673.048-1.22.443-1.645.036-.039.078-.071.12-.103a.93.93 0 00.117-.101c.09-.097.115-.182.088-.346a2.455 2.455 0 01-.013-.097c-.013-.107-.03-.252-.052-.284-.135.027-.092.152-.05.272.014.04.028.08.034.116.046.236-.048.313-.187.427a1.28 1.28 0 00-.416.543.066.066 0 01-.004-.013c-.002-.006-.003-.01-.004-.008l-.068-.417a5.475 5.475 0 01-.019-.177c-.024-.253-.057-.595-.163-.715l-.07-.076a.905.905 0 01-.168-.217l.136 1.743c.072.016.125.006.164-.001.08-.016.097-.02.097.264l-.087.027zM6.155 5.669l.015-.04c.136-.123.316-.185.5-.248.113-.039.228-.078.336-.133.25-.127.438-.216.679-.12.116.047.163.072.182.146a1.51 1.51 0 01-.138-.018.81.81 0 00-.366.007l-.132-.011c-.002-.004-.007 0-.012.006a.059.059 0 01-.005.005c.029.022.121.031.237.043.107.01.234.023.35.05.116.028.118.039.12.056.002.004.002.01.005.015-.033.019-.137 0-.258-.022-.177-.032-.39-.071-.467-.006.03.023.134.03.256.037.156.01.34.022.432.072-.028.018-.04.03-.046.035-.004.003-.005.005-.007.005l-.004-.003c-.008-.004-.026-.017-.097-.027a1.71 1.71 0 00-.372-.007l-.146.029c.078.034.168.03.253.027.088-.003.17-.006.228.032a25.2 25.2 0 01-.474.06c-.078.017-.16.05-.246.084-.14.056-.287.115-.43.108l-.028-.155a.283.283 0 00-.192.08c-.039.032-.076.063-.144.072-.068-.077-.062-.093-.03-.18zm3.625.712c0-.036 0-.07.004-.102a.38.38 0 01.073-.146c.065-.094.104-.15-.21-.094a.321.321 0 01-.06-.08c-.032-.053-.059-.096-.155-.089-.057.196.167.598.346.622a.864.864 0 00.003-.11z" fill="#fff"/><path d="M9.989 7.982l-.092-.086a.506.506 0 00-.082-.083c-.045-.038-.064-.054-.079-.22l-.011-.112a2.193 2.193 0 01-.022-.324c.205.2.29.375.286.825zm-.291-.935a.87.87 0 01.037.04c.017.02.023.028.066.056-.02-.396-.026-.446-.218-.67 0 .108.011.436.073.524l.009.01c.01.012.027.03.034.04zM9.39 5.54c.029.065.042.097.01.167-.096.036-.222-.069-.258-.189-.046-.15-.042-.306.106-.263.052.015.054.026.055.04a.04.04 0 00.007.022.07.07 0 01-.016.006l-.113.005.006.12.078-.068a.118.118 0 01-.005.117c-.018.038-.031.066.064.125.013-.036.009-.043.003-.052-.005-.007-.01-.016-.008-.04.004-.031.007-.032.022-.035a.148.148 0 00.029-.007l.02.051z" fill="#fff"/><path d="M7.328 10.868l-.099-.114.032-.015c.027-.011.028-.012.045-.097.019-.094.03-.187.04-.273.012-.116.024-.217.052-.285a.925.925 0 01.217-.05c.041-.006.083-.012.13-.022a.868.868 0 01.158-.026l.021-.002c.054-.005.058-.008.067-.015.008-.007.019-.017.077-.034l-.033.477a2.846 2.846 0 01-.007.11c-.01.111-.017.214.02.305-.056 0-.116 0-.178-.002-.2-.004-.419-.008-.542.043zm1.228-7.404h.002c.041.03.145.22.247.406l.053.096-.302-.502zm.488.886c.108.012.118-.004.141-.045.01-.017.023-.04.048-.066a.194.194 0 01.013-.013l.22-.17c.137-.08.324-.056.468 0-.144-.056-.332-.08-.469 0l-.22.17-.004.003-.01.01a.319.319 0 00-.047.066c-.024.04-.033.057-.14.045z" fill="#0D3862"/><path fill-rule="evenodd" d="M8.381 3.14l-.01-.083c.008-.014.011-.024.014-.03l.006-.012.008-.002A.21.21 0 008.44 3l.205.344c.057.175.4.755.503.903a1.92 1.92 0 01.35-.266c.147-.054.263-.026.39.006.04.01.08.02.123.027l.264.035.069.177.001.001.06.007.03.226.075.045c.028.252-.008.408-.03.498a.482.482 0 00-.012.069 5.577 5.577 0 00-.008.293c0 .114-.002.229-.01.341-.013.156.037.433.123.501.05.04.363.143.444.162.567.13.931.097 1.233.07.238-.022.437-.04.665.029l.156.065.021.016c0 .002 0 .006.003.013a.452.452 0 01.163.097l.016.013c.02.016.035.03.05.046a.56.56 0 00.102.08l-.009.044h.002c.077.023.21.267.268.386.153.314.182.8.111 1.15a1.79 1.79 0 01-.074.272l-.072.16c-.019.03-.028.035-.028.035-.016.002-.028 0-.038 0-.032-.005-.037-.005-.087.136-.018.05-.034.086-.05.12a.95.95 0 00-.066.192l-.06.164a.111.111 0 01-.02-.047v-.004l-.005.004a.283.283 0 01-.038.035.498.498 0 00-.04.064 1.692 1.692 0 00-.066.148l-.062.158c-.02.052-.04.105-.065.166-.072.179-.21.473-.304.592a2.67 2.67 0 01-.295.314 8.13 8.13 0 00-.139.135 1.627 1.627 0 01-.224.182c-.12.087-.204.145-.165.25.074.019.093-.011.115-.045.022-.034.047-.071.132-.067-.005.158-.235.502-.375.711a3.757 3.757 0 00-.142.226c-.137.236-.277.476-.636.386-.139-.035-.381-.013-.626.009a3.817 3.817 0 01-.522.025 11.19 11.19 0 01-.527-.052 9.066 9.066 0 00-.563-.053c-.126-.007-.262-.005-.4-.003-.269.004-.545.008-.773-.049a1.793 1.793 0 01-.485-.218c-.11-.064-.22-.128-.347-.176a.966.966 0 00-.181-.046c-.104-.02-.182-.033-.261-.15-.124-.182-.165-.184-.21-.185-.033-.001-.07-.003-.143-.08-.148-.152-.174-.155-.377-.177l-.053-.006c-.3-.033-.332-.068-.374-.115-.017-.019-.035-.04-.072-.062-.056.158-.225.472-.387.773-.165.305-.322.597-.345.697.665.01 1.334.005 2.003.001a95.999 95.999 0 011.859 0c.27.003.28-.041.288-.082.011-.05.021-.095.56-.03.372.046.961.113 1.322.08.059-.006.112-.013.163-.02.157-.02.285-.037.47.007.389.093.505-.11.674-.407.035-.062.072-.127.115-.195.083-.132.162-.262.24-.392.104-.17.208-.341.321-.517.095-.147.196-.289.3-.434a2.76 2.76 0 00.15-.236 3.32 3.32 0 01.135-.214c.012.003.018.002.023 0 .006 0 .01-.001.023.013a1.694 1.694 0 01-.088.22c-.131.243-.05.25-.018.253.005 0 .01 0 .01.002.055.05.998 1.92 1.103 2.154l-9.96-.005c.02-.107.113-.272.204-.432.09-.16.177-.315.185-.402l.078-.099c.013-.022.022-.042.032-.064l.02-.04.294-.552c.066-.05.07-.07.075-.099a.22.22 0 00-.001 0c-.006.03-.01.049-.075.099l.055-.151L4 11.252l.076-.23.057-.122.28-.007c.049-.07.186-.423.19-.501a.176.176 0 01.018-.02l.003-.002a.213.213 0 00.025-.046l.003-.006a.748.748 0 00.02-.053l.009-.024.016-.04a.402.402 0 00.036-.137l-.001-.004a3.113 3.113 0 00-.033-.084.832.832 0 01.275-.08.703.703 0 00.194-.052c.104-.053.16-.062.208-.07a.377.377 0 00.169-.061l.013-.01.006-.004a.243.243 0 00.02-.015l.002-.001a.134.134 0 00.018-.015l2.783-.832.54.1.001-.155-.54-.144s-2.266.737-2.362.729H6.02l-1.186.397-.034.007c-.106.022-.136.028-.161.16l.034-.007a.467.467 0 00.074-.017c.04-.013.052-.022.063-.03l.011-.008.781-.201-.018.014-.002.002a.217.217 0 01-.02.015l-.002.001a.375.375 0 01-.186.074.597.597 0 00-.208.07.703.703 0 01-.194.05.832.832 0 00-.275.082l.023.058.012.03-.214-.058c.061-.283.117-.297.302-.344.04-.01.087-.022.14-.039a19.684 19.684 0 01.42-.122c.099-.025.14-.036.174-.097-.048-.037-.077-.041-.134-.05l-.06-.01a5.458 5.458 0 00-.234-.04l-.066-.039.07-.166.045.095c.146-.046 2.342-.738 3.101-1.01l.096-4.595-1.366 1.083-.001.005c-.089.071-.27.621-.27.621l.27-.05s-.338.119-.836.381h-.001l-.016.041c-.032.086-.039.103.03.18a.262.262 0 00.143-.072.283.283 0 01.193-.08l.028.155c.143.007.29-.052.43-.108.086-.035.168-.068.245-.084l-.004.1c-.028.037-.035.036-.05.033-.013-.002-.031-.004-.075.018a.208.208 0 00-.056.04c-.024.021-.049.043-.174.089l-.121.067-.03-.006-.05-.003a.431.431 0 00-.182.018c-.123.037-.156.09-.203.166a1.12 1.12 0 01-.057.086L5.32 8.627l.01.002-.198.469-.265-.562a1.325 1.325 0 01-.072-.024c-.09-.021-.148-.043-.192-.102-.068-.06-.051-.108-.051-.108-.03-.068.08-.71.113-.858.062-.269.126-.358.201-.465.026-.036.053-.074.082-.122l.01-.018a.108.108 0 00.01-.016.103.103 0 00.004-.016l.003-.011c.06-.037.278-.277.43-.443.053-.06.1-.11.125-.137l.084-.12a1.73 1.73 0 00.14-.175c.077-.104.15-.203.263-.26l.003-.002c.026-.021.047-.04.067-.058a.793.793 0 01.317-.187c.04-.015.08-.03.117-.048.108-.054.224-.442.264-.576l.002-.01c.056-.018.06-.021.084-.047a.936.936 0 01.041-.043c-.034-.274.044-.341.168-.45.037-.031.078-.067.121-.112.067-.07.086-.148.106-.226.03-.119.06-.239.254-.335-.045.093-.069.103-.092.113-.02.009-.042.017-.078.086.036-.068.057-.076.078-.085.024-.01.047-.02.092-.114.012-.045.076-.101.137-.154l.064-.058.013-.012c.055-.055.145-.142.198-.174.022-.041.012-.035.01-.034a.36.36 0 00.039-.038c.013-.014.024-.02.038-.03l.024-.016c.06.029.072.044.1.082l.025.03a.31.31 0 00.076-.05.326.326 0 01.088-.055l.01.082zM5.346 9.3c-.044-.01-.06-.015-.064-.024a.43.43 0 00.064.024zm.249.08c.011.02.016.038.019.046v.004l.003.005.002.007a.207.207 0 01-.002-.006v-.001l-.002-.004v-.003c-.003-.008-.008-.027-.02-.049zm.03.072l-.001-.003v.003zm-.001-.003l.001.004-.001-.004zm-.773.67l-.309.776.035-.002c.033 0 .05-.001.061-.01.013-.009.019-.027.032-.066l.01-.032c.028-.082.19-.54.231-.568l.856-.189c.019.068-.007.153-.034.24a.741.741 0 00-.044.206c-.017.02-.022.02-.024.021 0 0-.002.002-.002.005a.642.642 0 01-.02.063l-.08.3.89-.017.019-.02a.201.201 0 00-.079-.065l-.043-.024a.77.77 0 01-.079-.05l-.024-.023c-.018-.018-.022-.021-.023-.026v-.004a.115.115 0 00-.013-.043c.056.025.08.045.118.074l.037.029a.792.792 0 00.13.08l.016.007-.015-.008a.792.792 0 01-.13-.08c-.015-.01-.026-.02-.037-.028a.497.497 0 00-.119-.074l-.026-.036c-.012-.076-.024-.091-.04-.111-.014-.018-.03-.038-.051-.106a.345.345 0 01-.021-.14c.013-.09.022-.09.035-.09.005.001.011.001.019-.006l.019.02c-.001-.001-.013-.017.02-.003l.028.01.032.016s-.003.005.03.041c.029.032.021.029.02.028l.019.015c.004.003.01.008.015.01l.078.028c-.233.268.089.186.106.179.05-.018.05-.02.053-.025.002-.005.007-.012.05-.04l-.013.126a.45.45 0 00.066-.02c.01-.004.015-.006.02-.005.006 0 .01.005.022.015l.03.025c.023.161.056.19.167.253.108.06.162.038.206.02.075-.032.119-.05.342.383.104.203.105.23.105.269 0 .02 0 .042.015.092.05.18.277.117.573.036.163-.045.347-.096.534-.115.048-.005.106-.005.164-.004.08 0 .16 0 .219-.012a.63.63 0 00.075-.037c.106-.054.305-.157.528-.227.102-.032.33-.05.505-.063.122-.009.22-.016.236-.026.117-.3-.48-.216-.642-.184-.256.05-.467.114-.69.223l-.031.015c-.305.148-1.027.501-1.358.431a1.1 1.1 0 01-.11-.271c-.016-.053-.031-.103-.046-.141l1.267-.02v-.28l-.316.008.034-.083.1-.007.008-.478c-.037-.066-.069-.053-.094-.044-.026.01-.045.018-.058-.069-.014-.092.01-.091.055-.09.027 0 .06.002.099-.014l.004-.763-.226-.155-3.535.951zm1.555.771c.015.078.016.08.02.085.004.004.009.01.025.06l.017.01c.015.01.032.019.045.033-.013-.014-.03-.024-.045-.033l-.017-.01c-.016-.05-.021-.056-.025-.06-.004-.005-.005-.007-.02-.085zm6.8-4.176a.167.167 0 01-.022.033c.023.03.048.057.074.085.07.078.147.161.195.3.225.656-.218 1.272-.554 1.155.005-.083.07-.148.142-.22.114-.115.246-.247.185-.496-.15-.047-.227.063-.296.164l-.04.055c-.255.332-.716.682-1.168.508-.309-.119-.252-.527-.057-.847.024-.04.074-.096.132-.16.16-.177.379-.42.281-.589-.222-.113-.657.082-1.03.25-.28.125-.527.235-.625.19.013-.078.05-.118.076-.148.032-.035.052-.057.009-.113-.07-.089-.17-.048-.262-.009-.034.014-.067.028-.097.035-.375.085.252-.547.591-.336-.001.095-.028.118-.055.14-.03.025-.058.05-.052.166.16.092.411-.01.603-.088l.072-.03c.22-.085.411-.124.646-.172l.051-.01c.444-.082.854-.093 1.178.17.015-.02.02-.03.022-.034v.001zm0-.004zm-1.428-.174a.789.789 0 01-.197-.004 9.294 9.294 0 01.002 0 .79.79 0 00.194.004zM8.082 3.352c.005-.006.009-.01.01-.014-.001.004-.005.008-.01.015a.443.443 0 00-.042.055c.02-.03.034-.046.042-.056zm-.609.606c.067-.052.544-.491.562-.543a.712.712 0 00.193-.145c.043-.042.088-.085.153-.129l-.014.084-.005.009-.008.015c0-.002-.001-.005-.025.027l-.028.039.138-.029-.136.03-.164.128-.024.022-.137.128-.047.044c-.142.132-.451.421-.682.624.062-.087.124-.17.172-.235l.05-.069h.002zm1.571.392l-.488-.886a.763.763 0 00-.04-.095.556.556 0 01-.048-.128l.025.018c.008.004.008.004.036.044a.19.19 0 01.022.039.304.304 0 00.015.03l.03.05.038.067a11.79 11.79 0 00.184.329c.081.134.195.323.202.418l-.162-.27c.065.119.125.224.162.27l.002.002a.303.303 0 01-.003.06s0 .001 0 0V4.3c.003.001.009.006.025.05zm1.009-.239l-.005.001h.005zm2.718 6.898l.922 1.78-1.295.012c-.115-.01-.115-.063-.111-.375a2.05 2.05 0 01.166-.786c.054-.124.252-.555.318-.631zm-3.736-.034l-.018-.759 1.138-.09v-.171c-.008-.03-.006-.04-.005-.048.001-.009.002-.012-.014-.028l-1.202.139c-.036-.065.033-.116.095-.161a.517.517 0 00.056-.045c-.002-.01.104-2.92.104-2.92l-.257-.24.009.961-.143-.07-.004.818-.407-.184.076-4.597c.07.071.194.28.29.443l.084.139c.03.05.056.09.077.123.068.107.093.146.098.188a.335.335 0 01-.008.088c-.009.059-.023.15-.027.32a.44.44 0 00.118-.094.531.531 0 01.228-.15c-.027.05-.082.085-.139.122-.068.044-.138.09-.169.166-.043.11-.002.432.03.533.134.403.183 1.008.183 1.008l.355.008s.198.273.218.67a.23.23 0 01-.066-.056L9.7 7.047l.004.11c.206.2.29.375.286.825l-.092-.086a.078.078 0 01-.038 0h-.004l-.003.007a.296.296 0 01-.007.02.89.89 0 00.168.216l.07.076c.106.12.139.462.163.715.006.067.012.128.019.177l.068.417.004.008c0 .005.003.01.004.013.13-.306.291-.44.416-.542.14-.115.233-.192.188-.427-.007-.036-.021-.076-.035-.117-.042-.12-.085-.245.05-.272.022.032.04.177.052.284l.013.097c.027.164.002.248-.088.346a.817.817 0 01-.118.101c-.041.032-.083.064-.119.103-.395.425-.542.973-.443 1.645l-.078.019-1.144.193zm.611-4.937c.315-.056.276.001.211.095a.387.387 0 00-.073.145c-.005.033-.004.066-.004.103 0 .035.002.072-.003.111-.178-.025-.402-.426-.346-.622.097-.008.123.036.155.089.016.026.033.054.06.08zM9.4 5.706c-.096.036-.222-.068-.258-.188-.046-.15-.042-.306.106-.263.052.015.054.026.055.04a.051.051 0 00.007.022.07.07 0 01-.015.006l-.114.005.006.12.078-.068a.12.12 0 01-.005.118c-.018.037-.031.065.064.125.014-.037.009-.044.003-.053-.005-.007-.01-.015-.008-.04.004-.031.007-.032.022-.034a.149.149 0 00.03-.008c.006.02.013.036.02.05.028.067.041.1.01.168zm.35-.702l.091-.014.106.021-.047.179.109.045c-.053.045-.064.043-.068.042-.002 0-.002.001-.004.006a.59.59 0 01-.014.034l.125.043c.03.014.04.004.046-.003.007-.007.008-.008.029.042l-.252.109c-.03.02-.037.013-.038.009a.186.186 0 01-.008.034l.028-.01c.108-.043.213-.083.338-.043-.026.095-.04.092-.067.086-.022-.005-.052-.011-.102.032a.257.257 0 01.016.017c-.01.002-.003.009.002.012.006.003.01.002-.002-.012a.108.108 0 01.038.002h.002c.031-.001.308-.01.147.194l-.018-.01c-.012-.006-.015-.008-.016-.01v-.004c0-.006 0-.02-.029-.066a.175.175 0 01-.01-.02c.033.019.028.008.017-.002-.01-.01-.027-.02-.017.003l-.009-.005a.05.05 0 00-.003.016v.002l-.015.068a.186.186 0 00-.012.028l-.01.006a.408.408 0 00-.022.009c-.032.014-.136.02-.18.023h-.005c-.242.016-.436.027-.473-.36a2.161 2.161 0 00-.058-.356c-.027-.106-.028-.11.066-.345a.381.381 0 00.025-.19c-.003-.055-.007-.107.035-.179.056-.096.14-.144.276-.125l.012.001c.098.014.124.018.147.01a.133.133 0 00.026-.011.702.702 0 01.109-.046c-.014.047-.024.051-.037.056-.013.006-.03.013-.06.064a.444.444 0 00.174-.029c.029-.009.06-.02.104-.028l.005.012v.001c.024.058.042.092.056.119.035.067.045.085.073.329-.313-.011-.277.152-.245.296a.383.383 0 01.015.144c-.07-.02-.089-.104-.109-.194-.02-.092-.042-.19-.12-.23-.178-.029-.396-.053-.386.148.083.053.096.038.12.011.022-.026.054-.063.169-.055a.21.21 0 01-.062.028.199.199 0 00-.088.052c.018.015.002.029-.005.035l-.003.004.03-.008.059-.017zm-3.276 6.133l-.023-.104-.1-.078c-.065-.036-.609-.01-.869.003l-.126.005a41.8 41.8 0 01-.343.008c-.272.005-.547.01-.813.028a.457.457 0 00-.079.199l2.353-.06zm-.97-.8a.798.798 0 00.05-.01c.1-.002.11-.08.122-.178l.004-.036-.185.049-.515.098c-.055.09-.134.272-.137.387a.165.165 0 01-.014.015c-.008.007-.013.011-.027.039a.236.236 0 00-.018.041l-.006.018a.557.557 0 00-.032.131l.225-.002.17-.487.186-.027-.038.031-.007.005-.012.008a.286.286 0 01-.043.02c-.043.018-.07.03-.112.17a1.92 1.92 0 00-.016.057c-.01.037-.02.07-.034.107l-.023.047a.293.293 0 00-.035.104l.548-.006c-.036-.1-.006-.197.027-.304.021-.072.045-.149.052-.236l-.305.014.015-.013v-.002l.008-.003a.425.425 0 01.092-.026l.009-.002.05-.01z" fill="#0D3862"/><path d="M7.006 5.248s.274-.291.767-.096c.07.028.15.186.15.186l-.008-.006a.17.17 0 01-.025-.025.252.252 0 01-.023-.034c-.019-.073-.56-.218-.861-.025zm6.085 1.301c.003-.005.01 0 .013.004.004.004.003.006-.012-.004z" fill="#0D3862"/><path d="M7.224 5.66l-.005.1.044-.002.116-.03.07-.017.13-.015.068-.001.157-.065.067.009v.006l.03-.044c.062-.085.124-.17.022-.263l-.008-.006a.17.17 0 01-.01-.009l-.008-.007-.007-.009a.252.252 0 01-.023-.034 1.067 1.067 0 01-.186-.03 1.828 1.828 0 00-.326-.048l-.124.057c-.002-.005-.008 0-.012.006a.06.06 0 01-.005.004c.029.023.12.032.235.043.108.01.235.024.351.05.117.028.119.04.122.056 0 .005.001.01.004.015-.033.02-.137 0-.258-.022-.177-.032-.39-.07-.467-.005.03.023.134.03.256.037.156.01.34.021.432.072-.028.018-.04.029-.046.034l-.007.005-.004-.002c-.008-.005-.026-.017-.097-.027a1.502 1.502 0 00-.372-.007l-.146.029c.078.034.168.03.253.027.088-.004.17-.007.228.032a20.06 20.06 0 01-.474.06z" fill="#0D3862"/></svg>