<!-- by TradingView --><svg xmlns="http://www.w3.org/2000/svg" width="18" height="18"><path fill="#F0F3FA" d="M0 0h18v18H0z"/><circle cx="9" cy="9" r="5" fill="url(#aggcnlxvk)"/><circle cx="9" cy="9" r="4.69" fill="url(#bggcnlxvk)"/><path d="M11.39 8.31c-.63-2.2-3.03-2.76-4.13-2.76l-.5.99c1.7.54 2.93 2.06 2.77 3.31-.12 1 .27 2.34.46 2.88l.68-.35c.78-1.35.82-3.27.72-4.07z" fill="url(#cggcnlxvk)"/><path d="M8.34 10.22a6.6 6.6 0 00-1.59-3.23v-.46c1.5.26 3.08 2.28 2.84 3.07-.2.63.16 2.36.36 3.14l-.76.16c-.14-.18-.5-.97-.85-2.68z" fill="url(#dggcnlxvk)"/><path opacity=".5" d="M5.7 6.98c-.26.93-.8 2.24-1.17 2.8.79-.38 4.84-.25 6.8-.14-.3.35-.5 1.64 0 1.56.4-.07.38-1.07.31-1.56l1.6.15c.2-.57.17-1.04 0-1.22-1.66-.24-3.17-.2-3.65-.1.12-.3.11-1.22-.2-1.09-.26.1-.34.77-.35 1.1-.71-.1-2.33 0-2.85 0-.56 0-.52-1.04-.5-1.5z"/><defs><linearGradient id="aggcnlxvk" x1="7.17" y1="4.31" x2="10.68" y2="13.69" gradientUnits="userSpaceOnUse"><stop stop-color="#2FA34C"/><stop offset=".55" stop-color="#C6E7B0"/><stop offset="1" stop-color="#2FA34C"/></linearGradient><linearGradient id="bggcnlxvk" x1="5.56" y1="5.97" x2="11.82" y2="12.63" gradientUnits="userSpaceOnUse"><stop offset=".13" stop-color="#E9F8E4"/><stop offset=".33" stop-color="#77C58F"/><stop offset=".46" stop-color="#C7E590"/><stop offset=".7" stop-color="#79CE7C"/><stop offset="1" stop-color="#E9F8E4"/></linearGradient><linearGradient id="cggcnlxvk" x1="7.05" y1="6.34" x2="10.71" y2="12.4" gradientUnits="userSpaceOnUse"><stop stop-color="#E3F4D5"/><stop offset=".27" stop-color="#619ABE"/><stop offset=".46" stop-color="#76C8DE"/><stop offset=".61" stop-color="#E6F4F6"/><stop offset=".84" stop-color="#D4EEEC"/><stop offset="1" stop-color="#C4EAC1"/></linearGradient><linearGradient id="dggcnlxvk" x1="7.16" y1="6.53" x2="9.66" y2="12.68" gradientUnits="userSpaceOnUse"><stop stop-color="#E0F3CF"/><stop offset=".17" stop-color="#F0F073"/><stop offset=".42" stop-color="#F3F9D8"/><stop offset=".56" stop-color="#DF8797"/><stop offset=".71" stop-color="#BC7A64"/><stop offset=".88" stop-color="#CBCF53"/><stop offset="1" stop-color="#C4C4C4" stop-opacity="0"/></linearGradient></defs></svg>