<!-- by TradingView --><svg xmlns="http://www.w3.org/2000/svg" width="18" height="18" viewBox="0 0 18 18"><path fill="#F0F3FA" d="M0 0h18v18H0z"/><path d="M8.49 4L9 3l.5 1h-1zM10 5H8l-.5 1h3.02l-.5-1zm.99 2H7l-.5 1h5l-.51-1z" fill="#007DC5"/><path d="M6 9l-2 4h1.6l.8-1.34h1.22l.59-.8-.72-.86h.92L9 9.12l.54.88h.92l-.73.86.58.8h1.3l.8 1.34H14l-2-4H6z" fill="url(#aw4g32qxo)"/><defs><linearGradient id="aw4g32qxo" x1="4" y1="11" x2="14" y2="11" gradientUnits="userSpaceOnUse"><stop stop-color="#C4161C"/><stop offset=".5" stop-color="#F26649"/><stop offset="1" stop-color="#C4161C"/></linearGradient></defs></svg>