<!-- by TradingView --><svg xmlns="http://www.w3.org/2000/svg" width="18" height="18" viewBox="0 0 18 18"><path fill="#F0F3FA" d="M0 0h18v18H0z"/><path d="M2 11l3.21-4.74c.06-.09.23-.26.44-.26h.46c.1 0 .34.07.34.42v2.74c0 .26.12.55.33.13L7.8 6.6c.07-.2.37-.6.99-.6h2.6c.16 0 .44.13.31.6s-.53 1.7-.76 2.35c-.04.11-.06.4.15.42h2.07c.1-.03.22-.08.22-.21 0-.23-.15-.31-.22-.3l.36-1.08h.66c.18.04.5.21.34.84-.1.32-.36 1.07-.59 1.48a1.1 1.1 0 01-.85.54h-2.84c-.25 0-.71-.18-.52-.84.14-.47.38-1.2.57-1.75l.18-.53c.02-.08.02-.25-.14-.27a.95.95 0 00-.26 0l-1.22 3.4h-1l1.22-3.4h-.36a.26.26 0 00-.2.17l-.22.54L7.48 10c-.07.18-.32.57-.84.65H5.18V7.72L3.05 11H2zm13 0H2v1h13v-1zm-10.14-.35V9.22l-.95 1.43h.95zM16 6h-2.94c-.17-.02-.57.1-.78.68-.21.57-.5 1.29-.61 1.57-.07.16-.1.47.32.5h.86l.35-1.04c-.09-.02-.18-.14-.14-.34.04-.18.22-.17.33-.17h2.2L16 6z" fill="#6FBCE9"/></svg>