<!-- by TradingView --><svg xmlns="http://www.w3.org/2000/svg" width="18" height="18"><path fill="url(#agm02t4oy)" d="M0 0h18v18H0z"/><path d="M10.42 6.07c-.25 1-.96 1.68-1.59 1.52-.66-.15-.98-1.07-.74-2.04.25-1 .96-1.68 1.59-1.53.66.13.99 1.05.74 2.05zM5 11.55c-.03.95 1.62 1.25 2.46 1.27.4.04.89.32 1.3.84.25.32 1.08.57 1.87 0 1-.7.06-4.26-1.43-4.71-1.5-.45-4.16 1.4-4.2 2.6zm5.83-3.17c.52.42 1.48.1 2.13-.68.63-.79.74-1.76.22-2.2-.52-.43-1.47-.11-2.13.68-.66.81-.74 1.78-.22 2.2zm2.57 2.84c-.65.7-1.56.92-2.05.47-.5-.45-.36-1.36.3-2.05.66-.7 1.56-.92 2.05-.47.5.45.36 1.37-.3 2.05zM6.42 8.99c.66-.06 1.18-.82 1.12-1.74-.05-.92-.63-1.65-1.28-1.57-.66.02-1.18.79-1.12 1.7.05.92.62 1.63 1.28 1.6z" fill="#818286"/><path d="M8.9 13.79l.2-.16c1.02-.63.9-.97.94-1.1-.06-2.2-1.95-2.28-1.95-2.28-.57 0-.71.7-.71.7-.1.5.2 1.24.2 1.24.07.34-.06.53-.12.63 0 0 .5.03 1.11.64 0 0 .3.35.33.33zm1.74-1.81c.08.1.03.26-.08.34-.14.1-.3.1-.39.03-.08-.1-.02-.26.08-.34.14-.1.3-.1.39-.03zm-.2-.29c-.13.13-.32.16-.4.05-.11-.1-.06-.29.08-.42.13-.13.33-.15.4-.05.12.1.06.29-.07.42zm-.19-.68c-.13.18-.35.23-.46.16-.14-.1-.11-.32.03-.5.13-.19.35-.24.46-.16.11.1.11.34-.03.5zm-.4-.63c-.17.2-.42.29-.55.18-.14-.1-.14-.37.02-.55.17-.21.41-.29.55-.18.14.1.11.34-.03.55zm-.77-1.16c.19.16.19.48-.03.74s-.52.37-.74.2c-.2-.15-.2-.46.03-.73.22-.26.55-.36.74-.2z" fill="#FEBE10"/><defs><linearGradient id="agm02t4oy" x1="3.35" y1="3.12" x2="21.9" y2="24.43" gradientUnits="userSpaceOnUse"><stop stop-color="#1A1E21"/><stop offset="1" stop-color="#06060A"/></linearGradient></defs></svg>