<!-- by TradingView --><svg xmlns="http://www.w3.org/2000/svg" width="18" height="18" viewBox="0 0 18 18"><path fill="#F0F3FA" d="M0 0h18v18H0z"/><path d="M9 5.23L6.54 6.99l-.74-.7L9 4l3.12 2.23-.7.72L9 5.23zm3.03 2.16L14.28 9l-2.33 1.66.77.68L16 9l-3.27-2.34-.7.73zM9 12.77l2.33-1.66.79.66L9 14l-3.17-2.26.9-.6L9 12.77zM6.1 10.7L3.72 9l2.2-1.57-.72-.72L2 9l3.23 2.3.87-.6z" fill="#E91A20"/><path d="M6.45 10.79l.87-3.58H8l.81 3.58h-.64L8 10.07h-.76l-.16.72h-.63zm1.18-2.86L7.4 9.36h.5l-.26-1.43zM9 7.21h.64v3.57H9zm1.93 0c.41 0 .77.23.88.33l-.3.48a.93.93 0 00-.58-.24c-.32 0-.36.26-.36.34 0 .09.04.31.32.42.27.1.97.4.97 1.1a1.1 1.1 0 01-1.1 1.15c-.48 0-.85-.22-.98-.34l.27-.54c.12.1.42.32.7.3.36-.05.42-.3.43-.4.02-.1-.03-.33-.42-.48-.4-.15-.85-.45-.85-1.07 0-.62.47-1.05 1.02-1.05z" fill="#0066B8"/></svg>