<!-- by TradingView --><svg width="18" height="18" xmlns="http://www.w3.org/2000/svg"><path fill="#2088CA" d="M0 0h18v18H0z"/><path d="M14 9.004c0-1.38-.492-2.56-1.467-3.54C11.558 4.485 10.383 4 9 4s-2.558.485-3.533 1.464C4.483 6.444 4 7.624 4 9.004c0 1.381.483 2.553 1.467 3.532C6.442 13.515 7.617 14 9 14s2.558-.485 3.533-1.464c.975-.98 1.467-2.151 1.467-3.532zm-3.467-1.506c.425.418.634.929.634 1.523a2.09 2.09 0 01-.634 1.531 2.052 2.052 0 01-1.516.628c-.592 0-1.1-.21-1.517-.628a2.123 2.123 0 01-.633-1.531c0-.594.216-1.105.633-1.523a2.041 2.041 0 011.517-.636c.6 0 1.1.21 1.516.636zm.917-1.715c1 .887 1.508 1.849 1.55 2.887-.833-1.306-2.05-2.034-3.667-2.176.492-.477 1.2-.72 2.117-.711zm-5.642.669C6.792 5.422 7.85 4.929 9 4.988c-1.533.878-2.342 2.159-2.442 3.849-.516-.552-.766-1.347-.75-2.385zm3.025 5.188c-.483.469-1.183.72-2.108.753C5.542 11.448 4.967 10.352 5 9.105c.8 1.506 2.075 2.351 3.833 2.535zm2.85-2.326c.475.636.7 1.272.692 1.908-.767 1.063-1.758 1.674-2.958 1.816 1.383-.912 2.141-2.15 2.266-3.724z" fill="#fff"/><path d="M10.563 9h-.313c-.066.623-.624.937-1.563.937l.372-1.719c.008-.225.074-.372.189-.424.131-.017.205-.191.213-.356H8.062v.312c.124.009.096.117.055.316l-.225 1.025c-.09.614-.16.855-.25.846-.14.01-.205.15-.205.314h2.813L10.563 9z" fill="#fff"/></svg>