<!-- by TradingView --><svg width="18" height="18" xmlns="http://www.w3.org/2000/svg"><path fill="#F0F3FA" d="M0 0h18v18H0z"/><path d="M5.634 6.864c-1.1-.037-1.975.6-2.241.89.878-.707 2.24-.378 2.783.028l3.85 2.615c.869.734 1.983.889 2.595.889.931 0 1.682-.631 1.915-.922-1.385.541-2.48.033-3.024-.334L7.94 7.633c-.87-.68-1.885-.776-2.306-.769z" fill="url(#paint0_linear)"/><path d="M5.45 5.003c-.992-.02-1.766.345-2.032.523.086.56.238.814.339.934.08.096.23.04.294 0 1.195-.734 2.824-.198 3.49.161-.473-1.23-1.593-1.596-2.09-1.618z" fill="url(#paint1_linear)"/><path d="M8.875 8.372c.111-2.166-2.08-3.44-3.475-3.37 1.023.08 2.813 1.36 2.227 3.37-.586 2.01-2.313 2.333-2.835 2.333-.418 0-1.105-.385-1.282-.47.62.714 1.545.972 2.42.972 2.25-.199 2.9-1.965 2.945-2.835z" fill="url(#paint2_linear)"/><path d="M3 8.878c0-1.601 1.492-1.696 2.189-1.49-.16 0-.786.708-.801 1.49-.021 1.104.742 1.595 1.13 1.705C5.161 10.787 3 10.994 3 8.878z" fill="url(#paint3_linear)"/><path d="M13.636 8.844c-.08-1.246-1.01-1.668-1.449-1.708.307-.148.584-.188 1.303-.128.899.075 1.472 1 1.508 1.836.03.669-.296 1.293-.463 1.521-.748.405-1.582.3-1.906.197.813-.375 1.01-1.301 1.008-1.718z" fill="url(#paint4_linear)"/><path d="M9 9.304v3.842c0 .707.615.865 1 .853V9.656c.067-.975 1.135-2.264 2.444-2.597.916-.233 1.753.17 1.96.392-.781-.825-1.632-1.107-2.338-1.057C9.848 6.55 8.912 8.35 9 9.304z" fill="url(#paint5_linear)"/><defs><linearGradient id="paint0_linear" x1="3.47" y1="7.414" x2="14.541" y2="10.183" gradientUnits="userSpaceOnUse"><stop offset=".091" stop-color="#F6BF42"/><stop offset=".5" stop-color="#ED4235"/><stop offset=".841" stop-color="#F9883E"/></linearGradient><linearGradient id="paint1_linear" x1="3.221" y1="6.276" x2="7.119" y2="4.874" gradientUnits="userSpaceOnUse"><stop offset=".336" stop-color="#5D3E8B"/><stop offset=".487" stop-color="#A28EBF"/><stop offset=".621" stop-color="#5C358D"/></linearGradient><linearGradient id="paint2_linear" x1="6.527" y1="-1.223" x2="6.213" y2="11.23" gradientUnits="userSpaceOnUse"><stop offset=".16" stop-color="#E93E32"/><stop offset=".606" stop-color="#FCB53D"/><stop offset=".898" stop-color="#EF4138"/></linearGradient><linearGradient id="paint3_linear" x1="4.263" y1="7.308" x2="4.263" y2="10.729" gradientUnits="userSpaceOnUse"><stop offset=".117" stop-color="#231044"/><stop offset=".476" stop-color="#9F8AC2"/><stop offset=".915" stop-color="#351561"/></linearGradient><linearGradient id="paint4_linear" x1="13.61" y1="6.993" x2="13.61" y2="10.656" gradientUnits="userSpaceOnUse"><stop offset=".075" stop-color="#221148"/><stop offset=".484" stop-color="#A590C9"/><stop offset=".9" stop-color="#351561"/></linearGradient><linearGradient id="paint5_linear" x1="11.75" y1="6.529" x2="9.978" y2="13.973" gradientUnits="userSpaceOnUse"><stop offset=".079" stop-color="#F14137"/><stop offset=".448" stop-color="#FCB53F"/><stop offset=".915" stop-color="#EF423B"/></linearGradient></defs></svg>