<!-- by TradingView --><svg xmlns="http://www.w3.org/2000/svg" width="18" height="18"><path fill="#F0F3FA" d="M0 0h18v18H0z"/><path d="M5 9.03a3.95 3.95 0 012.47-3.67 4.03 4.03 0 015.45 2.9 3.94 3.94 0 01-1.7 4.07 4.02 4.02 0 01-5.91-1.78c-.2-.48-.3-1-.3-1.52z" fill="#00B48D"/><path d="M5 9a4 4 0 013.98-4 3.9 3.9 0 013.83 2.8c-.08.07-.1.1-.2.12-.31 0-.77.4-.77.4l-.76.9-1.43 1.44s-.13.03-.15-.21c-.01-.25-.2-1.11-.2-1.11-.08.2-.2.4-.35.55-.26.29-1.44.96-2.17 1.02-.4.04-.82-.07-1.15-.32-.12-.22-.29-.4-.5-.56A3.98 3.98 0 015 9z" fill="#164D92"/><path d="M9.58 7.88s-.04-.04-.1.18c-.04.27-.07.54-.07.82.18-.27.3-.58.35-.9 0-.17-.18-.1-.18-.1zm-.96 1.16v.01c.03 0 .07 0 .1.02.07.04.1.15.07.17-.05.03-.56.35-.69.3-.12-.05-.6-.52-.89-.71-.3-.2-1.73-.66-1.8.54-.06 1.2 1.19 1.56 1.98 1.29.8-.27 1.68-1.31 1.68-1.31-.01-.91.07-1.16.24-1.5.19-.37.78-.4.68.22-.1.44-.3.86-.59 1.2.12.4.2.8.24 1.2 0 0 1.38-1.6 1.98-2.21.6-.6 1.07-.4 1.07-.4-.14.07-.17.52-.2.59-.02.07-.18 0-.18 0l.02-.16c-.25-.37-.77.3-1.03.85-.27.56-.4 1.69-.4 1.69l.37.02v.2a2.5 2.5 0 00-.75.23c0-.14 0-.28.02-.41.02-.34.29-1.41.29-1.41s-.44.46-.6.67c-.16.2-.92 1.06-.92 1.06l-.12-.12c.05-.23.08-.47.09-.71l-.12-.66-.31.3c-.36.35-.77.64-1.21.87-2.36.73-2.87-1.37-2.24-2.14.62-.76 1.51-.46 1.74-.37.27.12 1.17.84 1.28.86.1 0 .17-.13.2-.16v-.02z" fill="#F0F3FA"/><path fill-rule="evenodd" d="M9 14.5a5.5 5.5 0 100-11 5.5 5.5 0 000 11zm0 .5A6 6 0 109 3a6 6 0 000 12z"/></svg>