<!-- by TradingView --><svg xmlns="http://www.w3.org/2000/svg" width="18" height="18"><path fill="#0065B3" d="M0 0h18v18H0z"/><path fill-rule="evenodd" d="M9 13c3.87 0 7-1.8 7-4s-3.13-4-7-4-7 1.8-7 4 3.13 4 7 4zM5.17 9.04h-.3l.42-.83H6.3l.41.83.2.42h.94a.2.2 0 100-.42h-.22l-.42-.83h1l.09.09v1.57H8a.2.2 0 100 .42h.95a.2.2 0 100-.42h-.3v-1.2l.66.84.89-1.02v1.38h-.34a.2.2 0 100 .42h1.72v.83h-.14a.2.2 0 000 .42h.96a.2.2 0 100-.42h-.13v-.83h1.1a.62.62 0 000-1.25h-1.92a.2.2 0 000 .42h.14v.41h-.7V8.21h.37a.2.2 0 000-.42h-.99l-.68.88-.63-.88H7.02l-.6-1.25H5.7l-1.24 2.5H4.2a.2.2 0 000 .42h.96a.2.2 0 100-.42zm8.14.62a.2.2 0 01-.2.21h-.83v-.41h.82c.12 0 .21.09.21.2zM5.46 7.8l.33-.65.32.65h-.65z" fill="#fff"/></svg>