<!-- by TradingView --><svg width="18" height="18" viewBox="0 0 18 18" xmlns="http://www.w3.org/2000/svg"><path fill="#F58220" d="M0 0h18v18H0z"/><path d="M12.909 8.62a9.77 9.77 0 01.199-.493c.1-.21.239-.422.378-.615.14-.176.319-.404.558-.615.16-.14.319-.246.398-.211.1.052-.14.404-.219.51a5.772 5.772 0 01-.976 1.142 3.59 3.59 0 01-.259.211l-.06.053-.02.017zm-5.179.105c.319-.457.478-.701.817-1.123h.717l.518-.801h-.757c.123-.163.378-.302.378-.52-.02-.263-.557-.316-.717-.123-.199.176-.336.446-.518.643h-.577l-.538.8h.606l-.765 1.124c-.518.844-1.693 1.072-1.016 0 .18-.264.418-.663.518-.856h-.777c-.359.492-.857 1.612-1.554 1.577-.338-.036-.298-.317-.239-.493.22-.58 1.414-1.845 2.132-2.144.258-.106.318.105.179.457-.18.351-.24.474-.18.51.14.088 1.136-1.002.897-1.582-.22-.65-2.131.439-3.187 1.775a3.026 3.026 0 00-.617 1.16c-.28.95.657 1.213 1.832.317-.16.879 1.056.597 1.832 0 .06.879 1.355.58 1.893 0 .12.843 1.493.597 1.991 0 0 .457.26.562.618.545h.12c.398-.053.776-.264 1.075-.545.02.246.16.51.478.545.398.052.697-.317.896-.598.08-.123.14-.246-.12-.088-.179.105-.438.229-.617.158a.303.303 0 01-.18-.263c.578-.405.797-.563 1.395-1.143.498-.475.737-1.072.737-1.565 0-.369-.18-.474-.418-.44-.757.089-1.434.968-1.813 1.6-.219.37-.398.915-.398 1.354l-.18.123c-.298.194-.597.352-.796.334-.637-.017.279-1.383.418-1.594h-.717c-.378.597-.677 1.717-1.533 1.559-.32-.088-.16-.475.04-.826l.497-.733h-.776c-.16.228-.498.803-.678 1.014-.597.826-1.493.686-.916-.158z" fill="#fff"/><path d="M4.02 12.868c.12.088.202.132.282.132.102 0 .223-.066.405-.154 2.752-1.185 5.948-1.426 8.862-.834.424.11.789.264.83.132.02-.088-.122-.153-.73-.46-1.962-.966-6.008-.769-8.72-.264-.566.11-1.173.241-1.719.439-.222.088-.344.153-.08.351.222.154.465.373.707.549.04.044.101.066.162.11z" fill="#009448"/></svg>