<!-- by TradingView --><svg xmlns="http://www.w3.org/2000/svg" width="18" height="18"><path fill="#F0F3FA" d="M0 0h18v18H0z"/><path fill-rule="evenodd" d="M9 13c3.31 0 6-1.8 6-4s-2.69-4-6-4-6 1.8-6 4 2.69 4 6 4zm0-.29c2.76 0 5-1.66 5-3.71s-2.24-3.71-5-3.71S4 6.95 4 9s2.24 3.71 5 3.71z" fill="#424497"/><path d="M7.38 6.14h1.48l1.64 1.62v1.4L7.38 6.15zm4.92 5.15h-1.33L8.7 9.14V7.86l3.6 3.43zM7.5 8.52l.9-1.04v1.81l1.25 1.14h-1.3l-.85-.77V8.52zm-.2 1.34l.77.68-.88.75H5.75L7.3 9.86z" fill="#424497"/></svg>