<!-- by TradingView --><svg width="18" height="18" viewBox="0 0 18 18" xmlns="http://www.w3.org/2000/svg"><path fill="#F0F3FA" d="M0 0h18v18H0z"/><path d="M13.226 9.87v-.6s-.034.018-.07.092c-.112.225-.328.841-.627 1.243-.116.158-.288.266-.392.432-.226.357.033.697.454.581.353-.098.635-.92.635-1.75z" fill="#50B883"/><path d="M8.005 11.48c-1.852-.183-3.056.814-3.404 1.336-.037.147.136.184.227.184h6.81c.834 0 1.588-.46 1.588-.645v-.782c-.636.506-1.135.598-2.043.598-.908 0-1.861-.552-3.178-.69z" fill="#0387CF"/><path d="M6.099 11.205c.045-.046 1.68-1.796 1.861-1.888.318-.16 1.627.762 1.77 1.197.144.436.091.838-.998.507-1.09-.332-1.604-.139-2.452.23-.067.029-.227 0-.181-.046z" fill="#DA662B"/><path d="M8.414 8.765c.182-.23 1.362-1.427 1.362-1.427.09-.138 1.008 1.215 1.044 2.21.047 1.277-.55 1.058-1.044.414-.273-.355-.563-.652-.817-.829-.227-.157-.613-.282-.545-.368z" fill="#E28E22"/><path d="M12.817 4.024s-2.224 2.301-2.406 2.67c-.019.039.37.484.58 1.15.447 1.427.156 2.164.238 2.44.089.3.427.26.621.138 1.104-.696 1.694-5.063 1.104-6.361-.048-.064-.095-.08-.137-.037z" fill="#17C1F2"/></svg>