<!-- by TradingView --><svg width="18" height="18" viewBox="0 0 18 18" xmlns="http://www.w3.org/2000/svg"><path fill="#005DAB" d="M0 0h18v18H0z"/><path d="M5.656 9.032L4 8.253V6.175l3.813 1.819 1.03-.488c.063-.032.126-.097.126-.162s-.063-.13-.125-.195L5.406 5.526l3.032-1.461A.571.571 0 018.688 4c.093 0 .187.032.25.065L13.53 6.24c.219.098.469.228.469.52 0 .292-.25.422-.469.52L9.906 9l3.625 1.72c.219.098.469.228.469.52 0 .293-.25.422-.469.52l-4.594 2.175a.572.572 0 01-.25.065.572.572 0 01-.25-.065l-3.062-1.428 3.438-1.624a.22.22 0 00.124-.195c0-.065-.062-.13-.124-.162l-1.032-.487L4 11.857V9.812l1.656-.78z" fill="#fff"/></svg>