<!-- by TradingView --><svg width="18" height="18" viewBox="0 0 18 18" xmlns="http://www.w3.org/2000/svg"><path fill="#007B1B" d="M0 0h18v18H0z"/><path fill-rule="evenodd" d="M10.173 8.084c.886-.66 1.373-1.334.605-1.615-1.142-.419-2.825.548-3.922 1.388l.82-1.753c.133-.286-.095-.604-.435-.604a.471.471 0 00-.448.296l-2.284 6.277c-.037.103.046.208.163.208a.173.173 0 00.159-.096l1.89-4.039c3.02-2.264 3.55-.697 2.859-.063-.564 0-2.061.184-2.88.843-.736.592.176.813.906.546a11.281 11.281 0 002.16-1.105c.648-.04 1.909-.02 2.422.685-3.948.775-6.146 2.203-5.992 2.906.282 1.292 3.963-.009 5.64-.969 1.284-.735 1.913-1.364 1.572-1.914-.591-.952-2.164-.984-3.235-.991zm-1.158.322c.01.02-.561.423-1.097.636-.536.213-1.014.292-1.068.178-.055-.115.336-.38.871-.593.536-.213 1.285-.241 1.294-.22zm1 3.193c1.468-.584 2.415-1.71 2.173-2.224-.02-.043-1.48.317-2.825.852-1.344.535-2.29 1.276-2.11 1.655.18.38 1.416.252 2.761-.283z" fill="#fff"/></svg>