<!-- by TradingView --><svg width="18" height="18" xmlns="http://www.w3.org/2000/svg"><path fill="#F68F36" d="M0 0h18v18H0z"/><path d="M10.4 4H6v10h3.897c1.066-.061 3.18-.727 3.1-2.899-.077-2.172-1.764-2.847-2.597-2.914.503-.097 1.503-.678 1.48-2.224C11.858 4.417 10.825 4.01 10.4 4z" fill="#fff"/><path d="M6.42 13.922a2.01 2.01 0 01.209-.68 1.6 1.6 0 01.32-.918c.012-.557.154-.845.224-.918h.685c-.011.202-.322.696-.475.918.033.507-.126.823-.21.918-.009.175-.066.503-.167.68H6.42zm.969-.001c.023-.112.078-.344.19-.442 0-.271.078-.878.39-1.135-.009-.236.012-.74.168-.875.163-.081.497-.15.53.23-.018.154-.103.522-.292.767.009.225-.037.743-.294 1.013a.545.545 0 01-.02.442H7.39zm1.088.003c.014-.174.065-.48.233-.614 0-.19.058-.629.293-.874.028-.225.117-.697.251-.783h.685c-.089.24-.285.755-.363.89-.024.24-.12.77-.322.966 0 .077.028.277-.168.415h-.609z" fill="#000"/><path d="M6.67 11.791c.492-.638.503-.398.447-.199.358-.233.558-.097.613 0 .03-.042.162-.017.225 0l.112.127c.045-.073.09-.206.353-.206.21 0 .282.185.292.278.01-.066.068-.199.218-.199s.203.133.21.2h.893c.042-.283.127-.403.165-.428l.06.78.405-1.085c-.012-.123.002-.361.158-.326.156.036.16.232.142.326-.264.262-.45 1.13-.51 1.533.324-.923.66-1.324.788-1.409v-.37l-.158-.297c.336-.346.43-.117.435.041v1.508c.435-1.524.3-2.159.12-2.225-.144-.052-.395.022-.502.066.156-.31.52-.574.682-.667-.27-.083-.607.23-.735.346 0-.321-.075-.766-.42-.766-.276 0-.425.236-.465.354.402-.184.583-.077.623 0v.412c-.053-.088-.209-.263-.413-.263s-.495.175-.615.263c.054-.316.462-.796.66-.997-.312.033-.66.503-.795.734-.15-.131-.023-.347-.053-.866-.024-.415-.32-.337-.465-.247l-.72.61c.205-.088.65-.284.788-.363.172-.098.225.107.165.453-.06.346-.345.413-.443.157-.078-.205-.223-.146-.285-.09l-.488.346c-.06-.527.15-1.11.263-1.335-.234.145-.443.895-.518 1.252 0-.083-.09-.453-.21-.733-.096-.224-.26-.127-.33-.05-.132.146-.417.493-.495.717-.078.224-.288.582-.383.733.45-.336.863-.947 1.013-1.21.138.25.14.521.123.626-.637.246-1.243 1.186-1.466 1.626C6.98 9.99 7.476 9.72 7.62 9.706v.383c-.042-.036-.2-.061-.503.123-.301.184-.768 1.365-.963 1.932.172-.24.564-.831.754-1.273.19-.441.275-.276.293-.138l-.53 1.058z" fill="#000"/><path d="M8.172 9.972V9.56c.103-.09.336-.268.45-.255.114.013.078.126.045.181l-.495.486zm-.15.338l.728-.56c0 .375-.13.678-.195.782l-.083-.099h-.36c-.126 0-.112-.082-.09-.123z" fill="#fff"/></svg>