<!-- by TradingView --><svg width="18" height="18" xmlns="http://www.w3.org/2000/svg"><path fill="#024176" d="M0 0h18v18H0z"/><path d="M8.854 4.003A5 5 0 004 8.995a5 5 0 004.997 5c.915 0 3.398-.383 4.568-2.965a4.3 4.3 0 01-1.624.317c-2.383 0-4.308-1.544-4.311-3.926-.003-1.224.367-2.208.934-2.935.115-.147.304-.354.433-.486l-.143.003z" fill="url(#paint0_linear)"/><path d="M9.446 4.487c.75 1 .923 1.957.923 2.939 0 2.382-1.93 3.926-4.31 3.926a4.3 4.3 0 01-1.624-.317C5.627 13.691 8.085 14 9 14a5 5 0 005-5 5.001 5.001 0 00-4.855-4.993L8.997 4c.13.132.337.336.449.487z" fill="url(#paint1_linear)"/><path d="M8.41 4.596c-.598.725-.978 1.67-.972 2.804.005 1.246.612 2.285 1.566 2.972.949-.687 1.577-1.706 1.558-2.95-.012-.93-.112-1.8-1.027-2.907A4.7 4.7 0 009 4c-.015 0-.358.313-.591.596z" fill="#fff"/><defs><linearGradient id="paint0_linear" x1="3.981" y1="4.365" x2="10.219" y2="11.885" gradientUnits="userSpaceOnUse"><stop stop-color="#EF3B23"/><stop offset="1" stop-color="#8B131E"/></linearGradient><linearGradient id="paint1_linear" x1="4.056" y1="9" x2="12.431" y2="9" gradientUnits="userSpaceOnUse"><stop stop-color="#B7212F"/><stop offset="1" stop-color="#EF3B23"/></linearGradient></defs></svg>