<!-- by TradingView --><svg width="18" height="18" xmlns="http://www.w3.org/2000/svg"><path fill="#F26522" d="M0 0h18v18H0z"/><path d="M5.49 12.598l1.893-.086c.56-.02 1.103-.049 1.63-.22 1.08-.347 1.984-1.029 2.237-1.902.271-.936-.39-1.844-1.567-1.923l.006-.02c.99-.26 1.84-.866 2.066-1.646C12.177 5.346 10.89 5 9.27 5H5.838L4 11.375l.024-.002c.036-.002.071-.002.106-.002l2.852-5.94.067.007-2.529 5.985c.026.007.051.015.077.024L9.204 5.35l.079.02-4.42 6.19c.019.01.032.021.047.033l.028.02 6.23-5.351.052.061L5.168 11.8a.28.28 0 01.039.048.672.672 0 00.024.034l5.207-2.555.032.076-5.091 2.713c.02.041.024.053.04.097l4.847-1.12-.003.075-4.782 1.324v.006c.006.04.007.055.008.1zM5.477 13h4.009c.56-.021 1.104-.052 1.63-.224 1.08-.345 1.89-.944 2.21-1.909.309-.925-.328-1.987-1.49-2.07.99-.26 1.859-.853 2.085-1.633.397-1.37-.77-1.88-2.262-1.856.897.187 1.428.726 1.134 1.739-.225.78-1.075 1.386-2.071 1.666 1.176.079 1.8.99 1.528 1.925-.253.874-1.113 1.58-2.192 1.926-.527.172-1.07.2-1.631.22l-2.952.113.002.103z" fill="#fff"/></svg>