<!-- by TradingView --><svg width="18" height="18" viewBox="0 0 18 18" xmlns="http://www.w3.org/2000/svg"><path fill="#007CC5" d="M0 0h18v18H0z"/><path d="M9 11.44L5.837 14l1.77-3.501L4 8.59l4.125.404L9 3l.875 5.995L14 8.59l-3.608 1.909L12.162 14l-3.163-2.56z" fill="#E3300C"/><path d="M9.874 8.995H8.125L7.61 10.5l1.39.94 1.392-.941-.518-1.504z" fill="#007CC5"/><path d="M9 3.441l-.785 5.4L9 8.457l-.002-5.016zM7.321 9.583l-3.03-.905 3.205 1.69-.175-.785zm6.386-.906l-3.648.36.627.543 3.02-.903zm-3.655 2.703l1.926 2.392-1.573-3.098-.353.707zM6.02 13.774l2.806-2.277-.877-.117-1.93 2.394zm3.089-2.335l.894-.118.36-.73-1.254.848zm-1.471-.847l.36.728.893.119-1.253-.847zm.399-1.532l-.637.546.178.793.459-1.34zm1.926 0l.637.546-.178.793-.46-1.34zm-.168-.124L9 8.543l-.796.393h1.59z" fill="#EE7A00"/><circle cx="9" cy="10" r="1" fill="#fff"/></svg>