<!-- by TradingView --><svg xmlns="http://www.w3.org/2000/svg" width="18" height="18" viewBox="0 0 18 18"><path fill="#0089CF" d="M0 0h18v18H0z"/><path fill-rule="evenodd" d="M9 14.5a5.5 5.5 0 100-11 5.5 5.5 0 000 11zm0 .5A6 6 0 109 3a6 6 0 000 12zm2.37-4.16h.34V7.18H10.3v3.66h1.08zm0-3.84h.5v4H6.12a3.5 3.5 0 100-4h1.7v3.84h.26v-.1h.17l.07-.6c-.08-.04-.11-.12-.14-.2-.04-.07-.07-.14-.14-.18v-.12h.14c.03.14.13.2.22.2v-.31c-.1 0-.3-.23-.34-.32v-.08h.2l.03.15h.1l.03-.22c-.04-.02-.07-.08-.11-.14-.07-.1-.14-.2-.21-.2V8.6h.17c0 .13.03.18.19.17l-.02-.24c-.07-.01-.12-.06-.16-.11-.05-.05-.09-.1-.16-.12v-.13h.2c0 .12.1.13.18.13v-.21a.42.42 0 01-.15-.17c-.05-.07-.09-.13-.17-.13v-.13h.2c0 .12.05.16.14.13v-.15a.46.46 0 01-.14-.15c-.04-.07-.09-.13-.17-.14V7.2h.14c.05.19.15.19.22.17V7.2c-.08-.03-.41-.38-.3-.38h.08c.05 0 .07.03.1.07.02.05.05.1.12.1v-.2c-.1 0-.14-.07-.17-.14-.02-.05-.04-.11-.11-.11-.02-.02-.02-.06-.02-.1h.17c.02.08.08.12.15.14.04-.06.04-.1.04-.18 0-.04-.02-.07-.03-.1-.04-.12-.07-.23.07-.33-.13-.35.08-.6.32-.36.1.1.12.19.14.3v.06c.08.1.04.2 0 .29a.44.44 0 00-.03.15c.01.1.03.1.09.15l.03.02c.07-.02.13-.06.15-.15h.17c-.02.05-.02.09-.02.11-.06 0-.1.05-.14.1-.04.06-.1.12-.18.13v.2c.08 0 .12-.06.15-.1.03-.04.05-.08.09-.08h.08c.1-.02-.2.36-.28.4v.18c.05.02.13.02.17-.17h.2v.15c-.1.01-.14.07-.18.14a.4.4 0 01-.14.15v.17c.08 0 .19-.03.19-.15h.19v.13a.54.54 0 00-.2.15l-.16.15v.21c.1 0 .21-.04.21-.17h.19v.17c-.07.03-.12.07-.18.11-.05.05-.1.1-.18.12v.24l.06-.04.22-.13h.17v.12c-.08 0-.17.1-.25.2a.8.8 0 01-.16.14v.22h.24l.02-.15h.2c0 .17-.18.35-.33.4v.32c.08 0 .23-.07.23-.24h.17c0 .18-.13.36-.24.5l-.02.03.05.58h.2v.12h.25V7h1.2zm-5.25.02a3.49 3.49 0 000 3.97V7.02zm.84.16h.73v3.66H6.26V7.18h.7zM13 9a4 4 0 11-8 0 4 4 0 018 0z" fill="#fff"/><path d="M7.37 8h-.7v1h.7V8zm4 0h-.7v1h.7V8zm-4.7 1.45h.7v1h-.7v-1zm4.7 0h-.7v1h.7v-1z" fill="#DFDFDF"/></svg>