<!-- by TradingView --><svg xmlns="http://www.w3.org/2000/svg" width="18" height="18"><path fill="#003973" d="M0 0h18v18H0z"/><path d="M3 5h2v1.45a3 3 0 01.83-.12c1.57 0 2.84 1.2 2.84 2.67s-1.27 2.67-2.84 2.67C4.27 11.67 3 10.47 3 9V5zm2.83 4.83a.83.83 0 100-1.66.83.83 0 000 1.66zM10 13h2v-1.28a3 3 0 00.83.11c1.57 0 2.84-1.2 2.84-2.66 0-1.48-1.27-2.67-2.84-2.67C11.27 6.5 10 7.7 10 9.17V13zm2.83-4.67a.83.83 0 110 1.67.83.83 0 010-1.67z" fill="#fff"/><path d="M7 7.92c0-.5.54-.92 1.2-.92H11v4H8.2c-.66 0-1.2-.41-1.2-.92V7.92z" fill="#003973"/><path d="M8.2 7c-.66 0-1.2.38-1.2.86v2.28c0 .48.54.86 1.2.86H11v-.29H8.2c-.44 0-.8-.25-.8-.57V7.86c0-.32.36-.57.8-.57H11V7H8.2z" fill="#fff"/><path d="M7.04 8.33h4v.34h-4v-.34zM7 9.5h4v.33H7V9.5z" fill="#fff"/></svg>