<!-- by TradingView --><svg width="18" height="18" viewBox="0 0 18 18" xmlns="http://www.w3.org/2000/svg"><path fill="#29417C" d="M0 0h18v18H0z"/><path d="M4.833 6.059c0-.036.031-.062.062-.062h8.21c.03 0 .062.026.062.062V7H4.833v-.941zM4.895 5C4.399 5 4 5.39 4 5.862v6.276c0 .473.4.862.895.862h8.21c.496 0 .895-.39.895-.862V5.862c0-.473-.4-.862-.895-.862h-8.21z" fill="#fff"/><path d="M6.209 9h1.529c.097.012.15.127.122.211l-.235.711c-.02.037-.065.064-.121.087.052.05.054.11.028.174l-.27.7c-.019.06-.106.124-.19.117H5.537c-.02-.014-.018-.044.011-.11.225-.687.449-1.375.66-1.89zm.264 1.142l-.213.613c.005.018.04.022.103.02.082 0 .136-.006.173-.111l.15-.392c.019-.1-.011-.14-.096-.135l-.117.005zm.297-.873l-.212.624c.005.019.039.028.102.027.077.019.137-.013.174-.118l.149-.392c.02-.1-.01-.145-.095-.141H6.77zM8.956 7.77L8.073 9h.114l-.638 2h.404l-.375 1.212L8.424 11h-.116l.314-.852h.26L8.608 11h.364l-.385 1.263L9.509 11h-.127l.672-2h-.431l.372-1.203-.022.003-.827 1.144-.04.056h.124l-.285.897h-.247L8.968 9h-.404l.392-1.23zM10.342 9h1.174a.483.483 0 01-.063.218l-.408.01-.226.669h.387a.657.657 0 01-.059.25h-.409l-.232.629h.403a.408.408 0 01-.066.224H9.704c-.034-.004-.052-.015-.036-.073.216-.648.435-1.314.674-1.927zm1.364 0h.77l-.567 1.777.388-.001a.328.328 0 01-.074.224h-1.167l-.006-.095L11.706 9z" fill="#29417C"/></svg>