<!-- by TradingView --><svg width="18" height="18" viewBox="0 0 18 18" xmlns="http://www.w3.org/2000/svg"><path fill="#7C0303" d="M0 0h18v18H0z"/><path d="M10.235 9.266c-.095.358-.464.734-.943 1.025V9.187h.968c-.007.037-.014.04-.025.079zm-.943-1.577c.487.301.882.663.968 1.123h-.968V7.69c.027.016-.028-.017 0 0zm-4.959 3.542V9.188h.536c-.005-.004.006 0 0 0 .993.705.357 1.483-.536 2.043zm0-4.462c.884.554 1.555 1.343.606 2.043.01-.003-.004.003 0 0h-.606V6.77zM16 9.187s-2.047-.292-2.605-.538c-.559-.245-.777-.525-.777-.525.183.495.503.688.503.688h-1.857c-.145-.677-.929-1.135-1.972-1.436V6.288L9 6.237v1.072c-.246-.064-.575-.121-.823-.17 0 0 .37.139.823.404v1.27H6.647c.765-1.13-.922-1.95-2.314-2.402v-.123l-.291-.051v.088C3.332 6.11 2.754 6 2.754 6s.64.238 1.288.606v2.207H2v.374h2.042v2.207c-.648.368-1.288.606-1.288.606s.578-.11 1.288-.325v.052l.291-.052v-.086c1.408-.457 3.118-1.251 2.286-2.402H9v1.247a6.047 6.047 0 01-.823.373s.393-.053.823-.168v1.088l.292-.052v-1.104c.85-.25 1.835-.674 1.978-1.383H16z" fill="#fff"/></svg>