<!-- by TradingView --><svg width="18" height="18" xmlns="http://www.w3.org/2000/svg"><path fill="#00AEEF" d="M0 0h18v18H0z"/><path d="M6.875 5h8.061l.042.022.015.015.007.021v.023l-.006.024-.012.024-1.015 1.807-.018.029-.017.019-.018.01-.022.006h-2.574l-.038-.001-.02-.008-.006-.016.005-.028.04-.162.012-.066.005-.066.002-.066-.004-.069-.008-.067-.013-.067-.018-.068-.02-.065-.025-.066-.03-.062-.032-.061-.036-.06-.04-.057-.041-.054-.046-.05-.048-.047-.052-.042-.053-.04-.056-.033-.057-.029-.026-.01-.026-.01-.026-.011-.027-.009-.028-.007-.029-.008-.027-.007-.029-.006-.029-.006-.027-.005-.029-.005-.029-.002-.03-.005-.027-.002-.029-.003-.03-.001-.028-.001-.027-.001-.029-.002H6.504l-.03-.005-.019-.009-.012-.018-.01-.024.005-.026.175-.424.02-.014.04-.011.049-.008.056-.005.053-.003L6.875 5zM4.98 8.685h-.018l-.019.003-.018.006-.02.007-.017.009-.018.01-.02.01-.016.014-.019.014-.016.016-.015.016-.015.017-.012.018v.307s.005.09.017.097l.037.01.036.005 4.218.013h.045l.042.005.044.007.046.01.044.014.043.015.043.019.043.02.041.023.04.026.038.028.037.03.035.03.034.035.03.035.027.036.025.04.021.042.019.042.014.042.05.178s.014.063.069.063h2.642s.043.003.066-.01c.029-.016.052-.067.052-.067l.995-1.82.01-.03-.003-.027-.017-.015-.036-.014-.06-.012-.061-.004-2.352.004-.027.001-.02.012-.025.024s-.377.372-.773.529a1.38 1.38 0 01-.598.118H4.98zm-1.277 3.778h-.392c-.138.04-.303.46-.303.46L3 12.947l.007.025.016.019.024.008h8.223l.03-.002.021-.011.02-.023.023-.04.99-1.827.008-.027-.002-.022-.012-.018-.017-.012-.022-.01-.025-.005-.023-.002H9.855l-.028.006-.018.01-.015.015-.015.027s-.258.532-.686.933c-.326.305-.931.489-1.417.489l-3.972-.017z" fill="#fff"/></svg>