<!-- by TradingView --><svg xmlns="http://www.w3.org/2000/svg" width="18" height="18" viewBox="0 0 18 18"><path fill="#009846" d="M0 0h18v18H0z"/><path d="M4.8 6.85c-.02-.38-.4-.49-.59-.5a.84.84 0 00-.37.08c-.12 0-.16-.05-.17-.07.02-.5.54-.75 1.08-.73.43.02 1.17.42 1.24.62v6.08l-.52.67h2.98L8 12.33V6.48s-.01-.58.58-.6c1.22 0 1.74.45 1.75 1.07.02.62-.23 1.09-.75 1.09-.42 0-.71-.24-.92-.41-.08.08-.21.3-.15.53.07.28.66.56.88.65.17.08.45.03.57 0 .36-.09.6-.07.72-.09.34-.04 1.27.35 1.32 1.8.05 1.46-.85 1.77-1.16 1.81-.3.04-.69-.18-.5-.35.17-.17.22-.45.23-.56.02-.12-.07-.9-1.06-.9-.74 0-1 .51-1 .8C8.48 12.63 9.8 13 11.3 13c1.54 0 2.75-.74 2.69-2.6a2.1 2.1 0 00-1.68-2.1c-.33-.05-.87-.22-.47-.55.4-.34.48-.91.47-1.16-.06-1.17-1.12-1.36-1.52-1.37-.47 0-.93.2-1.75.2H7.43C6.45 5.4 5.24 5.03 4.75 5c-.5-.03-1.81.36-1.75 1.43.06.86.83 1.01 1.21.98.2-.02.6-.18.59-.56z" fill="#fff"/></svg>