<!-- by TradingView --><svg width="18" height="18" viewBox="0 0 18 18" xmlns="http://www.w3.org/2000/svg"><path fill="#003E76" d="M0 0h18v18H0z"/><path d="M10.87 3.07a.871.871 0 00-.493-.06.865.865 0 00-.686 1.017.86.86 0 00.527.634c.443.136.844.457 1.024.894.123.3.12.659-.037.947-.145.27-.402.463-.682.574-.229.096-.481.114-.726.112a.866.866 0 00-.989 1c.04.252.202.477.423.599.062.037.129.061.196.085.035.013.071.026.106.041.281.134.526.346.697.607l.003.004c.217.332.276.785.09 1.145a.033.033 0 01-.002.004c-.121.238-.338.411-.569.536l-.005.002-.03.015-.004.002c-.284.137-.609.16-.918.127a.864.864 0 00-.823 1.146.863.863 0 001.022.548.86.86 0 00.597-.577c.052-.18.145-.347.263-.492.199-.239.464-.43.767-.506.221-.051.45-.055.676-.044.44.004.832-.399.824-.84a.86.86 0 00-.63-.856l-.094-.035a1.636 1.636 0 01-.677-.537l-.004-.005c-.127-.187-.236-.404-.233-.636v-.04a1.042 1.042 0 01.045-.391c.103-.298.343-.53.615-.674a1.61 1.61 0 01.871-.17c.339.06.7-.117.87-.416a.851.851 0 00.099-.597.868.868 0 00-.55-.656 1.778 1.778 0 01-.451-.225 1.583 1.583 0 01-.532-.723 1.617 1.617 0 01-.079-.67c.006-.05.012-.1.006-.15a.882.882 0 00-.507-.74zM9.062 4.93a.851.851 0 00-.553.371c-.053.079-.085.167-.117.255-.024.066-.048.132-.08.194a1.51 1.51 0 01-1.287.824c-.056.001-.113-.003-.17-.007a1.02 1.02 0 00-.312.011.863.863 0 00-.665.952.868.868 0 00.58.717 1.6 1.6 0 01.93.778c.108.214.17.462.123.702-.047.27-.198.517-.41.687a1.6 1.6 0 01-1.039.341c-.17-.02-.351-.027-.514.04a.862.862 0 00-.533.606c-.02.124-.02.25 0 .374.056.296.28.552.562.65.146.046.283.117.41.202.266.183.458.46.568.761.065.217.096.448.068.674a.865.865 0 00.22.654.826.826 0 00.614.284.86.86 0 00.86-.936.86.86 0 00-.434-.68 1.403 1.403 0 00-.226-.095l-.081-.029-.004-.001a1.577 1.577 0 01-.83-.853 1.068 1.068 0 01-.041-.684c.088-.313.318-.573.601-.724l.005-.003a1.51 1.51 0 01.192-.087l.004-.002.05-.017.004-.002a2.215 2.215 0 01.097-.03l.037-.01.06-.01c.14-.021.28-.043.421-.028a.997.997 0 00.435-.035.873.873 0 00.542-.527.99.99 0 00.037-.45.87.87 0 00-.573-.66 1.461 1.461 0 01-.415-.21c-.275-.204-.503-.487-.6-.82-.09-.305-.031-.65.155-.908.181-.248.453-.417.74-.514l.035-.013.077-.013a1.56 1.56 0 01.245-.029c.077-.006.154-.002.231.001.09.004.18.008.271-.002a.864.864 0 00.713-.877.816.816 0 00-.229-.562.876.876 0 00-.774-.26z" fill="#fff"/></svg>