<!-- by TradingView --><svg width="18" height="18" viewBox="0 0 18 18" xmlns="http://www.w3.org/2000/svg"><path fill="#EA0016" d="M0 0h18v18H0z"/><path fill-rule="evenodd" d="M14.294 9A5.294 5.294 0 113.706 9a5.294 5.294 0 0110.588 0zM15 9A6 6 0 113 9a6 6 0 0112 0zm-4.236-3.53h.706c1.176.776 1.765 2.122 1.765 3.53a4.262 4.262 0 01-1.9 3.53h-.57v-1.765h-3.53v1.764h-.706C5.423 11.8 4.764 10.295 4.764 9s.66-2.8 1.765-3.53h.706v1.765h3.53V5.471zM5.47 9c0 1.054.272 1.963 1.06 2.662v-5.3c-.788.7-1.06 1.584-1.06 2.638zm1.765 1.059h3.53V7.94h-3.53v2.118zm4.235.524v1.08c.778-.7 1.06-1.617 1.06-2.663 0-1.046-.277-1.939-1.055-2.638l-.005 1.043v3.178z" fill="#fff"/></svg>