<!-- by TradingView --><svg width="18" height="18" xmlns="http://www.w3.org/2000/svg"><path fill="#0089D0" d="M0 0h18v18H0z"/><path d="M5.587 7.571H3.32c-.176 0-.32-.12-.32-.285C3 7.12 3.144 7 3.32 7h2.267c.679 0 1.23.516 1.23 1.15 0 .338-.157.64-.406.85.249.211.405.514.405.85 0 .635-.55 1.15-1.23 1.15H3.32c-.176 0-.32-.119-.32-.286 0-.165.144-.285.32-.285h2.267a.595.595 0 00.588-.579.584.584 0 00-.588-.564H3.32c-.176 0-.32-.12-.32-.287 0-.166.144-.285.32-.285h2.267c.325 0 .589-.26.589-.563a.596.596 0 00-.59-.58zm6.825 0h2.268c.176 0 .32-.12.32-.285C15 7.12 14.857 7 14.68 7h-2.268c-.677 0-1.229.516-1.229 1.15 0 .338.156.64.405.85a1.11 1.11 0 00-.405.85c0 .635.552 1.15 1.23 1.15h2.267c.176 0 .32-.119.32-.286 0-.165-.143-.285-.32-.285h-2.268a.596.596 0 01-.588-.579c0-.302.264-.564.588-.564h2.268c.176 0 .32-.12.32-.287 0-.166-.143-.285-.32-.285h-2.268a.582.582 0 01-.588-.563c0-.304.265-.58.588-.58zm-4.014 0h2.08c.179 0 .322-.12.322-.285 0-.167-.143-.286-.322-.286H8.35c-.674 0-1.15.517-1.15 1.151s.476 1.135 1.151 1.135h1.274c.323 0 .575.262.575.565a.583.583 0 01-.575.578H7.52c-.176 0-.32.12-.32.285 0 .167.144.285.32.285L9.712 11c.677 0 1.088-.514 1.088-1.15 0-.635-.411-1.136-1.088-1.136H8.398c-.324 0-.598-.26-.598-.563 0-.304.274-.58.598-.58z" fill="#fff"/></svg>