<!-- by TradingView --><svg xmlns="http://www.w3.org/2000/svg" width="18" height="18"><path fill="#F0F3FA" d="M0 0h18v18H0z"/><path fill-rule="evenodd" d="M14 9.02V9c0-.28-.02-.56-.07-.83a2.06 2.06 0 00-1.49-.34.76.76 0 00-.22.1c-.13.08-.24.27-.1.38.1.08.33.2.8.3.47.1.82.24 1.08.4zm-.36 1.85l-.21.07a2.81 2.81 0 01-2.04-.34c-.22-.11-.25-.36-.1-.54.16-.17.44-.2.66-.1.5.25.94.28 1.23.2.09-.01.16-.05.22-.08.13-.09.24-.28.1-.39a2 2 0 00-.8-.3c-.54-.12-1.2-.32-1.45-.8-.36-.66.22-1.34.95-1.52.16-.04.33-.07.5-.07.3 0 .62.04.95.15a5 5 0 00-9.38.24 1.8 1.8 0 012.56.34c.13.17.06.4-.12.52-.22.13-.5.03-.7-.14a.96.96 0 00-.63-.25c-.5 0-1.01.45-1.01 1.14 0 .7.51 1.14 1.01 1.14.22 0 .45-.09.63-.25s.42-.26.63-.16c.23.1.33.36.18.55a1.8 1.8 0 01-2.56.33 5 5 0 009.38.26zM8.18 7c-.26 0-.48.19-.48.41v3.16c0 .24.22.43.5.43s.5-.2.5-.43V9.6h1.24c.26 0 .47-.22.47-.5s-.2-.5-.47-.5H8.7V8h1.57c.24 0 .43-.22.43-.5s-.2-.5-.43-.5H8.18z" fill="url(#auchczl3v)"/><defs><linearGradient id="auchczl3v" x1="9.19" y1="4" x2="9.19" y2="14" gradientUnits="userSpaceOnUse"><stop stop-color="#F38D2C"/><stop offset="1" stop-color="#ED2324"/></linearGradient></defs></svg>