<!-- by TradingView --><svg width="18" height="18" viewBox="0 0 18 18" fill="none" xmlns="http://www.w3.org/2000/svg"><path fill="#0193DE" d="M0 0h18v18H0z"/><path d="M6.996 8.351v2.025h6.66V9.07L8.936 7.6l-1.94.752z" fill="#fff"/><path d="M13.657 10.376h-6.66V12h6.66v-1.624z" fill="#fff"/><path d="M8.712 11.161v.653h.707v-.653c0-.169-.058-.457-.34-.46-.301-.005-.367.291-.367.46zm.551-2.444c-.296.004-.347.258-.336.385h.7c.002-.13-.069-.389-.364-.385zm1.437 0c-.296.004-.348.258-.336.385h.7c.002-.13-.069-.389-.365-.385z" fill="#0193DE"/><path d="M14.75 9.664c0 .762-.43 1.49-1.207 2.086H4.457c-.778-.596-1.208-1.324-1.208-2.086 0-.893.593-1.742 1.638-2.38C5.928 6.648 7.382 6.246 9 6.246c1.618 0 3.072.402 4.112 1.038 1.045.638 1.638 1.487 1.638 2.38z" stroke="#fff" stroke-width=".5"/><path fill="#0193DE" d="M8.927 9.175h.679v.706h-.679zm1.437 0h.706v.706h-.706zm.114 1.525h1.767v1.114h-1.767z"/><path d="M4.617 10.376h2.38V12h-2.38v-1.624z" fill="#AADCFD"/></svg>