<!-- by TradingView --><svg width="18" height="18" xmlns="http://www.w3.org/2000/svg"><path fill="#00ADEF" d="M0 0h18v18H0z"/><path d="M10.876 3.295l3.94 7.54c.474.813-.018 1.647-.917 1.501a466.89 466.89 0 00-4.423-.628l.66-.924 3.128.356c.26.032.38-.046.23-.338 0 0-2.946-6.162-2.974-6.233-.1-.192-.21-.13-.299.042l-2.932 5.528c-.107.214-.066.32.244.35l1.137.13-.655.84-1.485-.244c-.371-.05-.492-.293-.288-.69.154-.3 3.609-6.849 3.609-6.849.068-.125.127-.221.197-.35.206-.376.58-.477.828-.03z" fill="#fff"/><path d="M2.33 9.08l5.17-.946-.44.832-3.57.623c-.183.042-.166.127-.05.206 0 0 3.113 2.235 3.414 2.44.242.17.372.24.576-.032 0 0 2.53-3.22 2.66-3.437.193-.269.28-.375-.03-.319l-1.755.305.45-.843 2.354-.445c.538-.094.751.294.488.705-.226.335-3.957 5.549-3.957 5.549-.242.367-.423.352-.706.094L2.172 9.71c-.29-.249-.198-.563.158-.63z" fill="#FFD600"/></svg>