<!-- by TradingView --><svg width="18" height="18" viewBox="0 0 18 18" xmlns="http://www.w3.org/2000/svg"><path fill="#E3000F" d="M0 0h18v18H0z"/><path fill-rule="evenodd" d="M14.005 9.005A5.004 5.004 0 019.315 14V9.315h-.938v4.656a5.005 5.005 0 010-9.932v4.338h.938V4.01a5.004 5.004 0 014.69 4.995zM9.002 4h.047-.093.046zm.313 4.377v.938h.439c.044-.008.133-.087.136-.334l1.872-.073c.026 0 .05-.02.054-.054.003-.035-.025-.066-.054-.066L9.89 8.715c.01-.078-.004-.256-.136-.338h-.44zm-.938 0h-.938v.938h.938v-.938zm1.618 3.35c1.066 0 2.702-.095 3.195-2.412.11 1.136-.112 3.267-3.195 4.065v-1.654z" fill="#fff"/></svg>