<!-- by TradingView --><svg xmlns="http://www.w3.org/2000/svg" width="18" height="18"><path fill="#502A74" d="M0 0h18v18H0z"/><path d="M8.25 6.07c.72.04 1.26.28 1.48.42l-.2.4a1.9 1.9 0 00-1.2-.4c-1.78 0-2.79 1.27-2.9 2.99-.12 1.72 1.16 3.02 2.9 3.02 1.4 0 2.14-1.17 2.4-1.67l2.54-4.76-.83.17L14 5v1.78l-.37-.54-2.5 5.05C10.41 12.62 8.85 13 8.02 13 4.74 13 4 10.68 4 9.48c0-2.79 2.73-3.5 4.25-3.41z" fill="url(#aoebguujo)"/><defs><linearGradient id="aoebguujo" x1="12.74" y1="8.15" x2="9.7" y2="9.13" gradientUnits="userSpaceOnUse"><stop stop-color="#fff"/><stop offset="1" stop-color="#E3AE2C"/></linearGradient></defs></svg>