<!-- by TradingView --><svg width="18" height="18" viewBox="0 0 18 18" xmlns="http://www.w3.org/2000/svg"><path fill="#F0F3FA" d="M0 0h18v18H0z"/><path d="M6.784 8.591a.1.1 0 01.024-.065.075.075 0 01.057-.027h.194c.021 0 .042.01.057.027a.1.1 0 01.023.065.1.1 0 01-.023.065.075.075 0 01-.057.027h-.194a.075.075 0 01-.057-.027.1.1 0 01-.024-.065zm.67-.3h.192c.021 0 .041-.01.056-.028a.1.1 0 00.024-.065.1.1 0 00-.024-.065.075.075 0 00-.056-.027h-.192a.075.075 0 00-.057.027.1.1 0 00-.023.065.1.1 0 00.023.065.075.075 0 00.057.027zm1.399-.287h-.309a.15.15 0 00-.066.014.17.17 0 00-.057.043.199.199 0 00-.037.064.22.22 0 00-.013.077c0 .052.018.103.05.14a.162.162 0 00.123.058h.235l.105-.393-.031-.003zm-1.18.587c0 .018.004.035.01.051.005.016.014.03.025.043a.114.114 0 00.083.038H8.1c.03 0 .059-.015.08-.04a.141.141 0 00.034-.092.141.141 0 00-.034-.092.107.107 0 00-.08-.039h-.31a.11.11 0 00-.081.038.144.144 0 00-.036.093zm.27 1.197a.21.21 0 00.05.14.163.163 0 00.122.058h.247l.108-.397h-.355a.162.162 0 00-.121.057.213.213 0 00-.052.138v.004zm.218-.797c0 .052.018.103.05.14.031.038.075.06.12.062h.235l.102-.386h-.34a.166.166 0 00-.113.056.215.215 0 00-.054.128zm-.926.708h-.191a.08.08 0 00-.047.032.1.1 0 00-.018.058.1.1 0 00.018.059.08.08 0 00.047.032h.191a.07.07 0 00.035-.001.077.077 0 00.032-.018.092.092 0 00.021-.032.103.103 0 000-.079.092.092 0 00-.021-.032.077.077 0 00-.032-.018.07.07 0 00-.035 0zm.287-.708a.1.1 0 00-.005-.035.091.091 0 00-.016-.03.078.078 0 00-.026-.02.069.069 0 00-.03-.007h-.21c-.02 0-.04.01-.056.027a.097.097 0 00-.023.063c0 .024.009.047.023.064a.074.074 0 00.056.027h.198a.07.07 0 00.032-.002.12.12 0 00.03-.018.088.088 0 00.02-.029.1.1 0 00.007-.036V8.99zm.491.393a.145.145 0 00-.034-.092.11.11 0 00-.08-.039H7.59c-.03 0-.06.014-.08.038a.141.141 0 00-.034.093c0 .035.012.068.033.093a.11.11 0 00.081.038h.31a.11.11 0 00.076-.038.144.144 0 00.035-.086l.003-.007zM6.497 8.287h.192c.02 0 .041-.01.056-.027a.1.1 0 00.024-.065.1.1 0 00-.024-.065.075.075 0 00-.056-.027h-.195a.075.075 0 00-.057.027.1.1 0 00-.023.065.1.1 0 00.023.065.075.075 0 00.057.027h.003zM14 9.16c0 .28-.004.561-.04.839H8.73a.179.179 0 00.104-.07.227.227 0 00.031-.205.199.199 0 00-.037-.064.17.17 0 00-.057-.043.15.15 0 00-.066-.014H8.47l.099-.393h.358a.165.165 0 00.124-.06.218.218 0 00.052-.142.218.218 0 00-.052-.143.165.165 0 00-.124-.059h-.253l.105-.41h.34a.163.163 0 00.12-.06.226.226 0 00.014-.263A.18.18 0 009.158 8h4.74c.068.382.102.771.101 1.161zm-3.566-.57c0 .03.01.057.028.078a.09.09 0 00.068.032h.216a.084.084 0 00.041-.002.093.093 0 00.037-.022.11.11 0 00.026-.038.124.124 0 000-.093.11.11 0 00-.026-.037.093.093 0 00-.037-.022.084.084 0 00-.041-.002h-.216a.09.09 0 00-.067.03.117.117 0 00-.03.076zm-.442-.375c0 .029.01.057.028.078a.09.09 0 00.068.032h.216a.084.084 0 00.042-.002.092.092 0 00.037-.022.11.11 0 00.025-.038.122.122 0 00-.025-.13.092.092 0 00-.037-.022.084.084 0 00-.042-.002h-.216a.09.09 0 00-.067.03.118.118 0 00-.029.076zm-.76.375c0 .02.004.04.01.058a.151.151 0 00.03.049.13.13 0 00.043.032c.016.007.033.01.05.01h.34a.13.13 0 00.069-.053.163.163 0 00.026-.09.163.163 0 00-.026-.09.13.13 0 00-.069-.054h-.343a.121.121 0 00-.088.04.158.158 0 00-.041.098zm.282.945a.122.122 0 00.09-.042.16.16 0 00.04-.103.165.165 0 00-.038-.106.125.125 0 00-.092-.046h-.352a.125.125 0 00-.094.045.164.164 0 00-.028.164.15.15 0 00.03.047.129.129 0 00.042.031c.016.007.033.01.05.01h.352zm.478.234a.118.118 0 00-.029-.075.09.09 0 00-.066-.031h-.213a.09.09 0 00-.067.03.118.118 0 00-.001.153.09.09 0 00.068.033h.213a.093.093 0 00.066-.033.122.122 0 00.03-.077zm.204-.779a.116.116 0 00-.028-.077.09.09 0 00-.068-.033h-.216a.082.082 0 00-.037.008.093.093 0 00-.031.023.109.109 0 00-.021.037.12.12 0 00-.007.042c0 .015.002.029.007.042a.105.105 0 00.02.036c.01.01.02.017.032.022a.079.079 0 00.037.006h.216a.087.087 0 00.066-.03.114.114 0 00.027-.076h.003zm.435.4a.122.122 0 00-.006-.042.109.109 0 00-.02-.037.093.093 0 00-.032-.023.082.082 0 00-.037-.008h-.213a.096.096 0 00-.072.035.126.126 0 00-.03.082c0 .031.01.06.03.083a.095.095 0 00.072.034h.216a.086.086 0 00.039-.01.1.1 0 00.031-.028.115.115 0 00.02-.04.127.127 0 00.002-.046zm.442.382a.121.121 0 00-.007-.041.11.11 0 00-.021-.035.092.092 0 00-.031-.023.082.082 0 00-.037-.007h-.216a.082.082 0 00-.036.007.092.092 0 00-.031.023.119.119 0 00-.028.076c0 .03.01.057.027.078a.09.09 0 00.068.032h.216a.085.085 0 00.038-.007.095.095 0 00.033-.025.113.113 0 00.021-.037.125.125 0 00.007-.044l-.003.003zm.204-.778c0-.03-.01-.057-.028-.078a.09.09 0 00-.068-.032h-.216a.09.09 0 00-.066.033.119.119 0 000 .152c.018.02.041.03.066.03h.216a.082.082 0 00.038-.005.092.092 0 00.033-.024.118.118 0 00.028-.08l-.003.004zm.2-.776a.122.122 0 00-.006-.041.11.11 0 00-.02-.036.094.094 0 00-.03-.024.082.082 0 00-.036-.008h-.216a.094.094 0 00-.057.037.12.12 0 00-.022.07c0 .026.008.051.022.071.015.02.035.033.057.038h.216a.082.082 0 00.037-.008.093.093 0 00.031-.023.109.109 0 00.021-.037.122.122 0 00.006-.042l-.003.003zM6.275 9.7h-.192a.071.071 0 00-.03.006.08.08 0 00-.027.019.093.093 0 00-.019.029.103.103 0 00-.007.035c0 .024.01.048.025.065a.078.078 0 00.058.027h.192a.077.077 0 00.055-.029.1.1 0 000-.126.073.073 0 00-.055-.026zm.574-.403h-.191a.08.08 0 00-.047.031.1.1 0 00-.018.059.1.1 0 00.018.058.08.08 0 00.047.032h.191a.07.07 0 00.035 0 .077.077 0 00.032-.019.091.091 0 00.021-.032.103.103 0 000-.079.092.092 0 00-.021-.031.077.077 0 00-.032-.018.07.07 0 00-.035-.001zm-.367-.39h-.195c-.02 0-.04.01-.056.027a.097.097 0 00-.023.063c0 .024.009.047.023.064a.074.074 0 00.056.027h.195c.02 0 .04-.01.055-.027a.097.097 0 00.023-.064.097.097 0 00-.023-.063.074.074 0 00-.055-.027z" fill="#F00023"/><path d="M5.84 5.125A5 5 0 1013.58 11H5.72c-.706-.001-1.219-1-1.026-1.793L5.84 5.125z" fill="url(#paint0_radial)"/><path d="M6.403 7l.74-2.644A5 5 0 0113.58 7H6.402z" fill="url(#paint1_radial)"/><defs><radialGradient id="paint0_radial" cx="0" cy="0" r="1" gradientUnits="userSpaceOnUse" gradientTransform="matrix(7.56527 0 0 7.56808 10.125 6.701)"><stop offset=".33" stop-color="#028D40"/><stop offset=".74" stop-color="#077E38"/><stop offset="1" stop-color="#0B7031"/></radialGradient><radialGradient id="paint1_radial" cx="0" cy="0" r="1" gradientUnits="userSpaceOnUse" gradientTransform="matrix(7.56527 0 0 7.56808 10.125 6.701)"><stop stop-color="#009343"/><stop offset=".33" stop-color="#028D40"/><stop offset=".74" stop-color="#077E38"/></radialGradient></defs></svg>