<!-- by TradingView --><svg width="18" height="18" viewBox="0 0 18 18" xmlns="http://www.w3.org/2000/svg"><path fill="url(#paint0_linear)" d="M0 0h18v18H0z"/><path d="M8.384 11.482V15h1.232v-3.518h.55c0-.233.154-.33.231-.35h1.989V9.667h-.924v.96H9.616V7.279H8.384v3.348H6.538v-.96h-.923v1.465c.525-.016 1.707-.037 1.916 0 .208.037.279.248.288.35h.565z" fill="#fff"/><path d="M5.289 9.194c.099.266.365.305.485.291h.694c.27 0 .72-1.389.546-1.925-.175-.536-.597-.633-.824-.617v-.224h.278l-.54-.532-.547.532h.224v.224c-.58.08-.637.576-.594.814.052.368.18 1.171.278 1.437zm5.947 0c.099.266.365.305.485.291h.694c.27 0 .72-1.389.546-1.925-.175-.536-.597-.633-.824-.617v-.224h.278l-.54-.532-.547.532h.224v.224c-.58.08-.637.576-.593.814.05.368.178 1.171.277 1.437zM8.144 6.651c.12.323.443.37.59.353h.842c.327 0 .875-1.686.662-2.337-.212-.65-.724-.769-.999-.75v-.271h.337L8.92 3l-.664.646h.271v.272c-.704.097-.773.7-.72.988.062.447.217 1.422.336 1.745z" fill="#fff"/><defs><linearGradient id="paint0_linear" x1="9" y1="0" x2="9" y2="18" gradientUnits="userSpaceOnUse"><stop stop-color="#00AEEF"/><stop offset="1" stop-color="#005DAC"/></linearGradient></defs></svg>