<!-- by TradingView --><svg width="18" height="18" viewBox="0 0 18 18" fill="none" xmlns="http://www.w3.org/2000/svg"><path fill="#F0F3FA" d="M0 0h18v18H0z"/><circle cx="9" cy="9" r="5.8" stroke="#2E3192" stroke-width=".4"/><rect x="6.97" y="6.29" width="1.16" height="2.662" rx=".58" stroke="#2E3192" stroke-width=".4"/><rect x="8.339" y="6.033" width="1.16" height="2.662" rx=".58" stroke="#2E3192" stroke-width=".4"/><rect x="9.615" y="5.2" width="1.16" height="1.755" rx=".58" stroke="#2E3192" stroke-width=".4"/><path d="M12.322 8.596c0 1.135-.908 2.05-2.022 2.05-1.114 0-2.022-.915-2.022-2.05 0-1.135.908-2.051 2.022-2.051 1.114 0 2.022.916 2.022 2.05z" fill="#F0F3FA" stroke="#2E3192" stroke-width=".4"/><rect x="5.595" y="6.814" width="1.16" height="2.662" rx=".58" stroke="#2E3192" stroke-width=".4"/><path d="M6.184 9.64v1.605c-.01.134.044.411.34.446h2.775c.078-.002.232-.08.223-.378a24.716 24.716 0 010-.97c-.01-.187.11-.565.662-.588.553-.022.71.382.719.587V13m-.646-3.794v.51" stroke="#2E3192" stroke-width=".4"/><path d="M9.8 8.157l.47-.738.471.738-.47.738-.471-.738zm.938.17h.827l-.393.715h-.827l.393-.715zm-.936 0h-.827l.393.715h.827l-.393-.715z" fill="#2E3192"/></svg>