<!-- by TradingView --><svg width="18" height="18" xmlns="http://www.w3.org/2000/svg"><path fill="#E8F5E9" d="M0 0h18v18H0z"/><path d="M8.602 3.005a3.784 3.784 0 00-1.815.717 4.26 4.26 0 00-.996 1.027 4.618 4.618 0 00-.768 2.031c-.003.039-.01.912-.015 2.205L5 11.125l.015.115c.094.712.357 1.404.753 1.984.166.245.41.53.614.72a3.864 3.864 0 002.146 1.027c.329.043.71.038 1.035-.013 1.13-.178 2.14-.874 2.776-1.915a4.66 4.66 0 00.625-1.71c.017-.098.017-.115.022-.511.003-.226.008-1.218.01-2.205L13 6.82l-.014-.098a4.638 4.638 0 00-.767-1.984 4.748 4.748 0 00-.55-.649 3.898 3.898 0 00-2.167-1.072C9.402 3.002 9.37 3 9.024 3c-.203 0-.394.001-.422.005zm.765.172c.372.04.722.133 1.07.284.134.058.413.208.536.289a4.06 4.06 0 011.135 1.116c.369.539.607 1.149.71 1.82l.02.13-.003 2.151c-.004 2.105-.005 2.153-.017 2.25-.126.958-.572 1.87-1.235 2.517a3.772 3.772 0 01-.884.655 3.545 3.545 0 01-1.614.434H9v.037l-.002.038-.007-.035-.008-.036-.061-.001c-.892-.023-1.726-.367-2.42-1a5.52 5.52 0 01-.438-.475 4.39 4.39 0 01-.888-2.116l-.016-.117.01-2.151c.01-2.37.006-2.17.052-2.418a4.389 4.389 0 01.826-1.87c.105-.14.346-.402.47-.517.654-.595 1.404-.926 2.253-.995.113-.01.478-.003.597.01z" fill="#000"/><path d="M8.23 7.333h1.552l-.767-2.062-.784 2.062zm.081.121l.69.608.7-.608h-1.39zm-.169.094l-.313.814c-.422 1.1-.428 1.114-.426 1.116.002.002 1.023-.894 1.115-.978l.028-.026-.195-.462a27.51 27.51 0 00-.2-.468c-.003-.003-.007-.001-.009.004zm1.575.402l-.201.467-.036.082.557.498c.305.273.56.498.564.501.003.003 0-.015-.01-.039a135.5 135.5 0 00-.124-.334l-.306-.82-.237-.63a2.922 2.922 0 00-.04-.106c-.002 0-.077.17-.167.381zm-.315-.04a9.714 9.714 0 00-.287.258c0 .01.256.234.261.228.008-.01.317-.732.315-.735a9.605 9.605 0 00-.29.25zm-1.037-.211l.143.338.144.337a2.57 2.57 0 00.24-.205 17.01 17.01 0 00-.524-.474c-.003-.001-.005 0-.003.004zM9 8.261l-.308.286L9 9.23l.308-.682L9 8.261zm-.708.626l-.658.579c-.19.166-.345.307-.345.312 0 .005 1.65 2.555 1.65 2.555V9.405l-.152-.359-.167-.396-.016-.037-.312.274zm1.121-.283l-.326.81v2.92S10.71 9.8 10.711 9.795c0-.004-.289-.268-.643-.585l-.655-.607z" fill="#000"/><path d="M8.645 5.01c-.66.168-1.251.77-1.698 1.367l-.8-.599C6.61 5.158 7.38 4.3 8.398 4.041a2.482 2.482 0 011.707.181c.588.278 1.17.784 1.748 1.556l-.801.6c-.515-.69-.979-1.065-1.374-1.252a1.484 1.484 0 00-1.034-.115zm0 7.942c-.66-.167-1.251-.77-1.698-1.366l-.8.599c.463.62 1.233 1.478 2.252 1.736a2.48 2.48 0 001.707-.18c.588-.278 1.17-.784 1.748-1.556l-.801-.6c-.515.69-.979 1.065-1.374 1.251a1.484 1.484 0 01-1.034.116z" fill="#000"/></svg>