<!-- by TradingView --><svg xmlns="http://www.w3.org/2000/svg" width="18" height="18"><path fill="#F0F3FA" d="M0 0h18v18H0z"/><path d="M13.46 9a4.46 4.46 0 11-8.92 0H6.6c.54.91 1.29 1.7 2.4 1.7 1.44 0 3.08-.43 3.17-1.7h1.29z" fill="#61CDFC"/><path fill="#A61E23" d="M4 8.54h2.12V9H4zm8.28-2.53v2.53h-.38V9h2.13v-.46h-1.29V6.01h-.46z"/><path d="M9.87 3.98a5.1 5.1 0 00-.47-.06h-.12l.02-.12.07-.57a4.49 4.49 0 00-.92.02l.04.58.01.1-.11.02a2.8 2.8 0 00-.5.08c-.18.04-.34.08-.47.13l-.1.03-.04-.1-.15-.56a4.9 4.9 0 00-.84.37l.26.52.05.1-.1.04a4.94 4.94 0 00-.81.57l-.09.07-.07-.09-.35-.45a4.39 4.39 0 00-.64.67l.44.37.09.08-.08.08-.3.41a5.07 5.07 0 00-.23.42l-.05.1-.1-.05-.5-.29a4.57 4.57 0 00-.33.86l.55.18.1.04-.03.1a2.9 2.9 0 00-.12.5 5.25 5.25 0 00-.06.47v.12L3.8 8.7l-.57-.06a3.81 3.81 0 00.02.92l.58-.05.1-.01.02.11a4.74 4.74 0 00.21.97l.03.1-.1.04-.56.15a3.97 3.97 0 00.37.84l.52-.26.1-.05.04.1a3.12 3.12 0 00.57.81l.07.09-.09.07-.45.35a4.57 4.57 0 00.67.64l.37-.44.07-.09.09.08.41.3.42.23.1.05-.05.1-.29.5a4.72 4.72 0 00.86.33l.18-.55.04-.1.1.03a5.1 5.1 0 00.97.17l.12.02-.02.11-.07.57a4.67 4.67 0 00.92-.02l-.04-.58-.01-.1.11-.01a5.3 5.3 0 00.97-.21l.1-.04.04.1.15.56a4.28 4.28 0 00.84-.37l-.26-.52-.05-.1.1-.04a5.48 5.48 0 00.81-.57l.09-.07.07.09.35.45a4.47 4.47 0 00.64-.67l-.44-.37-.09-.07.08-.09.3-.41.23-.42.05-.1.1.05.5.29a4.06 4.06 0 00.33-.86l-.55-.18-.1-.03.03-.1a2.73 2.73 0 00.12-.5l.06-.48v-.12l.12.02.57.07a4.72 4.72 0 00-.02-.92l-.58.04-.1.01-.01-.1a2.87 2.87 0 00-.08-.52 5.92 5.92 0 00-.14-.46l-.03-.1.1-.03.56-.16a4.52 4.52 0 00-.37-.84l-.52.26-.1.05-.04-.1a2.91 2.91 0 00-.27-.43 5.27 5.27 0 00-.3-.38l-.07-.09.09-.07.45-.35a4.4 4.4 0 00-.67-.64l-.37.44-.07.09-.09-.08a3.17 3.17 0 00-.41-.3 5.2 5.2 0 00-.42-.23l-.1-.05.05-.1.29-.5a4.07 4.07 0 00-.43-.19 3.97 3.97 0 00-.43-.14l-.18.55-.03.1-.1-.03a2.9 2.9 0 00-.5-.12zm-.34-.27a5.58 5.58 0 01.8.15l.18-.54.03-.1.1.02a3.8 3.8 0 011.1.43l.1.06-.05.1-.28.49a5.24 5.24 0 01.7.44l.36-.43.07-.08.08.06a4.07 4.07 0 01.86.82l.06.09-.08.06-.45.36a5.76 5.76 0 01.47.67l.51-.26.09-.04.05.08a4.13 4.13 0 01.48 1.09l.03.1-.1.03-.56.15a5.1 5.1 0 01.18.8l.57-.04h.1l.02.09c.03.16.04.37.05.59a4.08 4.08 0 01-.03.6l-.01.11-.1-.01-.57-.07-.05.38a3.35 3.35 0 01-.1.43l.55.17.09.03-.02.1a3.96 3.96 0 01-.18.56c-.08.2-.17.4-.25.55l-.06.1-.09-.06-.5-.28a4.82 4.82 0 01-.44.7l.43.36.08.07-.06.08a3.74 3.74 0 01-.38.45 4.06 4.06 0 01-.44.4l-.09.07-.06-.08-.35-.45a6.23 6.23 0 01-.3.24 3.7 3.7 0 01-.38.23l.26.51.04.09-.08.05a3.75 3.75 0 01-.52.27 4.07 4.07 0 01-.57.21l-.1.03-.03-.1-.15-.56a5.41 5.41 0 01-.37.1 2.94 2.94 0 01-.44.08l.05.57v.1l-.09.02a3.7 3.7 0 01-.59.05 4.23 4.23 0 01-.6-.03l-.11-.01.01-.1.07-.58a4.92 4.92 0 01-.38-.04 3.29 3.29 0 01-.43-.1l-.17.55-.03.09-.1-.02a3.87 3.87 0 01-.56-.18 4.43 4.43 0 01-.55-.25l-.1-.06.06-.09.28-.5a5.02 5.02 0 01-.33-.19 3.42 3.42 0 01-.36-.25l-.37.43-.07.08-.08-.06a3.87 3.87 0 01-.45-.38 4.33 4.33 0 01-.4-.44l-.07-.09.08-.06.45-.35a5.57 5.57 0 01-.24-.3 3.62 3.62 0 01-.23-.38l-.51.26-.09.04-.05-.08a4.49 4.49 0 01-.48-1.09l-.03-.1.1-.03.56-.15a5.6 5.6 0 01-.1-.37 3.34 3.34 0 01-.08-.44l-.57.05h-.1l-.02-.09A3.9 3.9 0 013 9.1a4.42 4.42 0 01.03-.6v-.1h.12l.56.07a5.6 5.6 0 01.15-.8l-.55-.18-.09-.03.02-.1a3.75 3.75 0 01.43-1.11l.05-.1.1.06.5.28.19-.33a3.67 3.67 0 01.25-.36l-.43-.37-.08-.07.06-.08a3.9 3.9 0 01.82-.86l.09-.06.06.08.35.45a5.76 5.76 0 01.68-.47l-.26-.51L6 3.82l.09-.05a4.17 4.17 0 011.09-.48l.1-.03.03.1.15.56a4.74 4.74 0 01.8-.18l-.04-.57v-.1l.09-.02a3.96 3.96 0 011.2-.02l.1.01-.02.1-.07.57z" fill="#0D73BA"/><path d="M9.97 8.4l-.06-1.45h.5v-.37l-2.65-.45v.36l.08.02 1.63.44-.08 1.4.58.05zM6.8 8l-.14-1.4h-.2l-.62 1.24.95.18zm1.28.25L7.1 6.6h-.23l.15 1.44 1.04.2zM6.79 5.26l.06.52L8.36 8.3l-2.79-.52h.03l1.01-2-.05-.52h.23z" fill="#A61E23"/><path d="M8.7 11H7.37s-.11 0-.18-.06c-.08-.06-.11-.16-.11-.16s-.32-.85-.6-1.19l-.76-.82-.23-.24a1.26 1.26 0 01-.34-.6c-.04-.23 0-.31.05-.33.04-.03.08-.01.08-.01l.42.1v-.02l.14.04L7 7.97l2.03.45 2.12.22v-.37h.27v-.63h.45l.1.63h.35v.44h-.07v1s-.02.26.05.35a1 1 0 00.27.25l.07.05s.24.09.2.38c-.05.3-.31.26-.31.26H8.7z" fill="#F9AE1C"/></svg>