<!-- by TradingView --><svg width="18" height="18" xmlns="http://www.w3.org/2000/svg"><path fill="#F0F3FA" d="M0 0h18v18H0z"/><path d="M8 5c-.824.967-2.294 2.783-3 4V7.878C5.187 7.184 5.394 6.25 6.127 5H8z" fill="#FDAF31"/><path d="M5 11.917v-1.24c.225-.317.668-.888 1.225-1.342l-.817 2.582H5z" fill="#F37636"/><path d="M9.082 13H5v-1.447c.854-1.146 2.306-1.718 2.45-1.718L6.55 11c.245-.167 1.306-.333 1.96-.333-.393.2-.98.638-1.225.833.816 0 1.877.333 1.877.333-.326 0-1.06.222-1.387.333.326.067 1.143.583 1.306.833zM13 12.113V13h-1.136c-1.548-.754-2.683-1.161-2.683-1.161s1.711-.347 3.819.274z" fill="#FDAF31"/><path d="M13 9.598v1.443c-2.496-.384-4.49-.373-4.49-.373s1.87-1.144 4.49-1.07zm0-2.789v1.523c-3.049.526-5.552 1.503-5.552 1.503S9.44 7.277 13 6.809z" fill="#FDAF31"/><path d="M10.143 4.754c-2.696 1.56-3.919 4.581-3.919 4.581s.874-.81 1.492-1.25c1.454-1.034 1.12-.749 3.243-2.082 2.123-1.332 2.204-2.998-.816-1.25z" fill="#F17639"/></svg>