<!-- by TradingView --><svg xmlns="http://www.w3.org/2000/svg" width="18" height="18"><path fill="#E61C39" d="M0 0h18v18H0z"/><path d="M8.39 11.82l1.4-4.97c.09-.3.4-.87 1.04-.85H15l-.29.87h-3.24c-.22 0-.72.17-.94.85l-.93 3.32c-.07.36-.29.87-1.21.78zM6.32 6h3.33l-.28.87H7.21c-.69.03-1.05.61-1.12.85L5.1 11.1c-.17.78.5 1.04.82 1.03H7.9l-.26.87H5.37c-1.36-.08-1.45-1.05-1.33-1.52l1.4-4.81c.24-.58.68-.69.88-.67zm.93 1.17H9.3l-.28.87H7.66c-.27-.03-.4.2-.44.3l-.55 2.03c-.1.5.17.6.32.59h1.27l-.25.87H5.98c-.6-.04-.6-.45-.53-.65l.99-3.37c.19-.54.62-.66.81-.64zm4.45 0h2.91l-.25.87h-2.3c-.36 0-.48.28-.52.43l-.78 3.17C10.52 12.8 9.56 13 9.01 13H8.1l.25-.87h.53c.55-.04.87-.5 1-.9l.86-3.17c.23-.73.64-.9.96-.9zm.22 1.16h2.34l-.27.88h-2.33l.26-.88z" fill="#fff"/></svg>