<!-- by TradingView --><svg xmlns="http://www.w3.org/2000/svg" width="18" height="18"><path fill="#0153A8" d="M0 0h18v18H0z"/><path d="M8.15 5.97c-.42.45.1 1.94.46 2.39.02.03.07.1.11.08.05-.02.06-.1.07-.13.14-1.43 1.14-1.5 1.62-1.36-1.35-1.18-2.1-1.15-2.26-.98z" fill="#F05922"/><path d="M11.78 8.9c-.18-.6-1.7-.88-2.25-.79-.04 0-.12.02-.12.06-.01.05.05.1.07.13 1.13.84.7 1.76.34 2.11 1.67-.6 2.02-1.29 1.96-1.51z" fill="#3F3F41"/><path d="M7.45 10.72c.6.15 1.59-1.07 1.79-1.6.02-.04.05-.12 0-.14-.03-.03-.1-.01-.13 0-1.28.59-1.84-.26-1.96-.76-.32 1.8.07 2.45.3 2.5z" fill="#076739"/><path d="M12.37 4.16c-3.06-.04-4.14 1.25-4.3 1.9.89-.78 3.1 1.5 4.1 2.75.05.08.2.22.27.2.07-.02.09-.13.1-.2.12-1.48-.12-2.8-.25-3.27-.07-.32.1-.44.19-.47l1.42-.54c.04-.02.11-.06.1-.12-.01-.06-.07-.08-.1-.09-.6-.11-1.27-.15-1.53-.16z" fill="url(#auvi3v3wr)"/><path d="M11.19 13.55c1.57-2.7 1.01-4.3.54-4.76.22 1.17-2.81 1.99-4.36 2.25-.1.02-.29.07-.31.15-.02.07.07.14.13.18a9.47 9.47 0 002.87 1.42c.3.1.33.3.3.4l-.25 1.54c0 .04 0 .12.05.14.06.02.11-.01.13-.04.4-.48.77-1.05.9-1.28z" fill="url(#buvi3v3wr)"/><path d="M3.82 7.87c1.5 2.74 3.12 3.05 3.75 2.86-1.1-.39-.27-3.49.27-5 .04-.09.1-.29.04-.35-.05-.05-.16 0-.22.03a9.58 9.58 0 00-2.64 1.85c-.23.22-.42.13-.49.06l-1.17-.99c-.03-.03-.1-.07-.15-.03-.04.04-.04.1-.03.13.21.6.51 1.21.64 1.44z" fill="url(#cuvi3v3wr)"/><defs><linearGradient id="auvi3v3wr" x1="8.66" y1="5.2" x2="12.61" y2="7.55" gradientUnits="userSpaceOnUse"><stop stop-color="#F9D04F"/><stop offset="1" stop-color="#F67D15"/></linearGradient><linearGradient id="buvi3v3wr" x1="12.22" y1="9.88" x2="9.63" y2="11.38" gradientUnits="userSpaceOnUse"><stop stop-color="#E8E9EB"/><stop offset="1" stop-color="#949599"/></linearGradient><linearGradient id="cuvi3v3wr" x1="6.53" y1="10.66" x2="6.11" y2="6.15" gradientUnits="userSpaceOnUse"><stop stop-color="#93CA49"/><stop offset="1" stop-color="#0B8D43"/></linearGradient></defs></svg>