<!-- by TradingView --><svg width="18" height="18" viewBox="0 0 18 18" xmlns="http://www.w3.org/2000/svg"><path fill="#264897" d="M0 0h18v18H0z"/><path d="M4.628 5.523v1.956h.475c.278 0 .472-.146.582-.437.06-.16.09-.35.09-.572 0-.305-.045-.538-.136-.701-.09-.164-.268-.246-.536-.246h-.475zm.574-.52c.175.002.321.024.437.064a.94.94 0 01.482.38c.098.15.165.311.2.485.037.173.054.339.054.496 0 .398-.075.736-.226 1.012-.204.373-.52.56-.947.56H4V5.002h1.202zM6.7 6.525c0-.523.132-.926.396-1.21.23-.246.523-.37.878-.37.476 0 .823.166 1.043.496.122.186.187.373.196.56h-.59a.868.868 0 00-.148-.326c-.108-.13-.267-.195-.478-.195a.582.582 0 00-.508.277c-.124.183-.186.442-.186.779 0 .336.066.588.196.756.131.167.298.25.5.25.207 0 .365-.072.474-.215a.963.963 0 00.15-.348h.584a1.37 1.37 0 01-.393.797c-.21.205-.479.307-.807.307-.407 0-.726-.138-.959-.415C6.816 7.39 6.7 7.01 6.7 6.525zm3.582-1.002v.66h.645a.553.553 0 00.3-.072c.078-.05.117-.139.117-.265 0-.14-.05-.232-.153-.276a1.027 1.027 0 00-.337-.047h-.572zm0 1.144v.812h.645a.65.65 0 00.289-.053c.125-.065.188-.19.188-.374 0-.156-.06-.276-.182-.334a.692.692 0 00-.286-.051h-.654zm.76-1.665c.346.006.591.112.736.32.086.127.13.28.13.457 0 .183-.043.33-.13.441a.678.678 0 01-.215.171.631.631 0 01.326.265c.074.12.111.267.111.439a.913.913 0 01-.328.714.764.764 0 01-.322.15c-.123.027-.256.04-.4.04H9.654V5.003h1.387zm-6.41 4.519v.661h.628a.558.558 0 00.303-.073c.178-.114.155-.458-.037-.541a1.039 1.039 0 00-.34-.047h-.554zm0 1.145v.813h.628a.655.655 0 00.291-.053c.246-.127.265-.585.006-.709a.7.7 0 00-.287-.05h-.638zM5.376 9c.348.005.595.112.74.32a.79.79 0 01.131.457c0 .184-.043.33-.13.442a.683.683 0 01-.217.171.634.634 0 01.328.265.82.82 0 01.112.44.91.91 0 01-.33.714.77.77 0 01-.324.15 1.88 1.88 0 01-.403.041H4V9h1.376zm2.241 1.816h.721l-.355-1.13-.366 1.13zM7.654 9h.67l1.008 3h-.644l-.184-.667H7.457L7.26 12h-.62l1.015-3zm2.035 0h.619l1.277 2.094V9h.632v3h-.632L10.32 9.87V12h-.632V9zm3.16 0h.632v1.235L14.578 9h.768l-1.165 1.235L15.406 12h-.764l-.877-1.31-.284.307V12h-.632V9z" fill="#fff"/></svg>