<!-- by TradingView --><svg xmlns="http://www.w3.org/2000/svg" width="18" height="18"><path fill="#F0F3FA" d="M0 0h18v18H0z"/><path d="M10.9 12.47l.52.53H6.57l.52-.53h3.8zm-.9-.91l.53.53H7.46l.52-.53H10zm-.3-.31H8.28l.71-.68.71.68z" fill="#4786B4"/><path fill-rule="evenodd" d="M9 4.82L7.14 6.68a.28.28 0 000 .4L9 8.94l1.86-1.86a.28.28 0 000-.4L9 4.82zM6.34 6.68a.28.28 0 000 .4L9 9.74l2.66-2.66a.28.28 0 000-.4L9 4 6.34 6.68zm-.35 1.55a.28.28 0 00-.4 0L3.71 10.1l1.86 1.86c.11.11.3.11.4 0l1.87-1.86-1.86-1.86zM2.92 10.1l2.66 2.66c.11.12.3.12.4 0l2.67-2.66-2.66-2.66a.28.28 0 00-.4 0L2.91 10.1zm9.5-1.87a.28.28 0 00-.4 0l-1.87 1.86 1.87 1.86c.1.11.29.11.4 0l1.86-1.86-1.86-1.86zM9.35 10.1l2.67 2.66c.1.11.29.11.4 0l2.66-2.66-2.66-2.66a.28.28 0 00-.4 0L9.35 10.1z" fill="#428DC4"/></svg>