<!-- by TradingView --><svg width="18" height="18" viewBox="0 0 18 18" xmlns="http://www.w3.org/2000/svg"><path fill="url(#paint0_linear)" d="M0 0h18v18H0z"/><path d="M3 9.697c.011-1.084.68-1.968 1-2.274V11h9V4c1.055-.009 2.017 1.048 2 2.43-.014 1.105-.767 2.14-1.155 2.532-.344.349-.265 1.376-.344 1.853-.29 1.765-1.543 2.126-2.323 2.181-.623.044-1.31-.307-1.575-.488a6.772 6.772 0 00-1.023-.57c-.495-.21-1.274-.23-1.972-.09a7.834 7.834 0 01-1.358.138c-1.27-.05-2.264-.935-2.25-2.29z" fill="#fff"/><path d="M5 10V7.37c.945-.742 1.347-.81 1.87-.81.524 0 1.02.154 1.448.154.654 0 1.515.15 2.066-1.126.44-1.02 1.259-1.213 1.616-1.183V10H5z" fill="#fff"/><defs><linearGradient id="paint0_linear" x1="16.982" y1="2.507" x2="1.401" y2="15.547" gradientUnits="userSpaceOnUse"><stop stop-color="#EFEA3B"/><stop offset=".398" stop-color="#00ABDA"/><stop offset=".71" stop-color="#0755A7"/></linearGradient></defs></svg>