<!-- by TradingView --><svg width="18" height="18" xmlns="http://www.w3.org/2000/svg"><path fill="#00A937" d="M0 0h18v18H0z"/><path d="M8.12 3.625a1 1 0 011.76 0l4.29 7.928a1 1 0 01-.879 1.476H4.709a1 1 0 01-.88-1.476l4.292-7.928z" fill="#fff"/><path fill-rule="evenodd" d="M10.863 7H6.89l-.568 1h1.221c.355 0 .452.237.456.352-.004.335-.01.81 0 1.23.01.422-.3.434-.456.422H5.521c-.257 0-.428.26-.48.356l-.89 1.691c-.197.325.025.444.16.456l9.297.005c.345 0 .308-.236.246-.348l-.47-.857h-.454c.326.536.087.717-.073.693a299.6 299.6 0 01-3.553 0c-.236-.01-.296-.24-.291-.343v-1.653c0-.182.197-.235.291-.235h2.68c.56 0 .466-.313.363-.513-.14-.252-.369-.655-.584-1.032a39.526 39.526 0 01-.53-.944c-.08-.162-.226-.28-.37-.28zM7.51 11.257a1.09 1.09 0 11-2.18 0 1.09 1.09 0 012.18 0zm2.763-1.764a1.09 1.09 0 100-2.182 1.09 1.09 0 000 2.182z" fill="#00A937"/><ellipse cx="8.956" cy="4.268" rx=".227" ry=".757" fill="#00A937"/><ellipse rx=".237" ry=".726" transform="matrix(.6635 .74817 -.69065 .7232 9.615 5.161)" fill="#00A937"/><ellipse rx=".237" ry=".726" transform="matrix(.6635 .74817 -.69065 .7232 9.615 6.112)" fill="#00A937"/><ellipse rx=".237" ry=".726" transform="matrix(-.6635 .74817 .69065 .7232 8.385 5.161)" fill="#00A937"/><ellipse rx=".237" ry=".726" transform="matrix(-.6635 .74817 .69065 .7232 8.385 6.112)" fill="#00A937"/></svg>