<!-- by TradingView --><svg xmlns="http://www.w3.org/2000/svg" width="18" height="18" viewBox="0 0 18 18"><path fill="url(#a4x2xwjz3)" d="M0 0h18v18H0z"/><path d="M10.15 4c1.4 0 2.36 1.79 2.48 2.49-.73-.59-1.33-1-1.54-1.14a.99.99 0 00-1.48.76c-.19.97.35 1.41.65 1.52-.66-1.3.45-1.61.99-1.52 2.3.37 2.79 2.13 2.75 2.97A4.92 4.92 0 019.27 14a5.24 5.24 0 01-2.92-1.16c1.08.43 1.97.58 2.92.51a3.98 3.98 0 003.47-3.7c.08-1.8-1.06-2.37-1.65-2.43.66.3.9.6 1.06 1.59.17.99-.9 4.23-4.2 4.18-3.3-.05-4-2.87-3.95-4.18.04-1.06.55-1.64.8-1.8.04-.03.15-.07.23 0 .08.06.04.17 0 .2-.43.35-.48.8-.45.99.4 2.08 2.67 2.59 3.75 2.58 2.52-.2 2.9-1.93 2.76-2.77-.07.54-.39 1.66-2.08 1.64C7.32 9.64 5.03 8 5.13 6.27c.1-1.72 1.65-2.2 2.2-2.2.57 0 .96.22 1.18.37.07.03.15.12.11.27-.03.12-.2.1-.3.06-.33-.21-.57-.25-.7-.17-.52.28-.48 1.23.06 2.22.57 1.02 1.59 1.79 2.07 1.79a.8.8 0 00.68-.41c-1.56.26-2.1-1.69-2.1-2.1 0-.75.42-2.1 1.82-2.1z" fill="#fff"/><defs><linearGradient id="a4x2xwjz3" x1="4.85" y1="1.33" x2="12.9" y2="17.3" gradientUnits="userSpaceOnUse"><stop stop-color="#20267F"/><stop offset="1" stop-color="#0B80C8"/></linearGradient></defs></svg>