<!-- by TradingView --><svg width="18" height="18" viewBox="0 0 18 18" xmlns="http://www.w3.org/2000/svg"><path fill="url(#paint0_linear)" d="M0 0h18v18H0z"/><path d="M8.995 4c.112.163.213.333.314.503.063.105.126.21.191.315l.472.779.59.974H7.438c.281-.468.564-.934.848-1.4L8.995 4zm.004 2.857h1.407c-.223.365-.448.729-.672 1.093v.001c-.245.397-.49.794-.733 1.192-.471-.76-.94-1.523-1.407-2.286h1.405zm-2.49 1.08L5.727 9.14c.632.002 1.265.002 1.897.002h1.063l-.776-1.198-.705-1.088-.698 1.078v.001zm3.53.08l.75-1.16 1.478 2.286h-1.24l-1.714-.001.726-1.124zm-3.295 3.355a346.6 346.6 0 00-1.183-1.943l-.78 1.285L4 12h3.125l-.38-.628zm-.869-1.944h2.813l-.601.983-.782 1.28c-.014.05-.052.003-.06-.019-.26-.429-.521-.856-.783-1.284l-.587-.96zm5.547 0h-2.11l.764 1.242.001.002.642 1.042.373-.606 1.033-1.68h-.703zm1.462.732c.094.158.189.315.285.47L14 12h-3.125l.665-1.097c.298-.49.596-.982.892-1.473.157.24.305.485.452.731zm-2.823 1.012c-.351-.583-.703-1.165-1.063-1.743-.299.497-.6.993-.903 1.49-.22.36-.44.72-.658 1.08h3.127l-.502-.827z" fill="#fff"/><defs><linearGradient id="paint0_linear" x1="3.349" y1="3.122" x2="21.904" y2="24.434" gradientUnits="userSpaceOnUse"><stop stop-color="#1A1E21"/><stop offset="1" stop-color="#06060A"/></linearGradient></defs></svg>