<!-- by TradingView --><svg xmlns="http://www.w3.org/2000/svg" width="18" height="18"><path fill="url(#azhsyksv0)" d="M0 0h18v18H0z"/><path d="M4 11.85l2.01-1.45L8 11.85l-1.99 1.52L4 11.85zm6-.01l2-1.45 2 1.45-2 1.52-2-1.52zM7 7.28l2.01-1.46L11 7.28 9.01 8.8 7 7.28z" fill="#fff"/><path fill-rule="evenodd" d="M7 7.33L9 8.8l2-1.47-2-1.35-2 1.35zm.29-.2l1.7 1.29 1.72-1.29L9 5.98 7.29 7.13zM4 11.9l2 1.54 2-1.55-2-1.62-2 1.63zm.27-.22L6 13.01l1.74-1.33L6 10.4l-1.73 1.28zm5.73.2l2 1.56 2-1.57-2-1.64-2 1.65zm.26-.21L12 12.99l1.75-1.32L12 10.36l-1.74 1.3z"/><path d="M4 8.87l2-1.44v3l-2 1.45v-3zm6 0l2-1.44v3l-2 1.45v-3zM7 4.72l2-1.26v2.62L7 7.33V4.72z" fill="#EDE1AC"/><path d="M8 8.87L6 7.43v3l2 1.45v-3zm6 0l-2-1.44v3l2 1.45v-3zm-3-4.15L9 3.46v2.62l2 1.25V4.72z" fill="#B9BEB8"/><path d="M7.75 10.25l1.25-1 1.25 1L9 11.4l-1.25-1.15z"/><path d="M7.75 8.28L9 7.33V9.3l-1.25.96V8.28z" fill="#EDE1AC"/><path d="M10.25 8.28L9 7.33V9.3l1.25.96V8.28z" fill="#B9BEB8"/><defs><linearGradient id="azhsyksv0" x1="14.86" y1="2.39" x2="2.46" y2="15.37" gradientUnits="userSpaceOnUse"><stop stop-color="#ADBB6C"/><stop offset="1" stop-color="#CCD59E"/></linearGradient></defs></svg>