<!-- by TradingView --><svg xmlns="http://www.w3.org/2000/svg" width="18" height="18" viewBox="0 0 18 18"><path fill="#F0F3FA" d="M0 0h18v18H0z"/><path d="M10.65 10.95c-2.58-.03-3.63-.7-4.01-1.14a12.3 12.3 0 00-2.52 3.12c.3.83 1.73 1.06 2.41 1.07a4.25 4.25 0 004.12-3.05z" fill="url(#a5dmaa5zb)"/><path d="M13.38 5.74l-3.16-1.4a4.63 4.63 0 011.46 3.17c-.24 2.52-1.87 5.1-2.52 5.61 0 0 2.4-1.69 4.04-3.13 1.65-1.44 1.83-1.87 1.8-2.3-.1-1.07-1.03-1.67-1.62-1.95z" fill="url(#b5dmaa5zb)"/><path d="M4 12.19c-.03.32.07.63.12.75a14.24 14.24 0 014.32-4.6c1.74-1.23 2.85-1.55 3.18-1.55a5.05 5.05 0 00-.72-1.7 2.17 2.17 0 00-1.03-.94c-.51-.24-1.46-.25-2.93.4C5.47 5.21 4.47 6 4.27 7.62 4.1 8.92 4.03 11.2 4 12.2z" fill="url(#c5dmaa5zb)"/><defs><linearGradient id="a5dmaa5zb" x1="8.42" y1="10.42" x2="4.68" y2="13.43" gradientUnits="userSpaceOnUse"><stop stop-color="#E32025"/><stop offset="1" stop-color="#9B2522"/></linearGradient><linearGradient id="b5dmaa5zb" x1="12.11" y1="4.51" x2="10.2" y2="12.59" gradientUnits="userSpaceOnUse"><stop stop-color="#016199"/><stop offset="1" stop-color="#1AA5D5"/></linearGradient><linearGradient id="c5dmaa5zb" x1="10.71" y1="4.96" x2="3.92" y2="9.14" gradientUnits="userSpaceOnUse"><stop stop-color="#BFC913"/><stop offset="1" stop-color="#038841"/></linearGradient></defs></svg>