<!-- by TradingView --><svg width="18" height="18" xmlns="http://www.w3.org/2000/svg"><path fill="#E62F32" d="M0 0h18v18H0z"/><path d="M13.59 6c.092 0 .41.134.41.5a.487.487 0 01-.41.497H9.427c-.09 0-.416-.08-.426-.496a.559.559 0 01.038-.228h-.206c-.159 0-.534.078-.69.14-.129.053-.183.059-.219.045-.065-.024-.077-.097-.05-.134.042-.059.033-.27-.23-.074a534.1 534.1 0 01-1.948 1.38c-.133.088-.176.172-.164.278l-1.219.99c-.093.065-.224.217-.175.402.017.059.026.116.035.17.016.095.03.177.077.23 0 0 .024.035.061.018.015-.006.477-.318.477-.318a.096.096 0 01.129.022c.027.04.018.094-.009.111 0 0-.307.178-.315.186-.013.015-.042.111.124.1h.259c.17 0 .2-.1.2-.1a.156.156 0 01.055-.073c.032-.02.463-.18.665-.25.115-.038.246-.038.383-.038.125 0 .255 0 .384-.028a.544.544 0 00.378-.262c.035-.07.098-.105.15-.103.187.01.315.387.48.874.217.637.498 1.464 1.062 1.917a.704.704 0 00.008.008c.029.027.072.068.072.11 0 .07-.062.127-.135.127H6.212C4.514 12 3 10.747 3 8.98 3 7.217 4.513 6 6.38 6h7.211zm.906 2c.098 0 .492.07.504.495.012.424-.406.505-.504.505H11.5c-.097 0-.495-.123-.501-.498-.006-.374.404-.502.501-.502h2.995zm.057 2.006h-1.091a.477.477 0 00-.462.499c0 .419.365.498.462.498h1.091a.467.467 0 00.447-.498.468.468 0 00-.447-.499z" fill="#fff"/></svg>