<!-- by TradingView --><svg xmlns="http://www.w3.org/2000/svg" width="18" height="18" viewBox="0 0 18 18"><path fill="#1B409B" d="M0 0h18v18H0z"/><path d="M3 11.63c.31 0 .6-.15.66-.46l.76-3.84a3.07 3.07 0 00.06-.56c0-.14-.04-.24-.12-.3-.08-.06-.23-.09-.43-.1V6h3.43l-.22 1.48L7 7.46a5.5 5.5 0 00.02-.35c0-.3-.08-.5-.24-.6-.16-.09-.47-.13-.98-.13-.23 0-.38.01-.44.04s-.1.1-.12.2l-.4 2c.61-.02 1.22-.02 1.34-.1.13-.07.26-.31.4-.73h.13l-.44 2.13H6.1l.04-.33v-.13c0-.2-.04-.32-.15-.38A3.4 3.4 0 005.1 9h-.32l-.35 1.94a1.35 1.35 0 00-.05.34c0 .1.02.17.06.22.07.08.2.12.4.12.62 0 1-.08 1.26-.26s.44-.35.7-.86h.21L6.57 12H3v-.38zm4.2 0c.16-.02.3-.06.37-.12.1-.1.17-.28.23-.56l.6-3.62c.05-.23.14-.72-.02-.85a.8.8 0 00-.4-.1V6h1.71v.38c-.18.03-.3.08-.37.15-.07.07-.13.24-.19.52l-.6 3.62c-.11.53-.13.92.38.95V12h-1.7v-.38zm2.17 0c.17 0 .47-.05.56-.46l.68-4.06c.05-.29.07-.47.01-.58-.06-.1-.2-.15-.46-.16V6h1.87v.38c-.47 0-.64.18-.74.73l-.27 1.5h2.44L13.73 7c.09-.45-.05-.61-.46-.61V6H15v.38c-.31 0-.47.02-.56.45l-.73 4.07c-.1.55-.08.7.5.73V12h-1.87v-.38c.31 0 .57-.17.63-.45L13.4 9h-2.45l-.36 2.25c-.06.46.5.38.5.38V12H9.37v-.38z" fill="#fff"/></svg>