<!-- by TradingView --><svg width="18" height="18" viewBox="0 0 18 18" xmlns="http://www.w3.org/2000/svg"><path fill="url(#paint0_linear)" d="M0 0h18v18H0z"/><path fill-rule="evenodd" d="M9.404 12.992C12.53 12.853 15 11.119 15 9c0-2.209-2.686-4-6-4S3 6.791 3 9c0 2.184 2.623 3.958 5.883 4l-2.538-2.672s-.374-.28-.588-.918c-.214-.637.067-1.147.334-1.44.268-.293 2.917-2.931 2.917-2.931.59.522.522 1.274.255 1.67l-2.53 2.395c-.254.243-.481.6-.133.97.31.328 2.357 2.454 2.804 2.918zM7.496 9.116c.281-.408 2.784-2.78 2.784-2.78 1.087 1.169.12 1.939-1.13 2.934l-.222.177c-1.351 1.083-.977 1.746-.977 1.746-.883-.408-.736-1.67-.455-2.077zm4.002-1.48s-2.503 2.372-2.784 2.78c-.28.407-.428 1.67.455 2.077 0 0-.375-.663.977-1.746l.222-.177c1.25-.995 2.217-1.765 1.13-2.933z" fill="#fff"/><defs><linearGradient id="paint0_linear" x1="9" y1="0" x2="9" y2="18" gradientUnits="userSpaceOnUse"><stop stop-color="#EE312B"/><stop offset=".239" stop-color="#FDE402"/><stop offset=".505" stop-color="#43B73B"/><stop offset=".672" stop-color="#48C5DD"/><stop offset=".848" stop-color="#38388A"/><stop offset="1" stop-color="#B04C87"/></linearGradient></defs></svg>