<!-- by TradingView --><svg width="18" height="18" xmlns="http://www.w3.org/2000/svg"><path fill="#2957A4" d="M0 0h18v18H0z"/><path d="M8.095 4.075c.138-.026.37-.056.556-.073.13-.011.748.003.893.022.95.12 1.806.491 2.55 1.106.205.17.608.588.773.801.13.172.353.509.447.68.053.098.117.225.126.253.068.127.56 1.073.56 1.957 0 1.202-.198 1.594-.42 2.03a6.958 6.958 0 00-.142.292h-.002c-.045.093-.2.37-.28.497-.755 1.199-1.958 2.033-3.285 2.279-2.116.393-4.206-.648-5.26-2.619a5.508 5.508 0 01-.081-.157h-.003c-.052-.13-.104-.247-.154-.36C4.173 10.328 4 9.937 4 9.13c0-.922.22-1.5.48-2.153l.05-.127a4.25 4.25 0 01.121-.238c.094-.172.316-.51.447-.68.165-.214.568-.632.774-.803a4.914 4.914 0 012.223-1.054zm5.068 6.71c.696-1.034.592-2.774 0-3.572H4.809l-.033.083c-.327.822-.75 1.888.032 3.49h8.355zM5.069 7.572v.357c.366.002.362.216.357.489v1.379c0 .177-.114.263-.357.274v.358h2.5V9.53h-.357v.133c0 .185-.006.408-.201.408h-.87v-.893h1.071v-.357H6.14v-.893h.795c.263.047.267.142.275.35l.002.052v.144h.357v-.903h-2.5zm3.032.357h-.022l-.004-.357h1.801l.002.357a1.917 1.917 0 01-.112.009c-.186.012-.41.026-.41.236v1.535c0 .345.281.354.46.36l.062.003v.358H8.087v-.358c.376 0 .554-.015.554-.363V8.154c0-.227-.344-.227-.54-.226zm2.326-.357s-.003.242 0 .357c.206 0 .358.07.358.228v.987c.003.68.004.785-.055.848-.078.083-.165.082-.266.08h-.037v.358h2.501v-.715h-.357a1.395 1.395 0 000 .082c0 .105.002.207-.09.275H11.5A62.424 62.424 0 0111.5 9c.005-.869.01-.94.08-1.003.079-.07.132-.07.215-.069h.063V7.57h-1.43z" fill="#fff"/></svg>