<!-- by TradingView --><svg width="18" height="18" viewBox="0 0 18 18" xmlns="http://www.w3.org/2000/svg"><path fill="#ED1C24" d="M0 0h18v18H0z"/><path d="M11.188 10H14l-1.643 3.083s-.27.607-.652.76c-.105.041-.219.155-1.359.155-.12-.004-2.65 0-2.65 0s-.758.036-1.153-.229c-.221-.148-.592-.727-.748-1.08-.142-.321-1.525-2.852-1.525-2.852s-.331-.61-.26-.98c.055-.283.107-.541.302-.836.08-.122 1.59-2.916 1.59-2.916s.403-.71.582-.828c.179-.117.44-.277.849-.277h3.572s1.017.001 1.453.884C12.734 5.644 14 7.999 14 7.999h-2.813s-.71-1.626-2.572-1.289c-.346.063-1.179.357-1.179.767 0 .259.199.493.508.522h.498s.553 0 .553.369v1.17s-.012.469-.642.461c-.21-.002-.533 0-.533 0s-.384.078-.384.443c0 .364.547.81 1.65.89.383.028 1.335-.032 2.02-1.123.055-.087.082-.21.082-.21z" fill="#fff"/></svg>