<!-- by TradingView --><svg xmlns="http://www.w3.org/2000/svg" width="18" height="18"><path fill="#003986" d="M0 0h18v18H0z"/><path d="M6.67 8.78l.14.16c.26.31.36.6.34.82a.62.62 0 01-.28.47l-.07.05-.08-.04a.64.64 0 01-.3-.3.74.74 0 01-.07-.37c.02-.24.12-.47.2-.6l.12-.19zm.62-1.12l.15.15c.27.3.38.57.37.8a.62.62 0 01-.26.49l-.07.05-.08-.04a.64.64 0 01-.31-.28.74.74 0 01-.08-.37c0-.24.1-.47.18-.62l.1-.18zm.9-.75l.11.18c.23.34.3.63.25.85a.61.61 0 01-.33.44l-.08.04-.07-.05a.65.65 0 01-.26-.33.74.74 0 01-.03-.38c.04-.23.17-.45.27-.58l.14-.17zm3.73-2.92l.14.16c.26.31.36.59.33.82a.62.62 0 01-.27.47l-.08.05-.07-.04a.64.64 0 01-.3-.3.74.74 0 01-.07-.37c.02-.24.12-.47.2-.6l.12-.19zm1.54.08l-.02.21c-.04.41-.17.67-.35.82a.6.6 0 01-.52.13l-.09-.03-.02-.08a.66.66 0 01.22-.73c.17-.15.4-.24.57-.27l.2-.05zm.12 1.83l-.2.08c-.36.17-.65.18-.87.1a.61.61 0 01-.36-.41l-.02-.09.06-.06a.64.64 0 01.73-.16c.22.08.41.25.52.37l.14.16zm-.67.77l-.2.07c-.38.13-.67.1-.87 0a.63.63 0 01-.32-.44l-.01-.09.06-.06a.63.63 0 01.75-.08c.2.1.38.29.47.42l.12.18zm-1.73-2.15l.14.16c.27.3.36.58.34.82a.61.61 0 01-.28.47l-.07.04-.08-.04a.64.64 0 01-.3-.3.74.74 0 01-.06-.36c.01-.24.11-.47.2-.61l.11-.18zM10 9.23l-.2.06c-.4.12-.68.1-.88-.02a.61.61 0 01-.31-.45l-.01-.09.07-.05a.63.63 0 01.75-.07c.2.11.37.3.46.44l.12.18zm-.83.58l-.2.07c-.39.11-.67.09-.87-.03a.61.61 0 01-.31-.45l-.01-.08.06-.06a.63.63 0 01.75-.06c.2.1.37.3.46.44l.12.17zm-.46.54l-.17.13c-.32.25-.6.32-.83.29a.6.6 0 01-.44-.32l-.04-.07.05-.08a.64.64 0 01.68-.32c.23.03.45.15.58.25l.17.12z" fill="#fff"/><path d="M10.58 7.07l-1.12.8a6.72 6.72 0 00-2.43 2.9l-.3-.1a7 7 0 012.55-3.05l1.14-.82a7.56 7.56 0 002.13-1.91l.25.19a7.95 7.95 0 01-2.22 1.99z" fill="#fff"/><path fill-rule="evenodd" d="M9 4.11l-4.84 7.42a.95.95 0 00.8 1.47h8.07a.95.95 0 00.81-1.47L9 4.11zm0 .59l-4.57 7c-.28.43.03.98.54.98h8.06c.51 0 .82-.55.54-.98L9 4.7z" fill="#fff"/><path d="M8.32 3.22a.4.4 0 01.6.34l.01.25a.6.6 0 00.14.34l3.91 4.66c.4.47.34 1.17-.11 1.56a1.1 1.1 0 01-1.55-.11l-3.9-4.61a.54.54 0 00-.31-.18l-.3-.06a.4.4 0 01-.2-.7l1.7-1.49z" fill="#003986"/><path d="M6.82 4.95a.09.09 0 00.04.15l.3.05c.2.04.38.14.5.3l3.9 4.6c.28.33.77.37 1.1.08a.8.8 0 00.09-1.1L8.83 4.35a.88.88 0 01-.2-.54l-.02-.25c0-.06-.06-.1-.12-.08L6.82 4.95zm-.2-.24l1.7-1.49a.4.4 0 01.6.34l.01.25a.6.6 0 00.14.34l3.91 4.66c.4.47.34 1.17-.11 1.56a1.1 1.1 0 01-1.55-.11l-3.9-4.61a.54.54 0 00-.31-.18l-.3-.06a.4.4 0 01-.2-.7z" fill="#fff"/><path fill="#EDEDED" d="M6 11h6v1H6z"/></svg>