<!-- by TradingView --><svg xmlns="http://www.w3.org/2000/svg" width="18" height="18"><path fill="#F0F3FA" d="M0 0h18v18H0z"/><path d="M4.1 7c.08.42.24 1.5.27 2.85v1.3h.23v-1.3c.02-.61.11-2.03.28-2.85.2.03.4.09.58.16a8.76 8.76 0 00-.5 2.44h.16c.22-1.18.77-1.83 1.02-2 .16.13.3.29.42.46a3.96 3.96 0 00-1.25 2.51l.11.04a3.68 3.68 0 011.44-1.95A2.52 2.52 0 014.5 12a2.5 2.5 0 01-2.37-3.32c.34.2 1.07.84 1.42 1.91l.1-.04a3.9 3.9 0 00-1.22-2.47c.12-.18.25-.34.41-.48.26.2.8.85 1.01 2H4a8.79 8.79 0 00-.49-2.43c.19-.07.38-.13.58-.17z" fill="#4DB848"/><path d="M15 7H7v5h8V7zm-6.99 3.18v.5h-.78V9.33c0-.34.2-1 1-1 .82 0 1 .73 1 1.1h-.77c.01-.13-.02-.37-.22-.37S8 9.33 8 9.5h.66v.67H8zm2.16-1.47a.4.4 0 01-.38.4h.38v1.58h-.78V9.1h.38a.4.4 0 01-.38-.39c0-.22.17-.4.39-.4a.4.4 0 01.39.4zm2.2 1.98V9.55c0-.25.23-.7.79-.7.07-.01.27.01.46.15a.78.78 0 01.46-.16c.31 0 .76.26.76.7v1.15h-.63v-1c0-.06-.04-.16-.13-.16s-.15.08-.15.16v1h-.64v-1c0-.05-.03-.16-.13-.16s-.14.09-.14.16v1h-.65zm-.48-.79l.25.61c-.09.06-.38.18-.7.18-.4 0-1.06-.2-1.06-.92s.67-.93 1-.93a1 1 0 01.82.44l-.6.73c.06 0 .2-.03.3-.1zm-.32-.52l-.49.58c-.07-.07-.15-.25.02-.47.17-.21.41-.15.47-.11z" fill="#F36F21"/></svg>