<!-- by TradingView --><svg width="18" height="18" xmlns="http://www.w3.org/2000/svg"><path fill="#F37F36" d="M0 0h18v18H0z"/><path d="M3.003 10.143c.117-1.529 2.244-2.795 3.292-3.237C4.38 8.081 3.89 9.275 3.938 9.747c.234 2.238 6.936 1.701 9.267.396-5.33 2.984-10.349 1.91-10.202 0z" fill="#172B57"/><path d="M12.099 6.975c-3.424.304-3.844 1.259-3.626 1.698-.211.022-.614-.17-.614-.527 0-.716 2.082-1.8 3.908-1.757 1.62.04 1.85.752 1.762 1.103-.169-.46-1.024-.537-1.43-.517z" fill="#172B57"/><path d="M7.659 8.16c-.062.654 1.222.758 1.872.729-2.254 1.37-3.955.87-3.955.315 0-1.434 4.041-3.188 6.772-3.204C14.534 5.988 15 7.03 15 7.455c0 2.79-5.011 3.764-7.341 3.711-1.21-.012-3.606-.34-3.501-1.545.104-1.205 1.664-2.292 2.43-2.685-1.85 1.368-2.156 2.25-2.078 2.52-.03 1.095 1.616 1.277 2.443 1.232 4.873-.334 6.542-2.4 6.767-3.39.077-.342-.187-1.026-1.857-1.026-2.087 0-4.128 1.07-4.204 1.888z" fill="#fff"/></svg>