<!-- by TradingView --><svg xmlns="http://www.w3.org/2000/svg" width="18" height="18" viewBox="0 0 18 18"><path fill="#176FC1" d="M0 0h18v18H0z"/><path fill-rule="evenodd" d="M9 14.25a5.25 5.25 0 100-10.5 5.25 5.25 0 000 10.5zM9 15A6 6 0 109 3a6 6 0 000 12z" fill="#fff"/><path d="M9.38 5.63c-.58 0-1.1.32-1.37.83L5 12.26c-.03.05.01.12.07.12h1.5c.2 0 .39-.12.48-.3l1.92-3.74.2-.38c.25-.51.9-.96 1.48-.96h1.67L13 5.62H9.38z" fill="#fff"/><path d="M8.88 9.16c.05-.1.14-.16.25-.16h2.3c.05 0 .08.04.06.08l-.46.84a.14.14 0 01-.13.08H8.55a.06.06 0 01-.05-.08l.38-.76z" fill="#fff"/></svg>