<!-- by TradingView --><svg width="18" height="18" viewBox="0 0 18 18" xmlns="http://www.w3.org/2000/svg"><path fill="#F27B1F" d="M0 0h18v18H0z"/><path d="M15 7.95c-.71 0-1.419.336-2.13 1.344-.531 1.008-2.483 4.201-8.337 4.706.355-.673 3.903-1.345 1.951-4.033-.887-1.01-.71-1.345-.71-1.513-.709-.336-.709-1.176-.532-1.512-.532-.168-.532-1.01-.532-1.177 0 0-.532-.168-.71-.672 0 0 1.42-.504 3.193.84 1.775 1.513 2.13 2.353 3.371 2.353 1.243 0 1.952-1.344 3.194-1.344 0 0 .887 0 1.242 1.008z" fill="#fff"/></svg>