<!-- by TradingView --><svg xmlns="http://www.w3.org/2000/svg" width="18" height="18"><path fill="#00529B" d="M0 0h18v18H0z"/><path d="M8.15 3.72c0-.88.56-.77.85-.61v2.71H7.75v-.35h.16c-.17-.24-.46-.12-.59-.06 0 .16-.05.48-.35.49-.3.01-.42-.26-.44-.4-.28.08-.6.38-.73.53l-.33-.62a1.9 1.9 0 011.19-.74c-.25-.3-.32-.66-.32-.8.05-.54.48-.65.76-.68.29-.03.55.31.59.68a.58.58 0 01-.24.53c-.1-.38-.28-.44-.35-.42-.35.03-.19.41-.07.6.06-.04.3-.02.71.3.42.31.86.43 1.03.45a2.2 2.2 0 01-.62-1.6zm1.72 0c.01-.88-.58-.77-.87-.61v2.71h1.25v-.35h-.14c.17-.27.46-.12.6-.06-.01.16.05.48.35.49.3.01.42-.26.44-.4.28.08.6.38.73.53l.33-.62a1.9 1.9 0 00-1.19-.74c.25-.3.32-.66.32-.8-.06-.54-.48-.65-.77-.68-.28-.03-.55.31-.58.68-.03.29.15.47.24.53.1-.38.27-.44.34-.42.35.03.2.41.07.6-.06-.04-.29-.02-.7.3-.43.31-.87.43-1.04.45.2-.17.61-.72.62-1.6z" fill="#FEFEDD"/><ellipse rx=".28" ry=".73" transform="matrix(.56826 .82285 -.60672 .79491 4.68 5.38)" fill="#C7B28A"/><ellipse rx=".28" ry=".73" transform="matrix(-.56826 .82285 .60672 .79491 13.35 5.38)" fill="#C7B28A"/><path d="M5.96 7.2a3.9 3.9 0 00-1.54-1.1c.42-.22.72-.73.8-.95.27.74.6 1.23.74 1.39v.66zm6.1 0a3.9 3.9 0 011.55-1.1 2.08 2.08 0 01-.81-.95c-.27.74-.6 1.23-.74 1.39v.66zM5.3 9.37c-.53-.85-.46-2.25-.35-2.85l.52.36c-.02.2-.06.57.11.57.15 0 .2-.07.22-.1.03.03.1.16.12.5 0 .35-.18.48-.28.51.05.08.17.29.2.45.03.16-.12.26-.2.3.05.05.14.28.16.74.02.58-.36.66-.45.67-.1 0-.46-.07-.47-.55a.58.58 0 01.42-.6zm7.42 0c.53-.85.46-2.25.36-2.85l-.52.36c.01.2.06.57-.12.57-.14 0-.2-.07-.21-.1-.04.03-.11.16-.12.5-.01.35.18.48.27.51-.05.08-.16.29-.19.45-.03.16.12.26.2.3-.05.05-.15.28-.16.74-.02.58.36.66.45.67.1 0 .45-.07.47-.55a.58.58 0 00-.43-.6z" fill="#FEFEDD"/><path fill-rule="evenodd" d="M6.19 6.18h5.62v5.05l-2.73 2.56-2.9-2.56V6.18zm.31.35h5v4.5l-2.43 2.29-2.57-2.29v-4.5z" fill="#FEFEDD"/><path d="M10.47 6.74c-.01.74.17 1.47.26 1.74l-.15.1c-.13-.42-.77-1.54-1.68-1.46-.9.08-1.19.92-1.22 2.3-.03 1.37.44 2.25 1.33 2.26.7.02.92-.4.95-.69V9.95c-.1-.4-.55-.46-.76-.44v-.22h1.97v.22a.5.5 0 00-.47.44v1.04c0 .13.08.21.12.24v.2c-.08-.02-.34 0-.73.25-.38.26-.95.35-1.19.36-1.77-.03-2.14-1.76-2.11-2.63.14-2.67 1.86-2.67 2.55-2.55.55.1.98-.04 1.13-.12z" fill="#DABB7E"/><path d="M5.89 11.84c-.4-.72-.88-.64-.98-.49l-.6.99c-.19.27-.41.67-.26 1.1.19.5.6.32.78.17l.44-.67c.06.05.26.3.54.87.28.57.62.77.75.8l-.29-1 .56-.6c-.14-.1-.44-.27-.94-1.17zm6.22 0c.4-.72.88-.64.98-.49l.6.99c.19.27.41.67.26 1.1-.19.5-.6.32-.78.17l-.44-.67c-.06.05-.26.3-.54.87-.28.57-.62.77-.75.8l.29-1-.56-.6c.14-.1.44-.27.94-1.17z" fill="#FEFEDD"/><path d="M4.13 13.09c0-.45.38-.62.54-.58-.15.14-.16.29-.14.34.12 0 .36.1.33.4a.37.37 0 01-.39.35c-.33-.05-.34-.36-.34-.51zm9.74 0c0-.45-.38-.62-.54-.58.15.14.16.29.14.34-.12 0-.36.1-.33.4.03.3.27.36.39.35.33-.05.34-.36.34-.51z" fill="#C7B28A"/><path d="M6.43 13.7l.28.9.45-.36c.4.35 1.16.78 1.92.76a3.1 3.1 0 001.77-.76l.42.35.28-.9-.85-.92c-.24.35-.89 1.06-1.62 1.11-.73.05-1.5-.72-1.8-1.1l-.85.91z" fill="#FEFEDD"/></svg>