<!-- by TradingView --><svg width="18" height="18" xmlns="http://www.w3.org/2000/svg"><path fill="#3185C5" d="M0 0h18v18H0z"/><path d="M10.836 4h-3.73a1 1 0 00-.894.551l-1.989 3.96a1 1 0 00-.003.891l1.994 4.04a1 1 0 00.897.558h3.72a1 1 0 00.893-.548l2.045-4.04a1 1 0 00-.003-.91l-2.04-3.96a1 1 0 00-.89-.542z" fill="#fff"/><path d="M6 7.348v3.91h1v-1h.697c.427-.029 1.266-.374 1.266-1.53 0-1.094-.936-1.402-1.353-1.38H6zm1 .866h.591c.139 0 .397.162.409.572.011.41-.256.597-.409.597H7V8.214z" fill="#3185C5"/><path d="M10 9.254v1.972h1V9.254h1v-.787h-1V8.02c.026-.417.57-.402.856-.341l.129-.712c-.164-.114-.512-.142-.666-.142-1.075.06-1.337.733-1.319 1.062v.579h-.658v.787H10z" fill="#3185C5"/></svg>