<!-- by TradingView --><svg xmlns="http://www.w3.org/2000/svg" width="18" height="18" viewBox="0 0 18 18"><path fill="#F0F3FA" d="M0 0h18v18H0z"/><path d="M3.3 9.52c0 .47.42.52.64.52.59 0 .84-.28.96-.28.11 0-.07.29-.24.4-1.44.91-2.63 1.7-2.63 2.42 0 .32.3.34.51.34.22 0 1.3-.14 2.95-2.8.08-.13.2-.2.33-.3.12-.09.51-.39.59-.39.08 0 .07.04.07.07 0 .06-.06.17-.06.31s.14.31.37.31c.5 0 .86-.37 1.16-.7l-.34-.09c-.11.1-.23.19-.3.19-.1 0-.14-.07-.15-.13a.4.4 0 01.03-.17A18.48 18.48 0 016.43 9c-.07.05-.15.08-.2.07-.02 0-.03-.02.01-.07l.03-.05a19.38 19.38 0 01-.62-.22c-.42.4-.9.8-1.16.8-.1 0-.2-.07-.2-.25 0-.11.14-.5.43-.92a18.66 18.66 0 01-.66-.3c-.52.57-.76 1.09-.76 1.46zm-.58 2.75c0-.32 1.07-1.17 1.2-1.17.03 0 .04.02.04.04 0 .26-.78 1.28-1.1 1.28-.1 0-.14-.06-.14-.15zm9.53-2.62c0 .19.04.49.35.49.6 0 1.36-.8 1.4-.8.02-.01.02 0 .02.03 0 .02-.08.34-.97 1.46-.88 1.12-1.31 1.56-1.31 1.8s.2.34.29.34c.09 0 .48-.03 1.4-1.59.65-1.11.96-1.8 1.31-2.35-.63.28-1.42.47-2.49.62zm-3.68-.1c0 .23.07.55.57.55.28 0 .54-.16.75-.38a12.02 12.02 0 01-1.32-.19v.02zm1.86.2l-.16.25s-.04.06.03.06h.65c.03 0 .06-.03.08-.06l.16-.26h-.76z" fill="#C11566"/><path d="M15.36 7.4c0 .12.17.2.23.2.09 0 .38-.2.38-.47 0-.1-.07-.21-.17-.21-.13 0-.44.32-.44.48zm-.78.94c-.41.47-.91 1.1-1.36 1.1-.17 0-.22-.1-.22-.22 0-.08.06-.15.18-.19.42-.13 1.09-.7 1.09-1.1 0-.1-.05-.21-.18-.21-.18 0-.7.09-1.33.88-.07.1-.15.15-.2.15-.07 0-.14-.11-.14-.35a.8.8 0 010-.07c-.46.17-.93.3-1.4.4-.16.33-.41.73-.59 1.02h.76l.41-.66c.02-.03.05-.05.08-.05.1 0-.03.27.36.27.1 0 .21-.06.24-.06s.03.03.03.05c0 .04-.05.15-.06.29v.06a9.16 9.16 0 002.49-.62c.14-.22.34-.52.49-.67.27-.27.34-.42.34-.49 0-.08-.05-.17-.14-.17-.1 0-.43.17-.85.64zm-1.34.35c0-.13.41-.54.55-.54.02 0 .05.01.05.04 0 .16-.42.55-.55.55-.02 0-.05-.02-.05-.05zm-9.18-.63l.66.3.12-.16-.67-.26-.11.12zm1.6.67l.61.22.2-.27a13.61 13.61 0 01-.6-.16l-.22.21zm.98.1a1.35 1.35 0 01-.2.17c.27.09.52.16.75.22.04-.1.12-.24.22-.36a11.24 11.24 0 01-.67-.12l-.1.1zm3.42.07c-.16.3-.39.57-.66.57-.08 0-.13-.05-.14-.13 0-.1.07-.25.16-.4-.26.02-.5.02-.75.02-.02.08-.1.37-.1.57.46.1.9.15 1.32.19.23-.25.43-.58.56-.88l-.4.06zm-2.45.43l.34.08c.17-.19.32-.37.46-.46a10.48 10.48 0 01-.44-.03c-.06.12-.2.29-.36.41z" fill="#4E9BD9"/><path d="M5 7.2c-.33.25-.6.5-.83.74l.67.26c.13-.17.28-.34.45-.5a3.13 3.13 0 011.9-.96c.2 0 .45.05.48.05.03 0 .04 0 .05-.02l.37-.69v-.02a.6.6 0 00-.2-.03c-.54 0-1.71.28-2.89 1.17zm3.39-.53c0 .36.2.84 1.05 1.13.02.01.04.01.04.03 0 .04-.4.6-.76.67-.04 0-.07-.03-.07-.07 0-.04.06-.16.06-.34 0-.18-.06-.43-.38-.43s-.68.16-1.6 1.08l.68.12c.29-.36.72-.72.83-.72.07 0 .1.03.1.06.01.12-.16.21-.27.3-.13.1-.17.12-.15.2 0 .04.06.06.07.13a.18.18 0 01-.02.1l.44.02a.34.34 0 01.19-.07c.05 0 .07.03.07.06v.02l.75-.01c.13-.22.3-.42.4-.48.14-.09.22-.18.22-.23 0-.05-.1-.12-.12-.17-.01-.06.04-.1.14-.07.14.04.25.05.25.16 0 .09-.1.42-.25.73l.39-.05c.12-.29.2-.55.2-.7 0-.03 0-.07.06-.07l.28.03c.07 0 .17.07.17.21 0 .1-.06.25-.14.43.47-.1.94-.24 1.4-.41.03-.31.17-.44.17-.54 0-.07-.03-.1-.1-.1-.18 0-.53.45-.6.45-.05 0-.1-.2-.17-.29-.08-.11-.2-.14-.53-.14l-.4.01c-.17 0-.21 0-.24-.08S10.02 6.2 8.9 6.2c-.25 0-.51.11-.51.46zm.56.17c0-.16.1-.25.25-.25.68 0 1.01 1.01 1.01 1.08 0 .03-.01.05-.06.05-.25 0-1.2-.39-1.2-.88zM6.41 7.96l-.54.56.6.16.47-.67c.1-.12.16-.18.16-.22 0-.05-.07-.09-.14-.09a.9.9 0 00-.56.26z" fill="#60B233"/></svg>