<!-- by TradingView --><svg width="18" height="18" xmlns="http://www.w3.org/2000/svg"><path fill="#F0F3FA" d="M0 0h18v18H0z"/><path d="M3.303 9.515c0 .47.42.529.64.529.582 0 .84-.28.954-.28.115 0-.068.284-.24.398-1.44.907-2.624 1.69-2.624 2.413 0 .327.29.349.51.349.22 0 1.298-.144 2.947-2.81.077-.126.205-.198.327-.29.122-.092.515-.391.593-.392.077 0 .074.035.071.072-.004.052-.057.168-.057.31s.139.306.363.306c.501 0 .867-.372 1.167-.708a11.41 11.41 0 01-.339-.08c-.119.106-.235.185-.298.187-.114.003-.15-.065-.155-.127a.404.404 0 01.03-.169A18.476 18.476 0 016.435 9c-.073.047-.15.082-.205.074-.018-.002-.028-.02.01-.077l.034-.05a19.384 19.384 0 01-.62-.216c-.419.4-.9.801-1.163.801-.106 0-.204-.073-.204-.249 0-.116.147-.494.438-.921a18.655 18.655 0 01-.669-.303c-.515.571-.753 1.089-.753 1.457zm-.579 2.752c0-.321 1.07-1.164 1.197-1.165.032 0 .041.013.041.04.002.258-.78 1.279-1.093 1.279-.1 0-.145-.057-.145-.154zM12.25 9.65c0 .188.044.49.35.49.606 0 1.36-.8 1.395-.806.025-.004.03.006.03.032 0 .028-.086.345-.971 1.466-.886 1.122-1.314 1.562-1.314 1.804s.196.33.288.33c.091 0 .478-.023 1.398-1.584.657-1.114.967-1.802 1.316-2.355-.63.286-1.422.472-2.492.623zm-3.678-.1c0 .225.071.547.572.547.278 0 .532-.156.748-.382a12.023 12.023 0 01-1.32-.182v.017zm1.861.195l-.16.254s-.046.059.024.059h.656c.028 0 .056-.024.08-.059l.16-.255c-.245.009-.498.01-.76.001z" fill="url(#paint0_radial)"/><path d="M15.36 7.4c0 .117.172.197.229.197.088 0 .379-.197.379-.469 0-.099-.067-.209-.165-.209-.137 0-.443.323-.443.48zm-.776.941c-.415.47-.914 1.1-1.363 1.1-.167 0-.218-.11-.218-.22 0-.08.06-.155.175-.19.424-.131 1.09-.708 1.09-1.1 0-.103-.05-.213-.176-.213-.184 0-.696.089-1.334.884-.071.09-.148.15-.205.15-.06 0-.13-.117-.13-.352 0-.025.001-.048.003-.071-.464.175-.936.31-1.41.41-.156.321-.406.724-.585 1.007.262.009.516.008.76-.001l.411-.658c.019-.03.047-.05.075-.05.103 0-.023.274.36.274.109 0 .215-.057.244-.057.028 0 .031.026.031.048 0 .043-.053.144-.06.285a.625.625 0 00-.003.064c1.07-.151 1.862-.337 2.491-.624.14-.222.345-.516.49-.664.274-.278.345-.425.345-.49 0-.086-.05-.17-.148-.17-.098 0-.429.17-.843.638zm-1.345.349c0-.13.414-.544.553-.544.02 0 .046.016.046.04 0 .165-.413.556-.545.556-.027 0-.054-.02-.054-.052zm-9.183-.631c.227.108.45.209.669.303.037-.055.076-.11.118-.165-.236-.084-.462-.17-.677-.256l-.11.118zm1.597.672c.215.08.423.152.62.217l.19-.273a13.614 13.614 0 01-.597-.153l-.213.21zm.984.105A1.347 1.347 0 016.434 9c.275.088.53.162.757.224.042-.113.124-.24.224-.368a11.243 11.243 0 01-.679-.12l-.1.1zm3.42.059c-.158.3-.382.575-.652.576-.084 0-.138-.047-.14-.13-.003-.102.063-.248.152-.393-.252.012-.502.016-.749.011-.014.078-.093.371-.097.575.458.089.899.148 1.32.182.234-.245.425-.571.555-.873-.13.02-.26.037-.39.052zm-2.442.439c.126.03.24.057.339.079.17-.19.318-.37.459-.462a10.48 10.48 0 01-.446-.03c-.057.115-.206.284-.352.413z" fill="url(#paint1_radial)"/><path d="M5.002 7.203c-.329.25-.607.497-.836.737.215.087.441.173.677.257.127-.17.275-.341.445-.504.664-.638 1.433-.95 1.91-.95.201 0 .44.042.476.047.025.004.033-.001.044-.02l.372-.689c.006-.01.003-.018-.006-.021a.594.594 0 00-.201-.026c-.537 0-1.705.277-2.881 1.169zm3.388-.53c0 .353.202.835 1.05 1.13.021.007.042.01.042.028 0 .038-.4.602-.762.668-.041.008-.07-.03-.07-.07 0-.04.056-.157.056-.337 0-.18-.053-.432-.38-.432-.315 0-.676.157-1.59 1.076.224.046.45.087.679.12.284-.36.72-.714.83-.717.067-.002.095.028.098.06.01.126-.165.215-.273.296-.126.096-.167.125-.154.206.007.043.068.055.075.133a.176.176 0 01-.024.087c.147.013.296.023.446.03a.343.343 0 01.186-.067c.052 0 .072.024.072.058l-.003.017c.247.005.497.001.749-.012.13-.212.311-.42.397-.475.146-.092.225-.182.223-.233-.001-.052-.105-.121-.115-.171-.012-.06.033-.09.134-.064.145.038.25.043.253.154.003.09-.09.427-.252.737.13-.015.26-.032.39-.052.124-.289.194-.554.194-.7 0-.033.01-.071.066-.071s.212.017.281.025c.075.007.174.07.174.218 0 .092-.059.245-.146.425.474-.1.946-.236 1.41-.411.02-.31.166-.437.166-.539 0-.07-.028-.097-.107-.097-.179 0-.53.447-.592.447-.052 0-.11-.205-.169-.286-.084-.117-.2-.147-.53-.147-.166 0-.26.015-.408.015-.168 0-.207-.007-.239-.084s-.524-1.43-1.644-1.43c-.25 0-.513.114-.513.466zm.562.166c0-.156.101-.245.244-.245.68 0 1.018 1.007 1.018 1.07 0 .033-.018.05-.067.05-.248 0-1.195-.384-1.195-.875zM6.405 7.964c-.076.076-.283.302-.54.558.196.055.396.107.598.153.182-.26.417-.593.48-.667.101-.121.154-.18.154-.22 0-.047-.063-.084-.14-.084a.907.907 0 00-.552.26z" fill="url(#paint2_radial)"/><path d="M6.614 8.812c-.05.05-.138.124-.222.174l.082.027c.101-.07.184-.151.185-.153l.116-.116a7.596 7.596 0 01-.078-.017 15.32 15.32 0 00-.083.085z" fill="#63BBEB"/><path d="M11.575 9.068l-.141.226-.282.452.079-.003.257-.412.141-.226c.013-.02.032-.034.048-.034.008 0 .012.004.024.05.022.083.06.224.337.224a.598.598 0 00.2-.044.392.392 0 01.04-.013l.002.014a.332.332 0 01-.016.064.897.897 0 00-.047.29l.064-.01.002-.057a.845.845 0 01.042-.203.32.32 0 00.02-.084c0-.074-.045-.082-.065-.082-.014 0-.034.007-.063.017a.557.557 0 01-.18.04c-.228 0-.253-.096-.274-.174-.012-.044-.026-.099-.086-.099-.038 0-.076.024-.102.064z" fill="url(#paint3_linear)"/><path d="M10.018 8.9a1.631 1.631 0 01-.23.333c-.125.135-.254.204-.383.204-.04 0-.105-.012-.108-.098-.003-.1.067-.248.159-.394l-.08.005c-.085.143-.147.287-.143.392.003.1.069.163.172.163.147 0 .291-.077.43-.225.1-.11.188-.247.262-.39a8.013 8.013 0 01-.079.01z" fill="url(#paint4_linear)"/><path d="M7.16 9.216l.063.017c.039-.105.117-.231.23-.372l-.076-.01a1.433 1.433 0 00-.217.365z" fill="#3777C5"/><path d="M5.618 8.718l.069.026.215-.212-.072-.02-.212.206zm2.314.199a1.027 1.027 0 01-.12.17 2.21 2.21 0 01-.237.237l.078.02c.078-.071.152-.148.207-.213A.95.95 0 008 8.924a6.362 6.362 0 01-.069-.007z" fill="#63BBEB"/><path d="M7.999 9.312l-.083.093.074.016.056-.064c.157-.177.298-.336.428-.404a10.162 10.162 0 01-.114-.005 2.733 2.733 0 00-.361.364z" fill="#4980CA"/><path d="M4.693 8.348l.063.027c.038-.056.078-.112.12-.168l-.065-.023a4.45 4.45 0 00-.118.164z" fill="#2F67AB"/><path d="M14.235 7.93c0 .382-.665.945-1.066 1.068-.125.038-.199.122-.199.223h.065c0-.07.057-.129.152-.158.42-.13 1.113-.712 1.113-1.132h-.065z" fill="url(#paint5_linear)"/><path d="M12.733 8.58c-.068.085-.137.138-.18.138-.033 0-.098-.096-.098-.318 0-.03.001-.057.003-.084l-.066.025-.002.059c0 .265.085.385.163.385.087 0 .181-.1.23-.161.08-.101.16-.19.237-.27l-.028-.067c-.083.085-.17.183-.259.294z" fill="url(#paint6_linear)"/><path d="M12.992 8.287l.027.067c.536-.554.947-.603 1.072-.603.137 0 .144.15.144.18h.064c0-.123-.064-.247-.207-.247-.166 0-.574.065-1.1.603z" fill="url(#paint7_linear)"/><path d="M13.207 8.69c0 .054.044.086.086.086.152 0 .578-.404.578-.59 0-.044-.042-.074-.08-.074-.152 0-.584.427-.584.578zm.064 0c0-.115.404-.51.52-.51.006 0 .014.004.015.007 0 .145-.397.522-.513.522-.009 0-.022-.006-.022-.019z" fill="url(#paint8_linear)"/><path d="M15.327 7.4c0 .139.186.231.261.231.1 0 .412-.208.412-.503 0-.117-.08-.242-.197-.242-.16 0-.476.34-.476.513zm.065 0c0-.134.288-.447.41-.447.079 0 .133.092.133.175 0 .25-.274.436-.347.436-.048 0-.196-.074-.196-.165z" fill="url(#paint9_linear)"/><path d="M10.393 9.745l.076.003c.184-.292.433-.697.587-1.017a6.95 6.95 0 01-.08.017 12.7 12.7 0 01-.583.997z" fill="#72C1ED"/><path d="M4.024 8.043l.062.03c.036-.04.074-.08.113-.12l-.066-.027-.109.117z" fill="#63BBEB"/><path d="M6.43 8.667l-.189.27.065.022.192-.276-.069-.016z" fill="#326CB3"/><path d="M8.62 9.028c-.028.12-.077.336-.082.5l.064.012c.003-.157.053-.377.08-.496l.019-.084-.066-.002-.015.07z" fill="#63BBEB"/><path d="M10.408 8.849c-.06.138-.134.28-.218.418-.08.13-.196.297-.343.445l.083.007c.234-.25.424-.58.554-.882l-.076.012z" fill="#4980CA"/><path d="M14.56 8.319l-.129.146c-.384.442-.82.942-1.21.942-.154 0-.186-.101-.186-.186h-.065c0 .146.08.238.214.252a.71.71 0 00.384-.102c.31-.172.625-.532.911-.86l.128-.147c.415-.469.737-.627.82-.627V7.67c-.114 0-.45.176-.867.649z" fill="url(#paint10_linear)"/><path d="M15.427 7.737c.08 0 .115.068.115.135 0 .03-.024.152-.335.467-.155.158-.37.47-.52.712a8.86 8.86 0 00.109-.05c.128-.2.323-.478.457-.614.231-.235.354-.413.354-.515 0-.1-.062-.202-.18-.202v.067z" fill="url(#paint11_linear)"/><path d="M7.13 9.396c.007.102.078.16.187.158.08-.002.213-.098.336-.21l-.078-.02c-.11.095-.211.161-.26.162-.075.002-.116-.03-.121-.096a.376.376 0 01.029-.157l-.063-.017a.436.436 0 00-.03.18z" fill="url(#paint12_linear)"/><path d="M6.213 8.978c-.03.044-.038.075-.028.1a.049.049 0 00.04.03c.072.01.168-.038.25-.096a14.319 14.319 0 01-.082-.026.34.34 0 01-.141.055 6.914 6.914 0 01.055-.083l-.066-.021-.028.04z" fill="url(#paint13_linear)"/><path d="M3.92 11.07c-.085 0-.412.244-.667.47-.21.186-.562.527-.562.728 0 .12.063.187.177.187.146 0 .353-.185.502-.34.295-.31.625-.791.624-.972 0-.015-.002-.038-.019-.055a.074.074 0 00-.054-.019H3.92zm-1.164 1.198c0-.298 1.042-1.128 1.164-1.131h.009v.007c0 .146-.3.602-.605.923-.195.204-.361.32-.456.32-.078 0-.112-.036-.112-.12z" fill="url(#paint14_linear)"/><path d="M4.254 9.283c0 .209.127.283.236.283.269 0 .727-.37 1.197-.822l-.069-.026c-.41.392-.876.78-1.128.78-.107 0-.171-.08-.171-.215 0-.117.15-.49.436-.908-.02-.01-.04-.018-.062-.027-.29.428-.44.809-.44.935z" fill="url(#paint15_linear)"/><path d="M2 12.576h.065c0-.687 1.08-1.422 2.607-2.385l-.033-.057C3.094 11.108 2 11.854 2 12.576z" fill="url(#paint16_linear)"/><path d="M3.27 9.517c0 .357.245.561.673.561v-.067c-.227 0-.608-.064-.608-.494 0-.337.21-.849.75-1.444l-.061-.03c-.542.605-.754 1.128-.754 1.474z" fill="url(#paint17_linear)"/><path d="M4.672 10.191c.143-.094.316-.32.29-.413-.009-.03-.033-.047-.066-.047-.043 0-.094.028-.166.067a1.53 1.53 0 01-.787.213v.067c.41 0 .665-.138.817-.22a.457.457 0 01.136-.06c.004 0 .005.002.005.006 0 .05-.115.233-.263.33" fill="#AF0A55"/><path d="M6.787 10.087c-.216 0-.331-.158-.331-.272h-.065c0 .164.16.34.396.34.521 0 .899-.392 1.203-.734l-.074-.016c-.291.324-.65.682-1.13.682z" fill="url(#paint18_linear)"/><path d="M5.826 9.775l-.029.022-.075.054a.879.879 0 00-.26.244c-1.645 2.66-2.72 2.795-2.92 2.795-.286 0-.477-.054-.477-.315H2c0 .382.366.382.542.382.12 0 .45-.04.957-.41.637-.469 1.316-1.281 2.017-2.415a.832.832 0 01.243-.225l.076-.055.029-.022c.399-.3.51-.359.545-.364.029-.004.035.003.038.005l.045-.048c-.02-.022-.04-.024-.083-.024-.06 0-.223.105-.583.376z" fill="url(#paint19_linear)"/><path d="M8.538 9.55c0 .38.209.581.605.581.292 0 .56-.169.787-.412l-.083-.007c-.19.192-.43.352-.704.352-.364 0-.54-.168-.54-.513v-.01c-.022-.005-.043-.01-.065-.013v.023z" fill="url(#paint20_linear)"/><path d="M11.152 9.746l-.148.235c-.022.033-.042.044-.053.044h-.656l.001-.003.001-.002.11-.173.062-.1-.076-.002-.04.065-.108.171a.097.097 0 00-.021.055c0 .008.001.015.005.023.007.015.024.034.066.034h.656c.036 0 .073-.025.106-.073l.173-.277-.079.003z" fill="url(#paint21_linear)"/><path d="M12.216 9.655v.005c0 .138.025.3.12.407a.336.336 0 00.263.107v-.067a.275.275 0 01-.215-.086c-.088-.097-.104-.26-.103-.375l-.065.01z" fill="url(#paint22_linear)"/><path d="M13.027 10.812a64.44 64.44 0 01-.61.76c-.489.6-.712.875-.712 1.065 0 .096.03.171.072.227l.04-.055a.306.306 0 01-.047-.172c0-.166.232-.452.696-1.022.176-.216.375-.462.61-.76.316-.4.53-.697.675-.916l-.067-.018c-.143.215-.352.504-.657.891z" fill="url(#paint24_linear)"/><path d="M14.687 9.051c-.164.265-.265.47-.465.84-.23.424-.489.903-.825 1.474-.804 1.364-1.204 1.567-1.371 1.567a.278.278 0 01-.208-.123l-.04.055a.337.337 0 00.248.136c.316 0 .809-.553 1.426-1.6a42.99 42.99 0 00.826-1.476c.221-.41.338-.642.518-.922a9.681 9.681 0 01-.109.05z" fill="url(#paint25_linear)"/><path d="M13.989 9.301c-.014.005-.026.011-.101.08-.22.198-.806.726-1.29.726v.068c.508 0 1.107-.54 1.332-.743a4.22 4.22 0 01.056-.05c-.013.043-.07.192-.302.54l.067.017c.299-.452.304-.57.304-.572 0-.014 0-.039-.018-.055a.05.05 0 00-.034-.012.05.05 0 00-.014.001z" fill="url(#paint26_linear)"/><path d="M10.609 8.142c0 .148-.072.416-.2.707l.075-.012c.121-.284.19-.544.19-.695 0-.028.007-.036.033-.036.047 0 .171.013.246.02l.032.004c.054.006.144.05.144.184 0 .091-.062.25-.154.434l.08-.017c.084-.174.139-.324.139-.417 0-.158-.105-.24-.203-.251l-.032-.003a3.546 3.546 0 00-.252-.022c-.061 0-.098.04-.098.104z" fill="url(#paint27_linear)"/><path d="M8.92 6.839c0 .523.97.91 1.227.91.086 0 .1-.053.1-.084 0-.067-.338-1.105-1.05-1.105-.169 0-.277.11-.277.279zm.064 0c0-.13.082-.212.212-.212.645 0 .98.97.986 1.039 0 .007 0 .015-.035.015-.228 0-1.163-.378-1.163-.842z" fill="url(#paint28_linear)"/><path d="M8.36 8.948l.114.005a.272.272 0 01.126-.035c.04 0 .04.014.04.024a.167.167 0 01-.004.016l.066.002a.111.111 0 00.002-.018c0-.021-.008-.092-.104-.092a.412.412 0 00-.24.098z" fill="url(#paint29_linear)"/><path d="M9.912 7.989c-.021.02-.029.051-.021.086.006.033.034.063.064.096.018.02.05.054.05.069.001.027-.055.107-.207.203-.094.06-.287.281-.422.507l.08-.005c.126-.2.295-.394.375-.444.152-.096.241-.194.239-.263-.001-.04-.034-.076-.069-.114a.26.26 0 01-.047-.063c-.003-.012-.002-.02.003-.024.009-.009.038-.014.091 0l.065.016c.122.029.162.043.164.106.002.079-.09.425-.259.74l.079-.009c.158-.307.247-.636.244-.733-.003-.12-.1-.143-.213-.17l-.064-.016a.282.282 0 00-.072-.01c-.042 0-.066.014-.08.028z" fill="url(#paint30_linear)"/><path d="M6.382 7.94l-.118.123c-.105.11-.259.273-.435.45l.072.02c.14-.14.277-.283.409-.422l.117-.123a.883.883 0 01.53-.25c.063 0 .107.028.107.05h.065c0-.073-.087-.118-.173-.118a.939.939 0 00-.574.27z" fill="url(#paint31_linear)"/><path d="M7.064 7.788c0 .024-.05.084-.121.168l-.025.03c-.065.076-.307.42-.49.681l.07.016c.18-.258.408-.581.469-.653L6.99 8c.095-.111.138-.162.138-.212h-.064z" fill="url(#paint32_linear)"/><path d="M5.266 7.668a4.24 4.24 0 00-.456.517l.065.023c.125-.165.27-.333.434-.49a3.96 3.96 0 01.757-.573l-.029-.06c-.256.148-.52.341-.771.583z" fill="url(#paint33_linear)"/><path d="M6.698 8.727l.077.017c.871-.875 1.233-1.05 1.552-1.05.138 0 .236.048.292.145a.506.506 0 01.055.253.94.94 0 01-.042.266.3.3 0 00-.015.071.11.11 0 00.036.083l.042-.051a.042.042 0 01-.013-.032c0-.008.006-.03.013-.053.017-.062.043-.157.043-.284a.627.627 0 00-.046-.252c-.063-.14-.188-.214-.365-.214-.339 0-.718.183-1.63 1.101z" fill="url(#paint34_linear)"/><path d="M9.444 7.84c-.057.097-.408.567-.73.626a.023.023 0 01-.02-.005l-.04.051c.02.018.045.025.072.02.376-.068.789-.64.789-.7l-.071.007z" fill="url(#paint35_linear)"/><path d="M12.037 7.975c-.054.053-.12.117-.143.13a.54.54 0 01-.072-.132c-.023-.051-.047-.105-.072-.14-.09-.125-.21-.16-.557-.16a3.45 3.45 0 00-.217.008l.003.068c.064-.004.13-.008.214-.008.325 0 .429.027.505.133.02.03.043.08.065.128.043.096.078.172.13.172.033 0 .073-.037.188-.15.122-.118.305-.298.404-.298.067 0 .074.019.074.064 0 .03-.02.07-.045.12-.045.09-.111.223-.122.431l.067-.025a.935.935 0 01.113-.374c.029-.059.052-.105.052-.152a.144.144 0 00-.024-.087c-.022-.03-.06-.044-.115-.044-.125 0-.304.175-.448.316z" fill="url(#paint36_linear)"/><path d="M10.517 7.651c.042.1.108.105.269.105l.193-.007-.003-.068-.19.007c-.17 0-.187-.009-.21-.064l-.059.027z" fill="url(#paint37_linear)"/><path d="M8.244 8.105c-.114.003-.473.293-.744.598a3.126 3.126 0 00-.123.148l.076.01a2.956 2.956 0 01.13-.15c.274-.301.586-.536.662-.538.038-.001.064.01.066.028a.08.08 0 010 .008c0 .08-.102.15-.192.21l-.068.049-.003.002c-.113.085-.167.126-.167.204 0 .01 0 .02.003.032.004.03.022.048.038.064a.111.111 0 01.034.051h.066a.17.17 0 00-.054-.099c-.012-.012-.02-.02-.02-.027-.01-.055.009-.073.138-.17l.003-.002.066-.047c.108-.074.23-.158.22-.28-.003-.043-.038-.09-.125-.09a.27.27 0 00-.006 0z" fill="url(#paint38_linear)"/><path d="M8.395 6.464a.564.564 0 00-.038.21c0 .294.14.836 1.073 1.16l.012.004.002.001.07-.008c0-.04-.035-.051-.054-.057l-.01-.003c-.894-.311-1.028-.821-1.028-1.097 0-.075.013-.138.034-.189.089-.215.33-.243.447-.243.984 0 1.48 1.069 1.61 1.396l.004.013.06-.026-.005-.012c-.133-.338-.645-1.438-1.67-1.438-.255 0-.434.105-.507.29z" fill="url(#paint40_linear)"/><path d="M7.993 6.074a.486.486 0 01.058.011l-.361.668-.003.004H7.68l-.015-.003A3.094 3.094 0 007.2 6.71c-.296 0-.717.12-1.162.375l.03.06c.434-.25.845-.368 1.132-.368.119 0 .272.015.456.044l.015.002a.078.078 0 00.043-.003.07.07 0 00.032-.032l.373-.69a.05.05 0 00.005-.042.045.045 0 00-.029-.028.503.503 0 00-.101-.022v.068z" fill="url(#paint41_linear)"/><path d="M5.02 7.23c1.211-.918 2.369-1.163 2.862-1.163a.69.69 0 01.111.007v-.068A.724.724 0 007.883 6c-.502 0-1.677.248-2.9 1.176a7.07 7.07 0 00-.85.751l.065.026c.223-.231.495-.474.823-.723z" fill="#90C643"/><defs><linearGradient id="paint3_linear" x1="11.642" y1="9.407" x2="12.039" y2="9.727" gradientUnits="userSpaceOnUse"><stop stop-color="#4980CA"/><stop offset="1" stop-color="#63BBEB"/></linearGradient><linearGradient id="paint4_linear" x1="9.89" y1="9.302" x2="9.425" y2="9.037" gradientUnits="userSpaceOnUse"><stop stop-color="#82C7EF"/><stop offset="1" stop-color="#3777C5"/></linearGradient><linearGradient id="paint5_linear" x1="12.97" y1="8.576" x2="14.3" y2="8.576" gradientUnits="userSpaceOnUse"><stop stop-color="#2F67AB"/><stop offset="1" stop-color="#2D61A2"/></linearGradient><linearGradient id="paint6_linear" x1="12.886" y1="8.5" x2="12.52" y2="8.545" gradientUnits="userSpaceOnUse"><stop stop-color="#63BBEB"/><stop offset="1" stop-color="#3777C5"/></linearGradient><linearGradient id="paint7_linear" x1="13.922" y1="8.05" x2="14.147" y2="8.068" gradientUnits="userSpaceOnUse"><stop stop-color="#63BBEB"/><stop offset="1" stop-color="#2D61A2"/></linearGradient><linearGradient id="paint8_linear" x1="13.592" y1="8.512" x2="13.473" y2="8.368" gradientUnits="userSpaceOnUse"><stop stop-color="#5AAAD7"/><stop offset="1" stop-color="#2F67AB"/></linearGradient><linearGradient id="paint9_linear" x1="15.594" y1="7.215" x2="15.765" y2="7.283" gradientUnits="userSpaceOnUse"><stop stop-color="#63BBEB"/><stop offset="1" stop-color="#2B5C99"/></linearGradient><linearGradient id="paint10_linear" x1="15.325" y1="8.011" x2="14.766" y2="8.313" gradientUnits="userSpaceOnUse"><stop stop-color="#63BBEB"/><stop offset="1" stop-color="#2F67AB"/></linearGradient><linearGradient id="paint11_linear" x1="14.946" y1="8.112" x2="15.01" y2="8.204" gradientUnits="userSpaceOnUse"><stop stop-color="#63BBEB"/><stop offset="1" stop-color="#2B5C99"/></linearGradient><linearGradient id="paint12_linear" x1="7.128" y1="9.385" x2="7.653" y2="9.385" gradientUnits="userSpaceOnUse"><stop stop-color="#AF0A55"/><stop offset="1" stop-color="#DB4990"/></linearGradient><linearGradient id="paint13_linear" x1="6.181" y1="9.023" x2="6.475" y2="9.023" gradientUnits="userSpaceOnUse"><stop stop-color="#A2094D"/><stop offset="1" stop-color="#D73585"/></linearGradient><linearGradient id="paint14_linear" x1="3.31" y1="11.68" x2="3.444" y2="11.865" gradientUnits="userSpaceOnUse"><stop stop-color="#AF0A55"/><stop offset="1" stop-color="#DB4990"/></linearGradient><linearGradient id="paint15_linear" x1="4.566" y1="8.77" x2="5.097" y2="9.16" gradientUnits="userSpaceOnUse"><stop stop-color="#A2094D"/><stop offset="1" stop-color="#DB4990"/></linearGradient><linearGradient id="paint16_linear" x1="4.191" y1="10.826" x2="4.699" y2="10.532" gradientUnits="userSpaceOnUse"><stop stop-color="#DB4990"/><stop offset="1" stop-color="#AF0A55"/></linearGradient><linearGradient id="paint17_linear" x1="4.069" y1="9.455" x2="4.198" y2="9.626" gradientUnits="userSpaceOnUse"><stop stop-color="#DB4990"/><stop offset="1" stop-color="#AF0A55"/></linearGradient><linearGradient id="paint18_linear" x1="6.882" y1="9.587" x2="6.662" y2="9.498" gradientUnits="userSpaceOnUse"><stop stop-color="#A2094D"/><stop offset="1" stop-color="#DF5E9C"/></linearGradient><linearGradient id="paint19_linear" x1="3.242" y1="10.529" x2="3.45" y2="10.639" gradientUnits="userSpaceOnUse"><stop stop-color="#DB4990"/><stop offset="1" stop-color="#A2094D"/></linearGradient><linearGradient id="paint20_linear" x1="9.152" y1="9.855" x2="8.765" y2="9.828" gradientUnits="userSpaceOnUse"><stop stop-color="#A2094D"/><stop offset="1" stop-color="#DF5E9C"/></linearGradient><linearGradient id="paint21_linear" x1="10.789" y1="9.974" x2="10.545" y2="9.705" gradientUnits="userSpaceOnUse"><stop stop-color="#A2094D"/><stop offset="1" stop-color="#DB4990"/></linearGradient><linearGradient id="paint22_linear" x1="12.576" y1="10.135" x2="12.466" y2="10.03" gradientUnits="userSpaceOnUse"><stop stop-color="#C01F6E"/><stop offset="1" stop-color="#D63384"/></linearGradient><linearGradient id="paint24_linear" x1="12.833" y1="11.258" x2="13.653" y2="10.285" gradientUnits="userSpaceOnUse"><stop stop-color="#DF5E9C"/><stop offset="1" stop-color="#A2094D"/></linearGradient><linearGradient id="paint25_linear" x1="12.57" y1="10.704" x2="12.749" y2="10.764" gradientUnits="userSpaceOnUse"><stop stop-color="#DF5E9C"/><stop offset="1" stop-color="#A2094D"/></linearGradient><linearGradient id="paint26_linear" x1="12.598" y1="9.737" x2="14.055" y2="9.737" gradientUnits="userSpaceOnUse"><stop stop-color="#C01F6E"/><stop offset="1" stop-color="#A2094D"/></linearGradient><linearGradient id="paint27_linear" x1="10.857" y1="8.562" x2="10.959" y2="8.638" gradientUnits="userSpaceOnUse"><stop stop-color="#5FB233"/><stop offset="1" stop-color="#90C643"/></linearGradient><linearGradient id="paint28_linear" x1="9.707" y1="7.134" x2="9.898" y2="7.066" gradientUnits="userSpaceOnUse"><stop stop-color="#5FB233"/><stop offset="1" stop-color="#90C643"/></linearGradient><linearGradient id="paint29_linear" x1="8.528" y1="8.916" x2="8.617" y2="8.962" gradientUnits="userSpaceOnUse"><stop stop-color="#5FB233"/><stop offset="1" stop-color="#90C643"/></linearGradient><linearGradient id="paint30_linear" x1="9.988" y1="8.577" x2="10.102" y2="8.632" gradientUnits="userSpaceOnUse"><stop stop-color="#5FB233"/><stop offset="1" stop-color="#90C643"/></linearGradient><linearGradient id="paint31_linear" x1="6.886" y1="8.216" x2="6.65" y2="8.16" gradientUnits="userSpaceOnUse"><stop stop-color="#5FB233"/><stop offset="1" stop-color="#90C643"/></linearGradient><linearGradient id="paint32_linear" x1="6.428" y1="8.236" x2="7.129" y2="8.236" gradientUnits="userSpaceOnUse"><stop stop-color="#529B2B"/><stop offset=".83" stop-color="#5FB233"/></linearGradient><linearGradient id="paint33_linear" x1="4.81" y1="7.647" x2="6.066" y2="7.647" gradientUnits="userSpaceOnUse"><stop offset=".04" stop-color="#529B2B"/><stop offset=".831" stop-color="#5AAB30"/></linearGradient><linearGradient id="paint34_linear" x1="6.697" y1="8.185" x2="8.738" y2="8.185" gradientUnits="userSpaceOnUse"><stop stop-color="#90C643"/><stop offset="1" stop-color="#56A32E"/></linearGradient><linearGradient id="paint35_linear" x1="8.86" y1="8.431" x2="9.354" y2="8.013" gradientUnits="userSpaceOnUse"><stop stop-color="#56A32E"/><stop offset=".5" stop-color="#83B43C"/><stop offset="1" stop-color="#5AAB30"/></linearGradient><linearGradient id="paint36_linear" x1="12.505" y1="8.015" x2="11.435" y2="7.703" gradientUnits="userSpaceOnUse"><stop stop-color="#56A32E"/><stop offset=".299" stop-color="#90C643"/><stop offset=".665" stop-color="#59A72F"/><stop offset="1" stop-color="#90C643"/></linearGradient><linearGradient id="paint37_linear" x1="10.517" y1="7.69" x2="10.979" y2="7.69" gradientUnits="userSpaceOnUse"><stop stop-color="#5FB233"/><stop offset="1" stop-color="#90C643"/></linearGradient><linearGradient id="paint38_linear" x1="7.839" y1="8.46" x2="8.065" y2="8.747" gradientUnits="userSpaceOnUse"><stop stop-color="#56A32E"/><stop offset=".495" stop-color="#90C643"/></linearGradient><linearGradient id="paint40_linear" x1="8.823" y1="6.404" x2="8.672" y2="6.231" gradientUnits="userSpaceOnUse"><stop stop-color="#5FB233"/><stop offset="1" stop-color="#9BCB52"/></linearGradient><linearGradient id="paint41_linear" x1="7.106" y1="6.633" x2="7.058" y2="6.526" gradientUnits="userSpaceOnUse"><stop stop-color="#5AAB30"/><stop offset="1" stop-color="#90C643"/></linearGradient><radialGradient id="paint0_radial" cx="0" cy="0" r="1" gradientUnits="userSpaceOnUse" gradientTransform="matrix(10.1697 0 0 10.6084 9.005 9.728)"><stop stop-color="#C11566"/><stop offset=".994" stop-color="#AF0A55"/></radialGradient><radialGradient id="paint1_radial" cx="0" cy="0" r="1" gradientUnits="userSpaceOnUse" gradientTransform="matrix(4.31961 0 0 4.50596 10.012 8.336)"><stop stop-color="#63BBEB"/><stop offset="1" stop-color="#3777C5"/></radialGradient><radialGradient id="paint2_radial" cx="0" cy="0" r="1" gradientUnits="userSpaceOnUse" gradientTransform="matrix(5.48003 0 0 5.71643 10.332 8.708)"><stop stop-color="#90C643"/><stop offset=".831" stop-color="#5FB233"/></radialGradient></defs></svg>