<!-- by TradingView --><svg width="18" height="18" xmlns="http://www.w3.org/2000/svg"><path fill="#F0F3FA" d="M0 0h18v18H0z"/><path d="M3.303 9.515c0 .47.42.529.64.529.582 0 .84-.28.954-.28.115 0-.068.284-.24.398-1.44.908-2.624 1.69-2.624 2.413 0 .327.29.349.51.349.22 0 1.298-.144 2.947-2.81.077-.126.205-.198.327-.29.122-.092.515-.391.593-.392.077 0 .074.035.071.072-.004.052-.057.168-.057.31s.139.306.363.306c.501 0 .867-.372 1.167-.708-.1-.022-.212-.048-.339-.079-.119.105-.235.184-.298.186-.114.003-.15-.065-.155-.127a.404.404 0 01.03-.169A18.46 18.46 0 016.435 9c-.073.047-.15.082-.205.074-.018-.002-.028-.02.01-.077l.034-.05a19.41 19.41 0 01-.62-.216c-.419.4-.9.801-1.163.801-.106 0-.204-.073-.204-.249 0-.116.147-.494.438-.921a18.673 18.673 0 01-.669-.303c-.515.571-.753 1.089-.753 1.457zm-.579 2.752c0-.321 1.07-1.163 1.197-1.165.032 0 .041.013.041.04.002.258-.78 1.279-1.093 1.279-.1 0-.145-.057-.145-.154zM12.25 9.65c0 .188.044.49.35.49.606 0 1.36-.8 1.395-.806.025-.004.03.006.03.032 0 .028-.086.345-.971 1.466-.886 1.122-1.314 1.562-1.314 1.804s.196.33.288.33c.091 0 .478-.023 1.398-1.584.657-1.114.967-1.802 1.316-2.355-.63.286-1.422.472-2.492.623zm-3.678-.1c0 .225.071.547.572.547.278 0 .532-.156.748-.382a12.023 12.023 0 01-1.32-.182v.017zm1.861.195l-.16.254s-.046.06.024.06h.656c.028 0 .056-.025.08-.06l.16-.255c-.245.009-.498.01-.76.001z" fill="#C11566"/><path d="M15.36 7.4c0 .117.172.197.229.197.088 0 .379-.197.379-.469 0-.099-.067-.209-.165-.209-.137 0-.443.323-.443.48zm-.776.941c-.415.47-.914 1.1-1.363 1.1-.167 0-.218-.11-.218-.22 0-.08.06-.155.175-.19.424-.131 1.09-.708 1.09-1.1 0-.103-.05-.213-.176-.213-.184 0-.696.089-1.334.884-.071.09-.148.15-.205.15-.06 0-.13-.117-.13-.352 0-.025.001-.048.003-.071-.464.175-.936.31-1.41.41-.156.321-.406.724-.585 1.007.262.009.516.008.76-.001l.411-.658c.019-.03.047-.05.075-.05.103 0-.023.274.36.274.109 0 .215-.057.244-.057.028 0 .031.026.031.048 0 .043-.053.144-.06.285a.64.64 0 00-.003.064c1.07-.151 1.862-.337 2.491-.624.14-.222.345-.516.49-.664.274-.278.345-.425.345-.49 0-.086-.05-.17-.148-.17-.098 0-.429.17-.843.638zm-1.345.349c0-.13.414-.544.553-.544.02 0 .046.016.046.04 0 .165-.413.556-.545.556-.027 0-.054-.02-.054-.052zm-9.183-.631c.227.108.45.209.669.303.037-.055.076-.11.118-.165-.236-.084-.462-.17-.677-.256l-.11.118zm1.597.672c.215.08.423.152.62.217l.19-.272a13.614 13.614 0 01-.597-.154l-.213.21zm.984.105A1.347 1.347 0 016.434 9c.275.088.53.162.757.224.042-.113.124-.24.224-.368a11.251 11.251 0 01-.679-.12l-.1.1zm3.42.059c-.158.3-.382.575-.652.576-.084 0-.138-.047-.14-.13-.003-.102.063-.248.152-.393a10.46 10.46 0 01-.749.011c-.014.078-.093.371-.097.575.458.089.899.148 1.32.182.234-.245.425-.571.555-.873-.13.02-.26.037-.39.052zm-2.442.439c.126.03.24.057.339.079.17-.19.318-.37.459-.462a10.48 10.48 0 01-.446-.03c-.057.115-.206.284-.352.413z" fill="#4E9BD9"/><path d="M5.002 7.203c-.329.25-.607.498-.836.737.215.087.441.173.677.257.127-.17.275-.341.445-.504.664-.638 1.433-.95 1.91-.95.201 0 .44.042.476.047.025.004.033-.001.044-.02l.372-.689c.006-.01.003-.018-.006-.021a.594.594 0 00-.201-.026c-.537 0-1.705.277-2.881 1.169zm3.388-.53c0 .353.202.835 1.05 1.13.021.007.042.01.042.028 0 .038-.4.602-.762.668-.041.008-.07-.03-.07-.07 0-.04.056-.157.056-.337 0-.18-.053-.432-.38-.432-.315 0-.676.157-1.59 1.076.224.046.45.087.679.12.284-.36.72-.714.83-.717.067-.002.095.028.098.06.01.126-.165.215-.273.296-.126.096-.167.126-.154.206.007.043.068.055.075.133a.177.177 0 01-.024.087c.147.013.296.023.446.03a.343.343 0 01.186-.067c.052 0 .072.024.072.058l-.003.017c.247.005.497.001.749-.011.13-.213.311-.422.397-.476.146-.092.225-.182.223-.233-.001-.052-.105-.121-.115-.171-.012-.06.033-.09.134-.064.145.038.25.043.253.154.003.09-.09.427-.252.737.13-.015.26-.032.39-.052.124-.289.194-.554.194-.7 0-.033.01-.071.066-.071s.212.017.281.025c.075.007.174.07.174.218 0 .092-.059.245-.146.425.474-.1.946-.236 1.41-.411.02-.31.166-.437.166-.539 0-.07-.028-.097-.107-.097-.179 0-.53.447-.592.447-.052 0-.11-.205-.169-.286-.084-.117-.2-.147-.53-.147-.166 0-.26.015-.408.015-.168 0-.207-.007-.239-.084s-.524-1.43-1.644-1.43c-.25 0-.513.114-.513.466zm.562.166c0-.156.101-.245.244-.245.68 0 1.018 1.007 1.018 1.071 0 .032-.018.05-.067.05-.248 0-1.195-.385-1.195-.876zM6.405 7.964c-.076.076-.283.302-.54.558.196.055.396.107.598.153.182-.26.417-.593.48-.667.101-.121.154-.18.154-.22 0-.047-.063-.084-.14-.084a.907.907 0 00-.552.26z" fill="#60B233"/></svg>