<!-- by TradingView --><svg xmlns="http://www.w3.org/2000/svg" width="18" height="18"><path fill="#00A8E9" d="M0 0h18v18H0z"/><path d="M10.47 9.34c-.13-.26-.13-.49-.13-.94v-.5c-.02-.6-.13-1.08-.19-1.34a1.64 1.64 0 01-.04-.17c0-.1.05-.15.08-.15h.27c-.35-.46-.77-.92-1.2-.93a.76.76 0 00-.62.36c-.26 0-.43.08-.49.11.87.38.89 1.27.8 1.66-.94.16-.63.34-.59.35-.03 0-.2.08-.28.11.1 0 .23.12.28.17-.7.1-.7.53-.72.73v.04c0 .15-.1.4-.14.5-.1.19-.35.49-.52.3-.14-.16.04-.32.17-.45l.08-.07c.06-.07.2-.32.17-.78-.02-.47-.21-1.3-.3-1.66-.13-.5-.21-1.71.43-2.68-.43.17-1.19.54-2.13 1.57-.13.14-1.08 1.45-1.08 1.92-.14.92 1.22 2.6 2.1 2.7l-.45.38c.08.08.32.2.65 0 .06.01.17.1.13.34.1 0 .38-.05.65-.3.08.05.23.19.25.3l.42-.3c.05.04.17.14.25.25l.34-.25.33.25.33-.25.34.25.25-.25.42.3c.02-.12.18-.25.25-.3.28.25.55.3.66.3-.05-.23.06-.33.12-.34.33.2.57.08.65 0l-.45-.39c.88-.09 2.25-1.77 2.1-2.7 0-.46-.94-1.77-1.08-1.91A5.69 5.69 0 0010.46 4c.64.97.55 2.19.43 2.68-.1.36-.29 1.2-.31 1.66-.02.46.1.71.18.78l.07.07c.14.13.31.29.17.45-.16.19-.41-.11-.53-.3zM8.4 15l-1.1-2.16.69.32v-.64l.66.61.33-.62.36.62.66-.62v.62l.68-.29L9.58 15H8.4zM14 8.4a3.22 3.22 0 01-.69 1.75.9.9 0 00.63-.25c-.03.27-.28.86-1.1 1.08-.01.1.05.32.36.35-.14.14-.55.43-1.1.42-.01.05.01.17.24.3-.2.04-.75.04-1.28-.22l-.03.02c-.04.03-.1.07-.16.3-.19 0-.47-.11-.67-.25l-.05.24c-.02.03-.18.02-.7-.24-.09.05-.3.16-.45.16-.15 0-.36-.11-.45-.16-.52.26-.68.27-.7.24l-.05-.24c-.2.14-.48.24-.67.24-.06-.22-.12-.26-.16-.29l-.03-.02a2.4 2.4 0 01-1.28.23c.23-.14.25-.26.23-.3-.54 0-.95-.29-1.09-.43.31-.03.37-.24.36-.35-.82-.22-1.07-.81-1.1-1.08a.9.9 0 00.63.25A3.22 3.22 0 014 8.39a3.91 3.91 0 001.56 1.87c.08.54.54.7.76.72.06.23.22.3.29.3.34.05.73-.18.88-.3 0 .12.04.35.31.35.28 0 .68-.23.84-.35.08.18.27.24.36.25.09-.01.28-.07.36-.25.16.12.56.35.84.35.27 0 .32-.23.3-.35.16.12.55.35.9.3.06 0 .22-.07.28-.3a.83.83 0 00.76-.72A3.91 3.91 0 0014 8.4z" fill="#fff"/></svg>