<!-- by TradingView --><svg width="18" height="18" viewBox="0 0 18 18" xmlns="http://www.w3.org/2000/svg"><path fill="#F0F3FA" d="M0 0h18v18H0z"/><path d="M7.59 4.214c.009.43-.09 1.44-.553 2.032C6.459 6.986 6 8.014 6 9.066c0 1.054.36 2.114 1.5 2.53v-1.372c0-.26.094-.742.613-.742.544 0 .586.477.586.682V14a5 5 0 01-1.108-9.787zm2.885.017c.047 1.093.37 1.765.565 2.015a4.581 4.581 0 01.96 2.82c.009 1.709-.96 2.398-1.5 2.53v-1.512c0-.23-.156-.602-.6-.602-.445 0-.6.417-.6.602v3.917a5 5 0 001.176-9.77z" fill="#4BB033"/><path d="M7.576 7.42c-.02.506.332 1.06.51 1.273-.024-.157.009-.581.338-1.02.33-.438.423-.896.428-1.07.863-.007 1.023 1.278.996 1.922 1.343-1.693.027-3.51-.798-4.207-.046.648-.513 1.327-.741 1.585-.236.295-.713 1.012-.733 1.517z" fill="#00A3D1"/><path d="M9.585 8.202c.01-.645-.334-1.04-.508-1.158 0 .483-.646 1.039-.633 1.517.013.478.396.629.586.59.19-.037.543-.143.555-.949z" fill="#E77817"/></svg>