<!-- by TradingView --><svg xmlns="http://www.w3.org/2000/svg" width="18" height="18" viewBox="0 0 18 18"><path fill="#5C6771" d="M0 0h18v18H0z"/><path d="M3 7a1 1 0 011 1v.5h1.57V7a1 1 0 011.01 1.01V10a1 1 0 01-1 1V9.4H4v.6a1 1 0 01-1 1V7zm4.07 3.93L8.74 7.3c.06-.12.25-.3.52-.29.27 0 .43.17.48.29l.96 2.14c-.16-.08-.7-.23-1.1-.2l-.34-.82-1.07 2.34c-.11.18-.49.37-1.12.18zM9.1 9.37c.42-.04 1.57 0 1.74.38l.51 1.18c-.25.08-.95.15-1.16-.3l-.1-.23c-.22-.48-.39-.86-1-1.03zm3.9 1.65V9.74l.07.02c.18.06.41.14.74.13.46-.02 1.47-.42 1.47-1.51 0-1.14-1.23-1.37-1.73-1.37-.5.01-1.55.13-1.55.93v2.58c0 .16.42.5 1 .5zm0-1.98v-.93c0-.13.12-.4.62-.4.61 0 .74.46.74.75 0 .3-.13.74-.66.74-.25 0-.6-.09-.7-.16z" fill="#fff"/></svg>