<!-- by TradingView --><svg width="18" height="18" xmlns="http://www.w3.org/2000/svg"><path fill="#006CB7" d="M0 0h18v18H0z"/><path d="M8.677 7.085C9.799 6.612 12 6.763 12 8.61h-1.462c-.081-.178-.38-.309-.596-.33-.559-.039-1.22.104-1.265.866 0 .517.573.552.822.571.322-.006.725-.096.893-.363.498-.004.974-.005 1.472 0-.646 1.517-1.542 1.799-2.774 1.799-.478-.006-.961-.07-1.422-.351a1.408 1.408 0 01-.566-.732c-.115-.3-.131-.737-.056-1.084a2.41 2.41 0 01.492-1.035 3.012 3.012 0 011.139-.866zM2.833 7h1.39l-.279 1.333h1.383L5.61 7H7l-.833 4h-1.39l.275-1.333H3.67L3.389 11H2l.833-4zm10.089 0h1.537l-.635 2.667h2.171l-.307 1.33H12L12.922 7z" fill="#fff"/></svg>