<!-- by TradingView --><svg xmlns="http://www.w3.org/2000/svg" width="18" height="18" viewBox="0 0 18 18"><path fill="#F0F3FA" d="M0 0h18v18H0z"/><path d="M14.13 6.16a1.36 1.36 0 00-1.5.14c2.2.73 2.78 2 2.8 2.54-.06 2.1-3.23 2.98-4.82 3.16C14.1 11.7 16 10.25 16 8.7c0-1.06-1.02-2.1-1.87-2.54zM3.87 11.84c.68.35 1.28.05 1.5-.14-2.2-.73-2.78-2-2.8-2.55C2.64 7.06 5.8 6.18 7.4 6 3.9 6.3 2 7.75 2 9.29c0 1.07 1.02 2.1 1.87 2.55z" fill="#EA2734"/><ellipse cx="9" cy="9" rx="6" ry="3" fill="#259821"/><path d="M9.2 7H7.44l-.06.23h.46l-.85 3.51h-.37l-.1.26h1.64l.1-.26h-.42l.39-1.6h1.42l-.45 1.6h-.3l-.1.26h1.68l.07-.26h-.47l.94-3.5h.35l.11-.24H9.74l-.06.23h.47L9.68 8.9H8.26l.47-1.66h.4L9.2 7z" fill="#fff"/></svg>