<!-- by TradingView --><svg xmlns="http://www.w3.org/2000/svg" width="18" height="18" viewBox="0 0 18 18"><path fill="#00467A" d="M0 0h18v18H0z"/><path d="M6.23 11h-.7c-.15 0-.23.06-.27.19l-.06.3c-.09.35-.46.59-.85.54-.27-.03-.4-.26-.33-.55a.66.66 0 01.64-.46h.24c.24.02.33-.03.38-.24.22-.86.3-1.75.53-2.61.11-.4.42-.6.84-.66.19-.02.39-.02.58-.03h.36c.44-.02.67-.21.76-.64l.07-.47c.1-.5.49-.73.98-.84.55-.12 1.1-.09 1.66-.05.34.03.86.05 1-.23.1-.2.15-.43.24-.65.21-.5.8-.64 1.18-.6.24.04.42.18.48.4.14.58-.09.97-.8 1.04-.27.03-.54.04-.8.05a.46.46 0 00-.44.32c-.07.19-.1.39-.15.58-.26 1.14-1.13 1.06-2.16 1.04a1.54 1.54 0 00-1.33.63c-.34.44-.5.95-.54 1.49-.04.51 0 .44.8.44h2.45c.37.01.54.21.56.55.03.37-.05.6-.13.96-.08.32.05 1 .4 1h.86c.35 0 .46.26.48.56.03.51-.32.87-.87.92-.18.02-.6.03-.79.01-.43-.02-.64-.27-.56-.67l.06-.3c.07-.27.2-1.02-.11-1.02H7.73c-1.16-.01 0-.99-.8-1h-.7z" fill="#0ED1BE"/></svg>