<!-- by TradingView --><svg xmlns="http://www.w3.org/2000/svg" width="18" height="18" viewBox="0 0 18 18"><path d="M0 9a9 9 0 1118 0A9 9 0 010 9z" fill="#F0F3FA"/><path d="M7.74 6.89V4h.63v1.25h1.26V4h.63v2.89l2.47-1.47.33.54-1.09.64.61 1.05 1.1-.61.32.54-2.52 1.4L14 10.41l-.32.54-1.09-.63-.62 1.07 1.09.64-.33.54-2.47-1.47V14h-.63v-1.25H8.37V14h-.63v-2.89l-2.47 1.47-.33-.54 1.09-.64-.61-1.05-1.1.61-.32-.54 2.52-1.4L4 7.59l.32-.54 1.09.63.62-1.07-1.09-.64.33-.54L7.74 6.9zm-1.17.03l-.62 1.06L7.8 9.04l-1.83 1 .6 1.04L8.37 10v2.12h1.26V10l1.8 1.07.62-1.06-1.85-1.06 1.83-1-.6-1.04L9.63 8V5.87H8.37V8l-1.8-1.07z" fill="#DC390E"/></svg>