<!-- by TradingView --><svg width="18" height="18" viewBox="0 0 18 18" xmlns="http://www.w3.org/2000/svg"><path fill="url(#paint0_linear)" d="M0 0h18v18H0z"/><path fill-rule="evenodd" d="M14.016 4.648l.112.128-1.685 1.44c.107.127.206.26.298.399l1.187-.726c.03.046.06.093.088.14l-1.187.725c.05.083.097.166.142.252l1.764-.845c.025.049.05.098.073.148l-1.764.845c.045.095.086.19.124.289l1.316-.464c.02.052.038.104.056.156l-1.315.463a4.4 4.4 0 01.065.205l2.087-.522.043.162-2.087.523c.04.162.071.328.092.498l1.39-.142c.007.054.012.109.018.164l-1.39.142c.008.095.013.19.014.286h1.962L15.42 9l-.001.078-1.962.002c-.002.105-.007.21-.016.312l1.389.15a3.304 3.304 0 01-.019.164l-1.389-.15c-.009.073-.02.144-.033.216l2.139.416-.033.165-2.14-.417c-.036.17-.084.335-.14.496l1.312.474a7.484 7.484 0 01-.058.155l-1.313-.474c-.035.09-.073.178-.114.265l1.762.847c-.024.05-.048.099-.074.148L12.968 11c-.049.093-.1.184-.155.274l1.181.734a3.75 3.75 0 01-.09.14l-1.182-.735a4.504 4.504 0 01-.144.201l1.775 1.36-.105.134-1.775-1.36c-.099.12-.204.235-.314.344l.971.988-.12.115-.972-.988a4.497 4.497 0 01-.22.189l1.211 1.517-.131.102-1.212-1.517a4.406 4.406 0 01-.26.18l.737 1.166a3.03 3.03 0 01-.143.087l-.737-1.166a4.379 4.379 0 01-.25.137l.98 1.836-.154.074-.98-1.837a4.54 4.54 0 01-.44.174l.427 1.31-.16.05-.426-1.31a5.6 5.6 0 01-.283.073l.403 1.888a7.91 7.91 0 01-.164.034l-.404-1.888a4.748 4.748 0 01-.315.047l.137 1.37a7.034 7.034 0 01-.167.015L9.35 13.37a4.62 4.62 0 01-.265.013v2.168h-.17v-2.168a4.18 4.18 0 01-.28-.014l-.14 1.368a6.899 6.899 0 01-.166-.017l.14-1.367a4.576 4.576 0 01-.289-.044l-.396 1.89a8.067 8.067 0 01-.165-.033l.396-1.89a4.5 4.5 0 01-.308-.08l-.43 1.307a6.46 6.46 0 01-.16-.05l.43-1.307a4.913 4.913 0 01-.24-.09l-.867 2-.157-.066.868-2a4.314 4.314 0 01-.427-.22l-.737 1.169-.142-.087.736-1.17a4.288 4.288 0 01-.24-.163l-1.2 1.527a8.918 8.918 0 01-.132-.102l1.2-1.527a3.793 3.793 0 01-.242-.204l-.97.99a4.773 4.773 0 01-.121-.114l.97-.99a4.07 4.07 0 01-.177-.187l-1.597 1.284-.111-.128 1.596-1.283a4.365 4.365 0 01-.297-.399l-1.188.727a8.963 8.963 0 01-.089-.14l1.188-.726a4.865 4.865 0 01-.142-.251l-1.764.844a4.255 4.255 0 01-.073-.149l1.764-.844a4.28 4.28 0 01-.124-.289l-1.315.464a5.654 5.654 0 01-.058-.154l1.316-.465a5.504 5.504 0 01-.065-.205l-2.086.554-.044-.164 2.087-.553a4.224 4.224 0 01-.093-.499l-1.39.143a5.104 5.104 0 01-.017-.164l1.39-.143a4.204 4.204 0 01-.015-.286l-1.961.002L2.58 9v-.08h1.962c.002-.105.008-.21.018-.313l-1.39-.149c.004-.054.01-.11.018-.164l1.389.149c.01-.072.02-.144.033-.215l-2.03-.425.033-.165 2.03.425a4.54 4.54 0 01.142-.496l-1.313-.473.058-.155 1.313.474c.036-.09.074-.178.115-.264L3.196 6.3c.024-.05.048-.1.074-.148L5.033 7c.048-.093.1-.185.156-.273L4.006 5.99l.09-.14 1.183.736c.046-.068.094-.136.144-.202l-1.736-1.36.105-.134 1.735 1.362c.099-.121.203-.237.315-.346L4.87 4.92l.12-.114.973.988c.07-.065.144-.129.22-.189L4.97 4.087l.132-.102L6.315 5.5a4.57 4.57 0 01.26-.18l-.738-1.166c.047-.03.095-.058.143-.086l.737 1.166c.082-.049.166-.094.25-.137l-.91-1.991.152-.074.913 1.991c.142-.065.288-.123.439-.173l-.426-1.31.16-.05.426 1.31a4.49 4.49 0 01.282-.074L7.601 2.84a6.66 6.66 0 01.164-.033l.403 1.888c.103-.02.209-.035.315-.048l-.137-1.368c.056-.006.112-.012.168-.016l.136 1.369c.088-.007.176-.011.265-.013V2.424h.17v2.194c.094.002.186.006.279.013l.14-1.367c.056.005.112.01.167.017l-.14 1.367c.097.011.194.026.289.043l.397-1.889c.054.01.11.022.164.034l-.397 1.888c.104.023.207.05.308.08l.43-1.306c.054.015.107.032.16.05l-.43 1.307c.082.028.161.057.24.089l.942-1.905.158.068-.943 1.904c.147.066.29.139.427.22l.736-1.169.143.087-.736 1.169c.082.052.162.106.24.164l1.2-1.527.132.101-1.2 1.527c.084.066.164.133.242.205l.97-.991.122.114-.972.99c.062.061.121.123.18.187l1.683-1.44zm-4.251 6.298c.516 0 .938.315.973.778h-.726c-.026-.125-.127-.22-.247-.22-.121 0-.222.095-.248.22h-.726c.035-.463.457-.778.974-.778zm1.047-4.432l-2.473 4.821h.27v.39H7.25L9.786 6.96c-.299.139-.59.323-1.026.28-.617-.06-.99-.4-1.076-1.193.37.296.82.51 1.264.496.452-.015.612-.185.954-.334.215-.092.69.016.91.304zM9 5.108A3.873 3.873 0 0112.89 9c0 1.125-.328 2.03-1.098 2.747-.713.643-1.801 1.093-2.844 1.093s-2.026-.45-2.739-1.093C5.446 11.03 5.107 10.118 5.107 9A3.888 3.888 0 019 5.108z" fill="#fff"/><path d="M7.053 11.724h-.779v-5.06h.779v1.947h1.45l-.385.778H7.053v2.335zm4.671-5.059v5.06h-.779V9.388H9.65l.385-.778h.91V6.665h.779z" fill="#fff"/><defs><linearGradient id="paint0_linear" x1="3.349" y1="3.122" x2="21.904" y2="24.434" gradientUnits="userSpaceOnUse"><stop stop-color="#1A1E21"/><stop offset="1" stop-color="#06060A"/></linearGradient></defs></svg>