<!-- by TradingView --><svg xmlns="http://www.w3.org/2000/svg" width="18" height="18" viewBox="0 0 18 18"><path fill="#F0F3FA" d="M0 0h18v18H0z"/><path d="M9.55 9.53c1.7-.22 3-1.5 3-3.03 0-1.7-1.58-3.06-3.52-3.06C7.08 3.44 5.5 4.8 5.5 6.5c0 1.52 1.28 2.78 2.95 3.02v1.77H6.99v1.98h1.46v1.23h1.1v-1.23H11v-1.98H9.55V9.53zm3.5-3.03c0 1.63-1.27 3-3 3.39v.9h1.43v2.98h-1.44V15H7.96v-1.23H6.5v-2.98h1.46v-.91C6.26 9.47 5 8.1 5 6.5 5 4.57 6.8 3 9.03 3c2.22 0 4.02 1.57 4.02 3.5z"/><ellipse opacity=".5" cx="9" cy="6.5" rx="2" ry="1.5"/></svg>