<!-- by TradingView --><svg xmlns="http://www.w3.org/2000/svg" width="18" height="18"><path fill="#007162" d="M0 0h18v18H0z"/><circle cx="9" cy="9" r="5" fill="#fff"/><path d="M9.63 5.88a.63.63 0 11-1.26 0 .63.63 0 011.26 0z" fill="#E46815"/><path d="M7.55 5.54c.34.3.62.75.36 1.27-.12.24-.38.43-.67.65-.9.66-1.68 1.85-.43 4.35-.75-2.18-.4-3.99 1.57-4.37v4.06a.63.63 0 101.24 0V7.44c1.96.38 2.32 2.19 1.57 4.37 1.25-2.5.46-3.7-.42-4.35-.3-.22-.56-.41-.68-.65-.26-.52.02-.97.36-1.27a3.75 3.75 0 11-2.9 0z" fill="#E46815"/></svg>