<!-- by TradingView --><svg xmlns="http://www.w3.org/2000/svg" width="18" height="18"><path fill="#77787B" d="M0 0h18v18H0z"/><path d="M2 6h3v1s-.5 0-.5.87v2.26c0 .87.5.87.5.87v1H2v-1s.5 0 .5-.87V7.87C2.5 7 2 7 2 7V6zm3.5 0H8v4.13a1 1 0 00.5.87v1h-3v-1s.5 0 .5-.87V7.87C6 7 5.5 7 5.5 7V6zm3 0v1H9a.5.5 0 01.5.5v1h.5V6H8.5z" fill="#fff"/><path d="M8.5 8H9v2h-.5v-.5a.25.25 0 00-.25-.25v-.5a.25.25 0 00.25-.25V8zm2-.87V6H13v6h-2.5v-1.13A1 1 0 0011 10V8a1 1 0 00-.5-.87zM13.25 12h1a1.75 1.75 0 001.12-3.1A1.75 1.75 0 0014.05 6h-.8v1a.75.75 0 010 1.5v1h.25a.75.75 0 010 1.5h-.25v1z" fill="#fff"/></svg>