<!-- by TradingView --><svg xmlns="http://www.w3.org/2000/svg" width="18" height="18" viewBox="0 0 18 18"><path fill="#224E9B" d="M0 0h18v18H0z"/><path d="M5.42 7.5l-1.66 2.82 1-.18c.8 5 7.2 2.68 4.44-1.05.05 1.35-1.36 1.95-1.86.5l.99-.23-2.9-1.85z" fill="#FCBF50"/><path d="M9.81 13.02h3.35l-.6-.62c3.76-3.95-1.35-6.91-3.36-3.28 1.02-.83 2.5.22 1.45 1.43l-.74-.74-.1 3.21z" fill="#FCBF50"/><path d="M12.54 6.82L10.96 4l-.27.7c-5.02-1.93-6.3 4.42-1.5 4.42-1.16-.62-.96-2.34.53-1.86l-.36.98 3.18-1.42z" fill="#FCBF50"/></svg>