<!-- by TradingView --><svg xmlns="http://www.w3.org/2000/svg" width="18" height="18" viewBox="0 0 18 18"><path fill="#0060AA" d="M0 0h18v18H0z"/><path d="M6.88 5.71c-.42 0-1.26-1.05-1.06-1.38.17-.3.67-.37 1.06-.31.22.07.47.3.71.51l.2.17a8.6 8.6 0 011.36-.3c-.32.56-1.49 1.31-2.27 1.31zm.7.29H5.61c.12.66-.93 2.3-1.61 2.91l.1.7 1.35-.22-.1 2.95c0 2.52 2.23 2.7 2.74 2.65 1.05-.1 1.27-1 1.27-1.4 0-.48-.1-1.15-.66-1.15-.29 0-.5.36-.5.76s-.18.69-.46.67c-1.05 0-1.32-.97-1.24-1.53L7.58 6zm2.74 2.69c-.24-.12-.68.25-.83.56 0 0-.19-.7-.46-.77l-.04-.01c-.23-.07-.7-.2-.7-.59 0 0 .07-.89.78-1.09.4-.1.86.42 1.28.89.35.38.66.73.88.68.16-.04.11-.31.06-.64-.03-.19-.06-.39-.06-.57 0-.68.36-1.53 1.19-1.53s1.2 1.06.62 1.53c-.58.46-.61.93.24 1.54 0 0 .37.18.72.3-.27.3-.84.48-1.18.48-.47 0-.6-.07-.82-.22v2.7l-.64.53c-.35.28-.93.52-.93.52V9.36s.02-.6-.1-.67z" fill="#fff"/></svg>