<!-- by TradingView --><svg width="18" height="18" xmlns="http://www.w3.org/2000/svg"><path fill="#097A43" d="M0 0h18v18H0z"/><path fill-rule="evenodd" d="M7.03 8.856C9.895 6.82 13.1 5.13 14.188 5.082c1.087-.048-.353 1.563-3.218 3.6-2.865 2.035-6.07 3.724-7.158 3.773-1.088.048.353-1.564 3.218-3.6zm-.16.007c3.098-2.201 6.561-4.027 7.738-4.08 1.176-.051-.381 1.69-3.479 3.891-3.097 2.2-6.56 4.027-7.737 4.079-1.176.052.381-1.69 3.479-3.89z" fill="#E8E8E8"/><path d="M8.85 6c1.574 0 2.85 1.344 2.85 3 0 1.657-1.276 3-2.85 3S6 10.658 6 9c0-1.656 1.276-3 2.85-3zm.1-2.4l.29 2.254h-.022a3.108 3.108 0 00-.585-.007h-.032l.349-2.248zm.09 10.8l.189-2.314h-.011a3.114 3.114 0 01-.598.006l.42 2.308zm3.777-3.984l-.966-.728a3.19 3.19 0 01-.176.543l1.142.185zm-7.791.287l.97-.77c.061.197.141.387.238.565l-1.208.205z" fill="#FFD525"/><path d="M7.338 12.99l.745-.998a2.961 2.961 0 01-.542-.212l-.203 1.21zm3.219-.06l-.729-.978c.184-.061.36-.14.526-.234l.203 1.211zm-4.119-1.508l.2-.346c.043.05.088.097.135.144l-.335.202zm4.899.093l-.23-.4c-.037.041-.075.08-.113.118l-.04.05.383.232zM3.541 8.971l2.332-.399a3.284 3.284 0 00-.024.374V9c0 .086.003.17.01.254L3.54 8.971zm6.807-4.088l-.208 1.229a2.958 2.958 0 00-.556-.194l.764-1.035zm-3.142.06l.159 1.32a2.91 2.91 0 01.567-.267l-.726-1.053zM4.982 7.41l.968.779c.052-.206.124-.404.214-.592L4.983 7.41zm7.724-.265l-.966.728a3.18 3.18 0 00-.257-.543l1.223-.185zm-1.35-.695l-.411.21a3 3 0 01.159.16l.252-.37zm-4.802-.084l.335.25a3.26 3.26 0 00-.154.15l-.18-.4zm7.771 2.706l-2.408-.412a3.243 3.243 0 01-.01.707l2.418-.295z" fill="#FFD525"/><path d="M10.586 9.02l1.712-1.331.056.078-1.73 1.327-.038-.073zm-3.05 1.866l-1.24.649.026.098 1.254-.669-.04-.078z" fill="#E8E8E8"/></svg>