<!-- by TradingView --><svg xmlns="http://www.w3.org/2000/svg" width="18" height="18" viewBox="0 0 18 18"><path fill="#F0F3FA" d="M0 0h18v18H0z"/><path d="M11.62 5.24c-.16-.27-.37-.24-.51-.24l-.7 1.62 1.78 3.63h-1.06c-.48.01-.74.27-.83.46L9.54 12H15l-3.38-6.76z" fill="#DB3218"/><path d="M5.51 7L3 12h1.52c.3 0 .46-.2.54-.32L7.4 7H5.5z" fill="#F37020"/><path d="M6.23 5.48L5.6 6.75h1.93L8.37 5H6.88c-.34 0-.56.3-.65.48z" fill="#DB3218"/><path d="M9.07 5.56L5.89 12h1.38a.8.8 0 00.7-.39L11.25 5H9.72c-.32 0-.57.38-.65.56z" fill="#F37020"/></svg>