<!-- by TradingView --><svg width="18" height="18" viewBox="0 0 18 18" xmlns="http://www.w3.org/2000/svg"><path fill="#161C5B" d="M0 0h18v18H0z"/><circle cx="9" cy="9" r="5" fill="#0567B3"/><path d="M4.581 6.657c.093-.174.196-.343.308-.504l1.144 1.714.847-3.375.226 3.472 2.42-2.499-1.54 3.12 3.346-.954-2.894 1.932 3.375.847-3.472.225 2.499 2.421-3.12-1.54.699 2.45a4.927 4.927 0 01-.382-.059l-1.295-1.94-.329 1.313a5.027 5.027 0 01-.684-.498l-.06-.912-.42.435a5.019 5.019 0 01-.582-.808l.122-.247-.223.063a4.97 4.97 0 01-.376-.943l.147-.098-.186-.047a4.986 4.986 0 01-.146-.998l.43-.028-.43-.416a4.96 4.96 0 01.125-.92l.925.456-.474-1.662z" fill="url(#paint0_linear)"/><path d="M11.797 13.145l.112-.805-.619.252.497-.547-.592-.323.645-.006-.29-.748.492.536.15-.822.108.829.518-.512-.326.732.644.039-.607.294.21.255c-.04.046-.082.091-.125.136l-.221-.103.026.296c-.044.042-.09.082-.135.122l-.136-.31-.338.676-.013.01z" fill="url(#paint1_linear)"/><path d="M12.755 6.933l.31.55.362-.285-.15.537.44.341-.461-.013.077.626-.31-.549-.363.284.15-.536-.439-.342.46.013-.076-.626z" fill="#F2BB00"/><defs><linearGradient id="paint0_linear" x1="4" y1="9.294" x2="11.059" y2="9.294" gradientUnits="userSpaceOnUse"><stop stop-color="#C56A05"/><stop offset=".214" stop-color="#D68B0E"/><stop offset=".493" stop-color="#F2CC16"/><stop offset=".688" stop-color="#F5E311"/><stop offset=".849" stop-color="#F9E956"/><stop offset="1" stop-color="#F6E528"/></linearGradient><linearGradient id="paint1_linear" x1="12.165" y1="10.682" x2="12.165" y2="13.145"><stop offset="1" stop-color="#EFB500"/></linearGradient></defs></svg>