<!-- by TradingView --><svg width="18" height="18" xmlns="http://www.w3.org/2000/svg"><path fill="#062F62" d="M0 0h18v18H0z"/><path d="M5.582 9.439L8.942 4l-.628 3.723c-.002.013-.015.02-.023.03L4 11.999c.526-.854 1.055-1.707 1.582-2.56zM9.053 4c1.65 2.666 3.297 5.333 4.947 8-.658-.648-1.313-1.297-1.97-1.946L9.69 7.74c-.008-.01-.007-.023-.01-.035L9.053 4zM6.913 9.378c.041-.049.075-.045.123-.045h.808c-.466.924-1.115 1.744-1.58 2.667H4.572c.72-.874 1.62-1.749 2.34-2.622zM7.961 9.333h1.382l.125.667h-.467v2H7.522l.53-2h-.417l.326-.667zM9.66 9.333h1.335l.624.667h-.956c-.063.002-.11.076-.08.137.097.196.245.455.342.651.038.09.277.21.37.212h1.253l.874 1H10.44a.332.332 0 01-.237-.197s-.522-1.575-.684-2.28c-.025-.114.034-.19.142-.19z" fill="#fff"/></svg>