<!-- by TradingView --><svg xmlns="http://www.w3.org/2000/svg" width="18" height="18"><path fill="#F0F3FA" d="M0 0h18v18H0z"/><path d="M8.72 6.33s.32.1.67.4c.22.24.35.5.35.8l.2.28c0-.2-.04-.32.04-.5.1-.22.22-.34.4-.45.07.15.14.3.11.52-.04.36-.29.59-.34.66-.07.04.2.25.32.47a.86.86 0 01.54-.79c.1.2.1.27.07.45a.98.98 0 01-.17.44c-.07.09-.12.13-.2.2l.33.48a.95.95 0 01.56-.78c.05.12.12.35.05.53-.13.32-.37.5-.42.54l.22.62c.07-.19.12-.25.32-.41.07-.05.37-.17.37-.17s.02.19 0 .3c-.05.2-.15.32-.32.48-.1.1-.3.13-.3.18 0 .2.03.39 0 .6.2-.21.23-.24.4-.32.17-.07.51-.12.49-.07a.8.8 0 01-.1.29c-.13.14-.15.18-.34.32-.3.16-.45.14-.47.18-.22.55-.4.93-.9 1.39-.77.65-1.63.9-2.31.97l-.7-.42c.08.02-.1-.01 0 0 1.59.07 2.73-.13 3.69-1.92-.44-.16-.76-.3-.93-.7 0 0 .26-.02.44.02.25.05.34.14.54.27 0-.22 0-.33-.02-.56-.47.06-.94-.12-1.11-.48.12-.07.27-.07.41-.07.25 0 .45.05.64.18 0-.02-.12-.38-.2-.56-.12.04-.28.04-.4.04-.33 0-.67-.14-.8-.34a.8.8 0 01.64-.11c.2.02.2.02.4.11l-.32-.5c-.05-.04-.17.11-.5.11-.28 0-.58-.09-.73-.27a.97.97 0 01.49-.23c.2-.02.32 0 .5.02-.1-.18-.23-.31-.3-.43-.03-.02-.32.17-.54.14a1.2 1.2 0 01-.71-.3c.17-.15.39-.2.58-.2.2 0 .3.07.5.11l-.2-.24c-.17-.07-.5-.2-.56-.32-.18-.23-.25-.28-.3-.5-.05-.18-.08-.28-.08-.46z" fill="#00A650"/><path fill-rule="evenodd" d="M5 10.2C5 12.3 6.8 14 8.99 14c2.2 0 4.01-1.7 4.01-3.8a3.8 3.8 0 00-.69-2.14L8.99 3 5.6 8.17c-.37.58-.6 1.28-.6 2.03zm1.07-1.9l-.02.04a3.33 3.33 0 00-.58 1.86A3.44 3.44 0 009 13.53c1.96 0 3.54-1.5 3.54-3.33 0-.64-.2-1.26-.55-1.78l-3-4.56-2.9 4.45z" fill="#00AEEF"/></svg>