<!-- by TradingView --><svg xmlns="http://www.w3.org/2000/svg" width="18" height="18" viewBox="0 0 18 18"><path fill="#F0F3FA" d="M0 0h18v18H0z"/><path fill="#B8B8B8" d="M5 6h8v8H5z"/><path d="M11.69 6.46a1.76 1.76 0 10-1.54-3.08 1.76 1.76 0 101.54 3.08z" fill="#001751"/><circle cx="10.61" cy="5.08" r="1.47" fill="#F0F3FA"/><path d="M10.39 4.5l1.03-1.06.32.3.07-.06.35.35-.05.06.3.3-1.03 1.05-.32-.3-.51.51-.36-.35.5-.5-.3-.3zM12.68 7h-2.46L9 7.8v3.43c-.69-.14-.67-.97-.66-1.23H6.39l-1.07.88c.18 2.23 1.92 3 3.26 3 1.06 0 1.92-.6 2.22-.9a3 3 0 001.88-2.61V7z" fill="#001751"/><path d="M11.4 7.8H9.5v3.06c0 .44-.35 1.02-1 1.02-.74 0-1.1-.55-1.14-.88H5.65c0 .42.5 2.6 2.97 2.6 1.99 0 2.78-1.61 2.78-2.45V7.8z" fill="#F0F3FA"/><path d="M9.94 8.42l1.07-1.04.3.3.09-.08.34.36-.06.06.32.33-1.06 1.04-.33-.34-.53.5-.35-.36.5-.48-.29-.3z" fill="#001751"/></svg>