<!-- by TradingView --><svg xmlns="http://www.w3.org/2000/svg" width="18" height="18"><path fill="#F0F3FA" d="M0 0h18v18H0z"/><path fill-rule="evenodd" d="M15.5 9c0 .85-.6 1.71-1.8 2.4A9.67 9.67 0 019 12.5a9.67 9.67 0 01-4.7-1.1C3.1 10.7 2.5 9.84 2.5 9c0-.85.6-1.71 1.8-2.4A9.67 9.67 0 019 5.5c1.86 0 3.52.43 4.7 1.1 1.2.69 1.8 1.55 1.8 2.4zm.5 0c0 2.2-3.13 4-7 4s-7-1.8-7-4 3.13-4 7-4 7 1.8 7 4zM9.18 6.08l.18.13a.31.31 0 01-.08.17.28.28 0 00-.08.14c-.11.1-.26.38-.17.49l.05.18.35.19-.1.23c.06.03.18.06.32.1.44.12 1.13.3 1.2.46h.3v-.09c-.01-.12-.03-.26.12-.29.05 0 .04.13.03.2v.04c.1.1.4.09.6.08h.13l-.08-.22c.29-.1.74-.25.98-.4l.28.26-.39.34c-.1.01-.2.23-.3.44a1.2 1.2 0 01-.2.38l-.48-.12.3-.3c-.03-.05-.3-.06-.48-.07h-.12l-.08-.15-.22-.13-.11.15c.1.05.08.13.06.2-.02.08-.04.15.1.15v.24c-.02 0-.43.42-.43.44l.01.05c.01.04.02.07-.01.11v.5c.05.02.14.08.14.16 0 .1-.08.14-.16.15h-.4c-.03 0-.1-.02-.11-.08a.89.89 0 01-.45.08c-.06.02-.09.05-.1.08-.04.04-.06.07-.17.07 0 .04-.03.12-.06.13-.07-.02-.2-.02-.23.16a1 1 0 00.03.25c.03.14.05.27-.09.43l.03.28c-.13 0-.24.14-.35.27a.91.91 0 01-.19.2l-.24-.28c-.06-.19-.18-.4-.3-.61-.2-.34-.4-.68-.4-1h-.37c-.03 0-.13-.03-.13-.13 0-.07.09-.12.13-.14v-.65l-.3-.02v-.32l.08-.1c-.4 0-.33-.21.03-.24.14-.01.04-.22 0-.3l-.01-.03c-.14 0-.28-.3-.16-.4.2 0 .8-.3.78-.57.15 0 .15-.01.27-.12l.02-.02c-.03-.13-.04-.25.15-.26 0-.04-.04-.05-.07-.07a.13.13 0 01-.1-.09l-.22-.08-.05-.3.13-.1-.32-.24c0-.22.45-.3.62-.3.02.17.27.35.42.39l.47-.1zM7.93 9.12c.04-.07.2-.2.5-.2.36 0 .5.27.49.47v.59c0 .02 0 .07.05.09.05.03.08.05.08.1 0 .04-.05.05-.1.05h-.57c-.01 0-.07-.01-.07-.06 0-.04.03-.06.05-.07.02-.01.06-.05.06-.13v-.61c0-.07-.03-.22-.17-.22-.18 0-.25.16-.25.26v.55c0 .04.01.11.05.14.05.03.07.05.07.08s-.02.06-.12.06h-.56c-.02 0-.07-.02-.07-.06 0-.04.05-.07.07-.08.02-.01.06-.05.06-.12v-.7c0-.02-.01-.08-.06-.1-.06-.03-.08-.04-.08-.07 0-.05.2-.15.43-.19.06 0 .14 0 .14.22zm2.85-.86v1.66c0 .04.02.12.07.14a.1.1 0 01.08.09c0 .02-.02.07-.1.07h-.36c-.03 0-.1-.02-.1-.07v-.09c-.06.07-.24.17-.48.16-.3 0-.63-.2-.63-.63s.31-.71.75-.72c.05 0 .19.01.28.06v-.42a.16.16 0 00-.08-.12l-.04-.02c-.04-.02-.06-.03-.06-.06 0-.05.1-.15.5-.17.06 0 .17.02.17.12zm-.49 1.02v.43c0 .08-.04.24-.2.25-.2.02-.32-.2-.3-.43 0-.22.06-.46.3-.46.07 0 .2.05.2.21zM6.11 8.07c.05 0 .15.01.15.1 0 .07-.07.1-.1.11a.1.1 0 00-.06.1v1.27c0 .2-.15.57-.74.57-.72 0-.85-.54-.85-.92h-.05a.13.13 0 110-.26h.56a.13.13 0 110 .26h-.03v.17c0 .15.07.43.31.41.08 0 .22-.04.23-.27V8.38c0-.02-.02-.08-.1-.1-.1-.02-.13-.06-.13-.11 0-.04 0-.1.15-.1h.66zm.4.45c0-.11.1-.2.2-.2h.17a.21.21 0 110 .41h-.16a.21.21 0 01-.21-.2zm.56.54v.88c0 .04.01.1.05.13s.06.05.06.09c0 .02 0 .06-.11.06h-.54c-.03 0-.1-.02-.1-.06 0-.05.06-.08.08-.1.03 0 .05-.03.05-.12v-.7c0-.02-.01-.05-.05-.07l-.01-.01c-.04-.02-.06-.04-.06-.08 0-.05.06-.12.48-.18.07-.01.15.01.15.16zm6.37.86V8.27c0-.1-.11-.13-.17-.13-.4.02-.5.13-.5.17 0 .04.02.05.06.07l.04.02c.06.04.08.1.08.13v1.4c0 .05-.01.1-.06.13-.05.04-.06.06-.06.1 0 .05.06.06.1.06h.56c.08 0 .1-.05.1-.07 0-.03-.04-.05-.07-.07l-.04-.03c-.04-.04-.04-.09-.04-.13zM11.8 8.86c.23 0 .68.08.7.5v.57c0 .03 0 .1.06.11.06.03.09.06.09.1 0 .03-.04.09-.1.08h-.37c-.04 0-.12-.03-.11-.14a.66.66 0 01-.44.14c-.28 0-.54-.14-.54-.42 0-.27.28-.51.9-.52 0-.07-.02-.22-.21-.22-.05 0-.17 0-.3.13a.25.25 0 01-.14.04c-.1 0-.16-.05-.15-.13 0-.07.13-.24.61-.24zm.2.62v.32a.2.2 0 01-.19.19c-.17.02-.2-.14-.2-.2 0-.08.08-.29.39-.31z" fill="#ED1A1E"/></svg>