<!-- by TradingView --><svg xmlns="http://www.w3.org/2000/svg" width="18" height="18" viewBox="0 0 18 18"><path fill="#0066B3" d="M0 0h18v18H0z"/><path d="M7.36 3.3c.4-.3.94-.4 1.42-.22.29.1.6.11.89.04.49-.13 1.01 0 1.39.33.23.2.5.34.8.38.51.07.95.38 1.16.84.13.28.35.5.6.66.45.25.73.71.75 1.22.02.3.12.6.3.84.32.4.4.93.23 1.41-.1.29-.12.6-.04.9.13.48 0 1-.33 1.38-.2.23-.34.5-.38.81-.07.5-.38.94-.84 1.16-.28.13-.5.34-.66.6a1.5 1.5 0 01-1.22.74c-.3.02-.6.13-.84.31-.4.31-.93.4-1.41.22a1.5 1.5 0 00-.9-.04c-.48.14-1 0-1.38-.33a1.5 1.5 0 00-.81-.38 1.5 1.5 0 01-1.16-.84 1.5 1.5 0 00-.6-.66 1.5 1.5 0 01-.75-1.22 1.5 1.5 0 00-.3-.84c-.31-.4-.4-.93-.22-1.41.1-.29.11-.6.03-.89-.13-.5 0-1.02.34-1.4.2-.22.34-.5.38-.8.06-.5.38-.94.84-1.16.28-.13.5-.34.66-.6a1.5 1.5 0 011.22-.74c.3-.02.6-.13.83-.31z" fill="#fff"/><path d="M7.38 4.64a.95.95 0 011.8-.28.95.95 0 011.75.43.95.95 0 011.47 1.06.95.95 0 01.94 1.55.95.95 0 01.28 1.8c.79.48.5 1.69-.43 1.76a.95.95 0 01-1.07 1.46.95.95 0 01-1.54.94.95.95 0 01-1.8.28.95.95 0 01-1.76-.42.95.95 0 01-1.46-1.07.95.95 0 01-.94-1.55.95.95 0 01-.28-1.8.95.95 0 01.42-1.75.95.95 0 011.07-1.47.95.95 0 011.55-.94z" fill="#0066B3"/><path d="M8.74 6.8a.3.3 0 01.47 0 .3.3 0 00.4.08.3.3 0 01.43.18.3.3 0 00.32.22.3.3 0 01.34.33.3.3 0 00.22.33c.19.05.28.27.18.44a.3.3 0 00.07.38.3.3 0 010 .48.3.3 0 00-.07.38.3.3 0 01-.18.44.3.3 0 00-.22.33.3.3 0 01-.34.33.3.3 0 00-.32.22.3.3 0 01-.44.18.3.3 0 00-.39.08.3.3 0 01-.47 0 .3.3 0 00-.38-.08.3.3 0 01-.44-.18.3.3 0 00-.33-.22.3.3 0 01-.33-.33.3.3 0 00-.22-.33.3.3 0 01-.18-.44.3.3 0 00-.08-.38.3.3 0 010-.48.3.3 0 00.08-.38.3.3 0 01.18-.44.3.3 0 00.22-.33.3.3 0 01.33-.33.3.3 0 00.33-.22.3.3 0 01.44-.18c.12.08.3.05.38-.08z" fill="#fff"/><circle cx="8.98" cy="9" r=".94" fill="#0066B3"/><path d="M11.33 10.63l-.16.5a7.89 7.89 0 00-.31 1.57l-.02.19-.05.37c-.02.15-.05.31-.12.43-.18.28-.5.5-.77.65-.21.12-.43.22-.58.29l-.12.05-.36.17V13.1l.01-.03a3.57 3.57 0 011.98-2.23l.5-.2zm-1.99 2.53v.9c.1-.04.2-.1.31-.16.27-.14.49-.3.6-.48v-.01l.02-.05.03-.17.04-.34.02-.21c.03-.3.08-.67.17-1.07-.45.31-.98.84-1.19 1.59z" fill="#fff"/><path d="M6.33 10.63l.18.51a7.69 7.69 0 01.38 1.74l.05.36c.03.14.06.3.14.42.18.28.48.5.75.66a6.82 6.82 0 00.7.36l.36.17v-1.76l-.01-.03a3.61 3.61 0 00-2.04-2.23l-.5-.2zm2.06 2.53v.9c-.1-.05-.2-.1-.3-.17a1.9 1.9 0 01-.6-.5v-.02a9.38 9.38 0 00-.32-1.8c.46.31 1 .85 1.22 1.59z" fill="#fff"/></svg>