<!-- by TradingView --><svg width="18" height="18" xmlns="http://www.w3.org/2000/svg"><path fill="#17469E" d="M0 0h18v18H0z"/><path d="M9.931 4.873l-1.123.859c2.43.079 4.08-.791 4.08-.791-1.76.96-3.619 1.048-4.4 1.035L7.152 7S11.338 6.883 14 4c0 0-1.65 1.369-4.069.873z" fill="#ED1C24"/><path d="M15.001 7.013s.051.11-.02.242l-.948 1.635.114-1.557c.023-.2.147-.32.147-.32h-1.426l-1.08 1.877.114-1.546.001-.005a.576.576 0 01.147-.326h-1.425c-.067-.005-3.324-.18-3.811.92.2-.51.336-.904.344-.92H4.794c.025.01.156.12.112.276-.124.533-.424 1.767-.759 2.682-.438 1.197-1.427 1.636-2.105 1.942-.062.028-.053.086.012.086 1.67.014 3.04-.155 4.077-2.433a33.7 33.7 0 00.661-1.577.689.689 0 00-.028.11c-.213 1.228 1.635 1.55 1.608 1.843-.023.259-1.102.18-1.815-.118l-.01-.005a.42.42 0 01-.193-.159l.006.07v.011l.03.328.066.832s3.771.604 3.841-.95c.053-1.177-1.801-1.561-1.782-1.82.019-.241.903-.271 1.44-.17h.004c.24.049.274.213.274.213l.039-.115c0-.005.325-.965.353-1.046l-.207 3.673a.502.502 0 01-.147.312h.254l1.17-.002 1.046-2.219-.079 1.912a.507.507 0 01-.147.31h1.424L16 7.012h-.999z" fill="#fff"/></svg>