<!-- by TradingView --><svg width="18" height="18" viewBox="0 0 18 18" xmlns="http://www.w3.org/2000/svg"><path fill="#F0F3FA" d="M0 0h18v18H0z"/><path d="M4.646 13.68c-.31-.452-.577-2.776-.74-3.478-.164-.702-.354-1.607-.45-1.926-.155-.52-.52-1.59-.446-2.148l.038-.39.03.02c-.01.214.627 1.535.706 1.842a52.03 52.03 0 01.862 3.943c.06.328.311 1.567.4 1.767h.714c.325-.037.65-.066.98-.088 1.575-.109 3.811-.198 5.362.234.139.04.127.09.26.123.032-.058.147-.723.178-.885.387-2.058 1.108-4.446 1.865-6.358.086-.217.486-.721.595-.856l-.898 3.05a1.51 1.51 0 01-.059.192l-.063.267a30.869 30.869 0 00-.34 1.221c-.3 1.166-.61 2.277-.866 3.459-.021.097-.04.243-.066.331l-.706-.163c-1.678-.322-4.247-.283-5.874-.084-.341.042-.92.176-1.205.116-.152-.032-.206-.086-.277-.19z" fill="#89BE5C"/><path d="M8.66 11.197c-.037-.041-.016-.021-.029-.063-.035-.01-.077-.054-.091-.057-.036-.01-.047.03-.12-.009-.098-.055-.067-.147-.052-.287.11-1.068.053-2.256-.866-2.723-.5-.311-1.504-.658-2.034-.547-.528.11-.39.585-.198.84.288.38.618.466.719.636-.004.003-.01.002-.011.008l-.034.022c-.1.056-.254.11-.283.314-.03.219.138.374.221.46.2.205.313.293.536.461.343.258-.076.24-.097.62-.01.183.057.258.13.35.033.04.04.06.063.099.147.245.345.508.606.645.314.165.623-.022.905-.15.247-.115.644-.193.636-.62z" fill="#39AEF8"/><path d="M8.814 11.69a.644.644 0 00-.08.28c-.002.538.482.105.64-.042.135-.124 1.128-1.183 1.343-1.46l.36-.456c.09-.105.128-.248.171-.404.043-.154.088-.321.19-.479l.068-.106.085-.132c.164-.258.238-.347.323-.447.054-.064.112-.133.2-.254l.18-.242a6 6 0 00.49-.721c.133-.237.185-.368-.013-.55-.294-.272-.82.134-1.037.36-.04.043-.078.08-.114.115a2.116 2.116 0 00-.258.29 1.48 1.48 0 00-.085.057l-.742.918c-.088.09-.231.242-.386.41-.281.301-.603.648-.72.74-.1.08-.113.07-.184.015l-.025-.019.01-.078c-.063.12-.114.33-.163.533-.03.126-.06.25-.092.347a3.183 3.183 0 01-.344.769c.005.015.005.022.005.027 0 .008 0 .01.025.035.092.049.122.022.17-.02l.029-.023-.018.061a.481.481 0 00-.028.123 3.994 3.994 0 00-.001.255l.001.098zM12.23 7.3c.01.015.019.031.026.05 0-.009 0-.016-.002-.024a.315.315 0 00-.024-.026z" fill="#76A41D"/><path d="M3.109 5.777c.562-.091.832-.121 1.39-.19a7.2 7.2 0 011.68.001c.692.078 1.493.263 2.142.54.21.09.347.148.547.206-.017-.005.018.012 0 0 .035.01.053-.09.075-.104-.125-.187-.66-.546-.86-.642a5.054 5.054 0 00-1.477-.471c-.135-.023-.296-.053-.428-.061-.09-.005-.134-.019-.215-.02-.211-.003-.514-.039-.673-.01-.238.044-.454.01-.863.093-.383.078-.74.185-1.071.384l-.148.1c-.037.034-.073.126-.099.174zm5.95.417c.112.05 1.107-.161 1.298-.228.453-.16.912-.298 1.396-.402a7.098 7.098 0 012.402-.129c.265.032.574 0 .815-.06-.04-.037-.107-.056-.157-.073l-.546-.16A5.667 5.667 0 0013.155 5h-.55a6.7 6.7 0 00-.852.082c-.27.046-.519.08-.771.15-.527.142-.891.249-1.38.513-.21.115-.404.242-.543.449z" fill="#89BE5C"/><path d="M8.205 8.834c.146.375.133.44.2.998 0 .452-.042.82-.073 1.24a3.21 3.21 0 01.295.06c.026.058.336-.638.375-.803.14-.583.142-.749.447-1.264.137-.231.208-.178.279-.265.06-.076.232-.174.167-.317-.05-.111-.188-.142-.245-.248-.232-.43-.679-.439-.945-.115-.079.096-.114.223-.167.354-.065.158-.29.271-.333.36z" fill="#F2C244"/></svg>