<!-- by TradingView --><svg width="18" height="18" viewBox="0 0 18 18" xmlns="http://www.w3.org/2000/svg"><path fill="#F0F3FA" d="M0 0h18v18H0z"/><path d="M7.002 5.825c-.019-.654-.162-.833-.482-.833-.52 0-.52.558-.52.833v5.434c0 .388-.634.741-1.088.741-.69 0-.945-.353-1.254-.472-.367-.142-.654.084-.657.297-.023.389.343 1.173 1.99 1.173 1.428 0 2.031-1.073 2.01-1.739V5.825z" fill="#1274C0"/><path d="M12 8.184V5.721c0-.26 0-.71.489-.72.5-.008.511.478.511.736v6.594c0 .274-.007.667-.511.667-.427 0-.447-.298-.461-.504a.438.438 0 00-.028-.163c-.152.22-.754.667-1.583.667S8.007 12.483 8 10.332c-.007-2.152 1.514-2.68 2.417-2.68.723 0 1.452.359 1.583.532zm-1.5 4.048c.828 0 1.5-.81 1.5-1.862s-.672-1.859-1.5-1.859-1.5.807-1.5 1.86c0 1.051.672 1.861 1.5 1.861z" fill="#FF6C00"/></svg>