<!-- by TradingView --><svg xmlns="http://www.w3.org/2000/svg" width="18" height="18" viewBox="0 0 18 18"><path fill="#F0F3FA" d="M0 0h18v18H0z"/><path d="M8.95 4c.95 0 1.83.26 2.58.7L4 8.05A5.04 5.04 0 018.95 4z" fill="url(#a3jb4hdae)"/><path d="M5.96 9.06l7-3.1a4.95 4.95 0 01-.08 6.18L5.96 9.06z" fill="url(#b3jb4hdae)"/><path d="M4.03 10.1a5.04 5.04 0 007.37 3.27L4.03 10.1z" fill="url(#c3jb4hdae)"/><circle opacity=".5" cx="11.5" cy="9" r="2.1" fill="#8CB7E1"/><circle opacity=".6" cx="11.5" cy="9" r="1.52" fill="#B5CFEB"/><circle opacity=".6" cx="11.5" cy="9" r=".94" fill="#DEEBFA"/><defs><linearGradient id="a3jb4hdae" x1="13.81" y1="9.19" x2="4" y2="9.19" gradientUnits="userSpaceOnUse"><stop offset=".24" stop-color="#649FD0"/><stop offset=".59" stop-color="#0063B5"/><stop offset="1" stop-color="#103C72"/></linearGradient><linearGradient id="b3jb4hdae" x1="13.81" y1="9.19" x2="4" y2="9.19" gradientUnits="userSpaceOnUse"><stop stop-color="#559FD5"/><stop offset=".24" stop-color="#649FD0"/><stop offset=".59" stop-color="#0063B5"/><stop offset="1" stop-color="#103C72"/></linearGradient><linearGradient id="c3jb4hdae" x1="13.81" y1="9.19" x2="4" y2="9.19" gradientUnits="userSpaceOnUse"><stop offset=".24" stop-color="#649FD0"/><stop offset=".59" stop-color="#0063B5"/><stop offset="1" stop-color="#103C72"/></linearGradient></defs></svg>