<!-- by TradingView --><svg xmlns="http://www.w3.org/2000/svg" width="18" height="18"><path fill="#E7E514" d="M0 0h18v18H0z"/><path d="M9.22 10.22l-.92-2.1a.76.76 0 00-.2-.26c-.05-.03-.17-.04-.17-.12 0-.05.06-.07.12-.07h.09c.26.03.63.02.89 0 .06 0 .2-.02.2.07 0 .06-.05.08-.1.1-.06.02-.13.07-.13.15 0 .04.02.11.06.2l.47 1.2c.01.07.08.06.1.01l.48-1.09c.05-.11.1-.28.02-.39-.07-.07-.34-.08-.34-.2l.03-.04a.48.48 0 01.15-.01c.24.02.43.02.62 0h.05c.06 0 .07.01.07.06 0 .07-.1.1-.14.14-.11.1-.16.25-.22.37L9.55 10c-.04.1-.07.2-.14.29-.03.03-.06.04-.08.04-.05 0-.07-.02-.1-.11zm3.04-2.55v.2a.51.51 0 00-.2-.03c-.23 0-.23.14-.23.36v.36c0 .2.1.24.27.24l.16-.01v.24c-.1-.02-.3-.03-.38.03-.02.02-.05.07-.05.16v.63c0 .13.04.22.1.25.08.07.23.05.33.03v.2h-1.25a.08.08 0 01-.08-.08c0-.1.12-.1.18-.18a.27.27 0 00.05-.12v-1.9c-.05-.15-.13-.2-.27-.22-.02 0-.05-.03-.05-.07 0-.06.08-.08.13-.07l.24.02c.23.01.46 0 .69-.02a5.06 5.06 0 01.36-.01zM5.33 9.69V8.26c0-.11 0-.2-.02-.25-.05-.15-.12-.18-.26-.2-.03 0-.05-.05-.05-.07 0-.05.04-.07.1-.07h.07c.15.02.29.02.43.02s.29 0 .44-.02h.16l.02.06c0 .1-.08.08-.14.13a.2.2 0 00-.06.1.74.74 0 00-.02.21v.63c0 .08.06.07.1.03l.63-.61c.07-.07.13-.12.16-.17a.22.22 0 00.05-.12c0-.09-.08-.1-.15-.11-.06-.02-.09-.05-.09-.08 0-.05.02-.07.1-.07h.1l.32.01.39-.01.08.01.02.05c0 .1-.12.1-.18.13-.18.08-.36.22-.5.36l-.3.3c-.07.04-.07.09-.03.16l.79 1.27c.07.1.13.16.2.2.06.02.12.02.12.1 0 .06-.03.08-.12.08h-.6c-.03 0-.07-.02-.1-.05-.05-.04-.1-.1-.16-.2l-.57-.98c-.03-.03-.07-.07-.11-.03l-.1.08c-.03.04-.05.07-.05.12v.52c0 .1.01.17.03.21.05.1.08.14.18.16.05.01.14.03.14.1 0 .1-.12.07-.2.08h-.99c-.04 0-.08-.03-.08-.07 0-.06.02-.08.05-.1.07-.03.1-.06.13-.1.09-.1.07-.26.07-.38zm6.93.64v-.2c.27-.03.4-.3.4-.54 0-.25-.14-.51-.4-.56v-.24c.2-.04.28-.2.28-.4 0-.21-.07-.43-.28-.52v-.2c.27 0 .48.06.63.16.16.1.24.26.24.46a.5.5 0 01-.13.36c-.1.09-.23.15-.41.2.25 0 .44.1.56.2.12.1.18.25.18.45 0 .28-.1.48-.3.62-.17.11-.43.2-.77.21z"/><path d="M6.8 4.87a5.04 5.04 0 017 .86 4.9 4.9 0 01-.88 6.92l-.2.14a4.9 4.9 0 00.7-6.76 5.04 5.04 0 00-6.8-1c.05-.06.11-.11.18-.16z" fill="#00854A"/><path d="M5.37 4.28a6.17 6.17 0 017.74.18 5.66 5.66 0 00-6.85.03 5.47 5.47 0 00-1.02 7.73A5.64 5.64 0 0015 10.38a6.15 6.15 0 01-10.74 2.33 5.97 5.97 0 011.11-8.43z" fill="#00854A"/></svg>