<!-- by TradingView --><svg xmlns="http://www.w3.org/2000/svg" width="18" height="18"><path fill="#F0F3FA" d="M0 0h18v18H0z"/><path d="M6.91 6L6 8.71 7 12H5.33l-.66-2.57V12H3V6h1.67v2.33L5.33 6h1.58zm.42 0H9v6H7.33V6z" fill="#0A1C63"/><path d="M10.66 8.5H8.33v1h2.33v-1z" fill="#FFE406"/><path d="M10.66 11H8.33v1h2.33v-1z" fill="#3C7FBE"/><path d="M10.66 6H8.33v1h2.33V6z" fill="#ED0400"/><path d="M13.33 10v.3c0 .21.05.8-.33.8-.37 0-.33-.53-.33-.75V7.68c0-.24-.04-.78.34-.78.36 0 .32.5.32.73V8H15c0-.71-.02-1.34-.8-1.75A2.65 2.65 0 0012.98 6c-.6 0-1.26.17-1.63.62-.37.44-.34 1-.34 1.53v1.68c0 1.25.43 2.17 2.02 2.17.71 0 1.58-.28 1.84-.94.09-.23.14-.52.14-1.06h-1.67z" fill="#0A1C63"/></svg>