<!-- by TradingView --><svg xmlns="http://www.w3.org/2000/svg" width="18" height="18" viewBox="0 0 18 18"><path fill="#F0F3FA" d="M0 0h18v18H0z"/><path d="M12.45 6.48c-1.3.35-2.17 1.39-2.17 2.54 0 1.16.87 2.2 2.17 2.54l-.26.97c-1.64-.44-2.91-1.81-2.91-3.5 0-1.7 1.27-3.07 2.91-3.51l.26.96z" fill="#017EBC"/><path d="M7.9 6.83c-.26-.58-.52-.7-.63-.7v-1c.74 0 1.25.64 1.54 1.28.3.7.49 1.61.49 2.6 0 .98-.18 1.9-.5 2.59-.28.64-.8 1.28-1.53 1.28v-1c.1 0 .37-.12.63-.7.24-.52.4-1.3.4-2.17 0-.88-.16-1.65-.4-2.18z" fill="#F09900"/><path fill-rule="evenodd" d="M13.45 10.96C14.57 10.32 15 9.59 15 9c0-.6-.43-1.32-1.55-1.96A9.18 9.18 0 009 6c-1.8 0-3.36.42-4.45 1.04C3.43 7.68 3 8.41 3 9c0 .6.43 1.32 1.55 1.96A9.18 9.18 0 009 12c1.8 0 3.36-.42 4.45-1.04zM9 13c3.87 0 7-1.8 7-4s-3.13-4-7-4-7 1.8-7 4 3.13 4 7 4z" fill="#ED3237"/></svg>