<!-- by TradingView --><svg xmlns="http://www.w3.org/2000/svg" width="18" height="18"><path d="M0 9a9 9 0 1118 0A9 9 0 010 9z" fill="url(#a0yjb2k1j)"/><path d="M11.3 6.64a5.33 5.33 0 00-.29 1.3l-.24.09c-.02 0 0-.11.03-.17.02-.06.14-.23.19-.28l.04-.05h-.06a5.72 5.72 0 00-.44 0c-.03.03-.08.15-.12.28a.63.63 0 01-.43.43c-.11.04-.11.04-.12 0a.35.35 0 00-.12-.16c-.15-.09-.3.03-.36.16-.08.15-.03.33.13.4.05.02.05.03.02.13-.04.11-.11.19-.18.19-.05 0-.09-.02-.12-.08-.02-.04-.02-.07-.02-.21 0-.2.03-.3.1-.39.1-.12.1-.15.1-.18 0-.2-.3.04-.34.08-.19.19-.3.45-.3.69 0 .15-.24.36-.39.24a.22.22 0 01-.04-.27c.25-.42.4-1.05.4-1.54 0-.15-.01-.18-.04-.24-.12-.31-.38.18-.44.3-.2.41-.3.82-.31 1.28L7.93 9c-.02.14-.3.4-.37.38-.06-.02.04-.35.16-.5a.16.16 0 00.02-.05L7.6 8.5l-.15.03c-.24.06-.21.02-.21.02V8.5l-.5.08-.02.12c-.08.6-.13.83-.23 1.03-.04.09-.07.11-.1.11-.07 0-.06-.13.05-.67.04-.22.08-.44.07-.45l-.6.15s0 .03.03.05l.03.07-.05.42c-.07.46-.07.48-.18.53a.34.34 0 01-.42-.09 1.2 1.2 0 01-.2-.4l-.17-.43a.42.42 0 00-.12-.11l.1-.12c.16-.14.36-.38.83-.96.38-.46.8-.76 1.17-.83.18-.03.24 0 .27.15.02.13.07.18.18.18.12 0 .27-.13.33-.27.13-.36-.18-.71-.53-.72-.42-.02-.87.17-1.17.46-.2.2-.37.4-.74.96-.25.38-.57 1-1.06 1.09-.04 0-.05 0-.04-.02a39.6 39.6 0 00.21-1.25l.07-.39H4.1a.73.73 0 01-.35.32.58.58 0 01-.36 0l-.1-.03-.18.81c0 .02.02.02.1.01.23-.02.41-.09.6-.24l.11-.07-.12.63c-.16.87-.3 1.27-.55 1.52a.57.57 0 01-.39.18H2.8l-.08.28-.22.8.11-.02c.55-.12.9-.37 1.1-.78.12-.21.17-.38.33-1.06l.07-.28.01-.05h.09c.1 0 .2-.02.28-.09a.57.57 0 01.07-.04l.06.15c.05.14.13.44.2.74.03.19.08.31.15.41.16.23.38.3.62.18.09-.05.15-.09.26-.2l.09-.08c.06.08.15.12.26.1.26-.05.5-.27.67-.64.1-.19.18-.44.25-.7l.02-.1.15-.02-.02.04c-.08.13-.18.4-.23.59-.05.22 0 .4.1.48.29.2.65-.24.79-.42l.06-.09v.05c.04.17.18.26.35.22a.4.4 0 00.16-.07c.13-.09.26-.23.32-.32l.04-.08.01.05c.02.08.03.1.08.14.1.1.28.09.5-.01.24-.12.38-.4.43-.83l.02-.14.2-.07.2-.07v.08c.02.09 0 .24-.04.3a.31.31 0 01-.06.09l-.04.03v-.1c-.01-.06-.03-.16-.11-.16-.15 0-.2.26-.2.37 0 .48.68.31.84-.02a.97.97 0 00.06-.15c.03-.1.05-.32.04-.42l-.01-.09.08-.03c.1-.02.1-.02.1 0a7.43 7.43 0 00-.1.69l-.03.16.46-.15-.01-.12a1.1 1.1 0 01-.02-.13l.07.04c.13.07.22.1.38.1.24.02.37-.03.53-.2l.1-.1.03.04c.05.08.2.13.36.11.18-.02.3-.1.41-.24 0 0 .04.11.21.11.38 0 .57-.52.66-.8l.15-.59.1-.03c.16-.04.16-.04.1.07-.14.24-.34.61-.2.9.1.18.3.23.5.11.07-.03.13-.09.3-.25.1-.11.2-.21.22-.21.05-.02.06.05.01.14-.06.13-.22.26-.5.4-.39.2-.72.31-1.62.58a383.28 383.28 0 00-1.29.4 937.6 937.6 0 00-7.25 2.2l-.14.05-.27.71-.27.72a15.74 15.74 0 001.37-.53 1977.91 1977.91 0 008.58-3.4c.58-.22.82-.33 1.07-.48.24-.16.44-.34.53-.5.13-.2.13-.43.02-.55-.12-.12-.31-.08-.53.1-.16.13-.23.15-.25.06-.02-.1.09-.4.21-.58a.55.55 0 01.16-.16c.01 0 0-.04-.05-.15-.07-.14-.07-.14-.1-.14a4.16 4.16 0 00-.44.08l-.03-.07-.38.06c-.04 0-.04 0-.07.16-.05.26-.16.7-.2.83-.06.18-.1.27-.15.32-.04.03-.04.03-.06.01-.02-.02-.02-.04-.02-.11 0-.12.02-.2.12-.54.08-.25.12-.45.12-.45l-.52.08.01.1.01.06-.07-.02a.56.56 0 00-.31 0c-.2.06-.38.28-.5.58-.06.14-.1.33-.12.46 0 .1 0 .1-.06.15-.13.12-.27.15-.4.08-.07-.03-.18-.12-.17-.14l.1-.05c.17-.1.3-.23.38-.4.08-.16.1-.3.04-.41-.08-.16-.24-.17-.5-.06-.02 0-.02-.01.02-.07.11-.2.18-.44.2-.72.03-.27 0-.46-.09-.55-.22-.24-.44.5-.47.6zm.3.23c-.01.08-.07.23-.12.33l-.04.07V7.2c.02-.16.1-.4.15-.4v.07zm1.35.75v.08l.1.01.09.01c0 .03-.1.16-.17.22-.14.1-.24.13-.27.06-.03-.05-.02-.15.02-.24a.6.6 0 01.17-.2c.07-.05.08 0 .06.06zm-4.68.72c-.1.13.06-.58.11-.58.04 0-.09.54-.11.58zm3.33-.44c.02.02 0 .1-.02.13-.04.04-.07.02-.07-.04 0-.05-.01-.06-.09-.03l-.07.03-.03.02c.05-.07.15-.14.23-.14.02 0 .05.02.05.03zm-5.5.19l-.04.38.4-.05.06-.37-.41.04zm3.56.26c.01.01-.01.05-.03.05-.02 0-.03-.03-.02-.05h.05z" fill="#fff"/><defs><linearGradient id="a0yjb2k1j" x1="3.35" y1="3.12" x2="21.9" y2="24.43" gradientUnits="userSpaceOnUse"><stop stop-color="#1A1E21"/><stop offset="1" stop-color="#06060A"/></linearGradient></defs></svg>