<!-- by TradingView --><svg xmlns="http://www.w3.org/2000/svg" width="18" height="18" viewBox="0 0 18 18"><path fill="#F0F3FA" d="M0 0h18v18H0z"/><path d="M4 6h2v7H4V6z"/><path d="M10.58 4.32a7.82 7.82 0 00-4.08 1.5v1.47c.46-1.01 3.06-2.37 4.08-2.97z" fill="#0062AA"/><path d="M8.06 14c-.74-.42-2.16-1.77-2.05-4.61C6.1 6.8 9.23 5.16 12.09 4l.44.16c-2.99 1.57-3.44 3.28-3.44 4.1 0 3.25 3 5 4.91 5.74h-2.05.01c-5.2-3.24-4.3-6.5-3.21-7.72-3.47 2.85-.14 6.33 1.96 7.72h.02-2.67z"/><path d="M12.72 6.79V4.38c-.42.26-.94.81-1.08 1.1v2.79l1.08-1.48zM11 8.75V5.78c-.42.24-1 1.42-1 1.74v2.35l1-1.12z"/></svg>