<!-- by TradingView --><svg width="18" height="18" xmlns="http://www.w3.org/2000/svg"><path fill="#ED3338" d="M0 0h18v18H0z"/><path d="M3 9c0-2.762 2.686-5 6-5s6 2.238 6 5c0 2.761-2.686 5-6 5s-6-2.239-6-5z" fill="#1F4578"/><path d="M8.294 6l1.412-1v7l-1.412 1V6z" fill="#ED3338"/><path d="M9.1 10.16c-.607.706-1.192 1.43-2.289 1.43-1.55 0-2.283-1.452-2.283-2.665 0-1.166.574-2.546 2.082-2.546.655 0 1.31.425 1.684.835v.99c-.314-.205-1.04-.443-1.5-.45-.956-.015-1.8.386-1.785 1.302.01.63.654 1.059 1.295 1.059.982 0 1.576-.87 2.074-1.53.138-.172.53-.679.59-.76.553-.747 1.192-1.43 2.289-1.43 1.291 0 2.016.852 2.222 1.89h-.583c-.234-.336-.685-.385-1.13-.385-1.015 0-1.622.905-2.129 1.57 0 0-.395.522-.538.69zm4.412-.803c-.13 1.045-.735 2.246-2.055 2.248-.77.002-1.334-.54-1.75-1.166v-.725c.521.251.97.551 1.561.56.729.01 1.388-.408 1.66-.917h.584z" fill="#fff"/></svg>