<!-- by TradingView --><svg xmlns="http://www.w3.org/2000/svg" width="18" height="18"><path fill="#F5F0D0" d="M0 0h18v18H0z"/><path d="M9.04 5L5.3 8.4c.49.11 1.07.36 1.3.48h4.82c.19-.14.84-.4 1.25-.48L9.04 5z" fill="#007338"/><path d="M11.6 8.78c-1.37.99-2.02 1.64-2.6 3.96a5.5 5.5 0 00-2.6-3.96A2.72 2.72 0 019 6.74c1.24 0 2.28.86 2.6 2.04z" fill="#E1781C"/><path d="M4.92 8.76L3 10.6 8.62 13c-.22-3.22-2.56-4.17-3.7-4.24zm8.16 0L15 10.6 9.38 13c.22-3.22 2.56-4.17 3.7-4.24z" fill="#007338"/><path d="M9.05 10.23c-.35.1-.44.65-.44.91L7.74 9.7c-.06-.3-.03-.63 0-.77.06.4.32.86.44 1.05V8.79c-.3-.24-.27-.62-.2-.78.14.03.3.3.35.43.05-.35.18-.68.23-.63.05.03.05.32.05.46.06-.1.07-.38.06-.5.11-.24.38-.6.44-.55.05.04.02.23 0 .31.13-.25.31-.31.39-.31.08.07.03.21 0 .27.3-.32.64-.35.67-.32.03.02 0 .08-.03.1.19.04.54.14.48.22-.06.08-.2.14-.28.16.1.05.1.13.1.16-.09.03-.3-.03-.4-.16a.18.18 0 00-.22-.06c-.06.1-.37.24-.52.3.16-.04.22.03.23.07.1-.04.23-.04.3-.03 0 .25-.25.33-.36.34 0 .1-.11.2-.17.24-.13.09-.33.09-.42.07v.09h-.2a.71.71 0 00-.39.43v1.1l.13.14c0-.05.02-.27.14-.77.13-.5.45-.84.59-.95l.07.17c.02-.04.07-.17.25-.35.14-.15.24-.17.28-.17l.07.13c.08-.1.24-.25.29-.18.05.06-.02.22-.06.29.2-.03.48.02.47.11 0 .08-.15.11-.22.12.38.22.4.41.36.48-.18 0-.42-.16-.52-.25-.01.04-.17.05-.24.05a.88.88 0 01-.33.2H9a.94.94 0 00-.33.35c-.2.49-.15.9-.1 1.05.02-.18.1-.34.15-.39.22-.25.38-.13.43-.04h.32c.23.16.22.38.19.46-.21-.23-.5-.38-.61-.42z" fill="#fff"/></svg>