<!-- by TradingView --><svg xmlns="http://www.w3.org/2000/svg" width="18" height="18"><path fill="#1D398D" d="M0 0h18v18H0z"/><path d="M9.1 3.13c.06.18.16.45.3.68.2.37.02.84-.2.95V5l.75.23c.28.1.64.32.7.72.06.33.44.59.58.69.02 0 .02.01.03.02l.36-.71v-.17c-.1-.05-.33-.16-.32-.26.01-.1.27-.29.27-.29.14.07.43.24.43.42 0 .23-.12.94-.52 1.39-.05.05-.18.17-.25.17-.1 0-.86-.51-1.07-1.11-.15.07-.42.28-.42.83 0 .27.18.47.34.65.08.08.15.16.2.24.14.24.22.7.17 1.05v.03a4.7 4.7 0 01-.3 1.14c-.1.33-.22.63-.32.87-.1.22-.16.4-.18.5-.08.35-.15 1.3.13 2.19l.12.02a8.5 8.5 0 012.05.53c-.5.01-1.85.24-2.75.84h-.4a6.1 6.1 0 00-2.8-.78c.6-.32 1.68-.64 2.02-.7.78-.74.78-1.63.78-2v-.04c0-.21-.07-.77-.28-1.42-.2-.62-.21-.73-.27-1.14v-.03c-.05-.35.12-.81.2-.95l.01-.03c.08-.14.21-.38.21-.9 0-.56-.28-.83-.42-.9-.21.67-.8 1.2-.88 1.2-.07 0-.18-.1-.22-.15a2.53 2.53 0 01-.67-1.5c0-.18.28-.35.41-.42 0 0 .25.19.26.29 0 .1-.2.21-.3.26v.17l.52.73c.1-.08.34-.34.4-.73.07-.4.42-.64.6-.72l.43-.22v-.25c-.27-.11-.34-.6-.13-.98.17-.29.32-.64.37-.78l.05.13z" fill="#fff"/></svg>