<!-- by TradingView --><svg width="18" height="18" xmlns="http://www.w3.org/2000/svg"><path fill="#F0F3FA" d="M0 0h18v18H0z"/><path d="M8 11a2 2 0 100 4 2 2 0 000-4zm0 2.294a.294.294 0 110-.588.294.294 0 110 .588z" fill="#422160"/><path d="M6.5 7.5C5.12 7.5 4 8.592 4 9.938c0 1.345 1.12 2.437 2.5 2.437S9 11.284 9 9.938C9 8.592 7.88 7.5 6.5 7.5zm0 3.478c-.59 0-1.067-.466-1.067-1.04 0-.575.477-1.04 1.067-1.04s1.067.465 1.067 1.04c0 .574-.477 1.04-1.067 1.04z" fill="#02B2A8"/><path d="M7.925 11c-.843.015-1.451.645-1.816 1.348.123.014.25.032.377.032.969 0 1.74-.47 2.209-1.255a2.14 2.14 0 00-.77-.125z" fill="#185F55"/><path d="M10.5 3a3.5 3.5 0 100 7 3.5 3.5 0 000-7zm0 5.845a2.346 2.346 0 110-4.692 2.346 2.346 0 010 4.692z" fill="#6BBE45"/><path d="M7.172 7.59a3.519 3.519 0 001.816 2.07c-.226-1.2-1.101-1.894-1.816-2.07z" fill="#087B87"/></svg>