<!-- by TradingView --><svg xmlns="http://www.w3.org/2000/svg" width="18" height="18" viewBox="0 0 18 18"><path fill="#F0F3FA" d="M0 0h18v18H0z"/><path d="M6.87 12.42c.42 0 .84-.13 1.17-.41.46-.39.68-.98.64-1.6a1.58 1.58 0 00-1.81 2.01zM4 9c0-.98.28-1.9.76-2.66.15.21.33.4.56.54.5.32 1.14.35 1.71.12a1.57 1.57 0 00-1.71-1.38 5 5 0 017.7.4 1 1 0 00-.22.19 2.1 2.1 0 00-.49 1.84c.52.04 1.03-.15 1.4-.55l.05-.05c.16.49.24 1 .24 1.55v.12a1.76 1.76 0 00-2.43.31 1.97 1.97 0 002.29.76 5.02 5.02 0 01-2.1 2.98 1.75 1.75 0 00-.28-.52c-.38-.47-.97-.7-1.58-.66a1.58 1.58 0 00.8 1.72c-.46.17-.95.27-1.47.29l-.97-.05a5.01 5.01 0 01-3.43-2.2c.22-.03.43-.1.63-.2.6-.32.96-.9 1.05-1.59a1.74 1.74 0 00-2.2.77A5.2 5.2 0 014 9zm3.66-4.59c-.26.33-.42.74-.41 1.17.01.6.33 1.14.84 1.5a1.58 1.58 0 00-.42-2.66z" fill="#71BF44"/><path d="M9.08 7.52a1.31 1.31 0 112.63 0 1.31 1.31 0 01-2.63 0z" fill="#FFF200"/><path d="M6.6 8.44a1.06 1.06 0 112.13-.03 1.06 1.06 0 01-2.12.03z" fill="#FDB833"/><path d="M9.6 10.55c0-.52.42-.96.95-.97.53 0 .97.41.97.94a.96.96 0 01-1.91.03z" fill="#FFF200"/></svg>