<!-- by TradingView --><svg width="18" height="18" viewBox="0 0 18 18" xmlns="http://www.w3.org/2000/svg"><path fill="#489D50" d="M0 0h18v18H0z"/><path d="M9.05 12.896h-.08l-.48-.718c-.15-.223-.226-.405-.226-.546 0-.15.064-.268.193-.355.127-.087.304-.13.528-.13.231 0 .415.043.553.128a.39.39 0 01.204.346.676.676 0 01-.087.307c-.058.112-.258.435-.604.968zm0 .354h-.08l-.48.719c-.15.223-.226.405-.226.546 0 .149.064.268.193.355.127.086.304.13.528.13.231 0 .415-.043.553-.129a.39.39 0 00.204-.346.676.676 0 00-.087-.306 18.173 18.173 0 00-.604-.968zm.066-.123l-.04.063c.296.312.701.928 1.065 1.128.133.073.27.08.412.022a.742.742 0 00.368-.314c.117-.18.171-.343.165-.491a.37.37 0 00-.204-.327.768.768 0 00-.315-.081 33.42 33.42 0 00-1.45 0zm0-.118l-.04-.063c.296-.312.701-.929 1.065-1.128a.457.457 0 01.412-.022c.14.056.255.14.368.314.117.18.171.343.165.49a.37.37 0 01-.204.328.77.77 0 01-.315.08c-.128.01-.805.01-1.45 0zm-.238.118l.04.063c-.296.312-.701.928-1.065 1.128a.457.457 0 01-.411.022.744.744 0 01-.37-.314c-.115-.18-.17-.343-.164-.491a.369.369 0 01.204-.327.769.769 0 01.315-.081c.129-.01.805-.01 1.45 0zm0-.118l.04-.063c-.296-.312-.701-.929-1.065-1.128a.456.456 0 00-.411-.022.744.744 0 00-.37.314c-.115.18-.17.343-.164.49a.369.369 0 00.204.328.77.77 0 00.315.08c.129.01.805.01 1.45 0zm2.857-2.277h-.05l-.3-.447c-.092-.138-.14-.251-.14-.339 0-.093.04-.166.12-.22a.581.581 0 01.33-.082c.143 0 .257.027.343.08a.243.243 0 01.127.216.424.424 0 01-.054.19c-.037.07-.161.27-.376.602zm0 .22h-.05l-.3.447c-.092.138-.14.251-.14.339 0 .093.04.167.12.221.08.054.19.08.33.08a.643.643 0 00.343-.079.243.243 0 00.127-.215.425.425 0 00-.054-.191 11.85 11.85 0 00-.376-.602zm.041-.077l-.026.04c.184.193.437.577.663.7.082.045.167.05.255.014a.465.465 0 00.23-.195.528.528 0 00.102-.305.23.23 0 00-.127-.203.484.484 0 00-.196-.05c-.08-.006-.5-.007-.901 0zm0-.073l-.026-.039c.184-.194.437-.577.663-.701a.286.286 0 01.255-.014.46.46 0 01.23.195.527.527 0 01.102.305.23.23 0 01-.127.204.484.484 0 01-.196.05c-.08.006-.5.006-.901 0zm-.149.073l.025.04c-.184.193-.436.577-.662.7a.286.286 0 01-.256.014.465.465 0 01-.229-.195.528.528 0 01-.102-.305.23.23 0 01.126-.203.484.484 0 01.196-.05c.08-.006.5-.007.902 0zm0-.073l.025-.039c-.184-.194-.436-.577-.662-.701a.286.286 0 00-.256-.014.464.464 0 00-.229.195.527.527 0 00-.102.305.23.23 0 00.126.204.484.484 0 00.196.05c.08.006.5.006.902 0zm-5.295-.07h-.05l-.299-.447c-.093-.138-.14-.251-.14-.339 0-.093.04-.166.12-.22a.581.581 0 01.329-.082c.143 0 .258.027.343.08a.243.243 0 01.127.216.424.424 0 01-.054.19c-.036.07-.161.27-.376.602zm0 .22h-.05l-.299.447c-.093.138-.14.251-.14.339 0 .093.04.167.12.221a.58.58 0 00.329.08.643.643 0 00.343-.079.243.243 0 00.127-.215.426.426 0 00-.054-.191c-.036-.07-.161-.27-.376-.602zm.041-.077l-.025.04c.184.193.436.577.662.7.082.045.167.05.256.014a.465.465 0 00.23-.195.528.528 0 00.101-.305.23.23 0 00-.126-.203.484.484 0 00-.196-.05c-.08-.006-.5-.007-.902 0zm0-.073l-.025-.039c.184-.194.436-.577.662-.701a.286.286 0 01.256-.014.468.468 0 01.23.195.527.527 0 01.101.305.23.23 0 01-.126.204.484.484 0 01-.196.05c-.08.006-.5.006-.902 0zm-.148.073l.025.04c-.184.193-.436.577-.662.7a.286.286 0 01-.256.014.465.465 0 01-.23-.195.528.528 0 01-.102-.305.23.23 0 01.127-.203.484.484 0 01.196-.05c.08-.006.5-.007.902 0zm0-.073l.025-.039c-.184-.194-.436-.577-.662-.701a.286.286 0 00-.256-.014.464.464 0 00-.23.195.527.527 0 00-.102.305.23.23 0 00.127.204.484.484 0 00.196.05c.08.006.5.006.902 0zm2.767-1.605a.41.41 0 00-.211.087c-.203.222-.59.41-.857.255a.425.425 0 01-.152-.134c-.067-.12-.058-.215.028-.32.047-.057.072-.086.072-.088-.002-.011-.048-.065-.122-.16l-.034-.07c-.063-.292.4-.53.663-.409.072.034.163.069.228.12.145.11.252.245.422.256.155.01.355-.295.596-.388.284-.11.713.098.657.408l-.034.07c-.074.096-.12.15-.122.16 0 .002.024.032.073.09.085.103.094.198.027.32a.433.433 0 01-.152.133c-.267.155-.673-.002-.87-.237a.258.258 0 00-.212-.093zm0-1.402a.41.41 0 00-.211.087c-.203.222-.59.41-.857.255a.425.425 0 01-.152-.134c-.067-.121-.058-.216.028-.32.047-.058.072-.087.072-.089-.002-.01-.048-.064-.122-.16l-.034-.07c-.063-.292.4-.53.663-.408.072.033.163.068.228.119.145.11.252.246.422.257.155.01.355-.295.596-.389.284-.109.713.099.657.409l-.034.07c-.074.096-.12.15-.122.16 0 .002.024.031.073.089.085.104.094.199.027.32a.433.433 0 01-.152.134c-.267.154-.673-.003-.87-.237a.258.258 0 00-.212-.093zm0-1.438a.41.41 0 00-.211.087c-.203.222-.59.41-.857.255a.425.425 0 01-.152-.134c-.067-.12-.058-.216.028-.32l.072-.088c-.002-.012-.048-.065-.122-.16l-.034-.071c-.063-.292.4-.53.663-.408.072.033.163.068.228.119.145.11.252.246.422.257.155.01.355-.295.596-.388.284-.11.713.098.657.408l-.034.07c-.074.096-.12.15-.122.16 0 .002.024.031.073.089.085.104.094.199.027.32a.433.433 0 01-.152.134c-.267.154-.673-.003-.87-.237a.258.258 0 00-.212-.093zm0-1.421a.41.41 0 00-.211.088c-.203.222-.59.41-.857.255a.425.425 0 01-.152-.134c-.067-.121-.058-.216.028-.32.047-.058.072-.087.072-.089-.002-.01-.048-.064-.122-.16l-.034-.07c-.063-.292.4-.53.663-.408.072.033.163.068.228.118.145.11.252.247.422.257.155.01.355-.295.596-.388.284-.109.713.099.657.409l-.034.07c-.074.096-.12.149-.122.16 0 .002.024.03.073.089.085.104.094.199.027.32a.433.433 0 01-.152.134c-.267.154-.673-.003-.87-.237a.258.258 0 00-.212-.094zm.002-1.292a.293.293 0 00-.154.064c-.148.161-.43.298-.625.186a.313.313 0 01-.11-.098c-.05-.088-.042-.157.02-.233l.052-.065c-.001-.008-.035-.047-.088-.117l-.025-.051c-.046-.212.291-.386.483-.297.052.024.118.05.167.086.105.08.183.18.307.187.113.007.259-.214.435-.282.206-.08.52.071.478.297l-.025.052c-.054.07-.087.108-.088.116 0 .001.017.023.052.065.063.076.07.145.02.233a.315.315 0 01-.11.098c-.195.112-.491-.002-.635-.173a.188.188 0 00-.154-.068zm-.002 6.991a.41.41 0 00-.211.087c-.203.222-.59.41-.857.255a.425.425 0 01-.152-.134c-.067-.12-.058-.216.028-.32l.072-.088c-.002-.011-.048-.065-.122-.16l-.034-.07c-.063-.292.4-.53.663-.41.072.034.163.07.228.12.145.11.252.247.422.257.155.01.355-.295.596-.388.284-.11.713.098.657.408l-.034.07c-.074.096-.12.15-.122.16 0 .002.024.031.073.09.085.103.094.198.027.319a.433.433 0 01-.152.134c-.267.155-.673-.003-.87-.237a.258.258 0 00-.212-.093z" fill="#fff"/></svg>