<!-- by TradingView --><svg width="18" height="18" viewBox="0 0 18 18" xmlns="http://www.w3.org/2000/svg"><path fill="#51AD32" d="M0 0h18v18H0z"/><circle cx="9" cy="9" r="6" fill="#fff"/><path d="M8.138 5.437c2.914.719 3.854 5.071 2.501 7.167-.361.56-.896 1.139-1.64 1.41-2.026-.53-2.935-2.86-1.652-5.361.685-1.333 1.23-2.578.79-3.216z" fill="#0069B3"/><path d="M8.624 9.841c1.318.336 1.835 2.507 1.152 3.486-.184.264-.43.554-.781.686-.957-.258-1.401-1.393-.796-2.612.324-.65.632-1.249.425-1.56z" fill="#fff"/><path d="M15 9c0-3.305-2.696-6-6-6-3.305 0-6 2.695-6 6s2.695 6 6 6c3.304 0 6-2.695 6-6zm-1 0c.01 2.81-1.93 5-5 5-3.098 0-5-2.247-5-5 0-2.752 1.913-5 5-5 3.135 0 4.99 2.191 5 5z" fill="#F8AF00"/></svg>