<!-- by TradingView --><svg xmlns="http://www.w3.org/2000/svg" width="18" height="18" viewBox="0 0 18 18"><path fill="#F0F3FA" d="M0 0h18v18H0z"/><path fill-rule="evenodd" d="M8.2 6.9H6.95v4.14h4.16V6.9H9.86l-.83 1.12L8.2 6.9zm-.1.2h-.94v3.73h3.74V7.11h-.94l-.93 1.24L8.1 7.1zm1.97.32L9.2 8.58v1.95h1.41V7.42h-.53zM8 7.42l.89 1.16v1.95H7.47V7.42h.52z" fill="#0381D7"/><path opacity=".5" d="M9 13c2.29 0 4-1.92 4-4s-1.71-4-4-4-4 1.92-4 4 1.71 4 4 4zm6-4A6 6 0 113 9a6 6 0 0112 0z" fill="#0680DE"/></svg>