<!-- by TradingView --><svg xmlns="http://www.w3.org/2000/svg" width="18" height="18" viewBox="0 0 18 18"><path fill="#F0F3FA" d="M0 0h18v18H0z"/><path d="M8.25 7H3v4h1V8h1.35c.11 0 .15.07.15.17V11h1V8.17c0-.1.09-.17.2-.17h1c.17 0 .3.12.3.28V11h1V7.74c0-.4-.34-.74-.75-.74z" fill="#D0202D"/><path d="M13.92 7c1.3.02 1.16 1.02.93 1.52H13.7c.03-.38-.26-.52-.41-.52h-1.44c-.42-.01-.66.36-.72.52l-.26.8c-.17.54.26.68.5.68h1.44c.4 0 .65-.37.72-.56h1.15c-.25 1.26-1.03 1.56-1.4 1.56h-2.81c-1.17-.07-1.11-.97-.93-1.41l.43-1.45A1.63 1.63 0 0111.52 7h2.4z" fill="#192A58"/></svg>