<!-- by TradingView --><svg width="18" height="18" xmlns="http://www.w3.org/2000/svg"><path fill="url(#paint0_linear)" d="M0 0h18v18H0z"/><path d="M8.339 3l-1.263.38.433.91 1.08-.328L8.338 3zm1.389 0l1.263.38-.433.91-1.08-.328.25-.962zm2.305 1.03l.911.932-.835.589-.777-.799.701-.721zm-5.994 0l-.911.932.835.589.777-.799-.701-.721zM4.542 6.058l-.188 1.271 1.032.01.157-1.087-1.001-.194zm8.916.097l.188 1.27-1.032.011-.157-1.087 1.001-.194zm.082 2.467l-.555 1.166-.871-.537.477-.996.949.367zm-9.063 0l.554 1.166.872-.537-.477-.996-.949.367zm1.239 2.04l1.043.79.522-.865-.894-.673-.671.748zm6.529.032l-1.043.79-.522-.865.894-.673.671.748z" fill="#000"/><path fill-rule="evenodd" d="M9.006 10.999c2.084 0 3.773-1.642 3.773-3.667s-1.69-3.667-3.773-3.667c-2.084 0-3.774 1.642-3.774 3.667S6.922 11 9.006 11zm.002-.334c1.896 0 3.434-1.492 3.434-3.333C12.442 5.492 10.904 4 9.008 4 7.112 4 5.575 5.492 5.575 7.333c0 1.841 1.537 3.333 3.433 3.333z" fill="#000"/><path d="M7.918 11.879c.323-.478 0-.958-.187-1.111h2.59c-.503.328-.3.895-.15 1.11h-.425c.265.204.154.555.065.704l2.272.842V15h-.65c-.292-.209-1.173-.63-2.36-.645-1.187-.014-2.11.424-2.424.645h-.732v-1.576l2.363-.841c-.287-.251-.12-.574 0-.704h-.362zm4.165-4.547c0 1.657-1.38 3-3.083 3-1.702 0-3.083-1.343-3.083-3s1.38-3 3.083-3c1.703 0 3.083 1.343 3.083 3z" fill="#000"/><path d="M7 6.435h.554v1.618H7V6.435zm3.448 0h.555v1.618h-.555V6.435zM10 7.9c.184.204.294.107.326.033V6.685a635.41 635.41 0 00-1.08-.01c-.452-.464-.958-.505-1.19-.468-.056.007-.165.042-.16.122.004.08.083.092.115.11.28-.014.493.139.57.196.397.336 1.236 1.06 1.42 1.264z" fill="#F6B051"/><path d="M8.222 6.577H7.67v1.39c.25.178.402.038.606-.091.163-.104.252-.043.276 0l.754.73c.053.041.144.075.19.026.037-.04.038-.098.012-.132-.097-.074-.28-.239-.305-.287-.027-.05.027-.125.103-.075l.313.276c.03.029.094.038.131 0 .034-.036.037-.086 0-.13a2.865 2.865 0 01-.325-.318c-.066-.084.027-.13.087-.086l.254.262c.082.085.15.086.187.036.029-.04-.023-.125-.069-.173-.768-.803-1.428-1.286-1.662-1.428zm1.37-.325a.8.8 0 00-.42.129c.034.078.172.235.454.232.353-.003.349-.132.344-.19-.004-.057-.13-.175-.378-.171z" fill="#F6B051"/><rect width=".572" height=".258" rx=".129" transform="matrix(.7399 -.67272 .69255 .72137 7.989 8.26)" fill="#F5AA4C"/><rect width=".572" height=".258" rx=".129" transform="matrix(.7399 -.67272 .69255 .72137 8.214 8.479)" fill="#F5AA4C"/><rect width=".572" height=".258" rx=".129" transform="matrix(.7399 -.67272 .69255 .72137 8.468 8.685)" fill="#F5AA4C"/><rect width=".372" height=".258" rx=".129" transform="matrix(.7399 -.67272 .69255 .72137 8.835 8.768)" fill="#F5AA4C"/><defs><linearGradient id="paint0_linear" x1="9" y1="0" x2="9" y2="18" gradientUnits="userSpaceOnUse"><stop stop-color="#FFF385"/><stop offset="1" stop-color="#E94E04"/></linearGradient></defs></svg>