<!-- by TradingView --><svg width="18" height="18" xmlns="http://www.w3.org/2000/svg"><path fill="#F0F3FA" d="M0 0h18v18H0z"/><path d="M4.997 6.69c.633.52 1.11 1.079 1.673 1.681.107.128.222.244.329.372V13c-.711 0-1.292.002-2.003 0V6.69zM11 8.38a18.419 18.419 0 012-2.377v6.985c-.666.002-1.333.002-2 0 0-1.536.002-3.072 0-4.608z" fill="#0060AA"/><path d="M14.33 5.03c.223-.013.446-.04.67-.026-.215.134-.42.283-.629.428-.658.47-1.292.98-1.897 1.529a16.57 16.57 0 00-1.95 2.054 16.722 16.722 0 00-1.944 2.933c-.053.117-.116.227-.167.345-.074.138-.124.288-.191.43-.034.088-.07.175-.096.266 0-.188.03-.374.04-.562.031-.23.044-.464.093-.692.031-.223.07-.444.114-.665.04-.145.063-.295.102-.44.045-.147.077-.297.12-.444.11-.36.234-.717.383-1.061.055-.11.095-.228.155-.335.495-1.038 1.226-1.946 2.126-2.587.315-.23.654-.42 1-.59.2-.086.4-.178.61-.243.153-.066.316-.098.473-.152.196-.05.393-.093.592-.125.13-.038.265-.037.396-.062zM4 6.003c.307.004.617.014.918.09.255.045.502.134.745.232.121.063.25.11.365.186.245.143.477.312.686.512.614.568 1.051 1.332 1.346 2.143.064.17.12.344.167.521.05.15.083.307.117.462.038.196.092.39.098.592a.813.813 0 00-.08-.139 10.173 10.173 0 00-.75-1.063 13.47 13.47 0 00-.519-.61c-.098-.122-.207-.234-.305-.355A17.092 17.092 0 005.14 6.966c-.374-.33-.757-.647-1.141-.963z" fill="#AFCE4C"/></svg>