<!-- by TradingView --><svg xmlns="http://www.w3.org/2000/svg" width="18" height="18"><path fill="#E2001A" d="M0 0h18v18H0z"/><path d="M6.06 6.94L4 9l2.04 2.04c.19-.02.6-.1.66-.62.1-.87.17-2.48.19-2.9.01-.4-.47-.57-.83-.58zm.16-.16h1.2L8.95 9.9c.02.05.07.12.14 0a33.4 33.4 0 001.65-3.13h1.03L9 4 6.22 6.78zm5.72.16c-.22.02-.64.19-.63.58v3.03c0 .16.05.49.65.5L14 9l-2.06-2.06zm-.16 4.28h-1.55c-.04 0-.11-.02-.11-.08 0-.05.07-.09.1-.1.14-.03.44-.17.45-.49V7.82l-.3.52c-.55 1.02-1.26 2.3-1.41 2.8-.03.05-.05.08-.1.08a.11.11 0 01-.11-.08A26.62 26.62 0 007.23 7.8c-.07.65-.11 1.86-.12 2.69 0 .17.1.52.52.55.03 0 .09.04.09.1 0 .07-.1.08-.14.08H6.22L9 14l2.78-2.78z" fill="#fff"/></svg>