<!-- by TradingView --><svg width="18" height="18" viewBox="0 0 18 18" xmlns="http://www.w3.org/2000/svg"><path fill="#F0F3FA" d="M0 0h18v18H0z"/><path d="M15.93 8.005c-.39.32-1.563.778-2.275.32L12 7.181l-.275.16 4.205 2.906c-1.057.412-2.275 1.235-3.148 1.967L9.656 9.995c.46-.343 1.54-.755 2.252-.297l1.678 1.166.23-.16L9.61 7.776c.897-.32 2.528-1.327 3.149-1.99l3.171 2.219z" fill="#E20A17"/><path d="M3 10.575v.819c0 .33.256.606.583.606h.767L3 10.575zm2.842-1.266c-.01-.33-.358-.607-.358-.607L3 6v.745a2 2 0 00.112.691c.112.298 1.35 1.468 1.35 1.468.092.096.02.139.02.139-.05.053-.143-.075-.143-.075L3 7.585V8.5c.01.106.04.223.072.33.06.255.357.468.531.649.127.132.828.872.828.872.092.096.02.138.02.138-.05.054-.142-.074-.142-.074L3 9.053v1.138c0 .054.01.16.072.256L4.519 12h1.323V9.309zM9 10.585L7.65 12h.767A.594.594 0 009 11.394v-.809zM6.158 12h1.294l1.466-1.564A.493.493 0 009 10.181V9.053l-1.318 1.362s-.092.128-.143.074c0 0-.072-.042.02-.138 0 0 .697-.724.828-.872.174-.181.47-.394.541-.65.031-.106.05-.224.06-.33.01-.085.012-.17.012-.265v-.649L7.66 8.968s-.092.128-.143.075c0 0-.071-.043.02-.139l.951-.99c.133-.137.327-.286.399-.478A2 2 0 009 6.745V6L6.507 8.702s-.329.287-.35.607V12z" fill="#143C84"/></svg>