<!-- by TradingView --><svg xmlns="http://www.w3.org/2000/svg" width="18" height="18" viewBox="0 0 18 18"><path fill="#F0F3FA" d="M0 0h18v18H0z"/><path d="M15 8.98c0 2.2-2.69 3.99-6 3.99s-6-1.79-6-3.99S5.69 5 9 5s6 1.78 6 3.98z" fill="#F3E7B4"/><path fill-rule="evenodd" d="M12.97 11.41c1-.66 1.53-1.53 1.53-2.41 0-.88-.54-1.75-1.53-2.41A7.3 7.3 0 009 5.5a7.3 7.3 0 00-3.97 1.09C4.03 7.25 3.5 8.12 3.5 9c0 .88.54 1.75 1.53 2.41A7.3 7.3 0 009 12.5a7.3 7.3 0 003.97-1.09zM9 13c3.31 0 6-1.8 6-4s-2.69-4-6-4-6 1.8-6 4 2.69 4 6 4z" fill="#1B2966"/><path d="M13.21 9c0 1.47-1.95 2.67-4.37 2.67-2.4 0-4.36-1.2-4.36-2.67s1.95-2.67 4.36-2.67c2.42 0 4.37 1.2 4.37 2.67z" fill="#F0F3FA"/><path fill-rule="evenodd" d="M11.67 10.46c.71-.44 1.04-.97 1.04-1.46 0-.5-.33-1.03-1.04-1.46a5.5 5.5 0 00-2.83-.7c-1.13 0-2.12.27-2.82.7-.71.43-1.04.96-1.04 1.46s.33 1.02 1.04 1.46c.7.42 1.7.7 2.82.7a5.6 5.6 0 002.83-.7zm-2.83 1.2c2.42 0 4.37-1.19 4.37-2.66 0-1.47-1.95-2.67-4.37-2.67-2.4 0-4.36 1.2-4.36 2.67s1.95 2.67 4.36 2.67z" fill="#1B2966"/><path d="M6.05 9.1c-.01.37.45.37.68.33-.37 0-.59-.09-.58-.32 0-.2.2-.15.28-.11.04.06.12.06.15.06.27-.04.3-.22.3-.3-.25.06-.34-.02-.35-.07.18-.06.24-.2.26-.25v-.8l.23-.1.16.14v.4h-.24v.2h.24v.4l-.16.24h.16l.22.14.2-.24c-.15-.03-.2-.1-.2-.13V7.65a.7.7 0 01.38 0v.42h-.19v.21h.19v.48c.04.15.18.26.25.3l.2-.3a.2.2 0 01-.2-.18v-.93l.2-.19h-.2l-.12-.07-.32.16-.33-.16-.39.16c-.35.05-.4.37-.37.52h-.2c-.12.07-.07.35 0 .32a.35.35 0 00.13-.1h.1a.7.7 0 01-.1.4c-.12-.01-.36.06-.38.42zm2.23.01c0 .33.43.3.64.24-.48 0-.56-.16-.54-.24a.21.21 0 01.2-.15.8.8 0 01.34.1l.2-.34h-.37l.1-.26h.57l.18.36c.08.16.2.26.25.29l.25-.4h-.25l-.48-1.08c-.02-.1-.1-.31-.31-.3-.21.02-.35.2-.4.29.27-.14.38 0 .4.08-.36.01-.43.21-.42.31.13-.14.24-.05.28 0l-.28.7c-.13 0-.37.07-.36.4zm2.66-1.77a1 1 0 01.56.16l-.25.23c-.06-.18-.26-.26-.35-.27-.08-.02-.26 0-.3.18-.02.19.54.19.82.16l.23-.25.1.04-.21.27c.36.06.3.4.22.55l-.68.65-.33-.13c-.1.12-.77.71-.72.23.04-.38.54-.5.78-.52l.2-.28c-.13 0-.36-.04-.45-.06-.31-.1-.28-.29-.22-.37.13.15.63.22.87.23.28.1.2.3.12.37 0-.12-.16-.13-.25-.12l-.14.23.31.1c.12-.07.34-.26.33-.44 0-.23-.3-.22-.64-.25-.33-.03-.54-.17-.54-.32-.01-.16.21-.4.54-.4z" fill="#E0167A"/><path d="M9.2 9.73c-2.5.05-4.89.45-5.78.64-.28.06-.39.26-.41.35 0 .06-.02.27 0 .62s.28.38.41.35a24.33 24.33 0 0111.16-.12c.33.1.41-.11.41-.23 0-.16.02-.53 0-.68a.4.4 0 00-.17-.29c-.83-.23-3.13-.69-5.62-.64z" fill="#F0F3FA"/><path d="M14.7 10.6c-.85-.23-3.08-.67-5.5-.62-2.47.05-4.85.45-5.72.64a.33.33 0 00-.18.09.2.2 0 00-.04.06 4.71 4.71 0 00.02.65l.02.02h.06a24.48 24.48 0 0111.38-.1v-.01a6.04 6.04 0 00-.03-.72zM9.2 9.48c2.51-.05 4.83.41 5.69.65l.03.01.03.02c.1.06.26.22.29.47l-.25.03.25-.03c.02.18 0 .56 0 .72 0 .1-.03.26-.16.37-.15.14-.35.16-.57.09a24.2 24.2 0 00-11.02.12.62.62 0 01-.44-.05c-.17-.1-.28-.28-.29-.53-.02-.35 0-.58 0-.66v-.02a.75.75 0 01.61-.54c.9-.2 3.31-.6 5.82-.65z" fill="#1B2966"/></svg>