<!-- by TradingView --><svg width="18" height="18" xmlns="http://www.w3.org/2000/svg"><path fill="#F0F3FA" d="M0 0h18v18H0z"/><path d="M10.686 5.898L8.21 7.494a1.123 1.123 0 00-.335 1.552l1.596 2.477c.336.52 1.03.671 1.552.335l2.477-1.596c.521-.336.671-1.03.335-1.552l-1.596-2.477a1.123 1.123 0 00-1.552-.335z" fill="#24346C"/><path d="M7.669 4.505L6.347 3.48a.806.806 0 00-1.131.142L4.189 4.943a.806.806 0 00.142 1.13L5.653 7.1a.806.806 0 001.131-.142l1.027-1.321a.806.806 0 00-.142-1.132z" fill="#0099A8"/><path d="M8.752 12.519l-1.377-.127a.53.53 0 00-.576.479l-.128 1.376a.53.53 0 00.48.577l1.376.127a.53.53 0 00.577-.479l.127-1.377a.53.53 0 00-.479-.576z" fill="#98999A"/></svg>