<!-- by TradingView --><svg xmlns="http://www.w3.org/2000/svg" width="18" height="18" viewBox="0 0 18 18"><path fill="#ED3237" d="M0 0h18v18H0z"/><path d="M3 7.95c.13-1.44 1.85-3.14 3.14-3.77-2.33 1.85-2.56 2.9-2.5 3.04.05.15.31.17.5.14C6.76 7 9.17 5.2 10.06 4.4L9.88 4c.33.06 1.8.15 2.5.18a10.11 10.11 0 01-1.34 2.56l-.2-.47c-1.36 1.13-4.9 2.6-6.47 2.58-1.26-.02-1.4-.6-1.37-.9zm1.67 2.07c-.76 0-1.3-.3-1.47-.46.18 2.03 1.87 2.25 2.86 2.24 2.97-.03 6.32-2.53 7.62-3.77l.18.41A13.9 13.9 0 0015 5.52c-.9.23-2.03.2-2.48.16l.3.5c-3.54 3.27-7.02 3.84-8.15 3.84zm-.26 2.56a7 7 0 005.22-.6l-.18-.47c.43.07 1.58.2 2.75.14-.1.34-.54 1.22-1.42 2.05l-.18-.35c-1.39.63-4.57 1.36-6.19-.77z" fill="#fff"/></svg>