<!-- by TradingView --><svg width="18" height="18" xmlns="http://www.w3.org/2000/svg"><path fill="#F0F3FA" d="M0 0h18v18H0z"/><path d="M8.891 4.267c.008.079.074.11.138.116.154.016.55-.079.543-.264-.004-.084-.074-.11-.138-.117L9.39 4c-.194 0-.514.117-.499.267zm-1.39-.142c-.135 0-.282.07-.325.164-.01.021-.019.055-.005.086.014.03.038.038.068.044.105.02.284-.044.346-.142.018-.027.032-.063.018-.099-.01-.025-.043-.053-.101-.053H7.5zm3.049.45c-.006.089.103.12.17.124.13.012.42-.067.432-.23.007-.09-.104-.12-.171-.126h-.024c-.138 0-.396.078-.407.232zM6.813 4.42c-.187.024-.38.145-.424.283-.01.031-.017.08.007.121.023.039.057.046.1.05.15.011.387-.108.46-.255.02-.042.033-.094.009-.14-.016-.03-.059-.06-.123-.06h-.029v.001zm1.146.154c-1.152.622-2.1 1.507-2.708 2.597a5.9 5.9 0 00-.738 3.123l-.022-.074a4.535 4.535 0 01.135-2.75c.233-.637.6-1.227 1.052-1.731.149-.167.457-.432.533-.52.059-.071.1-.161.064-.232-.027-.053-.073-.072-.133-.072-.252 0-.636.398-.801.582A5.208 5.208 0 004 8.964c0 1.51.627 3.1 2.057 4.19a1.2 1.2 0 00.26.151c.02.007.035 0 .042-.011.006-.01.006-.03-.005-.044a.665.665 0 01-.13-.198.375.375 0 01.004-.16c.122-.577.678-.963 1.263-1.387.362-.263 1.928-1.134 2.64-1.724.233-.193.327-.3.337-.404a.167.167 0 00-.047-.139.141.141 0 00-.088-.042c-.119-.014-.255.032-.414.164-.817.677-2.048 1.339-2.914 2.04-.504.41-.883.831-.987 1.278l-.027-.023c.13-1.658 2.27-2.741 3.37-3.683.268-.23 1.107-.9 1.236-1.2.042-.1.02-.198-.04-.237a.212.212 0 00-.163-.03c-.13.029-.284.16-.45.32-1.362 1.325-2.494 1.92-3.268 2.767-.431.473-.752 1.025-.939 1.825a1.765 1.765 0 00-.029-.029c.07-1.211.83-2.4 1.728-3.225.32-.294.531-.465.662-.592.078-.076.13-.186.073-.289-.044-.078-.132-.09-.212-.078-.132.018-.22.09-.316.167a6.266 6.266 0 00-1.56 1.878 5.753 5.753 0 00-.629 1.855 1.197 1.197 0 01-.026-.03c.069-1.849.892-3.197 2.043-4.266.277-.257.523-.428.814-.66.226-.182.27-.34.212-.438-.054-.09-.155-.09-.279-.051-.238.076-.483.302-.802.594-.72.664-1.301 1.368-1.692 2.222-.299.654-.486 1.395-.54 2.271a8.128 8.128 0 00-.024-.034 4.855 4.855 0 010-.73c.056-.863.185-2.66 2.582-4.666.428-.357 1.134-.78 1.636-1.043.154-.08.305-.15.448-.249.084-.058.133-.143.106-.23-.028-.088-.103-.104-.182-.104-.162 0-.296.075-.435.147C8.2 5.406 6.927 6.249 6.03 7.52c-.68.964-1.144 2.174-1.16 3.696l-.023-.045a6.098 6.098 0 01-.068-1.01c.043-2.388 1.417-4.05 3.307-5.196.158-.096.32-.2.32-.345 0-.095-.068-.144-.154-.144-.087 0-.163.028-.292.098zm3.92.278c-.008.008-.012.026-.002.038 1.178 1.347.696 3.307-.153 4.322-.751.896-1.724 1.525-2.602 2.014-.066.037-.165.086-.216.14-.08.085-.106.161-.07.243.035.077.104.11.224.095.066-.008.215-.059.31-.108.82-.43 1.678-1.023 2.341-1.784.813-.93 1.33-2.112 1.119-3.54.015.022.027.036.037.055.443 1.129.076 2.549-.908 3.807-.692.887-1.692 1.694-2.927 2.264-.094.042-.236.117-.288.227a.192.192 0 00.004.17c.022.04.06.07.114.074.158.01.311-.073.45-.144 1.975-1.003 4.131-2.835 4.012-5.548.011.032.023.055.03.073.215 1.114-.03 2.1-.483 2.93-.386.706-.924 1.299-1.462 1.757-.29.247-.405.386-.336.51.071.126.256.066.367-.003a2.96 2.96 0 00.557-.479c.886-.92 1.545-1.91 1.695-3.561.007.08.019.167.021.221.03.84-.129 1.6-.429 2.263a4.946 4.946 0 01-2.132 2.286c-.19.104-.26.221-.219.335.023.065.083.098.151.104a.371.371 0 00.23-.06C12.976 12.635 14 10.92 14 8.962c0-1.43-.61-2.956-1.964-4.054a.319.319 0 00-.123-.065h-.006a.036.036 0 00-.027.012zm-1.25.592c-.007.07.058.103.115.11.129.013.37-.093.386-.242.006-.07-.058-.104-.116-.11a.218.218 0 00-.023 0c-.132 0-.347.102-.362.242zm-.946.44c-.007.076.06.12.125.125.17.015.526-.145.543-.343.006-.076-.06-.119-.126-.124h-.022c-.177 0-.504.154-.52.343zm-.329.107c-.21 0-.623.248-.63.48-.003.088.067.124.142.126.206.007.631-.246.64-.48.002-.085-.07-.124-.143-.126h-.009zm1.842.51c0 .061.035.114.099.114.134 0 .27-.21.27-.336 0-.062-.033-.114-.098-.114-.134 0-.27.208-.27.336zm-.364.452a.756.756 0 00-.103.149.392.392 0 00-.046.149c-.004.074.038.137.109.137a.278.278 0 00.143-.05.797.797 0 00.248-.28.352.352 0 00.042-.15c0-.078-.047-.116-.12-.116-.087 0-.19.07-.273.161zm-1.448.231h-.001c-.086.038-.202.135-.202.241 0 .07.062.103.123.103.128 0 .327-.127.327-.272 0-.07-.062-.102-.123-.102a.29.29 0 00-.124.03zm-1.11.829c0 .096.085.134.166.134.193 0 .596-.259.596-.478 0-.1-.089-.134-.172-.134-.19 0-.59.265-.59.478zm3.036.154c0 .075.048.14.125.14.146 0 .289-.182.289-.325 0-.076-.049-.14-.126-.14-.145 0-.288.181-.288.325zm-.327.347a.812.812 0 00-.226.166.588.588 0 00-.147.24c-.017.066-.01.134.02.17.037.046.105.055.156.046a.516.516 0 00.27-.168.667.667 0 00.167-.3c.016-.081-.008-.13-.04-.157a.123.123 0 00-.083-.03.266.266 0 00-.117.033zm-3.087 3.357c-.061.058-.087.131-.065.189.03.082.093.09.157.09.127 0 .424-.09.565-.236.044-.044.071-.113.056-.173-.02-.07-.093-.1-.156-.1-.131 0-.43.11-.557.23zm2.732.755a1.053 1.053 0 00-.498.293c-.05.063-.066.136-.038.188.04.073.1.072.16.064.12-.017.39-.141.505-.299.036-.048.054-.117.031-.17-.023-.056-.08-.078-.132-.078a.127.127 0 00-.028.003zm-2.856.389c-.061.051-.09.12-.072.177.025.08.086.09.146.093.12.007.408-.065.55-.196.044-.041.073-.105.061-.162-.014-.07-.084-.102-.143-.104l-.014-.001c-.131 0-.406.088-.528.193zm-.578.196a.605.605 0 00-.286.083c-.05.03-.09.078-.086.137.006.07.059.096.127.103a.517.517 0 00.31-.065c.049-.03.093-.091.09-.151-.005-.079-.074-.106-.15-.107h-.005zm1.91.234c-.053.048-.074.113-.056.161.026.071.08.078.135.078.11 0 .364-.078.486-.204.038-.038.061-.097.048-.148-.016-.061-.08-.087-.134-.087a.954.954 0 00-.48.2zm1 .24c-.07.048-.109.12-.097.18.016.072.08.105.17.104.11 0 .252-.045.339-.106.062-.043.104-.108.085-.177-.02-.076-.099-.103-.158-.105h-.013a.64.64 0 00-.326.104zm-1.668-.005a.534.534 0 00-.267.089c-.044.03-.078.079-.07.133.011.068.063.092.128.096a.47.47 0 00.286-.072c.045-.032.08-.092.072-.148-.01-.074-.073-.098-.142-.098h-.007z" fill="url(#paint0_radial)"/><defs><radialGradient id="paint0_radial" cx="0" cy="0" r="1" gradientUnits="userSpaceOnUse" gradientTransform="rotate(134.212 4.92 4.893) scale(9.95454 9.95077)"><stop stop-color="#F3681F"/><stop offset=".55" stop-color="#D5068D"/><stop offset="1" stop-color="#632489"/></radialGradient></defs></svg>