<!-- by TradingView --><svg xmlns="http://www.w3.org/2000/svg" width="18" height="18"><path fill="#FBB031" d="M0 0h18v18H0z"/><circle cx="9" cy="9" r="5" fill="url(#aex3zn3x3)"/><path d="M6 11v.34h1.81v-.35h-.28c-.33 0-.4-.37-.4-.55l.24-2.37 1.33 3.27h.27l1.4-3.27.2 2.52c0 .25-.09.4-.26.4H10v.35h2v-.35h-.17c-.35 0-.46-.33-.47-.5l-.22-3.08a.36.36 0 01.3-.4h.26v-.35h-1.22l-1.44 3.35-1.4-3.35H6.27v.35h.36c.4.05.36.32.34.5-.06.74-.2 2.36-.28 2.87-.07.52-.31.62-.42.61H6z" fill="#393636"/><defs><linearGradient id="aex3zn3x3" x1="13.08" y1="5.51" x2="4.86" y2="11.58" gradientUnits="userSpaceOnUse"><stop stop-color="#FFFCBE"/><stop offset=".17" stop-color="#FEFFEC"/><stop offset=".35" stop-color="#F6ED7C"/><stop offset=".63" stop-color="#FDF31C"/><stop offset=".87" stop-color="#FCBB29"/><stop offset="1" stop-color="#FFE410"/></linearGradient></defs></svg>