<!-- by TradingView --><svg width="18" height="18" xmlns="http://www.w3.org/2000/svg"><path fill="#F0F3FA" d="M0 0h18v18H0z"/><path d="M12.432 6.552L8.672 3c-.755.657-.78 1.744-.06 2.43l2.51 2.362" fill="url(#paint0_linear)"/><path opacity=".64" d="M11.548 5.707l.885.845-1.31 1.24-.912-.869 1.337-1.216z" fill="url(#paint1_linear)"/><path d="M8.94 9.856l3.493-3.304c.768.73.754 1.913-.032 2.628l-2.09 1.897a1.028 1.028 0 01-1.357 0 .816.816 0 01-.014-1.22z" fill="#D61360"/><path d="M5.568 11.724L9.023 15c.755-.657.78-1.744.06-2.43l-2.205-2.086" fill="url(#paint2_linear)"/><path opacity=".64" d="M6.453 12.57l-.885-.845 1.31-1.24.912.869-1.337 1.215z" fill="url(#paint3_linear)"/><path d="M5.6 9.096l2.303-2.092c.374-.34.981-.34 1.353 0A.815.815 0 019.27 8.22l-3.703 3.503A1.773 1.773 0 015.6 9.096z" fill="url(#paint4_linear)"/><defs><linearGradient id="paint0_linear" x1="12.432" y1="5.396" x2="8.088" y2="5.396" gradientUnits="userSpaceOnUse"><stop stop-color="#9055A2"/><stop offset=".186" stop-color="#9D4D98"/><stop offset=".545" stop-color="#BB3182"/><stop offset=".692" stop-color="#C81A78"/></linearGradient><linearGradient id="paint1_linear" x1="11.079" y1="6.517" x2="11.957" y2="7.422" gradientUnits="userSpaceOnUse"><stop stop-color="#fff" stop-opacity="0"/><stop offset=".244" stop-color="silver" stop-opacity=".244"/><stop offset="1"/></linearGradient><linearGradient id="paint2_linear" x1="5.568" y1="12.742" x2="9.607" y2="12.742" gradientUnits="userSpaceOnUse"><stop stop-color="#0B9DD4"/><stop offset=".848" stop-color="#A4CE49"/></linearGradient><linearGradient id="paint3_linear" x1="6.921" y1="11.759" x2="6.044" y2="10.854" gradientUnits="userSpaceOnUse"><stop stop-color="#fff" stop-opacity="0"/><stop offset="1"/></linearGradient><linearGradient id="paint4_linear" x1="4.498" y1="11.396" x2="10.382" y2="6.953" gradientUnits="userSpaceOnUse"><stop stop-color="#A7DEEE"/><stop offset="1" stop-color="#0B9DD4"/></linearGradient></defs></svg>