<!-- by TradingView --><svg width="18" height="18" viewBox="0 0 18 18" xmlns="http://www.w3.org/2000/svg"><path fill="#ED1C23" d="M0 0h18v18H0z"/><path d="M7.07 14.887s-.012-1.104-.318-1.9c0 0-.577-.944-.667-1.103l-.238-1.002-.555-1.046-.057-.41-.204-.16s-.509-.318-.622-.899l-.35-.387-.012-.204.067-.125v-.137l.034-.101-.023-.115.125-.204s.027-1.185.423-1.97h.091l.136-.308.056-.09.125-.057.079-.182.136-.102.124-.012.012-.08.193-.136.135.033.023-.125.248-.16h.148l.035-.079.26-.125.112.046.046-.092.34-.113.123.045.023-.09.34-.08.202.102.046-.16.34-.068.135.16.034-.17.384-.024.08.092.09-.023v-.08l.452-.011.012.17h.124l-.011-.17.464.034.034.16.17-.126.384.069.024.148.113-.114.327.068.08.17.135-.102.283.091.09.148.126-.046.282.103.067.148.102-.068.227.124.067.126.08-.012.237.148.069.148.09-.023.113.114.045.17s.057-.044.113-.011c0 0 .16.102.181.341 0 0 .012-.022.057-.022 0 0 .102.056.147.307l.069.023.158.534.09.262s.165.502.097 1.651c0 0 .192.012.057.49 0 0-.044.318-.339.454l-.057.011s.08.046.034.137l-.102.114s-.046.17-.136.205l-.136.147-.25.091-.101-.023-.034.591-.272.638-.023.398-.135.341-.136.581-.203.5-.182.433-.396.569-.215.591-.237.774-.69.057-.306.103-.124-.057-1.03-.034-1.785-.022z" fill="#fff"/><path d="M5.676 7.876c1.107-1.024 3.39-1.013 3.39-1.013 2.77.098 3.447 1.186 3.446 1.184-.124.046-.154.18-.154.18-.045.092-.056.297-.056.297-.023.353-.192.569-.192.569a9.305 9.305 0 01-.262.546c-.878.506-2.147.533-2.147.533a.811.811 0 00-.225-.069 1.256 1.256 0 01-.152-.042c-.04-.012-.071-.023-.105-.027a.459.459 0 01-.161.014c-.018-.001-.036-.003-.06-.002-.101.003-.156.003-.156.003-.228-.051-.326.084-.326.084-1.096.011-2.112-.516-2.173-.549.053.193.048.326.048.326-.005.41.182.46.182.46.14.109.418.393.418.393.187.307.374.984.374.984l.197.125c.096.096.334.17.334.17.13.037.314.41.314.41.016.02.13.004.13.004.08.005.08-.068.08-.068l.018-.153c.033-.218-.034-.29-.034-.29-.034-.128-.129-.091-.129-.091-.08-.017-.13-.097-.13-.097a1.542 1.542 0 01-.06-.184c-.063-.155.03-.25.03-.25.037-.073.021-.121.021-.121a.71.71 0 00-.03-.119c-.034-.086-.008-.15-.008-.15l.042-.195c-.008-.069.076-.243.076-.243a.548.548 0 01.149-.12.212.212 0 00.124-.116c.095-.14.133-.127.133-.127.056-.025-.01.047-.01.047-.034.03-.12.149-.12.149-.029.008-.004.072-.004.072-.047.06-.004.077-.004.077.06-.004.085-.063.085-.063a.158.158 0 01.004-.082c.021-.05.085-.068.085-.068.03-.055.06-.102.06-.102.108-.064.18-.047.18-.047.074.047.1.017.1.017.07-.004.093.047.093.047.063.06.05 0 .05 0 .021-.013-.026-.056-.026-.056-.02-.021-.076-.064-.076-.064l.08.009.132.077c.06.064.064.034.064.034.107-.009.148.021.148.021.06.056.047-.008.047-.008.007-.017-.009-.037-.021-.052-.01-.01-.016-.019-.009-.02.017-.004.054.013.054.013.018.017.025.047.025.047.066.061.08.087.08.087.029.058-.022.138-.022.138l-.03-.025c0-.037-.08-.072-.08-.072a.376.376 0 00-.133-.068c-.034-.017-.13-.008-.13-.008-.031 0-.068-.011-.068-.011-.031-.012-.068-.003-.068-.003a1.048 1.048 0 00-.144.008c-.138.01-.187.074-.187.074-.005.057-.06.143-.06.143l-.002.068c.062-.036.159-.01.159-.01l.08-.006c-.001.08-.06.038-.06.038-.051.049-.144.027-.144.027-.013.006-.058.01-.058.01a.852.852 0 01-.127.098c-.023.088-.046.101-.046.101-.045.034-.042.104-.042.104.02.043.008.134.008.134-.02.126.06.173.06.173a.14.14 0 01.095.097v.116l-.019.004c-.005-.05-.071-.103-.071-.103-.086-.052-.06.04-.06.04.009.022.04.133.04.133-.002.11.08.134.08.134.064.04.155.011.155.011.077-.036.136-.05.136-.05.02 0 .028-.014.041-.036a.35.35 0 01.028-.039c.033-.043.078-.023.078-.023.062.018.286.03.371.023.045-.004.028.043.028.043-.003.025.017.054.017.054a.985.985 0 01.102.085c.051.054-.017.105-.017.105-.06.053-.014.057-.006.053a3.74 3.74 0 01.136-.016c.09.014.105-.069.105-.069.023-.008.034-.17.034-.17.04-.173.02-.253.02-.253-.027-.032-.016-.1-.016-.1.033-.122-.015-.21-.015-.21.017-.068.009-.08.004-.086-.002-.002-.004-.004-.004-.008 0-.014-.042-.15-.042-.15a1.37 1.37 0 00-.11-.268.113.113 0 00-.013-.033c.02.007.071.027.148.062 0 0 .102.094.093.136 0 0 .052.17.043.196l-.043.231s0 .205.013.226c0 0 .019.02.043.032.047.017.082.037.072.049 0 0 .021.013.026.166 0 0 .004.081-.039.145 0 0-.004.107-.077.124 0 0-.01.023-.114-.002 0 0-.059.032-.038.27 0 0 .013.282.03.312l.03.12s.17-.025.309-.017l.209.019s.1-.134.139-.147c0 0 .076-.053.238-.082l.203-.123s.064-.021.056-.15c0 0 .008-.136.085-.345 0 0 .063-.192.063-.213a.72.72 0 01.045-.11c.03-.065.063-.14.07-.172 0 0 .093-.158.17-.226 0 0 .123-.073.165-.163 0 0 .102-.042.124-.341 0 0 .042-.362.055-.396 0 0 .004-.026.051-.124l.076-.163s.027-.169.14-.303c0 0 .115-.273.162-.34 0 0 .11-.249.14-.3 0 0 .038-.273.068-.324 0 0 .007-.209.033-.23 0 0-.017-.043.055-.077 0 0 .064-.077.132-.099 0 0 .012-.08.2-.042 0 0 .266.022.287.03 0 0 .17.045.29.017 0 0 .139 0 .198-.034 0 0 .055-.013.157-.153 0 0 .051-.137.123-.145 0 0 .106.044.114.108l-.012.05s.017.016.025.059c0 0 .004.058-.006.09 0 0-.005.118-.021.16 0 0-.021.086-.059.12 0 0 .008.077-.056.15 0 0-.023.11-.131.196 0 0-.115.039-.132.06 0 0-.306.158-.522.102 0 0-.131.008-.128.068 0 0-.067.407-.076.572 0 0-.013.56-.05.567 0 0-.275.723-.251.7 0 0-.021.213-.013.238 0 0-.106.26-.123.32 0 0-.033.218-.072.282 0 0-.085.393-.098.461 0 0-.094.26-.241.499l-.001.002c-.067.24-.105.379-.373.749 0 0-.212.218-.255.414 0 0-.004.11-.072.23l-.076.175s-.03.18-.064.248c0 0-.025.107-.06.166 0 0-.042.222-.05.248-.008.025-.004.064-.004.064l-.17.003s.055-.084.076-.213c0 0 .035-.14.064-.226 0 0 .038-.14.03-.175-.006-.025.018-.077.041-.126l.023-.049s.089-.128.098-.192c0 0 .046-.098.067-.264 0 0 .06-.141.127-.24 0 0 .038-.078.073-.093 0 0 .272-.342.39-.644 0 0 .069-.222.174-.367 0 0 .089-.111.114-.247 0 0 .047-.064.047-.18 0 0 .043-.268.06-.281l.02-.14-.031-.078c-.013-.057.027-.12.027-.12.023-.034.069-.245.069-.245l.056-.08.057.057.011-.21c.002-.09.043-.147.043-.147-.053-.09.037-.228.037-.228.09-.228.197-.421.197-.421l.016-.215a.79.79 0 00.009-.225l-.007-.065c-.004-.038-.007-.068 0-.076.056-.125.069-.29.076-.38a.893.893 0 01.005-.055c.02-.12.05-.214.05-.214.016-.07.052-.208.15-.26a.236.236 0 01.053-.021l.038-.013c.032.02.07-.013.07-.013.004-.094.072-.055.072-.055.069.025.125-.054.125-.054.11-.02.38-.153.38-.153.01-.05.091-.18.091-.18.1-.193-.057-.119-.057-.119l-.094.135c-.108.156-.19.135-.19.135a.85.85 0 01-.405.017l-.041-.007c-.37-.056-.422-.032-.422-.032-.124.045-.042.096-.042.096.045.058.02.073.02.073l-.042.019-.03.034-.018.148c-.063.094-.146.439-.146.439-.011.12.026.084.026.084.023-.018.082-.102.082-.102l-.018.125c-.022.057-.119.353-.119.353-.028.147-.164.375-.164.375l-.017-.108c-.016-.069-.056-.046-.056-.046-.023.028-.108.24-.108.24-.045.141.028.152.028.152.085.058.074.109.074.109l-.057.25a4.634 4.634 0 00-.079.154c-.04.022-.09-.023-.09-.023l-.027.079c.03.05-.022.205-.022.205-.011.204-.074.193-.074.193l-.079-.159-.187.176a.343.343 0 00-.175.262c-.073.302-.175.432-.175.432-.074.035-.08.131-.08.131.08.2.069.234.069.234-.023.034-.046.108-.046.108-.074.182-.18.244-.18.244a.157.157 0 00-.034-.091c-.045 0-.22.091-.22.091-.086.029-.086.074-.086.074l-.08.183c-.092.088-.005.124-.005.124s.013-.01.09.051c.078.062.096.13.08.137a1.165 1.165 0 01-.19-.082c-.255-.069-.223-.196-.223-.196.033-.058.005-.08.005-.08a.438.438 0 00-.136-.023s-.069-.004-.127-.001a2.83 2.83 0 00-.223.029c-.176.062-.153-.012-.153-.012s.018.007.057-.03c.038-.039.01-.081.016-.066-.022.01-.04-.32-.04-.32-.057-.159 0-.318 0-.318-.045-.006-.095.022-.095.022-.075.056-.103-.028-.103-.028-.085-.068-.231-.04-.231-.04-.147-.011-.147.085-.147.085a.16.16 0 00.03.218s.003.024-.042.061l-.002.027c-.005.095-.005.111-.013.116l-.006.002a.048.048 0 00-.01.003c-.028.013-.054-.06-.054-.06l-.017-.143c-.041-.11-.062-.007-.062-.007a.356.356 0 000 .199l.083.21c.027.02.034.178.016.168a.167.167 0 01-.065-.065c-.069-.131-.09-.149-.09-.149-.044-.106-.063-.167-.063-.167a.473.473 0 00-.068-.23c-.05-.103-.105-.012-.105-.012-.037.373-.004.388-.004.388.17.12.2.221.2.221.186.09.181.157.181.157-.033-.011-.221-.06-.221-.06-.034-.018-.168-.122-.168-.122-.15-.141-.182-.135-.182-.135-.034-.006-.153-.006-.153-.006-.073.005-.043.062-.043.062s.026.025.027.042c0 .016-.059 0-.059 0l-.1-.047c.02-.076-.051-.182-.051-.182-.102-.29-.34-.33-.34-.33a2.217 2.217 0 01-.35-.228 2.735 2.735 0 00-.108-.056l.017-.08a1.06 1.06 0 01-.074-.187c-.09-.313-.333-.74-.333-.74.023-.04-.266-.28-.419-.404a.407.407 0 01-.145-.32 25.836 25.836 0 01-.036-.426c.023-.118-.186-.409-.186-.409-.057-.113-.181-.37-.181-.37-.085-.153-.204-.79-.204-.79 0-.08-.085-.116-.085-.116s.033-.044.05-.05h.002a.061.061 0 01.005-.002l-.003-.01zm.66 1.684a1.625 1.625 0 00-.089-.23c.04.073.073.152.089.23zm2.753.148s2.455.104 2.955-1.043c0 0 .428-1.286-2.944-1.567 0 0-2.793-.091-3.02 1.205 0 0-.217 1.19 3.009 1.405zM6.91 7.578c.352-.203.472-.165.472-.165.715.441 1.808.363 1.835.361.92.032 1.487-.306 1.487-.306.45.154.539.208.539.208.102.058.026.14.026.14-.4.677-2.096.73-2.096.73-1.768-.037-2.266-.77-2.266-.77-.051-.077-.032-.159-.032-.159l.035-.04zm-.13.017s-.625.64.47 1.11c0 0 .59.374 1.923.374 0 0 1.425.06 2.053-.444 0 0 .585-.366.212-.844 0 0 .84.37.187 1.07 0 0-.567.591-2.467.605 0 0-2.167-.105-2.715-.791 0 0-.606-.577.336-1.08zm1.26 7.234c-.027-.036-.04-.095.018-.203l-.133-.09-.053.045-.068.068s-.048.041-.077.05c-.041.025-.105.012-.071-.127l.017-.1c.008-.037.01-.067.013-.094a.585.585 0 01.006-.047.314.314 0 00.021-.044c.012-.026.023-.052.045-.07 0 0-.07-.086-.163-.035l-.04.024s-.058-.02-.111-.097a1.641 1.641 0 00-.06-.119s.03-.054.04-.134c0 0 .022-.096.086-.009 0 0 .035.053.08.108a.562.562 0 00.087.087l.015.014a.606.606 0 01.023.022c.019.018.034.033.045.032 0 0 .022.005.043-.001.004.002.007-.021.01-.048v-.004l.001-.008c.004-.025.007-.05-.001-.055 0 0-.052-.05-.117-.085l-.023-.017c-.058-.044-.12-.09-.13-.12 0 0 .021-.097.018-.2.012-.08.028-.17.054-.24l.11-.36.011-.019-.004-.025-.021-.012s-.023.015-.04.05c-.013.056-.036.102-.051.106 0 0-.035.03-.047-.141a2.337 2.337 0 00-.105-.29 1.362 1.362 0 01-.065-.172l.011-.13s-.055-.021-.1.13c0 0-.017.03-.049.077a.262.262 0 00-.067.175s.046.26.051.336c0 0 .023.115-.053.122-.009-.004-.039-.024-.058-.105 0 0-.024-.117-.053-.181a8.826 8.826 0 00-.064-.233l-.004-.014s.036-.279-.215-.493c0 0-.2-.238-.315-.408a.171.171 0 00-.035-.064.2.2 0 01-.025-.038s-.124-.095-.162-.158a1.55 1.55 0 01-.143-.182s-.085-.508-.174-.726l-.05-.148-.003-.045s.038-.064.102.069l.032.054.029.076.036.043s.05-.092.028-.142c0 0-.072-.044-.077-.1 0 0-.05-.16-.089-.181 0 0-.118-.049-.152-.16 0 0-.06.137-.145-.03 0 0-.024-.072-.024-.178 0 0 .041-.04.08.063l.03.027c.016.015.034.031.052.053 0 0 .034-.003.006-.073a.36.36 0 01.008-.063s-.107-.317-.119-.328c0 0-.022-.13-.044-.184 0 0-.043-.172-.085-.178 0 0-.012.138-.003.18 0 0 .006.043.013.071l.007.024c.006.02.01.031.003.044 0 0 .01.109-.048-.005l-.05-.232s-.028-.047-.022-.107c-.003-.017-.008-.033-.012-.05A.254.254 0 015.44 9l.034-.01c.063.053.08.05.097.046a.049.049 0 01.025 0s-.054-.09-.059-.272c-.015-.102-.05-.196-.08-.28a1.652 1.652 0 01-.042-.124C5.4 8.31 5.4 8.258 5.4 8.258s0-.055.065-.067v-.195s-.018-.087-.108-.075c0 0-.329.046-.664-.176 0 0-.063.05-.097.05 0 0-.036.007-.05-.016a2.223 2.223 0 01-.217-.177 3.2 3.2 0 00-.078-.068s-.013-.016-.026-.048l-.01-.027c-.018-.05-.038-.104-.049-.095 0 0-.011-.046.034-.145l.06-.043-.009-.102-.09.114-.054.09s-.011.066.014.16c0 0-.07.031-.039.17 0 0-.002.022-.082.188 0 0 .032.161.049.204 0 0 .097.106.18.203.04.042.072.074.096.097a.39.39 0 01.05.053s.368.043.52.026c0 0 .035.023.118.036.05.033.1.096.124.216 0 0 .111.263.094 1.134 0 0 .013.156.144.346 0 0 .315.546.41.727 0 0 .034.078.04.13l.02.069c.036.129.082.29.11.426 0 0 .054.328.12.466 0 0 .274.455.365.623 0 0 .22.359.297.476 0 0 .035.135.065.3.022.12.044.252.062.364l.035.208s.11.626.119.704c.015.125.01.218.009.259v.007l1.068.001s.007-.021-.055-.042zM4.494 7.996C4.46 8 4.41 7.919 4.41 7.919a.518.518 0 00-.159-.136c-.076-.015-.07-.043-.07-.043a1.81 1.81 0 01-.026-.092c-.028-.096.042-.045.042-.045l.035.026a.34.34 0 01.085.073c.028.02.13.117.13.117.09.062.093.136.093.136.003.074-.045.04-.045.04zM6.75 12.56s-.121-.173-.136-.205l-.115-.167s-.023-.078.049-.049c0 0 .094.064.161.175 0 0 .056.047.058.083 0 0 .034.098.02.124 0 0 .019.082-.037.039zm.602 1.084s-.039-.121-.039-.166c0 0-.005-.051.005-.111 0 0 .011-.056.028-.069 0 0 .008-.027.012-.058 0 0 .015-.07.051-.109 0 0 .011-.143.073-.079 0 0 .038.036.027.156 0 0-.008.175-.012.184 0 0-.035.114-.07.166l-.017.058s-.037.061-.058.028zm2.576-2.046c-.036-.025-.06.003-.06.003-.065.025-.01.08-.01.08.025.024.006.058.006.058.017.063.049.047.049.047.036 0 .036-.047.036-.047.013-.015.017-.077.017-.077.024-.057-.038-.064-.038-.064zm-1.65.192l.05-.03c.043-.04.008-.068.008-.068.005-.027-.045-.03-.079-.03h-.005l-.022-.006c-.069-.01-.034.043-.034.043.031.034.034.067.034.067.014.029.047.024.047.024zm.03-.369s-.015.094.034.13c0 0 .028.005.017-.05 0 0-.011-.112-.052-.08zm5.622-3.257c.016-.034.016-.108.016-.108.029-.102-.04-.016-.04-.016l-.027.045c0 .052-.114.2-.114.2-.115.026-.158.112-.158.112a1.84 1.84 0 01-.153.035c-.118.091.03.076.03.076.045 0 .204-.08.204-.08a.1.1 0 00.14-.059c.004-.045.079-.13.079-.13.028-.03.023-.075.023-.075zm-4.624 2.333s-.019.019.017.04c0 0 .026.03.032.02 0 0 .044.01.032.014 0 0 .08-.02.14-.017 0 0 .05.005.057.02 0 0 .019.002.003-.013 0 0-.026-.032-.063-.051 0 0 .01-.02-.088-.015l-.074.002s-.004-.017-.032 0h-.024zm-.255.09c-.048.008-.026.044-.026.044.01 0 .002.047.002.047-.012.01-.022.036-.022.036a.654.654 0 01-.04.046c-.062.045-.053.098-.053.098.027.047.095.047.095.047.049.006.068-.015.068-.015.013-.007.025-.01.036-.015a.11.11 0 00.042-.02c.015-.015.013-.026.01-.039a.36.36 0 00-.016-.067c.003-.023-.015-.02-.015-.02-.032-.015-.027.01-.027.01-.01-.01-.049.047-.049.047-.03.047.017.047.017.047.042.004-.009.023-.009.023-.046.013-.083-.03-.083-.03-.037-.02.011-.078.011-.078s.045-.036.053-.038c.008-.002.064-.041.05-.078 0-.008 0-.053-.044-.046zm-.045.473s-.05.002-.054.01c-.004.01-.065-.028.023-.056 0 0 .019.015.099-.055 0 0 .039-.054.099-.03.04.037.098.013.098.013s.035-.027.065-.007l.02.018c.01.01.024.021.037.04l.044.04s.02.034-.016.047c-.043-.034-.068-.053-.095-.055l-.145-.005s-.044-.002-.025.04c0 0 .027.07.097.058.01 0 .1.034.083.039a.614.614 0 01-.21.017c-.107-.003-.12-.114-.12-.114zm.242-.322c-.033.028-.018.12-.018.12a.268.268 0 01.075.017s-.007 0 .01-.009c.016-.009.015-.014.015-.014-.04-.133-.082-.114-.082-.114zm-.506.054c.03-.01.107-.007.107-.007l-.006-.015c-.01-.028-.056-.02-.056-.02-.038-.003-.048-.01-.048-.01-.036-.023.01-.042.01-.042.02-.026.066.023.066.023.044.017.07-.008.07-.008.038-.038.055-.017.055-.017.038.03.042.017.042.017-.008-.072-.074-.096-.074-.096-.072-.036-.11-.008-.11-.008-.1.002-.144.079-.144.079-.086.076-.07.08-.07.08-.022.022-.001.052-.001.052.017.014.008.028.004.034-.002.003-.003.004.004.001.02-.008.063-.02.063-.02.03-.004.044-.015.057-.025.009-.007.017-.014.03-.018zm.834-.073a.152.152 0 00-.106-.098.167.167 0 00-.151.015c.008.032.01.053.01.053.051.09.077.104.077.104.027.004.035-.015.035-.015.017-.03.038-.028.038-.028.047-.01.047-.004.047-.004.001-.018.024.001.045.018.01.009.02.017.026.02.019.009-.02-.065-.02-.065zm-.198.01c-.02-.023.006-.033.006-.033.027-.016.02.019.02.019l.012.014c-.014.013-.038 0-.038 0z" fill="#000"/><path d="M4.235 7.074l-.002.02 1.106.686c3.4-2.312 6.298-.82 7.53.235l.98-.235c.11-1.15-.175-2.256-.332-2.666-2.417-3.247-6.765-2.157-8.544-.61-.564.49-.68 1.865-.738 2.57z" fill="#262626"/><path d="M7.999 3.426c.806-.072 1.249-.074 2 0l-.13.6a.3.3 0 00.046.232l.316.463a.3.3 0 01.012.32l-.276.476a.3.3 0 00-.039.184l.07.627c-.764-.116-1.208-.11-2 0l-.066-.627a.3.3 0 01.04-.183l.278-.476a.3.3 0 00-.012-.322l-.319-.462a.3.3 0 01-.046-.232l.126-.6z" fill="#fff"/></svg>