<!-- by TradingView --><svg width="18" height="18" xmlns="http://www.w3.org/2000/svg"><path fill="#D71920" d="M0 0h18v18H0z"/><path d="M8.359 5.022c-3.753.246-6.442 1.965-6.357 4.062.121 3.01 5.792 4.867 10.405 3.41 3.906-1.235 4.799-4.233 1.829-6.145-1.458-.939-3.788-1.465-5.877-1.327z" fill="#fff"/><path d="M5.907 7.025c1.673.148 2.927.909 3.124 1.896.133.66-.345 1.383-1.006 1.525-.299.065-.635-.055-.635-.225 0-.082.05-.107.245-.116.194-.009.388-.136.39-.401.002-.236-.163-.638-.55-.705-.232-.017-.438 0-.475 0V11H5V7.016l.1-.006c.066-.011.64 0 .807.015zM13 7.002V11h-2V8.999h-.057a1.181 1.181 0 00-.378.023c-.413.074-.61.421-.568.682.037.223.144.387.46.401.257.012.384.115.229.239-.36.288-1.047.046-1.388-.488-.565-.886.035-1.95 1.405-2.488a5.687 5.687 0 011.777-.36c.118-.005.464-.011.52-.006z" fill="#D71920"/></svg>