<!-- by TradingView --><svg xmlns="http://www.w3.org/2000/svg" width="18" height="18" viewBox="0 0 18 18"><path fill="#F0F3FA" d="M0 0h18v18H0z"/><path d="M4 9h10v2H4V9zm5.04-6a3.02 3.02 0 010 3.49c-.6-1.18-.7-2.35 0-3.49zm2.9 1.89a2.93 2.93 0 01-2.67 2.19c.52-1.22 1.34-2.04 2.66-2.2zm-.09 1.57a2.93 2.93 0 01-2.66 2.19c.52-1.22 1.34-2.04 2.66-2.2zM6.26 4.84a2.93 2.93 0 002.66 2.19c-.51-1.22-1.34-2.04-2.66-2.2zm.09 1.57A2.93 2.93 0 009 8.6c-.52-1.23-1.34-2.04-2.66-2.2z" fill="#136B39"/><path d="M5.48 11H4v2h2.73l-.62-1v1h-.63v-2zm.63 0l.62 1v-1h.63v2H14v-2h-3.83v.5h-.94v.33h.63v.5h-.63V13h-.62v-2H6.1zm5.3 2v-2h.63v1.5h.63v.5h-1.25z" fill="#B7322D"/><path d="M5 9.35h2v1.3H5v-1.3zm3 0h2v1.3H8v-1.3zm5 0h-2v1.3h2v-1.3z" fill="#E9E9E9"/></svg>