<!-- by TradingView --><svg xmlns="http://www.w3.org/2000/svg" width="18" height="18"><path fill="#F0F3FA" d="M0 0h18v18H0z"/><path d="M6.87 6.42l1.45.1.97-1.67.79.82 1.57-1.57-.03 1.38 1.87-1.15-.84 1.65 1.79-.5-1.49 1.6 1.36.24-1.84 1.25.66.93-1.83.63-.17 1.45-1.45-.1-.97 1.67-.79-.82-1.57 1.57.03-1.38-1.87 1.15.84-1.66-1.79.51 1.49-1.6-1.36-.24 1.84-1.25-.66-.93 1.83-.63.17-1.45z" fill="url(#a3cq43ggw)"/><defs><linearGradient id="a3cq43ggw" x1="4.06" y1="3.59" x2="13.43" y2="14.71" gradientUnits="userSpaceOnUse"><stop stop-color="#fff" stop-opacity=".5"/><stop offset=".5" stop-color="#E85E23"/><stop offset="1" stop-color="#fff" stop-opacity=".5"/></linearGradient></defs></svg>