<!-- by TradingView --><svg width="18" height="18" viewBox="0 0 18 18" xmlns="http://www.w3.org/2000/svg"><path fill="#F0F3FA" d="M0 0h18v18H0z"/><path d="M2.4 7h1.05c.098 0 .19.048.247.128l1.72 2.618V7.302c0-.151.051-.302.3-.302h.906v5h-.935a.271.271 0 01-.228-.123L3.607 9.12v2.578c0 .151-.052.302-.302.302H2.4V7z" fill="#092857"/><path d="M11.527 11.299a2.564 2.564 0 11-.084-3.557l-.765.777c-.121.123-.32.116-.465.023a1.206 1.206 0 10.066 1.993c.147-.107.359-.125.488.004l.76.76z" fill="#09275B"/><path d="M9.639 12.127a2.564 2.564 0 111.804-4.385l-.765.777c-.121.123-.32.116-.465.023a1.206 1.206 0 10-.574 2.223v1.362z" fill="#532F91"/><path d="M8.05 11.577a2.564 2.564 0 113.392-3.835l-.764.777c-.121.123-.32.116-.465.023a1.206 1.206 0 00-1.359 1.993l-.803 1.042z" fill="#782A90"/><path d="M7.188 10.318a2.564 2.564 0 014.255-2.576l-.765.777c-.121.123-.32.116-.465.023a1.206 1.206 0 00-1.804 1.36l-1.221.416z" fill="#AC1F8F"/><path d="M7.208 8.746a2.565 2.565 0 014.235-1.004l-.765.777c-.12.123-.32.116-.465.023a1.207 1.207 0 00-1.804.678l-1.2-.474z" fill="#F10494"/><path d="M8.097 7.515A2.552 2.552 0 019.64 7c.703 0 1.34.283 1.804.742l-.765.777c-.12.123-.32.116-.465.023a1.201 1.201 0 00-1.328.024l-.788-1.051z" fill="#F7941F"/><path d="M9.639 7c.703 0 1.34.283 1.804.742l-.765.777c-.121.123-.32.116-.465.023a1.2 1.2 0 00-.647-.187L9.64 7z" fill="#FCB813"/><path d="M15.9 11.299a2.564 2.564 0 11-.084-3.557l-.764.777c-.122.123-.32.116-.466.023a1.206 1.206 0 10.066 1.993c.147-.107.36-.125.488.004l.76.76z" fill="#092759"/></svg>