<!-- by TradingView --><svg xmlns="http://www.w3.org/2000/svg" width="18" height="18" viewBox="0 0 18 18"><path fill="#F0F3FA" d="M0 0h18v18H0z"/><path d="M3.84 5h10.32c.46 0 .84.43.84.95v6.1c0 .52-.38.95-.84.95H3.84c-.46 0-.84-.43-.84-.95v-6.1c0-.52.38-.95.84-.95z" fill="#004071"/><path d="M15 12.24c-3.64.12-8.44-3.35-12-1.12V5.79c.05-.23.14-.4.28-.55A.8.8 0 013.81 5C7.04 5 13.03 8.21 15 7.01v5.23z" fill="#0090C8"/><path d="M8.71 12.33h-.59l.36-1.43h-1.4l-.36 1.43h-.6L7 9h.6l-.34 1.24h1.4L8.99 9h.6l-.88 3.34zm2.4-2.26c.07-.36-.1-.58-.5-.62h-.2l-.29 1.14h.22c.43-.03.68-.2.77-.52zm.28.57c-.13.14-.33.27-.62.4a3.08 3.08 0 01-.78.1l-.31 1.2h-.6l.87-3.35c.44 0 .98-.06 1.34.03.23.12.37.24.41.39.11.35-.08.98-.31 1.23zm2.77 1.44c-.37.17-.7.25-1.02.25-.78 0-1.52-.88-1.27-1.83.29-1.13 1.72-1.7 2.66-1.46.12.03.25.09.42.17l-.44.37c-.09-.06-.3-.1-.61-.1-.58 0-1.31.33-1.49 1.02-.18.7.28 1.32.84 1.32.29 0 .52-.06.68-.17l.23.43zm-8.42.25l-1.4-2-.53 2h-.65l.9-3.48 1.46 1.8.64-2.48-.61.57 1.13-3.41-.36 2.35.76-.52-1.34 5.17z" fill="#fff"/></svg>