<!-- by TradingView --><svg xmlns="http://www.w3.org/2000/svg" width="18" height="18"><path d="M0 9a9 9 0 1118 0A9 9 0 010 9z" fill="#0093DD"/><path fill-rule="evenodd" d="M5 5v8c.19-.36.64-.47 1.58-.39a2.34 2.34 0 01.27.04l.16.03c.67.12 1.49.27 1.49-.62-.6-.8-1-2.12.5-3.6 1.5 1.48 1.1 2.8.5 3.6 0 .9.82.74 1.49.62l.43-.07c.94-.08 1.4.03 1.58.39V7.38C13 6.1 12.28 5 11.14 5c-1 0-2.14.77-2.14.77V5H5zm4.5 7.06c.67-.23.74-1.19.76-1.6l.01-.09c.02-.27.05-.55.2-.77.17-.24.45-.36 1-.25-.1.2-.1.47-.12.78-.01.2-.02.44-.06.67-.17.92-.87 1.25-1.79 1.26zm-2.87-1.93c0 .21.02.44.06.67.16.92.86 1.25 1.78 1.26-.67-.23-.73-1.19-.76-1.6v-.09a1.57 1.57 0 00-.21-.77c-.16-.24-.45-.36-1-.25.1.2.11.47.13.78zm-.56 1.64c.14.23.27.44.55.63.45.3 1 .4 1.63-.2-.78 0-1.13-.27-1.6-1-.43-.65-.63-.7-1.28-.25.39.31.55.58.7.82zm5.28.63c.29-.2.41-.4.55-.63.15-.24.32-.5.7-.82-.65-.45-.85-.4-1.27.25-.48.73-.82 1-1.6 1 .62.6 1.18.5 1.62.2z" fill="#fff"/></svg>