<!-- by TradingView --><svg width="18" height="18" xmlns="http://www.w3.org/2000/svg"><path fill="#2D4C9C" d="M0 0h18v18H0z"/><path d="M8.981 15h-.668l-.333-1.18a4.922 4.922 0 01-2.099-.989l-1.183.486-.801-.98.763-.97a4.507 4.507 0 01-.506-2.017L3 8.817l.248-1.218 1.278-.095A4.704 4.704 0 015.92 5.716l-.305-1.189 1.135-.59.906.904c.42-.115.868-.181 1.326-.181v1.303c-1.889 0-3.434 1.494-3.434 3.34 0 1.844 1.545 3.357 3.434 3.357V15zm.01-10.34c.505 0 .982.066 1.44.21l.858-.885 1.145.59-.295 1.198a4.734 4.734 0 011.373 1.836l1.25.085L15 8.912l-1.164.543a4.442 4.442 0 01-.562 1.997l.744 1.018-.84.95-1.154-.522a4.884 4.884 0 01-2.08.941L9.61 15h-.629v-2.34c1.898 0 3.444-1.513 3.444-3.358 0-1.845-1.546-3.339-3.444-3.339V4.66h.01z" fill="#fff"/><path d="M6.16 11.03c.092.152.176.257.276.393.15.204.483.494.697.638l.283.107s.757.39 1.66.39c.904 0 1.768-.597 1.768-.597l.149-.1.017-1.141H9.806l.061-.055-.665-.33.288-.435c.342.18.849.331 1.37.331h.075c.6 0 1.109-.197 1.502-.405l-.086-.164c-.022 0-.258.121-.314.144a3.078 3.078 0 01-1.16.235 2.977 2.977 0 01-1.004-.182c-.06-.025-.232-.106-.274-.116l.111-.17c.243.13.75.261 1.117.261h.166a2.811 2.811 0 001.176-.293c.06-.03.289-.163.318-.17v-.025l-.094-.139c-.027.005-.25.136-.304.164-.1.05-.216.095-.331.133-.215.072-.503.14-.79.14h-.1c-.194 0-.409-.03-.569-.07-.083-.021-.18-.043-.252-.071a2.892 2.892 0 00-.232-.083l.117-.181.181.115c.113-.212.228-.427.346-.64.057-.103.115-.226.176-.322l.11-.197.502-.933.046.022.356.01c-.026-.04-.274-.236-.274-.258 0-.035.113-.197.125-.248l-.282.11-.333-.3h-.016c.002.087.023.36.058.413l-.947.371-.057-.032c-.045.03-.044.07-.105.095a3.701 3.701 0 01-.144.056c-.091.033-.19.074-.285.112-.068.027-.54.218-.57.218-.017 0-.533-.35-.606-.39l-.017.348-.456-.29c-.156.037-.379.14-.543.196-.18.061-.358.129-.536.195-.195.072-.33.123-.421.308-.064.13-.051.123-.081.283-.028.153.053.167.135.22.294.192.593.393.893.575.134.082.82.547.893.566l-.069.877h-.77v1.217l-.106-.076c-.002-.473.002-1.081-.078-1.478-.024-.117-.034-.203-.136-.253-.092-.045-.232-.026-.335-.005-.776.156-.823.258-.427.905z" fill="#fff"/><path opacity=".5" d="M9.1 2.32l-1.019.22-.083.327.273.213-.44 7.716h2.333l-.562-7.655.22-.13v-.327L9.1 2.32z" fill="#fff"/></svg>