<!-- by TradingView --><svg xmlns="http://www.w3.org/2000/svg" width="18" height="18"><path fill="#0C6EAF" d="M0 0h18v18H0z"/><path d="M8.58 3h.84v1.11L9 3.86l-.42.25V3zM5 8.57h.7A3.38 3.38 0 018.57 5.6V4.1L5 6.43v2.14zm0 .86v-.86H4v.86h1z" fill="#fff"/><path d="M8.58 12.4A3.38 3.38 0 015.7 9.43H5v2.14l3.58 2.32V15h.84v-1.11L13 11.57V9.43h1v-.86h-1V6.43L9.42 4.11V5.6c1.5.2 2.7 1.42 2.89 2.97H13v.86h-.7a3.38 3.38 0 01-2.88 2.97v1.49l-.42.25-.42-.25V12.4z" fill="#fff"/><path opacity=".7" fill="#fff" d="M6 8h6v2H6z"/></svg>