<!-- by TradingView --><svg width="18" height="18" xmlns="http://www.w3.org/2000/svg"><path fill="#007DC4" d="M0 0h18v18H0z"/><path d="M6.228 7h2.876l-.207 1.333H7.875L7.522 11h-.99l.341-2.667H6.02L6.23 7zm4.049 1.333l-.1.667h.576c.121 0 .431-.067.44-.362.008-.295-.208-.305-.45-.305h-.466zM9.417 7h1.654c.459 0 1.11.4 1.11 1.168 0 1.308-.453 1.832-1.208 1.832h-.946l-.214 1h-.989l.593-4zM2.6 7h1.162l.775 2.009L4.84 7H5.9l-.663 4H4.056L3.3 8.915 3.071 11H2l.6-4zm13.374 2.38c-.144.965-.88 1.62-1.753 1.62-.998 0-1.732-.869-1.732-2.083C12.488 7.7 13.222 7 14.22 7c.88 0 1.636.535 1.78 1.58h-1.214a.571.571 0 00-.566-.412c-.352 0-.592.297-.592.749 0 .448.24.726.592.726a.554.554 0 00.485-.263h1.268z" fill="#fff"/></svg>