<!-- by TradingView --><svg xmlns="http://www.w3.org/2000/svg" width="18" height="18" viewBox="0 0 18 18"><path fill="#EF831F" d="M0 0h18v18H0z"/><path d="M11.21 7a.5.5 0 00-.35.15L9 9l1.85 1.85a.5.5 0 00.35.15h2.23l-.35-.35a.5.5 0 00-.36-.15H11.2l-1-1h2.9a.6.6 0 01.42.18l1.3 1.3A.6.6 0 0114.4 12h-3.56a.6.6 0 01-.42-.18L8.3 9.71l-2.08 2.07a.6.6 0 01-.85 0L3.3 9.71a1 1 0 010-1.42l2.07-2.07a.6.6 0 01.85 0L8.3 8.29l2.12-2.11a.6.6 0 01.42-.18h3.56a.6.6 0 01.43 1.02l-1.3 1.3a.6.6 0 01-.43.18h-2.89l1-1h1.52a.5.5 0 00.35-.15l.36-.35h-2.23zM7.6 9L5.8 7.2 4 9l1.8 1.8L7.6 9z" fill="#fff"/></svg>