<!-- by TradingView --><svg width="18" height="18" viewBox="0 0 18 18" xmlns="http://www.w3.org/2000/svg"><path fill="#F0F3FA" d="M0 0h18v18H0z"/><path d="M7 10h.021c.637.14 1.32.206 1.979.206s1.346-.057 2-.198V15H7v-5z" fill="#ED1C24"/><path fill-rule="evenodd" d="M9 3c1.094 0 2.32.257 3.047.866.717.618.953 1.578.953 2.505 0 .935-.16 1.852-.887 2.461-.82.695-2.019.918-3.113.918-1.094 0-2.274-.257-3-.866-.717-.61-1-1.578-1-2.513 0-1.004.274-1.879 1.057-2.539C6.773 3.214 7.906 3 9 3zm-.005 2.01c.483 0 1.017.107 1.331.354.322.247.424.64.424 1.01 0 .378-.076.748-.39.995-.356.278-.882.37-1.365.37-.474 0-.991-.1-1.305-.347-.322-.246-.44-.64-.44-1.018 0-.408.118-.755.457-1.025.314-.247.814-.34 1.288-.34z" fill="#231F20"/></svg>