<!-- by TradingView --><svg width="18" height="18" viewBox="0 0 18 18" xmlns="http://www.w3.org/2000/svg"><path fill="url(#paint0_linear)" d="M0 0h18v18H0z"/><path d="M4 6.233V13h2V7.228c0-.118.147-.225.218-.228h5.608c.139.006.17.184.174.235v3.582c0 .126-.123.173-.174.184-1.456-.002-2.49-.005-2.632 0-.143.004-.192-.148-.194-.187V9H7v2.735c0 .163.188.26.263.265 0 0 6.242.006 6.47 0 .227-.006.27-.22.264-.302.002-1.609.006-5.304 0-5.483-.006-.179-.151-.215-.223-.211a2874.52 2874.52 0 00-9.468 0C4.06 6.01 4 6.159 4 6.233z" fill="#fff"/><circle cx="8.005" cy="8.019" r=".623" fill="#FF454C"/><defs><linearGradient id="paint0_linear" x1="3.349" y1="3.122" x2="21.904" y2="24.434" gradientUnits="userSpaceOnUse"><stop stop-color="#1A1E21"/><stop offset="1" stop-color="#06060A"/></linearGradient></defs></svg>