<!-- by TradingView --><svg xmlns="http://www.w3.org/2000/svg" width="18" height="18" viewBox="0 0 18 18"><path fill="#F0F3FA" d="M0 0h18v18H0z"/><path d="M9.5 5.6c-.24-.6-.93-2.02-1.25-2.02-.13 0-.3 1.61-.13 2.9a9.91 9.91 0 013.9-.71c.11.01.22.06.33.11.11.06.23.1.35.12 2.26.16-.32 1.29-1.45 1.77.97 1.62 1.13 3.23.8 3.71-.12-.83-.52-2.64-1.52-4.22a.15.15 0 01.05-.22.15.15 0 01.2.05l.24.36.17-.06c.85-.33 3.39-1.28 1.03-.97-1.44.18-2.74.62-4.1 1.1-.07.28-.23.95-.26 1.8 2.04.33 3.55.71 3.55.71-.97.16-2.58-.16-2.58-.16a4.22 4.22 0 00-.98-.08l.01.24.06.94c.06 1 .13 1.97 0 1.97-.12-.5-.33-1.81-.46-3.16h-.28c-.66 0-1.38 0-1.9-.07-.55-.07-.83-.27-.97-.49-.58-.8 1.2-1.6 2.59-2.22l.44-.2c0-.3.16-4.47 1-3.7a6.62 6.62 0 011.41 2.4.13.13 0 01-.12.16.13.13 0 01-.12-.08zM4.95 8.91c.85.08 1.7.2 2.47.32-.04-.52-.07-1.02-.07-1.47 0-.04-1.52.7-2.4 1.15z" fill="#F79A35"/><path d="M8.02 14.71h.65c-.04-.36-.03-1.19.04-1.94.05-.64.23-1.28.24-1.93 0-.38-.06-.58-.12-.65-.15.88-.5 1.7-.62 2.59-.1.75-.16 1.47-.19 1.93z" fill="#F79A35"/></svg>