<!-- by TradingView --><svg xmlns="http://www.w3.org/2000/svg" width="18" height="18" viewBox="0 0 18 18"><path fill="#F0F3FA" d="M0 0h18v18H0z"/><path d="M5 4.4v2.73c2.68.88 2.88.43 2.88.05C7.8 6.12 6.45 4.72 5.7 4.1c-.3-.26-.71.04-.71.3z" fill="#028AC6"/><path fill-rule="evenodd" d="M7.36 4h3.06c.34 0 1 .12 1.64.58-.4.41-1.44 1.5-2.31 2.57a.48.48 0 01-.36.18c-.18 0-.34-.11-.44-.3L7.36 4zm1.79.56c.14 0 .38.17.36.63-.04.58-.25.63-.3.64-.06.01-.2-.05-.27-.24 0-.18-.03-.32-.11-.5-.02-.16.02-.53.32-.53z" fill="#085AA6"/><path fill-rule="evenodd" d="M12.5 4.93a4.3 4.3 0 01.31 6.23 6.96 6.96 0 00-1.04-1.9c-.59-.65-.59-1.12-.59-1.36 0-.14.06-.47.23-.83.08-.17.22-.41.37-.68a9 9 0 00.72-1.46zm.65 1.9c.1.2.04.63-.5.87-.7.3-.87.04-.92-.04-.04-.07-.06-.3.11-.51.2-.11.36-.24.52-.45.16-.13.62-.28.8.13z" fill="#C22A1F"/><path d="M5.02 7.97c.2.23.77.75 1.45.94.86.24 1.4.43 1.42.98 0 .24-.17.78-.4 1.44-.17.53-.37 1.15-.52 1.74v.01a3.4 3.4 0 00-.12.92H5.41c-.12 0-.4-.1-.4-.62v-3.11l.13.08c.45.24.93.16 1.09-.19.16-.35-.07-.82-.51-1.07a.99.99 0 00-.7-.11V7.97z" fill="#F9B516"/><path d="M8.37 12.3a4.38 4.38 0 01-1 1.68h1.29c.43 0 .56-.28.56-.46v-1.07c.03-.37.27-.44.39-.45h1.71c.4 0 .7-.17.8-.23-.21-.13-.72-.78-1.03-1.26-.11-.17-.47-.62-1-.62-.68 0-1.18 1.07-1.72 2.42z" fill="#A1D008"/></svg>