<!-- by TradingView --><svg xmlns="http://www.w3.org/2000/svg" width="18" height="18"><path fill="#45424A" d="M0 0h18v18H0z"/><path d="M11.49 4C9.99 4 8.98 5.21 9 6.64c0 1.43-.02 2.86 0 4.29.02 1.46-.87 2.87-2.57 2.73a2.38 2.38 0 01-2.19-2.63C4.45 9.69 5.64 9 6.94 9h1.75v-.63H7.07a3.12 3.12 0 00-3.05 2.64 2.88 2.88 0 001.3 2.74c.66.41 1.5.53 2.25.32 1.59-.43 2.43-1.83 2.43-3.62V6.64c.03-.86.57-1.69 1.47-1.69.9-.01 1.62.73 1.6 1.6-.02.93-.78 1.8-1.8 1.82h-.96V9h1.13A2.56 2.56 0 0014 6.55 2.5 2.5 0 0011.49 4z" fill="#E99F3C"/></svg>