<!-- by TradingView --><svg width="18" height="18" viewBox="0 0 18 18" xmlns="http://www.w3.org/2000/svg"><path fill="#F0F3FA" d="M0 0h18v18H0z"/><path d="M14 9c0 2.754-2.246 5-5 5a5.01 5.01 0 01-5-5h10z" fill="#2E2771"/><path d="M9 4c2.754 0 5 2.246 5 5H4c0-2.754 2.246-5 5-5z" fill="#E20613"/><path d="M4.088 9.937h1.336a.598.598 0 00.448-.198l4.59-4.534a.706.706 0 01.6-.269h.845c.306.225.451.353.718.626h-1.291c-.14.007-.427.234-.503.318l-4.574 4.465c-.183.155-.304.226-.487.228l-1.521-.01a4.865 4.865 0 01-.161-.626zm1.285 2.501H7.03a.58.58 0 00.447-.212l4.571-4.52a.706.706 0 01.602-.269h1.098c.079.242.121.4.163.625h-.992c-.14.007-.427.222-.503.307l-4.593 4.465c-.183.155-.303.226-.485.228h-1.25a4.909 4.909 0 01-.715-.624z" fill="#E3E3E3"/><path d="M4.505 11.188h1.72a.589.589 0 00.448-.197l4.577-4.537a.702.702 0 01.601-.267h1.279c.159.232.245.388.365.627h-1.361c-.14.006-.427.228-.503.313L7.037 11.58c-.183.155-.304.229-.486.232H4.87a4.477 4.477 0 01-.366-.626z" fill="#E3E3E3"/></svg>