<!-- by TradingView --><svg xmlns="http://www.w3.org/2000/svg" width="18" height="18"><path fill="url(#agywot4be)" d="M0 0h18v18H0z"/><path fill-rule="evenodd" d="M9.01 4.68c-.1-.1-.1-.5.22-.93C9.65 3.2 10.26 3 10.5 3s1.04.2 1.18 1.47c0 .2-.05.78-.4 1.37-.04.07-.07.22.05.23.12.01.41-.19.55-.3.04-.01.13-.03.12.07-.02.12-.3.7-1.5 1.42-.05.02-.15.08-.15.17.01.1.11.1.18.1h.05c.07 0 .27.04.27.18 0 .14-.3.4-.57.62-.26.2-.12.54 0 .62l.77.74c.1.08.28.3.28.57 0 .35-.47.8-.88 1-.06.17-.17.73-.21 1.65 0 .08 0 .26.07.35l.41.55a.9.9 0 01.11.32c0 .1-.1.74-.77.86-.04.02-.14.01-.24-.17-.11-.22-.38-.07-.4.05 0 .1-.13.13-.19.13H9c-.06-.01-.17-.07-.18-.23a2.68 2.68 0 010-.05c-.02-.24-.05-.77-.71-.78-.72-.02-.76-.04-.83-.13l-.03-.04c-.06-.08-.1-.14-.1-.38 0-.22-.25-.48-.38-.59-.3-.22-.86-.91-.75-1.93.12-1.01.37-1.37.49-1.42.05-.06.16-.2.15-.34 0-.13-.1-.28-.15-.35a.3.3 0 01-.04-.16.69.69 0 01.09-.23c.13-.18.38-.6.37-.84a3.52 3.52 0 01-.06-.74c.03-.3.17-.97 1.02-1.23.62-.13 1.83-.37 2.26-.76.44-.38.5-.47.52-.7.01-.21-.18-.3-.3-.29-.13.01-.36.02-.58.34-.1.1-.32.32-.56.47l-.02.01c-.05.03-.12.07-.19.05zM8.5 7a.5.5 0 100-1 .5.5 0 000 1zm.12 4.63c-.19.23-.45.32-.58.2-.14-.11-.1-.4.09-.63.18-.23.44-.33.58-.21.13.12.09.4-.1.64zM7.06 8.16c-.01-.06.13-.2.8-.24.65-.04.8.08.8.2 0 .12-.19.44-.71.5-.49.07-.89-.36-.89-.46z" fill="#fff"/><defs><linearGradient id="agywot4be" x1="3.35" y1="3.12" x2="21.9" y2="24.43" gradientUnits="userSpaceOnUse"><stop stop-color="#1A1E21"/><stop offset="1" stop-color="#06060A"/></linearGradient></defs></svg>