<!-- by TradingView --><svg xmlns="http://www.w3.org/2000/svg" width="18" height="18"><path fill="#F0F3FA" d="M0 0h18v18H0z"/><path d="M10.29 5.27c-3.38-.26-3.63.27-4.16.54 1.66-.67 2 1 3.66 1 1 0 2.32-1 3.82-1.24l-3.32-.3z" fill="#00B0BD"/><path d="M9.79 6.48c-1.33 0-2.33-1.34-3.66-.67 1.66-.67 2 1 3.66 1 1 0 2.32-1 3.82-1.24-1.33.07-2.83.91-3.82.91z" fill="#086972"/><path d="M7.2 8.02c-1.69 1.43-3.08 2.3-3.85 4.5 0 0-.05-2.51 2.56-5.51.28-.3.57-.68.22-1.03 2-.34 2.38.92 1.06 2.04z" fill="#71BF45"/><path d="M7.91 7.04c-.1.31-.33.65-.72.98-1.34 1.14-2.5 1.93-3.3 3.33 0 0 .17-.84 1.33-2.1.8-.88 1.97-1.4 2.7-2.2z" fill="#519036"/><path d="M3.97 11.86c2.99-2.7 7.15.16 9.64 1.34-2-1.34-3.5-4.74-4.99-4.97-1.83-.28-3.7 2.24-4.65 3.63z" fill="#00529C"/><path d="M3.97 11.86c2.99-2.7 7.15.16 9.64 1.34-2.16-1.18-4.1-2.62-5.65-2.86a4.46 4.46 0 00-4 1.52z" fill="#072C71"/><path d="M10.12 7.82c0-1.07 2.83-1.84 4.49-2.01-2.16 1.17-2.39 4.6-1.33 6.55-2.16-1.85-3.16-3.7-3.16-4.54z" fill="#F25822"/><path d="M14.6 5.8c-2.15 1.18-2.38 4.6-1.32 6.56-1.5-2.02-1.33-5.71 1.33-6.55z" fill="#B93F10"/></svg>