<!-- by TradingView --><svg width="18" height="18" fill="none" xmlns="http://www.w3.org/2000/svg"><path fill="#B08D3F" d="M0 0h18v18H0z"/><circle cx="9" cy="9" r="5" fill="#35312F"/><path d="M8.055 3c.106.028.273.202.098.67.043-.077.16-.22.287-.182.132.04.04.53-.13.805.11-.11.257-.18.357-.005.004.078-.027.302-.18.612.103-.18.275-.371.399-.14-.22.433-.165.628-.22 1.21.02-.257.375-.675.46-.597.126.117-.116 1.265.28 1.412l-.162.254c-.008-.033-.041-.099-.119-.104-.096-.007-.245.253-.352.85-.106.595-.249.989-.373 1.087.002-.213-.226-.898-1.152-1.937v-.15c.07.05.222.15.28.15.056 0-.19-.349-.321-.523l.071-1.22a.63.63 0 01.29.362v-.438c-.03-.073-.092-.246-.082-.355.01-.11.06-.239.083-.29.031-.156.108-.506.16-.65.065-.18.326-.603.326-.821z" fill="#B08D3F" stroke="#35312F" stroke-width=".1"/><path d="M7.534 10.805c-.113-.003-.342-.111-.35-.518-.043-.016-.124-.089-.104-.252.026-.204.119-.46.552-.727.433-.266.537-.185.758-.442.103-.004.339-.236.454-1.126.026-.198.118-.62.279-.722.017.014.053.072.062.19.108-.166.414-.542.773-.717.449-.219.727-.318.83-.452.03-.017.1-.041.145 0 .045.042-.009.107-.041.134-.056.052-.153.172-.104.237.062.08.402-.312.674-.467.273-.155.456-.201.61-.247.153-.045.564-.25.906-.301.342-.05.936-.242.981-.283.088.103.091.35-.578.53.19-.049.517-.11.543-.028.035.11-.138.414-1.337.559h.758c.045.132-.119.413-1.125.492.28-.019.758-.012.758.145 0 .167-.75.208-1.125.208.222.005.678.032.734.102.252.32-1.138.448-1.208.439.233.04.886.176.856.247-.273.634-.857 1.163-1.18 1.29 1.218-.23.739.12-.267 1.137-.03.03.352.27.402.32.049.05.099.164.297.182.16.142.573.461.946.607.373.146.621.329.699.402l-.372.04c.223.124.164.23.164.23s-.21-.097-.233.031c-.002.021.018.074.114.114h-.189l-.475-.58c-.043-.028-.179 0-.179 0s-.099-.031-.168-.082c-.07-.05-.1-.187-.862-.37-.144-.028-.486-.142-.704-.364.08.39-.131.188-.455.337-.045.02-.136.127-.144.397l-.317.95c-.048-.008-.163-.076-.238-.288 0-.254-.108-.503-.09-.58a.343.343 0 00.03-.237c-.03-.137-.175-.195-.221-.186L8.53 11.1l-.48-.457.072-.218h-.15l.078-.11c.072-.028.145-.028.19-.028.057 0 .15-.072.15-.168l-.268-.041a.399.399 0 00-.201-.055c-.012.05-.087.173-.289.264l-.041-.054c.034-.033.105-.111.113-.155.009-.044-.044-.047-.072-.043-.032.048-.098.155-.098.198 0 .054-.098.445 0 .572z" fill="#B08D3F"/><path d="M12.587 6.173c1.199-.145 1.372-.45 1.337-.559-.027-.088-.398-.012-.58.037.706-.18.704-.434.615-.539-.045.041-.64.233-.981.283-.342.05-.753.256-.907.301-.153.046-.336.092-.609.247-.272.155-.612.548-.674.467-.05-.065.048-.185.104-.237.032-.027.086-.092.04-.134-.045-.041-.114-.017-.144 0-.103.134-.381.233-.83.452-.359.175-.665.551-.773.717-.009-.118-.045-.176-.062-.19-.161.103-.253.524-.279.722-.115.89-.35 1.122-.454 1.126-.221.257-.325.176-.758.442s-.526.523-.552.727c-.02.163.06.236.104.252.008.407.237.515.35.518-.098-.127 0-.518 0-.572 0-.043.066-.15.098-.198.028-.004.08 0 .072.043-.008.044-.079.122-.113.155l.041.054c.202-.091.277-.214.289-.264.095 0 .174.037.201.055l.268.041c0 .096-.093.168-.15.168-.045 0-.118 0-.19.028l-.077.11h.15l-.073.218.48.457.263.056c.046-.01.19.05.221.186a.343.343 0 01-.03.238c-.018.076.09.325.09.58.075.211.19.28.238.287l.317-.95c.008-.27.099-.377.144-.397.324-.149.534.053.455-.337.218.222.56.336.704.365.763.182.793.32.862.37.07.05.168.082.168.082s.136-.03.179 0l.475.58h.189c-.095-.04-.116-.094-.114-.115.023-.128.232-.032.232-.032s.06-.105-.163-.228l.372-.041a2.411 2.411 0 00-.699-.402c-.373-.146-.786-.465-.946-.607-.198-.018-.248-.132-.297-.182-.05-.05-.432-.29-.402-.32 1.006-1.017 1.485-1.367.268-1.136.322-.128.906-.657 1.179-1.29.03-.072-.626-.209-.857-.249.048.012 1.464-.115 1.209-.438-.056-.07-.512-.097-.734-.102.375 0 1.125-.041 1.125-.208 0-.167-.538-.164-.807-.142 1.05-.073 1.22-.36 1.174-.495h-.783" stroke="#35312F" stroke-width=".1"/></svg>