<!-- by TradingView --><svg xmlns="http://www.w3.org/2000/svg" width="18" height="18" viewBox="0 0 18 18"><path fill="#F0F3FA" d="M0 0h18v18H0z"/><path d="M4 12.92C7.05 10.76 8.88 5.98 9 3a14.14 14.14 0 004.95 9.92 11.58 11.58 0 00-9.95 0z" fill="#2AAE3F"/><path d="M13.78 13.22a10.21 10.21 0 00-9.53 0L4 12.78a10.69 10.69 0 0110-.01l-.22.44z" fill="#F27A1D"/><path d="M8.3 8.37c.14-1.34.88-1.48 1.24-1.39-.35.34-.47 1-.24 1.7a4.36 4.36 0 01.24 1.22c-.07 1.27-.86 1.5-1.23 1.42.21-.22.4-.9.18-1.61a4.5 4.5 0 01-.18-1.34z" fill="#F27A1D"/><path d="M8.78 7.06a.91.91 0 01.78-.17l.18.04-.13.13c-.32.3-.44.91-.21 1.6.19.57.24 1.06.24 1.24-.04.66-.26 1.06-.54 1.3a.99.99 0 01-.81.22l-.17-.04.12-.13c.08-.09.18-.29.22-.56a2.15 2.15 0 00-.06-.95 4.6 4.6 0 01-.2-1.37c.08-.7.3-1.1.58-1.3zM8.4 8.38c-.01.2.01.73.18 1.3.11.37.12.74.07 1.04a1.63 1.63 0 01-.17.52.84.84 0 00.48-.2c.23-.19.43-.53.47-1.15 0-.16-.05-.62-.23-1.17-.21-.64-.15-1.27.13-1.66a.73.73 0 00-.44.16c-.22.17-.43.51-.5 1.16z" fill="#fff"/></svg>