<!-- by TradingView --><svg width="18" height="18" xmlns="http://www.w3.org/2000/svg"><path fill="#FFCB05" d="M0 0h18v18H0z"/><path fill-rule="evenodd" d="M3 6v6h1V9.429h.854c.588 0 1.81-.39 1.817-1.715C6.68 6.39 5.451 6 4.854 6H3zm1 1v1.61h.926c.287 0 .873-.269.854-.805C5.76 7.268 5.18 7 4.926 7H4zm8-1v6h1V9.429h.21L14.646 12h1.022L14.28 9.429c.147 0 1.38-.39 1.387-1.715C15.676 6.39 14.316 6 13.75 6H12zm1 .994V8.57h.875c.272 0 .826-.263.808-.788-.018-.526-.566-.79-.808-.79H13z" fill="#000"/><path d="M9.058 13.754L7.44 5.048l1.17.993.448 3.404.443-3.404 1.176-.993-1.619 8.706z" fill="#000"/></svg>