<!-- by TradingView --><svg xmlns="http://www.w3.org/2000/svg" width="18" height="18"><path fill="#F0F3FA" d="M0 0h18v18H0z"/><path d="M4.4 6.29h-.8v.36C2.69 6.87 2 7.83 2 8.98v.8c.15 0 .27.14.27.32v1.27c0 .17-.12.31-.27.31V12h1V8.98c0-.79.34-1.32 1-1.32s1 .53 1 1.32V12h1v-.32c-.15 0-.27-.14-.27-.31V10.1c0-.18.12-.32.27-.32v-.8c0-1.15-.69-2.1-1.6-2.33V6.3zm10 0h-.8v.36c-.91.22-1.6 1.18-1.6 2.33v.8c.15 0 .27.14.27.32v1.27c0 .17-.12.31-.27.31V12h1V8.98c0-.79.34-1.32 1-1.32s1 .53 1 1.32V12h1v-.32c-.15 0-.27-.14-.27-.31V10.1c0-.18.12-.32.27-.32v-.8c0-1.15-.69-2.1-1.6-2.33V6.3zM10 12h1V5.22a1.2 1.2 0 00-1.17-1.05c-.18 0-.34.05-.5.12V4h-.66v.3a1.12 1.12 0 00-.5-.13A1.2 1.2 0 007 5.22V12h1V5.4c0-.36.64-.36.64 0h.72c0-.36.64-.36.64 0V12z" fill="#FFD503"/><path d="M3.5 9h1v3h-1V9zm5-2h1v5h-1V7zm5 2h1v3h-1V9z" fill="#ED1C24"/></svg>