<!-- by TradingView --><svg width="18" height="18" viewBox="0 0 18 18" xmlns="http://www.w3.org/2000/svg"><path fill="#265499" d="M0 0h18v18H0z"/><path d="M12.2 7c.3.5.629.862.629 1.972C13 10.5 11.674 12.8 9 12.8c-2.674 0-3.759-2.261-3.759-3.3 0-1.213 0-1.834.559-2.5l-.3-.5-.259-.822a4.99 4.99 0 107.683.223L12.2 7z" fill="#fff"/><path d="M11.97 6.777c.487.624.777 1.406.777 2.254 0 2.044-1.682 3.7-3.757 3.7s-3.757-1.656-3.757-3.7c0-.927.346-1.774.918-2.423l-.07-.094a3.766 3.766 0 00-.964 2.517c0 2.107 1.734 3.814 3.873 3.814 2.14 0 3.873-1.707 3.873-3.814 0-.885-.306-1.7-.82-2.346l-.074.092z" fill="#fff"/><path fill-rule="evenodd" d="M5.395 5.559c.118-.099.245-.204.28-.348.09-.358.522-.484.857-.484.162 0 .507-.015.596-.075.112-.074.708-.372.782.15 0 .036-.044.11-.074.11-.017 0-.034-.03-.054-.067-.025-.044-.054-.098-.095-.118-.046-.023-.095.011-.126.045a.084.084 0 01-.06.03.09.09 0 01-.061-.03c-.058-.056-.13-.036-.163.03a1.35 1.35 0 01-.2.342l-.023.03.247.076c.041.012.032.073-.01.073h-.349l-.298.26c-.112.112.037.26.15.186l.217-.124a.074.074 0 01.082.005l.058.043c.03.023.071.02.097-.006l.014-.014a.074.074 0 01.105 0l.032.032a.074.074 0 00.065.02l.02-.002c.063-.01.108.06.068.11-.233.298-.408.301-.532.303-.064.001-.115.002-.152.043-.305.333-.42.388-.522.372-.035-.005-.068-.01-.106 0-.12.03-.415.41-.452.485l-.82-.969s.174-.288.278-.394c.038-.038.103-.076.15-.114zm.541-.348c.1-.124.328-.358.447-.298.1.05-.056.262-.19.41-.1.111-.1.042-.1-.018 0-.025 0-.05-.008-.057-.015-.015-.056-.005-.093.004-.053.013-.1.024-.056-.041zm.894.745c.09-.06.115.037.075.074-.11.1-.33.246-.535.234-.147-.008-.294-.112-.288-.271.008-.19.198-.427.352-.576a.053.053 0 01.088.022.057.057 0 01-.014.057c-.375.393-.37.824.322.46zM5.402 5.81a.112.112 0 00-.015.157l.455.547a.112.112 0 10.172-.143l-.455-.546a.112.112 0 00-.157-.015zm7.2-.264c-.118-.098-.299-.188-.335-.332-.09-.357-.521-.484-.857-.484-.16 0-.506-.015-.595-.075-.112-.074-.708-.372-.782.15 0 .037.044.111.074.111.017 0 .034-.03.054-.067.025-.045.054-.099.095-.119.046-.023.095.011.126.045.016.017.037.03.06.03a.09.09 0 00.061-.03c.058-.055.13-.036.163.03.049.123.116.238.2.342l.023.03-.247.076c-.041.013-.032.073.01.073h.349l.298.26c.111.112-.037.261-.15.187l-.217-.125a.075.075 0 00-.082.005l-.058.044a.075.075 0 01-.098-.007l-.013-.014a.075.075 0 00-.105 0l-.032.032a.075.075 0 01-.065.021l-.02-.003c-.063-.01-.108.06-.068.11.232.298.408.301.532.303.064.002.115.002.152.043.305.333.42.388.522.373a.252.252 0 01.106-.001c.12.03.415.41.452.485l.894-.972s-.213-.3-.318-.407a1.774 1.774 0 00-.129-.114zm-.596-.332c-.099-.124-.327-.357-.447-.298-.1.05.057.263.19.41.102.112.101.042.101-.018 0-.025 0-.049.008-.057.015-.015.056-.005.093.004.053.013.1.025.055-.04zm-.893.745c-.09-.06-.116.037-.075.074.11.1.33.246.535.234.147-.008.294-.111.288-.27-.008-.191-.198-.427-.352-.577a.053.053 0 00-.088.022.057.057 0 00.014.057c.375.393.37.825-.322.46zm1.428-.145c.047.04.054.11.014.158l-.454.546a.112.112 0 01-.172-.142l.455-.547a.112.112 0 01.157-.015zM4.03 9.23l.095-.356 1.065.286v.408l-1.16-.339zm.309-.125a.074.074 0 11-.15 0 .074.074 0 01.15 0zm.165.144a.074.074 0 100-.149.074.074 0 000 .149zm.314-.006a.074.074 0 11-.15 0 .074.074 0 01.15 0zm.165.148a.074.074 0 100-.149.074.074 0 000 .15zm.392 2.983l-.184-.319.955-.55.289.288-1.06.58zm.13-.306a.074.074 0 11-.105.105.074.074 0 01.106-.105zm.22-.016a.074.074 0 10-.106-.105.074.074 0 00.105.105zm.216-.226a.075.075 0 11-.105.105.075.075 0 01.105-.105zm.223-.012a.074.074 0 10-.106-.105.074.074 0 00.106.105zm2.926 2.127l-.36-.075.225-1.078.408-.023-.274 1.176zm-.142-.3a.074.074 0 11.009.148.074.074 0 01-.009-.149zm.135-.174a.075.075 0 10-.15.009.075.075 0 00.15-.009zm-.024-.313a.074.074 0 11.008.149.074.074 0 01-.008-.149zm.14-.173a.075.075 0 10-.15.008.075.075 0 00.15-.008zm3.292-.471l-.323.175-.523-.97.297-.28.55 1.075zm-.302-.14a.075.075 0 11.102.11.075.075 0 01-.102-.11zm-.009-.218a.075.075 0 10-.108.102.075.075 0 00.108-.102zm-.22-.224a.075.075 0 11.102.109.075.075 0 01-.102-.109zm-.005-.222a.075.075 0 10-.108.102.075.075 0 00.108-.102zm1.951-2.293l-.111.378-1.027-.61.058-.432 1.08.664zm-.33.04a.075.075 0 11.144.039.075.075 0 01-.144-.039zm-.122-.181a.075.075 0 10-.039.144.075.075 0 00.039-.144zm-.305-.075a.075.075 0 11.144.038.075.075 0 01-.144-.038zm-.121-.187a.074.074 0 10-.039.144.074.074 0 00.039-.144z" fill="#fff"/><path d="M7.017 8.302c.037-.286.145-.787.707-.857.167-.02.286.017.405.054.094.029.188.058.303.058.075 0 .208-.07.372-.155.4-.208.987-.514 1.378-.143.708.67-.05 1.378-.447 1.713.137.075.393.408.522 1.117.074.41.682.422.968.187-.714 1.07-1.937.558-1.937-.745 0-.193-.16-.264-.288-.151v.41l-1.372.82c-.249.161-.857.365-1.304-.112l.596-.67c.122.182.47.508 1.08.24V8.39l1-.497v1.08c.037.062.08.12.288-.149.26-.335.65-1.27-.111-1.08-.447.112-.783.112-1.118 0-.166-.055-.417.075-.447.67l-.595-.111z" fill="#fff"/></svg>