<!-- by TradingView --><svg xmlns="http://www.w3.org/2000/svg" width="18" height="18" viewBox="0 0 18 18"><path fill="#F0F3FA" d="M0 0h18v18H0z"/><path d="M3 12h12V9.78L3 12z" fill="#818587"/><path fill-rule="evenodd" d="M3 6h12v3.14L3 11.32V6zm.33 1.66l1.34-.23c.34-.08 1.06-.05 1.18.68.06.24.02.77-.57.99l1.05 1.03-1 .17-.9-1 .18 1.13-.82.15-.46-2.92zm.92.46c.23-.07.7-.12.75.25.05.4-.33.47-.54.5l-.09.02-.12-.77zm4.46-.5L8 7.76l.05.33a.83.83 0 00-.62-.29c-.88.05-1.14.75-1.02 1.36.13.63.61.91 1.12.84.4-.05.66-.38.74-.53l.05.3.72-.12-.32-2.03zm-.5 1.23a.54.54 0 11-1.08 0 .54.54 0 011.08 0zm1.46.7L9.34 7.5l.73-.13.07.43c.03-.17.24-.54.84-.65.54-.1.8.3.84.54l.23 1.42-.8.14-.13-.83v-.05c-.04-.29-.09-.69-.48-.6-.4.09-.4.52-.36.72l.16.9-.77.15zm3.73-2.82c1.02-.2 1.37.57 1.4.99l-1.66.32c-.01.14.13.41.43.4.4-.02.53-.23.57-.33l.62.1c-.12.36-.5.55-.74.62-1.1.3-1.55-.32-1.64-.68-.09-.39 0-1.22 1.02-1.42zm.02.44c-.27.07-.35.33-.35.45l.9-.17c-.04-.08-.2-.36-.55-.28z" fill="#175EAB"/></svg>