<!-- by TradingView --><svg xmlns="http://www.w3.org/2000/svg" width="18" height="18"><path d="M0 9a9 9 0 1118 0A9 9 0 010 9z" fill="#D5FA9D"/><path fill-rule="evenodd" d="M9.57 3.29L9 3l-.57.29v2.03l.57.3.57-.3V3.29zm.29.14l.28.15v2.47l-1 .5c0-.16.09-.31.23-.39l.49-.27V3.43zm-1 3.12a.44.44 0 00-.23-.39l-.49-.27V3.43l-.28.15v2.47l1 .5zm.68 1.39l.89-.45v-.51l-1.14.6c0-.2.1-.38.28-.48l.86-.45V3.72l.28.15v3.76l-1.42.73c0-.18.1-.34.25-.42zm-1.11-.86c.17.1.28.28.28.48l-1.14-.6v.53l.89.45c.16.08.25.24.25.42L7.3 7.63V3.87l.28-.15v2.9l.86.46zm-.72 1.3l.95.44-1.09.5v3.38l1.1.52-.96.46-2.42-1.17v-3L7.7 8.38zm0-.31l1.29.6 1.29-.6L13 9.33v3.37L10.29 14 9 13.38 7.71 14 5 12.7V9.33l2.71-1.26zm.15 1.44L9 8.98l1.14.53v3L9 13.06l-1.14-.55v-3zm2.57 3.19l-1.1.52.96.46 2.42-1.17v-3L10.3 8.38l-.95.44 1.09.5v3.38zM7 10.6H6v1.01h1V10.6zm4 0h1v1.01h-1V10.6zm-1.5 0h-1v1.01h1V10.6z" fill="#18834E"/></svg>