<!-- by TradingView --><svg width="18" height="18" viewBox="0 0 18 18" xmlns="http://www.w3.org/2000/svg"><path fill="#DA2439" d="M0 0h18v18H0z"/><path d="M4.539 10.59C4.585 9.08 6.463 8.903 7.396 9 6.196 9.267 6 9.862 6 10.249v1.246c-.131 1.4-1.372 1.575-2 1.487.738-.503.48-.503.539-2.39zm8.922 0c-.046-1.51-1.924-1.689-2.857-1.59 1.2.266 1.396.861 1.396 1.247v1.247c.131 1.4 1.372 1.575 2 1.487-.738-.503-.48-.503-.539-2.39zM4.585 6.816c-.009-1.73 1.87-1.91 2.81-1.784-.42.08-1.469.095-1.545 1.784-.066 1.476.98 1.843 1.546 1.91-.539-.057-2.799.252-2.81-1.91zm8.83 0c.009-1.73-1.87-1.91-2.81-1.784.42.08 1.469.095 1.545 1.784.066 1.476-.98 1.844-1.546 1.91.539-.057 2.799.252 2.81-1.91zM10.253 5H7.747c.431.086.515.489.515.727.008 1.98.019 6.062 0 6.558-.018.496-.351.683-.515.715h2.506c-.45-.124-.527-.453-.527-.715-.004-1.976-.01-6.052 0-6.558.01-.505.355-.695.527-.727z" fill="#fff"/></svg>