<!-- by TradingView --><svg width="18" height="18" viewBox="0 0 18 18" xmlns="http://www.w3.org/2000/svg"><path fill="#203C8F" d="M0 0h18v18H0z"/><path d="M11.374 9.756c.149.225.307.297.432.525.367.674.268 1.736.354 2.483.025.216.016.237-.204.237l-1.592.001c-.271 0-.401-.12-.402-.39 0-.67.047-1.341-.024-2.004-.052-.478-.267-.577-.777-.607-.265-.015-.86.095-.648-.35.167-.35.341-.64.505-.991.076-.163.2-.227.37-.226.354 0 .709.019 1.06-.006.493-.036 1.157-.128 1.422-.599.115-.202.222-.41.32-.62.177-.376.02-.673-.389-.74a1.924 1.924 0 00-.309-.026c-.664-.002-1.328.001-1.992-.003-.166 0-.274.06-.347.212-.712 1.485-1.43 2.77-2.143 4.254-.3.625-.595 1.253-.885 1.883-.07.15-.171.214-.332.213-.505-.003-1.01 0-1.514-.001-.252 0-.342-.132-.234-.36 1.194-2.503 2.43-4.852 3.66-7.338.11-.223.307-.303.544-.303 1.544 0 3.088-.001 4.633.001 1.284.003 1.649 1.053 1.312 2.124-.184.587-.412 1.091-.806 1.577-.423.52-.984.797-1.614.964-.136.036-.275.062-.4.09z" fill="#fff"/></svg>