<!-- by TradingView --><svg xmlns="http://www.w3.org/2000/svg" width="18" height="18"><path fill="#ED1852" d="M0 0h18v18H0z"/><path d="M2.57 7.75h1.21c.13.02.3.09.45.24.14.16.23.39.2.69a1.05 1.05 0 01-.88.96l.68 1a.25.25 0 01-.42.28l-.86-1.28h-.1l-.13 1.17a.25.25 0 11-.5-.05l.35-3.01zm.34 1.4h.5c.08 0 .2-.04.3-.11.1-.08.2-.2.22-.42.02-.17-.03-.25-.07-.3a.28.28 0 00-.14-.07h-.7l-.1.9z" fill="#fff"/><path fill-rule="evenodd" d="M4.75 10.04h1.6l.04-.21c.07-.36-.01-.69-.2-.92a.98.98 0 00-.77-.37c-.68 0-1.08.62-1.17 1.2a.42.42 0 000 .11c-.02.37.1.67.3.88.2.21.49.31.77.3.22 0 .43-.08.58-.16.16-.09.28-.19.36-.26a.25.25 0 00-.36-.36 1.1 1.1 0 01-.23.18.85.85 0 01-.37.1.53.53 0 01-.4-.15.57.57 0 01-.15-.34zm.07-.5h1.1a.56.56 0 00-.12-.32.48.48 0 00-.38-.18c-.25 0-.48.18-.6.5z" fill="#fff"/><path d="M7.17 8.72a.25.25 0 00-.5-.06l-.32 3.1a.25.25 0 10.5.05l.12-1.22c.12.19.28.32.49.37.5.12 1.02-.3 1.18-.95.17-.65-.1-1.27-.6-1.4-.32-.07-.66.08-.9.37l.03-.26zm-.15 1.47l.08-.8c.15-.24.38-.36.6-.31.31.07.48.45.38.84-.1.4-.42.65-.72.58a.5.5 0 01-.34-.31z" fill="#fff"/><path fill-rule="evenodd" d="M11.1 10.94c.54.24 1.2-.07 1.5-.7.28-.62.07-1.32-.46-1.56-.54-.24-1.2.07-1.5.7-.28.62-.08 1.32.46 1.56zm.34-.4c.3.08.64-.18.74-.59.1-.4-.07-.79-.38-.86-.31-.08-.65.18-.75.59-.1.4.08.79.39.87z" fill="#fff"/><path d="M9.21 8.86c.23-.2.5-.27.67-.26.28 0 .49.12.6.2a.25.25 0 01-.3.4.55.55 0 00-.32-.1.54.54 0 00-.32.14c-.13.1-.26.3-.29.67-.02.26.07.41.17.5.1.1.24.13.34.12.04 0 .1-.01.14-.03.05-.02.07-.04.07-.05a.25.25 0 01.41.3.66.66 0 01-.28.2c-.1.05-.2.07-.3.08a.98.98 0 01-.72-.25c-.22-.2-.36-.5-.33-.9.04-.5.23-.82.46-1.02z" fill="#fff"/><path d="M9.48 7.67l-.2.73-.3-.34v-.24H8v-.3l4.54-1.5L16 7.98v.34h-2.2l-.77 3.08c-.02.1-.09.26-.2.23-.1-.03-.1-.18-.09-.29l.53-3.53h1.12l-1.93-1-2.98.85z" fill="#FFB200"/></svg>