<!-- by TradingView --><svg width="18" height="18" viewBox="0 0 18 18" xmlns="http://www.w3.org/2000/svg"><path fill="#04A5AC" d="M0 0h18v18H0z"/><path d="M13 4.943l-2.786 2.575L9.194 4 13 4.943z" fill="#fff"/><path d="M6.634 8.372c-.88-2.556 1.634-3.37 2.89-3.486 1.215.155 3.103 1.072.378 1.51-1.8.29-1.846 1.03-1.442 1.743.593 1.048 1.633 1.76 2.09 2.905.325.815.341 1.695-.523 2.323-1.407 1.022-3.938.58-5.027.232l.628-1.51c.88.58 2.891.58 3.268-.116.377-.697-1.885-2.556-2.262-3.601z" fill="#fff"/></svg>