<!-- by TradingView --><svg xmlns="http://www.w3.org/2000/svg" width="18" height="18"><path fill="url(#aqjj01yjv)" d="M0 0h18v18H0z"/><path fill-rule="evenodd" d="M13 5h-.27c-.02.25-.11.93-.66.62A5.53 5.53 0 009.77 5c-.66-.01-2.37.24-2.37 1.69a.9.9 0 000 .06h-.03C6.7 6.74 5 7.01 5 8.45c0 .44.34 1.37 2.19 1.72 2.27.44 2.61 1.06 2.61 1.56 0 .41-.23 1.1-1.52 1.02-2.28-.2-3.01-1.96-3.01-2.5H5V13h.27c.28-.92 1.12-.54 1.12-.54.03 0 .13.05.27.1.38.16 1.05.44 1.62.44.83 0 2.24-.25 2.32-1.76.81.07 2.38-.22 2.4-1.87 0-.47-.4-1.33-2.32-1.75C8.32 7.12 8.2 6.57 8.2 6.2c0-.3.28-.96 1.56-.94 1.29.02 2.83.94 2.97 2.15H13V5zm-2.41 6c1.36.12 1.61-.62 1.61-1.04 0-.5-.34-1.12-2.61-1.56-1.48-.28-2-.93-2.14-1.4h-.08c-1.29-.02-1.57.66-1.57.96 0 .38.13.93 2.48 1.43 1.74.38 2.23 1.12 2.3 1.61z" fill="#fff"/><defs><linearGradient id="aqjj01yjv" x1="3.35" y1="3.12" x2="21.9" y2="24.43" gradientUnits="userSpaceOnUse"><stop stop-color="#1A1E21"/><stop offset="1" stop-color="#06060A"/></linearGradient></defs></svg>