<!-- by TradingView --><svg width="18" height="18" viewBox="0 0 18 18" xmlns="http://www.w3.org/2000/svg"><path fill="#BC2921" d="M0 0h18v18H0z"/><path d="M11.273 7.347v5.036c.003.418.275.592.572.617h2.08c.114-.005.108-.37-.087-.347-.272.032-.845-.23-.838-.58V7.306c-.012-.237-.143-.31-.362-.306h-.967c-.226-.006-.405.095-.398.347zM8.545 4.762c-.023-.505.242-.774.73-.762h1.22c.362 0 .586.248.56.67v1.218c-.011.235-.3.214-.304 0v-.953c0-.443-.387-.428-.387 0v7.425c0 .217.184.234.184 0v-1.24c-.006-.25.298-.302.303 0v1.309c0 .38-.11.584-.432.57L9.275 13c-.418-.032-.73-.436-.73-.927V4.762zm-1.69 2.971c-.263-.226-.421-.479-.43-.722-.013-.321.334-.492.563-.334a.774.774 0 01.345.63c.016.256-.207.66-.478.426zM4.374 9.81L5.62 9.2l.923 1.109c.474.57.694 1.366-.119 1.765l-1.134.558c-.159.107-.076.376.121.33 1.04-.387 1.55-.677 2.332-1.31 1.064-.86.472-2.695-.275-3.306.559-1.018.323-1.942-.614-2.356-.744-.33-1.678.035-2.035.844-.296.659-.128 1.318.506 1.978l-1.257.71c-.225.131.16.36.305.288z" fill="#fff"/></svg>