<!-- by TradingView --><svg width="18" height="18" viewBox="0 0 18 18" xmlns="http://www.w3.org/2000/svg"><path fill="#099" d="M0 0h18v18H0z"/><path d="M12 4.393v1.872c-.958-.366-1.787-.593-2.534-.593-.443 0-.794.082-1.059.243-.264.161-.4.36-.4.595 0 .312.304.59.905.839l1.739.856c1.4.678 2.099 1.579 2.099 2.71 0 .941-.371 1.691-1.112 2.247-.747.56-1.739.838-2.985.838-1.299 0-2.494-.053-3.653-.668v-1.959c1.237.776 2.589.844 3.46.844 1.045 0 1.565-.307 1.565-.926 0-.308-.212-.557-.64-.751l-1.931-.833c-.718-.326-1.42-.747-1.762-1.216-.346-.472-.516-1.014-.516-1.633 0-.866.358-1.563 1.074-2.094C6.963 4.238 8.09 4 9.274 4c.389 0 .827.035 1.324.098.491.068.945.193 1.402.295z" fill="#fff"/></svg>