<!-- by TradingView --><svg xmlns="http://www.w3.org/2000/svg" width="18" height="18" viewBox="0 0 18 18"><path fill="#00AEEF" d="M0 0h18v18H0z"/><path d="M5.5 4h7v10h-7V4z" fill="#fff"/><path d="M9 4.29H5.8V11h1.98a2.55 2.55 0 01-1.36-2.43c.08-.7.59-1.32 1.15-2.02C8.1 5.9 8.68 5.2 9 4.3zm0 0h3.2V11h-1.98a2.55 2.55 0 001.35-2.43c-.07-.7-.58-1.32-1.14-2.02C9.9 5.9 9.3 5.2 9 4.3z" fill="#00AEEF"/><path d="M7.93 10l1.83-2.57-.76 2h1.07L8.09 12 9 10H7.93zM7 13h4v.7H7V13z" fill="#E43224"/><path opacity=".7" d="M6 12h6v1H6v-1z" fill="#00AEEF"/></svg>