<!-- by TradingView --><svg xmlns="http://www.w3.org/2000/svg" width="18" height="18" viewBox="0 0 18 18"><path fill="#EC1C24" d="M0 0h18v18H0z"/><ellipse rx="1.27" ry="1.76" transform="matrix(.813 .58227 -.61711 .78688 8.3 5.12)" fill="#F6991D"/><ellipse rx=".89" ry="1.29" transform="matrix(.78738 .61647 -.65087 .75919 10.64 6)" fill="#F8A818"/><ellipse rx=".66" ry=".98" transform="matrix(.78738 .61647 -.65087 .75919 12.6 6.7)" fill="#FABB13"/><ellipse rx=".54" ry=".8" transform="matrix(.78738 .61647 -.65087 .75919 14.06 7.25)" fill="#F8D208"/><ellipse rx=".64" ry=".99" transform="matrix(.71267 .7015 -.73309 .68013 11.42 8.85)" fill="#FABB13"/><ellipse rx=".5" ry=".77" transform="matrix(.71267 .7015 -.73309 .68013 13.16 8.88)" fill="#F8D208"/><ellipse rx=".6" ry=".99" transform="matrix(.71267 .7015 -.73309 .68013 10.83 10.88)" fill="#FABB13"/><ellipse rx=".47" ry=".79" transform="matrix(.71267 .7015 -.73309 .68013 12.75 10.5)" fill="#F8D208"/><ellipse rx=".81" ry="1.32" transform="matrix(.65955 .75167 -.78037 .62532 9.01 8.77)" fill="#F8A818"/><ellipse rx=".78" ry="1.32" transform="matrix(.65955 .75167 -.78037 .62532 8.1 11.53)" fill="#F8A818"/><ellipse rx="1.18" ry="1.78" transform="matrix(.60204 .79847 -.82363 .56712 6.23 8.7)" fill="#F6991D"/><ellipse rx="1.06" ry="1.79" transform="matrix(.52397 .85174 -.87184 .4898 5.11 12.17)" fill="#F6991D"/></svg>