<!-- by TradingView --><svg width="18" height="18" xmlns="http://www.w3.org/2000/svg"><path fill="#F0F3FA" d="M0 0h18v18H0z"/><path d="M8.274 10.299c.049.003.085.03.123.052 1.004.558 2.21.217 3.296 0 1.358-.272 2.554-.772 3.27-1.997.35-.6.138-.905-.494-1.244-.415-.224-.777-.304-1.254-.366-2.03-.263-3.827.76-5.51 1.795-.071.044-.538.314-.574.253-.024-.041-.139-.212-.166-.253-.036-.054-.036-.067.023-.103.122-.075.245-.15.37-.22.651-.366 1.305-.727 1.947-1.106a9.665 9.665 0 011.595-.766 5.77 5.77 0 011.185-.301 4.16 4.16 0 01.825-.036 4.313 4.313 0 011.56.389c.189.087.348.21.492.348.305.291.544.623.718.993.064.134.136.265.195.4a1.467 1.467 0 01-.034 1.257c-.176.362-.448.656-.775.91-.514.4-1.103.677-1.734.885-.44.146-.893.243-1.355.302a5.792 5.792 0 01-1.018.034 3.826 3.826 0 01-1.108-.229c-.231-.083-.464-.162-.686-.266a2.338 2.338 0 01-.628-.406 1.553 1.553 0 01-.263-.325z" fill="#0095DA"/><path d="M3.3 9.251c.03-.04.06-.083.093-.122.515-.615 1.42-1.225 2.229-1.297.605-.054 1.217.54 1.484 1.013.392.695.719 1.381 1.377 1.864.63.462 1.282.882 2.082.988.44.058.877.056 1.32.065l.055.003c-.01.029-.034.027-.053.031a7.763 7.763 0 01-1.048.173c-.796.068-1.732.071-2.447-.272-.859-.413-1.497-1.203-1.9-2.05-.225-.475-.35-1.467-1.003-1.378a3.37 3.37 0 00-1.616.689c-.17.13-.372.155-.537.29-.006.006-.015.009-.022.013a1.726 1.726 0 00-.015-.01z" fill="#54C5D0"/><path d="M3.227 9.347c-.016.04-.04.065-.061.091-.237.295-.374.526-.357.93.01.222.116.256.357.223.643-.089.969-.29 1.494-.638.455-.301 1.04-.613 1.476-.935.022-.017.043-.052.076-.037.03.014.019.05.02.078.002.039-.006.08.006.117.02.065-.01.104-.057.147-.256.232-.54.432-.826.63-.483.334-.98.648-1.5.93a6.74 6.74 0 01-1.102.502c-.133.044-.27.074-.41.088a.442.442 0 01-.216-.033c-.084-.035-.117-.104-.124-.184a.606.606 0 01.022-.234 2.51 2.51 0 01.237-.52c.088-.152.174-.305.29-.441.197-.233.4-.462.618-.68.012-.012.022-.027.057-.034z" fill="#0095DA"/></svg>