<!-- by TradingView --><svg xmlns="http://www.w3.org/2000/svg" width="18" height="18" viewBox="0 0 18 18"><path fill="#ED3237" d="M0 0h18v18H0z"/><path fill-rule="evenodd" d="M9.64 11.2l-.05-.1-.07-.1c-.46-.67-2.59-1.35-2.75-.12v.21c.19.99 2.2.86 2.74.26l.07-.07.06-.08zm2.48-3.06L13 5.22l-.2-.18-.2-.16c-1.43-1.15-4.3-1.35-5.23.46l-.06.16-.05.16-.05.23c-.16.86.4 1.5 1.02 2l.17.13.18.12c.54.42 1.72 1 2 1.65l.05.13.02.14v.14l-.07.03-.08.02h-.07c-.57-.01-1.33-1.15-2.11-1.4l-.15-.07L8 8.72a3.61 3.61 0 00-3.16.51l-.1.1-.1.09-.1.1-.09.1c-.69.83-.56 2.15.09 2.96l.14.16.15.16c1.4 1.35 3.5 1.38 5.17.5l.32-.17.33-.2.32-.23.06.06.15.15.22.22.25.24.12.12.12.11.1.1.1.08.05.03.04.03.03.02.03.02h.03v-.03l-.01-.06c-.19-.56-.47-1.18-.6-1.76v-.04h.02c.31-.12 1.18-1 .95-2.17-.08-.36-.17-.5-.3-.69l-.21-.27-.12-.14a9.32 9.32 0 00-1.91-1.64l-.06-.06-.06-.06c-.14-.14-.3-.42-.19-.63l.02-.03.02-.02.03-.03c.6-.35 1.85 1.16 2.07 1.52l.1.14.09.13z" fill="#fff"/></svg>