<!-- by TradingView --><svg xmlns="http://www.w3.org/2000/svg" width="18" height="18" viewBox="0 0 18 18"><path fill="#F0F3FA" d="M0 0h18v18H0z"/><path d="M7.81 4a5.5 5.5 0 00-2.76 1.77c-.05 1.35.56 4.28 2.92 4.39.2 0 .52-.03.8-.18a.97.97 0 00.9-.26l-.03.11c-.2.69-1.38 1.72-3.01 1.14A5.5 5.5 0 014 8.53c-.05.59.04 2.05.8 3.22 1.24.47 4.18.81 5.02-1.43.07-.21.13-.54.04-.88a1 1 0 00-.05-.97c.08.03.16.07.24.13.57.41 1.16 1.87.09 3.26a5.45 5.45 0 01-3.1 1.73c.52.24 1.91.62 3.25.27.83-1.04 2.1-3.76.27-5.28a1.4 1.4 0 00-.93-.32.97.97 0 00-.85-.24c.04-.06.1-.1.16-.16.55-.44 2.1-.61 3.11.81.82 1.14.87 2.81.79 3.51A5.63 5.63 0 0014 9.08c-.76-1.1-2.98-3.08-4.93-1.72-.2.13-.44.4-.55.76a1 1 0 00-.49.62c-.25-.67.04-2.21 1.68-2.78a5.4 5.4 0 013.54.26 5.53 5.53 0 00-2.6-2.02c-1.25.4-3.77 2-3.05 4.28.05.19.19.44.4.64.04.3.2.55.43.7l-.06.01c-.7.02-2.04-.8-2.01-2.55.02-1.4.98-2.77 1.45-3.28z" fill="#ED1C24"/></svg>