<!-- by TradingView --><svg xmlns="http://www.w3.org/2000/svg" width="18" height="18" viewBox="0 0 18 18"><path fill="#B2CC35" d="M0 0h18v18H0z"/><path d="M14 9c0-2.72-2.22-5-5-5S4 6.22 4 9s2.22 5 5 5 5-2.28 5-5z" fill="#005CD7"/><path d="M5.5 3s-.29 2.93 2.08 4.65c0 0 .23.1.06.83-.17.71.87 1.43 1.22 1.49 0 0 .4.33-.12.55 0 0 .58 0 .4.44 0 0-.17.17-.46.4-.29.16-.63.38-.7.49-.05.1-.28.28-.74 0-.4-.28-.81-.28-.81-.28s-.12-.22.17-.27h.93s.11-.17-.06-.23h-.03c-.24-.08-1.44-.46-2-1 0 0-.11-.21.06-.21.18 0 .58.05.58.05s.12-.05-.35-.27C5.33 9.47 4 8.04 4 6.82c0 0 .17-.06.35 0 .03 0 .06.02.08.03.1.03.11.04.2-.09l-.01-.12C4.5 6.12 4.05 3.96 5.5 3zm4.05 6.8h.63s.24.17.35.22c.12.11.64.5.64.5l-1.1.11s-.23.06-.4.22c-.18.22-.53.5-.53.5s-.4.11-.11.17c.29.05 1.96 0 1.96 0s.35-.11.4-.22c.07-.12-.63-.17-.63-.17s-.17-.22.06-.22h.81s1.1-.22 1.5-1.22h-.63s-.18-.16 0-.16A3.33 3.33 0 0014 7.98s-1.39.83-2.08.94l-1.62.22s-.46-.06-.7.1c0 0-.17.4-.05.56zm-.4.56c.11-.06 0-.34 0-.34 0-.16 1.04 0 1.04.06.11 0 .4.39.4.39s-.52-.06-.7-.06c-.17 0-.51.44-.51.44l.05-.33c0-.16-.28-.16-.28-.16z" fill="#fff"/></svg>