<!-- by TradingView --><svg xmlns="http://www.w3.org/2000/svg" width="18" height="18" viewBox="0 0 18 18"><path fill="#F0F3FA" d="M0 0h18v18H0z"/><path d="M7.47 4.46c.28 4.1-2.86 6.49-4.47 7.16l.95.51c4-2.57 4.01-6.19 3.52-7.67z" fill="url(#aqf0hxmtg)"/><path d="M13.33 11.26c-3.4-2.23-3.39-6.23-2.96-7.94l-.97.47c-.36 4.8 2.47 6.98 3.93 7.47z" fill="url(#bqf0hxmtg)"/><path d="M5.24 13.26c3.46-2.14 7.1-.35 8.42.8v-1.08c-4.07-2.45-7.35-.84-8.42.28z" fill="url(#cqf0hxmtg)"/><path d="M8.11 6.4c-.26 3.54-3.18 5.7-4.53 6.3l.75.54C8 10.97 8.37 8.02 8.1 6.4z" fill="url(#dqf0hxmtg)"/><path d="M11.42 10.62C8.79 8.3 8.84 4.6 9.18 3.14l-.87.3c-.41 4.36 1.68 6.42 3.1 7.18z" fill="url(#eqf0hxmtg)"/><path d="M6.64 11.79c3.2-1.38 6.42.28 7.56 1.24l.13-.93c-3.66-2.3-6.4-1.28-7.69-.31z" fill="url(#fqf0hxmtg)"/><defs><linearGradient id="aqf0hxmtg" x1="7.55" y1="4.56" x2="3.39" y2="11.79" gradientUnits="userSpaceOnUse"><stop stop-color="#777574"/><stop offset=".56" stop-color="#B8B8B8"/><stop offset="1" stop-color="#777574"/></linearGradient><linearGradient id="bqf0hxmtg" x1="13.19" y1="11.26" x2="9.75" y2="3.65" gradientUnits="userSpaceOnUse"><stop stop-color="#777574"/><stop offset=".56" stop-color="#B8B8B8"/><stop offset="1" stop-color="#777574"/></linearGradient><linearGradient id="cqf0hxmtg" x1="5.3" y1="13.14" x2="13.5" y2="13.45" gradientUnits="userSpaceOnUse"><stop stop-color="#777574"/><stop offset=".56" stop-color="#B8B8B8"/><stop offset="1" stop-color="#777574"/></linearGradient><linearGradient id="dqf0hxmtg" x1="8.17" y1="6.75" x2="3.88" y2="12.97" gradientUnits="userSpaceOnUse"><stop stop-color="#99221F"/><stop offset=".67" stop-color="#E72D2E"/><stop offset="1" stop-color="#99221F"/></linearGradient><linearGradient id="eqf0hxmtg" x1="11.1" y1="10.46" x2="8.56" y2="3.31" gradientUnits="userSpaceOnUse"><stop stop-color="#99221F"/><stop offset=".67" stop-color="#E72D2E"/><stop offset="1" stop-color="#99221F"/></linearGradient><linearGradient id="fqf0hxmtg" x1="6.92" y1="11.57" x2="14.32" y2="12.45" gradientUnits="userSpaceOnUse"><stop stop-color="#99221F"/><stop offset=".67" stop-color="#E72D2E"/><stop offset="1" stop-color="#99221F"/></linearGradient></defs></svg>