<svg width="18" height="18" fill="none" xmlns="http://www.w3.org/2000/svg"><path fill="#3D7EDB" d="M0 0h18v18H0z"/><path d="M10 6l-6 .001V8h2v4h2V8h2V6zM12.882 6c-.417.013-.842.108-1.197.346a1.552 1.552 0 00-.678 1.01c-.063.356-.024.743.161 1.056.215.371.577.616.948.794.353.17.747.262 1.062.513a.74.74 0 01.292.495.745.745 0 01-.208.642c-.213.204-.514.258-.793.263a2.745 2.745 0 01-1.353-.374c-.074.297-.16.592-.224.892.305.17.644.267.985.32.395.065.797.057 1.19-.024.335-.071.663-.213.924-.45.276-.248.456-.594.506-.97.059-.408-.01-.85-.249-1.185-.192-.272-.466-.468-.753-.617-.376-.204-.8-.306-1.154-.554-.152-.105-.287-.26-.316-.455a.647.647 0 01.216-.616c.186-.157.433-.209.667-.215.396-.004.787.092 1.14.278.083-.287.165-.574.246-.862-.437-.224-.93-.293-1.412-.287z" fill="#fff"/></svg>