<svg width="18" height="18" fill="none" xmlns="http://www.w3.org/2000/svg"><path fill="#2E7DE1" d="M0 0h18v18H0z"/><circle cx="9" cy="9" r="9" fill="#2E7DE1"/><path d="M5.632 5.676c.848-.39 1.772-.597 2.7-.673.433-.001.865.006 1.298-.003 1.402.107 2.816.525 3.94 1.398.435.359.843.776 1.094 1.288-1.63-.357-3.287-.625-4.958-.674-.192-.013-.374.09-.374.332.005 1.885 0 3.77 0 5.656h-.664c0-1.9-.007-3.795 0-5.695 0-.2-.188-.314-.373-.292-1.673.056-3.337.312-4.967.689.155-.326.376-.614.63-.868.47-.498 1.054-.874 1.674-1.158z" fill="#fff"/><path d="M3.085 8.326a31.15 31.15 0 014.301-.559c.223-.014.482.108.545.337.058.34-.007.688-.073 1.023-.251 1.225-.503 2.45-.753 3.676-.99-.226-1.957-.628-2.75-1.275-.446-.372-.841-.82-1.087-1.351a2.732 2.732 0 01-.183-1.851zM10.4 7.803c.13-.056.275-.033.412-.027 1.336.08 2.66.277 3.976.513.046.016.127.01.135.075.16.63.066 1.315-.229 1.892-.297.59-.767 1.077-1.296 1.464a6.614 6.614 0 01-1.698.857c-.256.092-.521.152-.78.233-.203-1.034-.42-2.066-.632-3.099-.091-.507-.252-1.015-.206-1.536.007-.18.16-.313.318-.372z" fill="#fff"/></svg>