<!-- by TradingView --><svg xmlns="http://www.w3.org/2000/svg" width="18" height="18" viewBox="0 0 18 18"><path fill="#F0F3FA" d="M0 0h18v18H0z"/><path d="M13.33 11.78l-1.66-.56-.33-.13v-.94l.03-.03c.04-.04.12-.03.6.09l.44.1.05-.05c.03-.03.03-.06.03-.17 0-.12 0-.14-.04-.19-.07-.1-.12-.12-.55-.22-.23-.06-.42-.1-.47-.1a.6.6 0 00-.31.1 1.2 1.2 0 01-.5.07c-.16 0-.17 0-.2.04-.04.03-.05.04-.06.2v.2c-.01.1-.06.14-.26.25-.25.13-.26.13-.66-.03a3.03 3.03 0 01-.36-.16.18.18 0 00-.13-.04c-.1 0-.24-.03-.48-.11-.27-.1-.25-.06-.25-.56 0-.41 0-.44-.1-.48-.06-.03-.26-.02-.31.02-.08.06-.1.1-.12.28-.02.2-.03.22-.08.27a.31.31 0 01-.24.07l-.28-.08-.23-.07.01-.06c0-.05 0-.05-.03-.05-.07 0-.1.03-.14.09a.96.96 0 01-1.04.46 1 1 0 01-.74-1.1 1 1 0 01.79-.87c.27-.06.58.04.8.23.1.11.16.18.23.32.05.1.06.11.13.09l.28-.08a2344.3 2344.3 0 002.68-.7 5 5 0 011.22-.27h.17l.1-.1c.1-.1.1-.1.22-.14l.36-.1.37-.12a398.83 398.83 0 011.29-.4c.2-.06.26-.07.34-.06.08.01.96.44 1.02.5.07.07.08.13.08.4v.26l-.05.04-.08.04-1.7.32c-.08.02-.15.07-.15.12 0 .05.05.1.14.14.07.04.16.05.64.13 1.04.15 1.14.17 1.2.27v2.23l-1.07.7-.16.08-.44-.14zm.44-.08c.02 0 .03-.03.03-.1v-2c.01-.61.02-.62-.1-.73-.07-.07-.13-.09-.26-.1a12.99 12.99 0 01-.94-.16c-.15-.02-.2-.25-.09-.38a.19.19 0 01.11-.06 47.93 47.93 0 001.28-.26v-.89c0-.03-.03-.07-.07-.07-.06-.01-.06-.01-1.27.33a4.2 4.2 0 00-.93.28c-.12.08-.13.04-.13.95v.83l.06.03c.1.04.4.13.76.22l.36.11.07.07c.03.05.03.08.03.35 0 .4.01.39-.24.33l-.3-.06c-.55-.12-.58-.12-.62-.07V11l.08.04 1.74.56c.13.04.3.08.33.1.05.01.08.02.1 0zm-3.94-1.4l.02-.35.02-.3c.01-.01.03-.05.06-.05h.79c.07 0 .16 0 .18-.06V7.9c0-.03 0-.05-.04-.07a.2.2 0 00-.08-.03l-.6.17a252.68 252.68 0 01-.92.29v1.33c-.01.66-.03.59.11.65.07.03.37.12.43.12.02 0 .03-.01.03-.05zm.1-1.49v-.2l.05-.04c.06-.05.1-.06.2-.05.06 0 .07 0 .1.07.04.07.04.09.04.19 0 .07-.02.13-.03.17l-.03.06h-.34l.01-.2zm-1.01 1.2v-.84l-.02-.82h-.04c-.04 0-.2.04-.35.1l-.1.03v1.4l.04.03c.1.09.2.12.36.13.08 0 .1 0 .1-.02zm-1.5-.72c.02-.35 0-.33.55-.4l.14-.03V8.7c0-.15 0-.16-.02-.16l-.68.17-.82.2c-.26.06-.25.06.14.09l.26.03.06.13.02.2.02.14.06.01.16.01h.1l.02-.23z"/><path d="M6.03 12a3.03 3.03 0 100-6.05 3.03 3.03 0 000 6.05zM5.7 9.86c.38 0 .69-.4.69-.88 0-.49-.3-.88-.69-.88-.38 0-.69.4-.69.88s.31.88.7.88z" fill-opacity=".2"/></svg>