<!-- by TradingView --><svg width="18" height="18" viewBox="0 0 18 18" xmlns="http://www.w3.org/2000/svg"><path fill="#F0F3FA" d="M0 0h18v18H0z"/><path d="M6.75 11.252L3.001 9l5.373.645L9.001 15l-2.25-3.748zM9 15l.643-5.332L14.998 9l-3.748 2.252L9 15zM3.002 9L6.69 6.81 9 3l2.154 3.462.193.306L14.998 9c-2.002-.098-4.005-.32-5.996-.549l-6 .55z" fill="#07ADAA"/><path d="M6.75 11.25l1.624-1.602.627 5.35-2.251-3.747zm2.918-1.602L15 9l-3.75 2.25-1.582-1.603zM3 9l3.692-2.187 2.301 1.635L3 9.001zm6-3.254V3.002l2.347 3.768L9 8.45V5.747z" fill="#115B6E"/></svg>