<!-- by TradingView --><svg xmlns="http://www.w3.org/2000/svg" width="18" height="18" viewBox="0 0 18 18"><path fill="#FF1516" d="M0 0h18v18H0z"/><path fill-rule="evenodd" d="M12.72 12.47l1.41-.11.1-.01a45.65 45.65 0 01.77-.07l-.01-.03-.02-.06-.16-.4-2.32-5.94c-.05-.13-.12-.17-.24-.18a134 134 0 01-1.63-.15l-2.7-.27-1.24-.13L5.44 5c-.07 0-.1 0-.13.08a1672.73 1672.73 0 01-1.17 4.77c-.1.41-.18.84-.11 1.26.18 1.14 1.17 2 2.5 1.88a90.45 90.45 0 011.75-.15l1.47-.12 1.5-.13 1.47-.12zm-3.01-.25l1.5-.13 1.47-.12 1.4-.11.11-.01.1-.01-2.22-5.68-1.5-.15-2.7-.26a923.7 923.7 0 00-2.15-.22l-.54 2.2-.56 2.24c-.1.4-.15.74-.1 1.06.15.89.9 1.56 1.96 1.46m3.23-.27l-1.47.12-.5.04-1.26.11" fill="#fff"/><path d="M11.83 7.5h-.44v2.93c.01.03-.02 0 0 0h-.58V7.5h-.32v2.47h-.56V8.59h-.68c.56.98.48 1.87-.31 2.66-.59.58-1.39.7-2.15.35a1.96 1.96 0 01-1.15-1.76h.51c.06 0 .1.07.11.1.1.92 1.15 1.47 2.07 1 .5-.25.77-.96.6-1.56a1.82 1.82 0 00-.27-.53.61.61 0 00-.32-.23c-.16-.04-.18-.1-.18-.26 0 0-.02-.27.02-.32.03-.05.13-.05.2-.06.24-.06.4-.3.38-.56-.02-.29-.21-.52-.47-.55-.36-.05-.6.15-.7.57h-.58c.01-.47.22-.8.6-1.03.41-.25.82-.24 1.22.04.24.17.41.4.5.69.09.29.01.56-.1.85h.68v-.5l-.27-.01V6.9h2.19v.59z" fill="#F0F3FA"/></svg>