<!-- by TradingView --><svg xmlns="http://www.w3.org/2000/svg" width="18" height="18"><path fill="#DC0032" d="M0 0h18v18H0z"/><path fill-rule="evenodd" d="M4 14h10V6.5c0-1.19-.15-2.5-1.95-2.5H4v10zm2-1.58V8H5V6.1h3v6.32H6zm2.21-1.9c0 1.15 1.05 1.9 2.1 1.9 1.1 0 2.11-.7 2.11-1.9 0-.75-.3-1.2-.96-1.5.56-.27.85-.71.85-1.36 0-1.12-1-1.77-2.03-1.77-1.03 0-1.95.7-1.95 1.81 0 .68.3 1.1.93 1.33-.67.27-1.05.74-1.05 1.5zm1.42-.18c0-.28.18-.74.69-.74.5 0 .65.43.65.72 0 .3-.18.74-.65.74-.48 0-.7-.42-.7-.72zm.07-2.58c0-.23.17-.6.62-.6.4 0 .57.35.57.6 0 .24-.14.64-.6.64-.46 0-.6-.4-.6-.64z" fill="#fff"/></svg>