<!-- by TradingView --><svg xmlns="http://www.w3.org/2000/svg" width="18" height="18" viewBox="0 0 18 18"><path d="M0 9a9 9 0 1118 0A9 9 0 010 9z" fill="#3358A0"/><path fill="#fff" d="M5 5h8v8H5z"/><path d="M4 5.73v6.55L5.64 14H8.7v-3.44L7 8.84 8.7 6.8v-.77l-2.72 3 1.47 1.53v1.88H5.56V5.56h6.88v6.88h-1.88v-1.88l1.42-1.54L9.3 6.03v.77l1.62 2.1-1.62 1.68V14h2.98L14 12.23V5.75L12.2 4H5.62L4 5.73zM8.82 7.5a1.27 1.27 0 00-.95.55 1.28 1.28 0 00.52 1.86 1.28 1.28 0 001.69-.6c.08-.17.11-.3.12-.5a1.27 1.27 0 00-1.37-1.3z" fill="#53ADE4"/></svg>