<!-- by TradingView --><svg xmlns="http://www.w3.org/2000/svg" width="18" height="18"><path fill="#2B7EC0" d="M0 0h18v18H0z"/><path fill-rule="evenodd" d="M12 9.25h2.49c-.05.43-.23.86-.53 1.25h-2.18c.12-.39.2-.81.21-1.25zm-.74 1.25c.13-.38.21-.8.23-1.25H9.25v1.25h2zm-2.01.5h1.8c-.1.2-.2.37-.33.53-.4.54-.92.87-1.47.95V11zm-.5-.5V9.25H6.51c.02.45.1.87.23 1.25h2.01zm-1.8.5h1.8v1.48a2.28 2.28 0 01-1.47-.95 3.5 3.5 0 01-.33-.53zm-.73-.5c-.12-.39-.2-.81-.21-1.25H3.5c.05.43.23.86.53 1.25h2.18zM4.5 11h1.9c.23.54.56 1 .94 1.34A6.53 6.53 0 014.5 11zm7.1 0h1.9a6.53 6.53 0 01-2.84 1.33c.38-.34.7-.8.94-1.33zm.18-3.5c.12.4.2.81.21 1.25h2.5a2.55 2.55 0 00-.53-1.24h-2.18zM9.25 8.76h2.24c-.02-.45-.1-.86-.23-1.24H9.25v1.24zm-.5 0H6.51c.02-.45.1-.86.23-1.24h2.01v1.24zm-5.24 0h2.5c.02-.44.09-.86.2-1.24H4.05c-.3.39-.48.8-.53 1.24zm10-1.74a6.53 6.53 0 00-2.85-1.34c.38.34.7.8.94 1.34h1.9zm-2.46 0c-.1-.2-.2-.38-.33-.54a2.27 2.27 0 00-1.47-.95V7h1.8zm-2.3 0V5.5c-.55.09-1.06.42-1.47.96a3.5 3.5 0 00-.33.54h1.8zM6.4 7c.23-.54.56-1 .94-1.35A6.53 6.53 0 004.5 7.01h1.9zM9 13c-3.31 0-6-1.8-6-4s2.69-4 6-4 6 1.8 6 4-2.69 4-6 4z" fill="#fff"/><path d="M14.69 5.29C9.75 5.97 6.99 9 6.23 10.5h1.95L9.1 13c1.2-4.77 4.23-7.13 5.6-7.71z" fill="#CF3438"/></svg>