<!-- by TradingView --><svg xmlns="http://www.w3.org/2000/svg" width="18" height="18"><path fill="#F0F3FA" d="M0 0h18v18H0z"/><path d="M10.23 7.72L9.9 8.88c-.2.8-.41 1.58-.57 2.1a2.57 2.57 0 01-.51.64c-.69.6-1.72.94-2.6.8a1.63 1.63 0 01-.27-.04c-.55-.13-.92-.4-1.13-.74a1.98 1.98 0 01-.2-1.35c0-.07.02-.16.05-.27L5.7 6c.14-.68-1.32-.86-1.63.03l-.94 3.63-.08.4c-.14.86 0 1.69.4 2.37.43.7 1.13 1.22 2.13 1.45l.4.08a5.1 5.1 0 004.43-1.75c.16-.2.3-.44.4-.68l.03-.08c.16-.51.38-1.35.6-2.2.21-.8.3-1.07.45-1.6.15-.7-1.26-1.01-1.66.07z" fill="#ED1D24"/><path d="M7.75 10.36c.16-.51.12-.32.34-1.17.2-.8.42-1.6.57-2.13.05-.1.11-.2.2-.3.09-.13.2-.25.32-.35.69-.6 1.72-.95 2.6-.82l.26.05c.56.13.94.4 1.15.75.21.37.28.84.2 1.37l-.06.27-1.08 4.3c-.1.85 1.43.94 1.65-.02l.97-3.9a4.39 4.39 0 00.08-.42c.13-.87 0-1.7-.4-2.4a3.21 3.21 0 00-2.13-1.48l-.4-.07a5.1 5.1 0 00-3.88 1.19 3.8 3.8 0 00-.55.58 3.08 3.08 0 00-.4.69l-.04.08C7 7.1 6.78 7.95 6.56 8.8c-.22.82-.29 1.1-.45 1.62-.01.98 1.47.9 1.64-.07z" fill="#006CB7"/></svg>