<!-- by TradingView --><svg width="18" height="18" xmlns="http://www.w3.org/2000/svg"><path fill="#214191" d="M0 0h18v18H0z"/><path d="M2.996 9.25V6h1.5v3.25a1.5 1.5 0 003 0V6h1.5v3.25a3 3 0 11-6 0z" fill="#fff"/><path d="M12.675 5.81c.884-.009 1.833.193 2.267.313-.038.469.01 1.005.055 1.318-.7-.268-1.63-.492-2.323-.492-.367 0-.66.03-.863.122a.565.565 0 00-.247.197.537.537 0 00-.085.306c0 .378.272.567.48.614l.27.06c.488.11 1.102.25 1.433.31.288.052.728.192 1.087.494.355.297.636.756.611 1.461-.024.701-.36 1.158-.852 1.449-.5.294-1.164.419-1.836.436-1.025.026-2.212-.212-2.747-.352.004-.578-.04-1.14-.074-1.456.97.482 1.968.52 2.542.542l.027.001c.301.012.585.007.799-.062a.609.609 0 00.278-.172.515.515 0 00.122-.318.626.626 0 00-.208-.495.993.993 0 00-.402-.228l-1.532-.354h-.008a2.464 2.464 0 01-1.127-.48 1.513 1.513 0 01-.598-1.338c.049-.783.48-1.244 1.05-1.516.575-.275 1.29-.354 1.881-.36z" fill="#fff"/></svg>