<!-- by TradingView --><svg width="18" height="18" viewBox="0 0 18 18" xmlns="http://www.w3.org/2000/svg"><path fill="#9A1030" d="M0 0h18v18H0z"/><path d="M6.315 3.478l-.008-.04-.01.006c-.005.003-.009.005-.01.008a1.893 1.893 0 00-.005 1.2c.146.448.426.814.777 1.138.232.214.5.357.814.427a9.15 9.15 0 011.282.372c.01.004.022.006.034.008l.016.002.012-.014a.8.8 0 01-.027-.036c-.02-.026-.038-.052-.063-.07a5.396 5.396 0 00-.368-.272c-.121-.08-.245-.158-.369-.236-.138-.087-.276-.174-.412-.265a4.9 4.9 0 01-.993-.853 2.798 2.798 0 01-.641-1.233l-.03-.142zm.663 5.31a1.757 1.757 0 00-.147.143c-.033.033-.065.066-.098.097a.732.732 0 01-.718.19 1.317 1.317 0 00-.406-.047c-.15.012-.263.122-.267.26-.004.132.103.21.236.167a.45.45 0 00.078-.037l.044-.023a.57.57 0 00-.014.03.216.216 0 01-.02.038c-.08.109-.196.13-.323.113a.234.234 0 01-.204-.171c-.031-.101.011-.216.116-.287.05-.034.105-.063.16-.09l.074-.04.067-.038.043-.024-.021-.011c-.008-.004-.012-.007-.016-.006a.89.89 0 00-.394.126.553.553 0 00-.191.745.469.469 0 00.655.167.175.175 0 01.021-.01l.016-.008c-.07.146-.367.24-.65.137a.608.608 0 01-.377-.335c-.068-.163-.04-.324.022-.499l-.037.009-.052.012-.073.014c-.058.012-.115.024-.173.025-.156 0-.218-.107-.14-.234a.595.595 0 01.068-.084l.033-.038.012.007c.006.004.01.006.01.009.04.149.15.202.304.144a.511.511 0 00.204-.15l.092-.108.12-.14a.612.612 0 01.345-.215.954.954 0 01.161-.013L5.6 8.61h.021c.032 0 .065.001.069-.038.002-.042-.047-.052-.083-.054a.747.747 0 00-.139.008.59.59 0 01-.294-.022c-.116-.044-.179-.134-.176-.245a.168.168 0 01.08-.142.295.295 0 01.21-.038l-.01.006a.056.056 0 01-.015.007c-.065.018-.113.055-.119.12-.006.065.032.114.087.148.06.04.13.058.202.06h.008c.069.003.138.005.206 0 .207-.016.402.02.594.092.081.03.165.056.249.08l.024.008c.207.062.408.04.598-.05a2.49 2.49 0 00.314-.174c.322-.216.685-.3 1.073-.309H8.9a.41.41 0 00.136-.024c.1-.039.137-.134.093-.227-.052-.108-.151-.152-.268-.167a.932.932 0 00-.415.045 17.1 17.1 0 00-.644.233l-.059.023a3.842 3.842 0 01-.699.222c-.559.105-1.01-.07-1.371-.474a.075.075 0 01-.01-.02.278.278 0 00-.007-.017l.09.03c.066.02.128.04.191.057.26.07.522.066.786.026.256-.038.504-.105.752-.171l.225-.06c.24-.062.484-.11.733-.127a1.65 1.65 0 01.572.058c.15.043.28.114.354.267.026-.042.013-.073 0-.104v-.002a.522.522 0 00-.215-.238 1.53 1.53 0 00-.591-.207 4.638 4.638 0 00-.95-.042l-.155.008c-.402.02-.805.039-1.208.014-.397-.025-.78-.105-1.125-.311a1.862 1.862 0 01-.713-.778 4.243 4.243 0 01-.156-.368 9.583 9.583 0 00-.066-.166c-.002-.005-.001-.01 0-.018V5.51l.014.014.021.022c.43.492.978.815 1.612 1.014.314.1.637.162.965.196.185.02.37.036.555.052l.42.038.148.014c.285.026.57.053.847.128.134.036.267.084.389.145.27.137.435.348.46.645 0 .006.002.012.004.019l.002.006.005.005.01.008.009-.019a.126.126 0 00.012-.034.655.655 0 00-.216-.563 1.238 1.238 0 00-.398-.241 2.722 2.722 0 00-.702-.174c-.21-.025-.42-.044-.63-.062l-.345-.031c-.538-.053-1.075-.118-1.591-.283-.452-.144-.859-.36-1.194-.687a1.844 1.844 0 01-.541-.933 1.524 1.524 0 01-.033-.402.624.624 0 00.02.02c.009.009.014.014.018.02.354.571.874.96 1.501 1.232.446.193.913.326 1.387.441.175.043.351.085.527.126.34.082.68.163 1.018.248.292.074.577.17.842.311l.015.009c.045.023.09.047.14.067a.72.72 0 00-.036-.074c-.037-.07-.074-.143-.052-.243a.49.49 0 01.02.028c.011.017.02.03.033.038.024.013.057.027.083.022.038-.008.05-.046.043-.079a.302.302 0 00-.039-.106c-.016-.025-.037-.047-.058-.07a.986.986 0 01-.03-.032l-.032-.04a1.715 1.715 0 00-.02-.026l.006-.008.005-.005c.11 0 .201-.037.262-.126a.38.38 0 00.058-.33c-.009-.03-.02-.06-.032-.092a3.54 3.54 0 01-.018-.051c.11.034.155.115.201.203a.652.652 0 00.026-.082c.017-.066.035-.131.098-.18l.013.016.026.032c.062.078.097.086.19.043a4.18 4.18 0 01.66-.244l.01-.003a.688.688 0 01.053-.013.387.387 0 00.207-.111.224.224 0 01.288-.037c.06.034.075.061.057.124a.178.178 0 00.008.137c.039.083-.03.24-.118.281-.02.009-.04.016-.06.023l-.018.006a1.059 1.059 0 00-.534.399c-.04.056-.08.113-.114.172a.264.264 0 01-.27.137h-.081a.268.268 0 01.017.022c.008.011.014.02.021.02l.027.005c.049.008.099.017.148.015.07-.002.112.016.152.075.042.063.096.12.15.176l.039.042c.036.039.073.077.11.114.052.054.104.107.153.162.116.13.21.272.255.438a.872.872 0 01-.064.613l-.035.073a6.627 6.627 0 00-.023.046c.063.03.1.022.126-.036.04-.09.077-.18.1-.275.015-.058.02-.117.025-.179l.008-.089.015.004c.01.003.022.005.031.01a.97.97 0 00.67.09c.203-.04.405-.094.6-.16a.584.584 0 01.434.016c.276.115.557.22.85.287l.024.005.031.007c.083.02.088.025.085.107-.002.056.024.096.064.132l.048.043c.048.042.095.084.142.128l.008.008c.027.024.058.053.037.09-.018.033-.053.026-.087.02a2.662 2.662 0 01-.564-.138.673.673 0 01-.085-.037c-.037-.019-.044-.048-.026-.082l.017-.029.011-.017c.05-.083.038-.13-.055-.17a2.484 2.484 0 00-.226-.08l-.027-.009-.133-.04c-.077-.024-.155-.046-.23-.076-.143-.056-.242.005-.348.094.01.012.02.023.028.035.017.02.032.04.05.057.216.217.475.38.754.515l.16.076.07.033.002.015c.002.007.003.013.001.017-.03.076.005.131.063.179.025.021.05.042.077.062l.135.111c.028.025.061.054.034.11l-.042.001a.617.617 0 01-.099-.002 2.94 2.94 0 01-.562-.122c-.084-.029-.094-.042-.072-.125a.249.249 0 00-.035-.204.917.917 0 00-.134-.169 1.687 1.687 0 00-.52-.338c-.119-.05-.225-.05-.334.023a7.766 7.766 0 01-.344.212l-.04.024A3.91 3.91 0 0110.751 9a1.28 1.28 0 01-.092.016 1.324 1.324 0 00-.337.098c-.261.108-.537.16-.822.184-.357.03-.708-.01-1.058-.065-.195-.03-.363 0-.505.139a3.14 3.14 0 01-.26.228c-.279.216-.6.355-.942.457l-.017.005c-.125.037-.25.074-.372.117a.757.757 0 00-.47.428 2.45 2.45 0 01-.305.516c-.008.011-.015.024-.024.04a.36.36 0 01-.02.036l.048-.014a1.087 1.087 0 00.647-.523c.046-.083.087-.17.119-.26a.32.32 0 01.241-.21c.228-.06.451-.134.665-.232a2.5 2.5 0 00.676-.452 2.49 2.49 0 01.144-.126.325.325 0 01.224-.075c.048.002.095.009.148.015l.08.01-.028.04a1.837 1.837 0 01-.637.535 7.6 7.6 0 01-.458.212l-.18.08-.143.063c-.08.034-.16.068-.238.105a1.033 1.033 0 00-.376.311c-.4.531-.952.856-1.602 1.04-.078.023-.158.04-.237.058l-.098.023-.01.002a.093.093 0 01-.035.005c-.014-.002-.035-.01-.037-.02a.066.066 0 01.012-.046c.006-.008.018-.013.029-.018l.01-.004a.987.987 0 00.445-.416.501.501 0 00.036-.063c.02-.044.056-.06.105-.057h.029c.17.022.277-.062.358-.19.114-.18.18-.377.203-.583.014-.13.08-.21.205-.258.106-.041.212-.086.312-.14.247-.132.422-.33.534-.574.068-.146.13-.295.193-.443l.063-.146c.003-.007.003-.015.003-.029v-.032zm4.035-.396c.056.017.085.001.096-.04.01-.04.018-.08.02-.122.02-.355-.232-.703-.69-.79a.105.105 0 00-.029.002l-.026.005c.47.17.693.472.629.945zm-.392-2.713c-.1.007-.165.059-.224.117-.045.043-.091.09-.092.166l.065-.037c.05-.028.098-.054.144-.083.059-.035.105-.08.107-.163zm-3.422 4.73a2.445 2.445 0 00-.029.069c-.093.183-.168.562-.17.765-.003.312-.002.505-.001.731l.001.439c0 .486.463.733.803.844.211.07.493.066.712 0 .351-.105.485-.492.485-.844v-1.467c0-.049.002-.097.005-.145a1.194 1.194 0 00-.026-.393c-.004-.012-.006-.025-.009-.038l-.002-.012c0-.001 0-.003.003-.007l.004-.006.02-.006a.111.111 0 01.033-.007h2.115c.531.009 1.656.175 1.68.892.007.24-.115.416-.31.548-.16.11-.343.17-.525.217l.016.005.009.004.045.015c.268.079.55.186.742.4a.71.71 0 01.013.975c-.445.52-1.369.614-1.995.612-.393-.002-.87-.001-1.31 0H9a1.229 1.229 0 000-.142 1.318 1.318 0 010-.154c-.477.19-.755.298-1.272.296-.755-.003-1.592-.265-1.7-1.13a5.993 5.993 0 01-.024-.859c.003-.126.005-.25.004-.375 0-.055.015-.087.065-.117.164-.099.17-.133.183-.195a.499.499 0 01.103-.223c.122-.17.297-.407.492-.485a.915.915 0 00.166-.099c.06-.04.122-.083.182-.109zM10 12.165c-.014.297-.008.848 0 1.144.002.076.273.081.351.079l.051-.002c.303-.007.756-.019 1.018-.359.11-.16.072-.496-.083-.615-.263-.247-1.035-.247-1.337-.247zm0-.306c.257.07 1.093-.006 1.258-.224.109-.145.096-.416-.04-.535-.17-.148-.678-.124-1.01-.108-.083.003-.155.007-.208.007-.007.18-.005.362-.002.542.001.108.003.214.002.319zM8.6 7.304c-.391.01-.766.096-1.141.182l-.118.027-.04.009c-.201.045-.403.09-.607.119-.51.073-.98-.014-1.386-.33a1.353 1.353 0 01-.32-.345.178.178 0 01-.023-.055c.28.225.613.325.965.37.293.037.589.053.885.029.098-.008.195-.012.293-.016l.098-.004.22-.01c.207-.01.414-.021.62-.024.116-.001.231.01.346.02l.138.012a.2.2 0 01.046.01.499.499 0 00.024.006zM6.566 5.9c.176.046.352.09.528.137-.43-.38-.77-.812-.973-1.337 0 .176.004.35.02.523.013.14.047.28.109.41a.466.466 0 00.315.267z" fill="#fff"/></svg>