<!-- by TradingView --><svg width="18" height="18" viewBox="0 0 18 18" xmlns="http://www.w3.org/2000/svg"><path fill="#F0F3FA" d="M0 0h18v18H0z"/><path opacity=".5" d="M7.515 4.06c-1.03.188-2.014.685-2.748 2.03-.272.496-.889 1.812-.746 3.279.074.764.412 1.35.677 1.791a8.2 8.2 0 001.063 1.358c.65.681 1.559 1.373 2.395 1.464.363.04.786.021 1.216-.122.598-.2 1.223-.616 1.827-1.208.649-.636.894-1.009 1.199-1.353.48-.543.755-.832 1.152-1.261.592-.641.573-1.743.1-2.617-.537-.99-1.143-1.462-1.143-1.462s-1.016-1.087-2.453-1.627c-.895-.337-1.854-.397-2.54-.272z" fill="url(#paint0_linear)"/><path opacity=".5" d="M11.237 13.085c-.25.199-.849.547-1.589.668.073.001.149 0 .228-.002.25-.005.517.023.81.014.818-.025 1.053-.526 1.518-1.184.282-.4.464-.79.616-1.273.062-.196.123-.412.176-.672l-.133.145c-.376 1.013-.963 1.775-1.626 2.304z" fill="url(#paint1_linear)"/><path opacity=".7" d="M7.227 13.376c-.913-.414-1.114-.526-1.896-1.34l-.023-.024c.25.493.485.973.977 1.208.143.068.302.12.468.16.24.056.494.087.731.098a3.267 3.267 0 01-.257-.102z" fill="#FFB770"/><path opacity=".5" d="M13.104 9.95a3.12 3.12 0 01-.043.198 6.42 6.42 0 01-.198.633l.133-.145a6.94 6.94 0 00.07-.405l.038-.28z" fill="#FFE92C"/><path opacity=".5" d="M10.054 4.331a5.228 5.228 0 00-1.075-.275 4.629 4.629 0 00-1.464.004 4.14 4.14 0 00-.98.298c-.46.38-.884.912-1.228 1.496-.476.81-.92 1.924-1.045 2.522-.072.341-.112 1.02.02 1.289l.008.016a3.738 3.738 0 01.353-2.094c.063-.206.142-.4.238-.58a3.202 3.202 0 011.013-1.12 5.12 5.12 0 011.12-.847c.675-.547 1.32-.822 1.728-.868.155-.018.309-.02.46-.008.244.018.484.073.716.158.07.01.14.023.21.038a2.74 2.74 0 00-.074-.029z" fill="url(#paint2_linear)"/><path d="M9.202 4.163a2.453 2.453 0 00-.46.009c-.408.046-1.053.321-1.729.868.206-.118.429-.228.672-.335.654-.287 1.225-.415 1.748-.417.166-.001.327.01.485.034a2.666 2.666 0 00-.716-.159z" fill="#E94665"/><path d="M5.894 5.888A3.202 3.202 0 004.88 7.006c-.095.18-.175.375-.238.58.073-.147.157-.294.254-.439.336-.506.652-.914.997-1.26z" fill="#E94978"/><path opacity=".7" d="M13.17 7.795a4.871 4.871 0 00-.059-.415c-.11-.588-.305-.98-.443-1.2-.093-.15-.16-.22-.16-.22l-.062-.064c-.236-.234-1.125-1.068-2.318-1.536a3.262 3.262 0 00-.695-.073c-.523.003-1.094.13-1.748.418a7.335 7.335 0 00-.672.334c-.193.157-.39.336-.583.537l-.015.016A8.394 8.394 0 005.13 7.37c-.342.632-.552 1.237-.63 1.815-.019.143-.03.285-.032.424-.003.143.005.283.023.421.066.514.27 1.007.59 1.556.08.137.151.278.222.417l.027.033c.783.814.983.927 1.896 1.34.079.035.165.07.257.102.651.227 1.603.368 2.164.276.74-.122 1.339-.47 1.589-.669.663-.529 1.25-1.291 1.626-2.304.075-.201.141-.412.198-.633.015-.057.03-.124.043-.197.122-.971.116-1.668.067-2.156z" fill="url(#paint3_linear)"/><path opacity=".5" d="M11.563 5.002c-.466-.306-.932-.533-1.435-.642 1.193.469 2.082 1.302 2.318 1.536l.061.063s-.258-.507-.944-.957z" fill="#FFE1B1"/><path d="M8.562 13.388a3.825 3.825 0 01-.512.08c.538.187.947.281 1.598.286.36-.158.728-.39 1.092-.689a5.093 5.093 0 01-.757.303 2.35 2.35 0 01-1.421.02z" fill="#FF923A"/><path d="M12.882 9.351v.002c-.003.289-.149.95-.341 1.52.217-.202.34-.39.381-.534.102-.35.145-.45-.04-.988z" fill="#FFC93D"/><path d="M6.43 5.577c.194-.202.39-.381.583-.538-.43.244-.788.517-1.12.849a3.86 3.86 0 01.5-.294l.037-.017z" fill="#F95700"/><path d="M5.304 12.003c-.07-.14-.143-.28-.222-.417-.32-.55-.524-1.042-.59-1.556a2.851 2.851 0 01-.023-.42c.002-.14.013-.282.032-.425a4.1 4.1 0 01.142-1.599 3.74 3.74 0 00-.353 2.095c.082.724.35 1.376.657 1.858.117.185.24.344.361.473l-.004-.009z" fill="#F1838C"/><path d="M5.332 11.373a4.544 4.544 0 01-.83-2.188c-.02.143-.03.285-.033.424a2.85 2.85 0 00.023.421c.066.514.27 1.007.59 1.556.08.137.151.278.222.417l.027.033c.783.814.983.927 1.896 1.34.079.035.165.07.257.102.21.01.405.005.565-.01-.607-.21-1.702-.683-2.717-2.095z" fill="url(#paint4_linear)"/><path d="M9.918 4.322a3.195 3.195 0 00-.485-.034c-.523.002-1.094.13-1.748.417a7.331 7.331 0 00-.672.335 6.19 6.19 0 00-.583.537c.806-.388 1.96-.647 2.73-.633.361.007.87.098 1.445.217l.324.069c.175.038.328.074.463.11-.436-.46-.936-.821-1.474-1.018z" fill="url(#paint5_linear)"/><path d="M4.502 9.185c.077-.578.287-1.183.63-1.815a8.387 8.387 0 011.283-1.778l.015-.015-.037.017c-.18.09-.347.188-.5.294-.345.345-.66.753-.997 1.259a3.95 3.95 0 00-.253.44 4.107 4.107 0 00-.141 1.598z" fill="#ED504D"/><path d="M12.541 10.874c-.152.351-.405.692-.854.986a3.351 3.351 0 01-.881.404 5.364 5.364 0 01-.24.175c-.617.427-1.284.786-2.005.95.442.131.905.141 1.421-.021a4.99 4.99 0 00.758-.303c.71-.357 1.242-.884 1.617-1.72.066-.147.128-.304.184-.471z" fill="url(#paint6_linear)"/><path d="M12.882 9.353v-.002c-.13.467-.342.88-.714 1.408-.18.255-.357.496-.552.725.408-.2.712-.412.925-.61.193-.571.338-1.232.34-1.52z" fill="url(#paint7_linear)"/><path d="M13 8.293c-.188-1.246-.81-2.077-1.525-2.865a5.526 5.526 0 00-.083-.09 11.128 11.128 0 00-.463-.108l-.324-.069c-.575-.119-1.084-.21-1.445-.217-.77-.015-1.923.244-2.73.632l-.015.016A8.388 8.388 0 005.13 7.37c-.342.632-.552 1.237-.63 1.815a4.546 4.546 0 00.831 2.188c1.015 1.412 2.11 1.885 2.717 2.095.174-.015.345-.042.512-.08.72-.163 1.388-.522 2.005-.95a5.37 5.37 0 001.05-.955 8.746 8.746 0 00.552-.724c.372-.527.584-.941.714-1.408.093-.335.167-.729.117-1.058z" fill="url(#paint8_linear)"/><path d="M12.598 7.247a3.365 3.365 0 00-.143-.351 3.951 3.951 0 00-.44-.676 3.014 3.014 0 00-.441-.442c-.368-.296-.752-.455-1.123-.58-.793-.27-1.834-.214-2.938.264-1.045.453-1.64 1.003-1.954 1.494-.314.491-.435.94-.624 1.443-.124.329-.258.598.409 1.51.307.42.62.777.945 1.087a7.374 7.374 0 001.772 1.243c.647.308 1.01.265 1.448.232.321-.024.795-.057 1.297-.207.317-.247.576-.505.81-.78.195-.23.373-.47.552-.725.372-.527.584-.941.714-1.408 0-.624-.102-1.537-.284-2.104z" fill="url(#paint9_linear)"/><path d="M9.168 5.592c-.816-.26-1.62.197-2.123.412-.503.216-1.067.679-1.14 2.2-.04.821.098 1.998.384 2.792A7.366 7.366 0 008.06 12.24c.41.01.874-.039 1.362-.12.474-.078 1.078-.2 1.525-.357a6.2 6.2 0 00.668-.278c.195-.23.373-.47.552-.725.372-.527.584-.941.714-1.408-.143-.415-.353-.854-.91-1.604-.994-1.337-1.988-1.895-2.804-2.155z" fill="url(#paint10_linear)"/><path d="M6.289 10.996l.014.04c.242.65.591.967.976 1.09.226.072.49.107.782.113a7.358 7.358 0 01-1.772-1.243z" fill="#FEA500"/><path d="M10.806 12.264c.292-.088.594-.215.88-.403.45-.295.703-.636.855-.987-.213.198-.517.41-.925.61a5.362 5.362 0 01-.81.78z" fill="url(#paint11_linear)"/><path d="M9.84 6.282c-.586-.318-1.614.202-2.58.882-.966.68-.934 1.321-.679 1.922.257.605.638.796 1.254 1.55.617.754.936 1.497 2.118 1.179 1.182-.319 1.49-2.591 1.429-3.6-.062-1.009-.956-1.614-1.542-1.933z" fill="url(#paint12_linear)"/><path d="M9.918 9.596c.9 0 1.63-.753 1.63-1.683s-.73-1.683-1.63-1.683c-.9 0-1.63.754-1.63 1.683 0 .93.73 1.683 1.63 1.683z" fill="url(#paint13_linear)"/><defs><linearGradient id="paint0_linear" x1="4.581" y1="6.402" x2="12.978" y2="11.319" gradientUnits="userSpaceOnUse"><stop stop-color="#F26BC7"/><stop offset=".481" stop-color="#FFA97F"/><stop offset=".822" stop-color="#FFC358"/><stop offset=".998" stop-color="#F69A5C"/></linearGradient><linearGradient id="paint1_linear" x1="10.432" y1="13.836" x2="13.03" y2="10.661" gradientUnits="userSpaceOnUse"><stop offset=".015" stop-color="#FF720C"/><stop offset=".515" stop-color="#FFC100"/><stop offset=".993" stop-color="#FED899"/></linearGradient><linearGradient id="paint2_linear" x1="9.094" y1="3.478" x2="3.779" y2="9.008" gradientUnits="userSpaceOnUse"><stop offset=".028" stop-color="#FA916A"/><stop offset=".264" stop-color="#F47896"/><stop offset=".993" stop-color="#F5817D"/></linearGradient><linearGradient id="paint3_linear" x1="11.942" y1="5.409" x2="5.855" y2="12.745" gradientUnits="userSpaceOnUse"><stop offset=".003" stop-color="#FFE272" stop-opacity=".5"/><stop offset=".412" stop-color="#FFE340"/><stop offset=".75" stop-color="#FF8C5A"/></linearGradient><linearGradient id="paint4_linear" x1="4.374" y1="9.989" x2="8.132" y2="14.027" gradientUnits="userSpaceOnUse"><stop stop-color="#F66929"/><stop offset=".473" stop-color="#FD7F2F"/><stop offset="1" stop-color="#FF9F2E"/></linearGradient><linearGradient id="paint5_linear" x1="6.452" y1="5.029" x2="11.404" y2="4.774" gradientUnits="userSpaceOnUse"><stop offset=".023" stop-color="#F2552F"/><stop offset=".995" stop-color="#FD7E2F"/></linearGradient><linearGradient id="paint6_linear" x1="8.843" y1="13.657" x2="12.543" y2="11.573" gradientUnits="userSpaceOnUse"><stop stop-color="#FF8533"/><stop offset=".484" stop-color="#FF9C32"/><stop offset=".992" stop-color="#FFB934"/></linearGradient><linearGradient id="paint7_linear" x1="11.817" y1="11.598" x2="13.174" y2="9.486" gradientUnits="userSpaceOnUse"><stop stop-color="#FF9F06"/><stop offset=".992" stop-color="#FFAD02"/></linearGradient><linearGradient id="paint8_linear" x1="6.221" y1="6.194" x2="11.613" y2="11.421" gradientUnits="userSpaceOnUse"><stop stop-color="#EB2E1D"/><stop offset=".425" stop-color="#FF800A"/><stop offset=".697" stop-color="#FFA102"/><stop offset=".994" stop-color="#FFCA37"/></linearGradient><linearGradient id="paint9_linear" x1="7.245" y1="5.595" x2="11.3" y2="12.097" gradientUnits="userSpaceOnUse"><stop offset=".023" stop-color="#F75002"/><stop offset=".475" stop-color="#FF9F00"/><stop offset=".987" stop-color="#FFD552"/></linearGradient><linearGradient id="paint10_linear" x1="7.757" y1="5.731" x2="10.556" y2="12.088" gradientUnits="userSpaceOnUse"><stop offset=".022" stop-color="#FF8700"/><stop offset=".371" stop-color="#FFB000"/><stop offset=".658" stop-color="#FFB808"/><stop offset=".996" stop-color="#FFCC3A"/></linearGradient><linearGradient id="paint11_linear" x1="10.829" y1="12.296" x2="12.619" y2="11.031" gradientUnits="userSpaceOnUse"><stop stop-color="#FEA512"/><stop offset=".992" stop-color="#FFAB10"/></linearGradient><linearGradient id="paint12_linear" x1="8.145" y1="6.689" x2="10.547" y2="11.587" gradientUnits="userSpaceOnUse"><stop offset=".023" stop-color="#FFB100"/><stop offset=".51" stop-color="#FEB705"/><stop offset="1" stop-color="#FFC72F"/></linearGradient><linearGradient id="paint13_linear" x1="8.287" y1="7.913" x2="11.546" y2="7.913" gradientUnits="userSpaceOnUse"><stop offset=".029" stop-color="#FFB301" stop-opacity=".972"/><stop offset="1" stop-color="#FFBD12" stop-opacity="0"/></linearGradient></defs></svg>