<!-- by TradingView --><svg xmlns="http://www.w3.org/2000/svg" width="18" height="18" viewBox="0 0 18 18"><path fill="#00539B" d="M0 0h18v18H0z"/><path d="M3 9.01c.27-3.18 8.18-4.06 12-4C8.6 5.25 4.9 7 4.9 9c0 2.57 6.74 3.97 10.1 3.97-5.11.2-12-1.23-12-3.97zm3.3-.19C6.5 6.61 12.23 6 15 6.03c-4.64.18-6.83 1.39-6.83 2.8 0 1.77 4.4 2.75 6.83 2.75-3.7.13-8.7-.86-8.7-2.76zM15 6.97c-1.74-.02-5.33.36-5.46 1.7 0 1.17 3.14 1.77 5.46 1.7-1.4-.14-3.57-.71-3.57-1.7 0-.82 1.05-1.43 3.57-1.7z" fill="#fff"/></svg>