<!-- by TradingView --><svg xmlns="http://www.w3.org/2000/svg" width="18" height="18" viewBox="0 0 18 18"><path fill="#F0F3FA" d="M0 0h18v18H0z"/><path d="M5.99 13C2.82 12.96 3 11.33 3 11.33c.12-2.04 3.54-3.29 3.54-3.29s-3.9 2.55-.83 3.68c0 0 3.24 1.06 8.02-1.26 0 0-3.52 2.59-7.74 2.54z" fill="#F2992A"/><path d="M11.51 6.61s1.02.08 1.6.61c.83.75.21 2.6-4.97 4.6 0 0 1.98-.19 3.97-1.16a6.47 6.47 0 002.7-2.08c.46-.7.31-2.17-3.3-1.97z" fill="#9F9F9F"/><path d="M8.43 6l-.3.46.83 1 .84-1L9.55 6H8.43zm1.7 0l-.32.46.55.64-1.4 1.46L7.57 7.1l.55-.64L7.79 6H7.2l-.78 1.06 2.54 2.93V10l2.55-2.94L10.7 6h-.57z" fill="#2B2C7C"/></svg>