<!-- by TradingView --><svg xmlns="http://www.w3.org/2000/svg" width="18" height="18"><path d="M0 9a9 9 0 1118 0A9 9 0 010 9z" fill="#F0F3FA"/><path d="M9.9 3.02l-2 .59a.5.5 0 00-.33.3L4.5 12.36c.65 1.02 2.36-.4 3.13-1.23l1.82-4.98.21.26 1.07-2.8-.24-.37a.52.52 0 00-.59-.2z" fill="url(#agchp3qnw)"/><path d="M13.37 7.5l-2.68-3.95c-.14-.03-.26.07-.34.18l-.1.23-.8 2.18 2.31 3.43c.8.98.46 1.3.15 1.6l.2-.12c.26-.16.46-.4.57-.7l.78-2.18a.74.74 0 00-.09-.67z" fill="url(#bgchp3qnw)"/><path d="M12.03 9.95l-.87-1.28a209.67 209.67 0 01-5.45 3.7.91.91 0 01-.93-.01l-.23-.14c-.13.16.03.36.13.44l1.73 1.7a.5.5 0 00.62.06l4.61-3.07c.14-.1.35-.22.42-.28.2-.2.32-.62-.03-1.12z" fill="url(#cgchp3qnw)"/><defs><linearGradient id="agchp3qnw" x1="8.84" y1="3.46" x2="6.09" y2="12.77" gradientUnits="userSpaceOnUse"><stop stop-color="#F7941E"/><stop offset="1" stop-color="#91291D"/></linearGradient><linearGradient id="bgchp3qnw" x1="10.15" y1="4.88" x2="12.84" y2="9.48" gradientUnits="userSpaceOnUse"><stop stop-color="#292269"/><stop offset="1" stop-color="#918BC3"/></linearGradient><linearGradient id="cgchp3qnw" x1="11.74" y1="9.72" x2="5.27" y2="14.15" gradientUnits="userSpaceOnUse"><stop stop-color="#036331"/><stop offset="1" stop-color="#4DB848"/></linearGradient></defs></svg>