<!-- by TradingView --><svg xmlns="http://www.w3.org/2000/svg" width="18" height="18" viewBox="0 0 18 18"><path fill="#007D39" d="M0 0h18v18H0z"/><path fill-rule="evenodd" d="M12.54 6.55A3.55 3.55 0 019.83 10a1.37 1.37 0 00.24-.89c-.05-.64-.5-1.14-1.06-1.14A1.06 1.06 0 007.95 9.1v.1c0 .3.1.58.24.79a3.55 3.55 0 01.82-7 3.54 3.54 0 013.53 3.55zM7.68 9.43a2.64 2.64 0 01-1.5-2.35c0-1.47 1.27-2.66 2.83-2.66s2.82 1.19 2.82 2.66c0 1.02-.6 1.9-1.5 2.35.28-.35.45-.8.45-1.29 0-1.07-.8-1.77-1.77-1.77s-1.76.7-1.76 1.77c0 .5.16.94.43 1.29zm.07.57l.85 1.33V10h.73v1.33l.85-1.33h2.27c.42 0 .68.4.48.74L11 14H9.36v1h-.7v-1H7.3l-2.23-3.23c-.22-.34.04-.77.47-.77h2.2zm2.82.42l-1 1.66a.15.15 0 00.01.17l.9 1.16c.03.04.1.04.12 0l1.8-2.98c.02-.04-.01-.1-.07-.1h-1.6a.19.19 0 00-.16.09z" fill="#fff"/></svg>