<!-- by TradingView --><svg width="18" height="18" viewBox="0 0 18 18" xmlns="http://www.w3.org/2000/svg"><path fill="#F0F3FA" d="M0 0h18v18H0z"/><path d="M8.724 6.626c-.094-.71-.812-1.372-2.09-1.748-.11-.033-.37-.09-.59.078a7.548 7.548 0 00-.354.283c-.241.21.073.296.245.325 1.205.205 2.435.7 2.64 1.63.086.39.115 2.268 4.807.463.133-.052.427-.148.32-.432a4.733 4.733 0 00-.117-.281c-.11-.24-.352-.164-.468-.116-1.819.758-4.193 1.315-4.393-.202z" fill="#26588D"/><path d="M8.724 8.055c-.12-.909-1.262-1.736-3.288-1.992-.148-.018-.462-.05-.621.188-.06.09-.12.18-.169.276-.141.278.116.351.276.358 1.423.063 3.388.541 3.653 1.737.087.397.115 2.332 5.043.372.13-.052.407-.166.38-.484a3.581 3.581 0 00-.044-.344c-.037-.195-.325-.133-.471-.067-1.848.83-4.545 1.577-4.76-.044z" fill="#26588D"/><path d="M8.724 9.508c-.136-1.027-1.576-1.95-4.123-2.06-.117-.006-.35-.014-.426.222-.043.129-.07.264-.092.4-.048.294.203.267.344.263 1.41-.038 3.85.4 4.148 1.743.087.393.114 2.296 4.91.423.112-.043.345-.123.407-.41.035-.162.07-.347.082-.42.046-.303-.19-.256-.31-.2-1.848.862-4.72 1.714-4.94.04z" fill="#26588D"/><path d="M8.724 10.962c-.137-1.04-1.612-1.973-4.22-2.064-.163-.006-.514-.05-.504.197.007.155.015.308.031.46.024.22.337.232.51.23 1.423-.012 3.745.437 4.034 1.745.08.364.11 2.03 3.943.773.11-.037.374-.155.529-.355.166-.214.303-.449.428-.69.13-.251-.08-.212-.2-.16-1.835.79-4.345 1.426-4.551-.136zM8.575 5.764c.084.38.113 2.16 4.404.614.082-.03.212-.162.105-.302-.091-.121-.183-.242-.281-.357-.096-.111-.306-.078-.395-.046-1.673.592-3.509.85-3.684-.476-.04-.308-.199-.606-.469-.876-.079-.08-.3-.234-.542-.165-.12.034-.24.07-.36.11-.212.072-.036.257.11.327.567.273.998.655 1.112 1.171z" fill="#75C044"/><path d="M12.009 4.98a4.127 4.127 0 00-.507-.332c-.121-.065-.38-.06-.474-.042-.986.19-1.847.13-2.175-.459-.027-.048-.067-.157-.203-.146-.07.005-.172.028-.13.13.024.058.041.118.055.18.076.344.165 2.04 3.346.954.251-.086.169-.224.088-.284zM9.28 14s1.577-.11 2.849-.962c0 0 .032-.376-1.05-.11-1.082.267-1.773 1-1.799 1.072zM7.688 13.101c-1.017-1.086-2.5-1.88-2.119-1.86 0 0 2.326.525 3.453 2.75h.02s.002-.893-.322-1.61c-.823-1.821-4.143-2.002-4.143-2.002-.31-.02-.243.282-.243.282s.141 1.193 1.661 2.305c.85.622 1.704.869 2.29.966a3.949 3.949 0 00-.597-.83z" fill="#75C044"/></svg>