<!-- by TradingView --><svg width="18" height="18" viewBox="0 0 18 18" xmlns="http://www.w3.org/2000/svg"><path fill="#F0F3FA" d="M0 0h18v18H0z"/><path d="M6.747 4.435L7.007 4l1.819 2.11-.26.434-1.819-2.11zm-.265.445l-.266.445 1.818 2.108.266-.444L6.482 4.88zm-.789 1.323l.258-.433 1.816 2.107-.259.432-1.815-2.106zm-.508.852L6.97 9.207l.271-.453-1.815-2.105-.242.406z" fill="#F58323"/><path d="M14.174 10.001a3.28 3.28 0 01-4.828 2.893l.787-1.815a1.32 1.32 0 10-.329-1.822l-1.422 2.519-.997 1.933-3.438-4.52.995-1.669 1.846 2.16.275.362 1.041-1.775a3.283 3.283 0 012.79-1.546 3.28 3.28 0 013.28 3.28z" fill="#5D7C38"/></svg>