<!-- by TradingView --><svg width="18" height="18" xmlns="http://www.w3.org/2000/svg"><path fill="#EE1D23" d="M0 0h18v18H0z"/><path d="M3.651 11.921l-.65-4.815C2.993 7.05 3.033 7 3.084 7h1.18c.042 0 .077.033.084.079l.495 3.532 2-3.567A.083.083 0 016.915 7h1.32c.066 0 .106.08.07.142l-1.728 3.013-1.565.456 1.428-.218-.897 1.564A.083.083 0 015.47 12H3.734c-.041 0-.077-.034-.083-.079zm4.176-1.74l-.962 1.677c-.035.062.005.142.072.142h1.32a.083.083 0 00.07-.043l1.165-2.03-1.665.254zm3.053-.466l3.278-.5c.308-.047.522-.36.478-.697-.047-.364-.374-.602-.699-.507l-2.497.727.869-1.514.12-.22h.03A.078.078 0 0112.484 7h1.32a.08.08 0 01.025.004h.915c.945 0 1.55 1.103 1.109 2.02-.387.803-1.153 1.299-1.981 1.282H12.08l-.968 1.65a.083.083 0 01-.071.044H9.72c-.066 0-.107-.08-.071-.142l1.23-2.143zm-.96-.534l-1.824.532 1.532-2.67A.083.083 0 019.699 7h1.32c.066 0 .107.08.071.142l-1.17 2.04z" fill="#fff"/></svg>