<!-- by TradingView --><svg xmlns="http://www.w3.org/2000/svg" width="18" height="18" viewBox="0 0 18 18"><path fill="#F0F3FA" d="M0 0h18v18H0z"/><ellipse cx="9" cy="9" rx="4" ry="6" fill="#FAD403"/><path d="M10.75 5.28l.12.5h-.16l-.07-.22h-.5v1.8h-.32v-1.8h-.5l-.1.21h-.16l.16-.49h1.53z" fill="#fff"/><path d="M9.2 5.25h1.58l.13.56h-.23l-.07-.22h-.43v1.8h-.4v-1.8h-.44l-.1.22h-.23l.19-.56zm.05.07l-.15.42h.1l.1-.22h.56v1.8h.25v-1.8h.55l.07.22h.1l-.1-.42H9.24z"/><path d="M9.66 4.31v.7h-.21c-.02-.16-.15-.48-.52-.48a.45.45 0 00-.48.41c0 .07-.02.19.33.5.44.39 1 .8 1 1.37 0 .57-.33.96-.85.98-.4.02-.83-.2-.98-.3v-.52h.18c.07.44.59.5.74.48.16-.02.5-.15.52-.55a.85.85 0 00-.32-.66c-.34-.18-1.02-.68-1-1.23.02-.68.64-.76.86-.75.19 0 .42.1.52.15v-.1h.2z" fill="#fff"/><path d="M8.4 4.35a1.02 1.02 0 01.84-.06l.17.07v-.08h.28v.77h-.27v-.03a.6.6 0 00-.13-.29.44.44 0 00-.36-.16.43.43 0 00-.34.14.43.43 0 00-.1.24c0 .03 0 .07.03.14s.11.17.29.32l.14.13c.18.15.37.32.52.5.2.22.34.48.34.77 0 .3-.08.54-.23.72a.87.87 0 01-.64.3c-.22 0-.43-.04-.6-.1a1.95 1.95 0 01-.41-.22H7.9v-.57h.26v.03c.03.2.17.32.31.38.16.07.32.08.39.07.07-.01.2-.05.3-.13a.5.5 0 00.18-.39.8.8 0 00-.3-.63 2.65 2.65 0 01-.64-.48c-.21-.22-.39-.49-.38-.78a.73.73 0 01.38-.66zm.04.06a.67.67 0 00-.34.6c0 .27.15.52.36.73.2.22.46.38.63.47.12.1.34.36.33.7 0 .2-.1.35-.21.44a.7.7 0 01-.33.13.89.89 0 01-.42-.06A.56.56 0 018.1 7h-.13v.46a1.75 1.75 0 00.95.29.8.8 0 00.6-.27c.13-.17.21-.4.21-.68 0-.27-.13-.5-.32-.73-.15-.18-.34-.34-.52-.5a.53.53 0 01-.14-.12 1.3 1.3 0 01-.3-.34c-.04-.08-.04-.13-.04-.17v-.01a.5.5 0 01.11-.28.5.5 0 01.4-.16c.2 0 .33.08.42.2.07.09.11.2.13.28h.14v-.63h-.14v.12l-.05-.03a1.74 1.74 0 00-.22-.09l-.28-.06a1 1 0 00-.49.12z"/><path d="M7.94 4.93h-.82v.2h.24l.96 1.9.85-1.9h.18v-.2h-.7v.2h.17l-.5 1.24-.6-1.28h.22v-.16z" fill="#fff"/><path d="M7.09 4.9h.88v.23h-.2l.55 1.15.45-1.12h-.15V4.9h.76v.26H9.2l-.86 1.95-1-1.95H7.1V4.9zm.07.07v.13h.22l.94 1.85.82-1.85h.17v-.13H8.7v.13h.18l-.54 1.35-.67-1.39h.24v-.1h-.74z"/><path d="M11.22 12.9c.07-.03.11-.1 0-.22l-.22-.26V8.46h-.1V7.7h.15v-.52h-.16V6.9h.16v-.5l-.39-.3-.33.3v.48h.16v.28h-.16v.43l-.46.37v1.05h-.5V8.6l-.33-.38V8.2l-.02.02L9 8.2v.05l-.34.37v.41h-.49V7.97l-.46-.37v-.43h-.16V6.9h.16v-.47l-.33-.3-.4.3v.47h.17v.28h-.16v.52h.16v.77H7v3.96l-.18.26c-.12.14-.07.19 0 .22h1.56v-1.36l.64-.54.6.54v1.36h1.6z" fill="#747777"/><path d="M7.14 6.47v.32h.43v-.32l-.22-.16-.21.16zm3.76.01v.32h-.43v-.32l.22-.16.21.16zM7.59 7.75h-.34v.74h.34v-.17h.4v-.35h-.4v-.22zm2.86.01h.34v.74h-.34v-.17h-.4v-.34h.4v-.23z" fill="#fff"/><path d="M7.77 9.77v-.75h2.46v.75H7.77z" fill="#393939"/><path fill="#fff" d="M7.05 9.02h.68v.79h-.68zm0 3.48h1.13v.24H7.05zm2.76 0h1.16v.24H9.81zm.47-3.49h.7v.8h-.7zm-1.53-.35l.28-.2.24.2v.35h-.52v-.35z"/><path d="M7.57 10.97h.42v1.4h-.42zm2.45 0h.42v1.4h-.42z"/><path fill="#fff" d="M7.77 9.81h2.46v.76H7.77z"/><path d="M8.38 12.9l.31-.28v-1.01l.3-.26.32.26v1.01l.3.28v-1.4L9 10.97l-.6.53v1.4z"/><path d="M9 10.91l-.75.61v-.86h1.5v.86l-.75-.6z" fill="#fff"/></svg>