<!-- by TradingView --><svg xmlns="http://www.w3.org/2000/svg" width="18" height="18"><path fill="#F0F3FA" d="M0 0h18v18H0z"/><path d="M13.5 11.9c-.84-3.2-2.73-6.28-5.24-5.36-.26 1.86.43 5.6 5.25 5.36z" fill="#4895D1"/><path d="M4.27 4.01c-.76 2.78-.4 8.86 7.15 10.99.35-2.5-.58-8.2-7.15-10.99z" fill="#A3238F"/><path d="M11.18 11.64c-4.4-.7-6.9-4.82-6.9-7.63 5.46 2.26 6.5 6.16 6.9 7.6v.03z" fill="#592D91"/><path d="M4.28 4.02c2.48 0 7.03.02 9.72 4.45-2.98.73-5.18.09-9.72-4.45z" fill="#39B54A"/><path d="M4.27 4.02c2.28-.24 6.81 2.35 7.95 4.71-2.1.04-4.42-.18-7.95-4.71z" fill="#008849"/><path d="M4.27 4.01c.99 2.8 3.92 4.25 5.6 4.5A11.22 11.22 0 004.28 4z" fill="#413639"/></svg>